<svg xmlns="http://www.w3.org/2000/svg" width="168.024" height="140.87" viewBox="0 0 168.024 140.87">
  <g id="Grupo_17846" data-name="Grupo 17846" transform="translate(-820.001 -2503.584)">
    <g id="Grupo_16847" data-name="Grupo 16847" transform="translate(724.018 815.881)">
      <path id="Trazado_45090" data-name="Trazado 45090" d="M96.279,1743.292q-.108,21.354-.219,42.709-.037,7.475-.077,14.948c-.005,1.291,2.207,2.983,2.939,3.807q4.511,5.061,9.015,10.125,3.987,4.475,7.97,8.953c.837.94,1.9,2.874,3.378,2.643l14.668-2.3q23.566-3.7,47.129-7.4l1.271-.2a1.355,1.355,0,0,0,.981-1.287q1.192-10.552,2.389-21.1c.524-4.624-.1-8.216-.853-12.865q-2.1-13.031-4.205-26.06c-.228-1.405-.14-3.684-.882-4.953-1.049-1.79-4.171-3.3-5.761-4.51q-5.16-3.937-10.32-7.877c-.966-.736-3.1-3.176-4.513-3.013l-15.881,1.819-45.257,5.181c-.145.017-.292.035-.436.05-1.691.194-1.708,2.867,0,2.672q20.747-2.378,41.5-4.752l19.226-2.2c.937-.107.911.182.347-.25q1.156.883,2.314,1.767l10.843,8.275,4.331,3.306c1.276.972,1.365,1.763,1.179.608q.574,3.558,1.148,7.119,2.115,13.095,4.227,26.192c.878,5.438.428,8.614-.239,14.5q-.708,6.264-1.418,12.529-.189,1.659-.376,3.319c.07-.618,1.714-1.152.009-.884l-44.428,6.974-17.065,2.68c-1.395.218.5.3.5.286l-1.908-2.143q-3.985-4.476-7.971-8.955-4.237-4.757-8.474-9.517l-2.539-2.852c-1.009-1.134-.158.47-.157.057q.043-8.383.087-16.768.1-20.307.208-40.619A1.336,1.336,0,0,0,96.279,1743.292Z" fill="#575756"/>
    </g>
    <g id="Grupo_16848" data-name="Grupo 16848" transform="translate(724.018 815.881)">
      <path id="Trazado_45091" data-name="Trazado 45091" d="M96.966,1744.827l17.516,14.011c1.035.829,2.032.476,3.279.335l10.918-1.23,49.951-5.628c1.691-.191,1.71-2.863,0-2.671l-46.991,5.295-11.741,1.323-3.284.369c-1.382.157-.454.151-.245.32l-17.514-14.013c-1.331-1.064-3.233.813-1.889,1.889Z" fill="#575756"/>
    </g>
    <g id="Grupo_16849" data-name="Grupo 16849" transform="translate(724.018 815.881)">
      <path id="Trazado_45092" data-name="Trazado 45092" d="M114.317,1759.259l4.692,36.172c1.249,9.62-.812,20.1-1.441,29.762-.113,1.721,2.558,1.71,2.67,0,.615-9.422,2.733-19.815,1.517-29.191q-2.385-18.372-4.768-36.743c-.219-1.683-2.892-1.7-2.67,0Z" fill="#575756"/>
    </g>
    <g id="Grupo_16850" data-name="Grupo 16850" transform="translate(724.018 815.881)">
      <path id="Trazado_45093" data-name="Trazado 45093" d="M121.565,1802.58c21.275-2.612,42.452-6.462,63.626-9.787,1.7-.267.973-2.839-.71-2.576-20.937,3.289-41.879,7.111-62.916,9.691-1.686.208-1.707,2.879,0,2.672Z" fill="#575756"/>
    </g>
    <g id="Grupo_16851" data-name="Grupo 16851" transform="translate(724.018 815.881)">
      <path id="Trazado_45094" data-name="Trazado 45094" d="M127.357,1758.353q2.394,15.522,4.787,31.046a1.055,1.055,0,0,0,1.284.729l33.948-5.617a1.059,1.059,0,0,0,.729-1.286l-4.434-29.27c-.2-1.33-2.216-.763-2.016.555q2.217,14.635,4.435,29.272c.243-.43.487-.857.731-1.287q-16.976,2.81-33.948,5.617c.428.246.857.488,1.285.732q-2.394-15.522-4.785-31.047c-.205-1.328-2.219-.762-2.016.556Z" fill="#575756"/>
    </g>
    <g id="Grupo_16852" data-name="Grupo 16852" transform="translate(724.018 815.881)">
      <path id="Trazado_45095" data-name="Trazado 45095" d="M173.778,1752.144q3.328,17.962,6.653,35.925c.244-.428.486-.857.731-1.286l-57.214,8.584,1.323,1.007q-2.553-19.149-5.1-38.3c-.175-1.315-2.268-1.332-2.09,0q2.553,19.151,5.1,38.3a1.075,1.075,0,0,0,1.323,1.008l57.214-8.583a1.057,1.057,0,0,0,.73-1.285q-3.329-17.964-6.653-35.926c-.246-1.323-2.26-.762-2.016.556Z" fill="#575756"/>
    </g>
    <g id="Grupo_16853" data-name="Grupo 16853" transform="translate(724.018 815.881)">
      <path id="Trazado_45096" data-name="Trazado 45096" d="M134.765,1761.092q1.478,10.792,2.957,21.584c.108.781,1,1.029,1.643.933l21.878-3.253c.775-.115,1.037-1,.934-1.642q-1.644-10.275-3.288-20.549a1.317,1.317,0,0,0-1.288-.981l-21.549,2.217c-1.7.175-1.712,2.847,0,2.671l21.491-2.212c-1.237.128-1.351-1.749-1.088-.1q.188,1.164.373,2.329.564,3.529,1.129,7.063.823,5.137,1.644,10.275.467-.822.932-1.644-10.938,1.627-21.878,3.253l1.643.934q-1.479-10.791-2.958-21.585C137.106,1758.683,134.534,1759.409,134.765,1761.092Z" fill="#575756"/>
    </g>
    <g id="Grupo_16854" data-name="Grupo 16854" transform="translate(724.018 815.881)">
      <path id="Trazado_45097" data-name="Trazado 45097" d="M150.087,1760.737q1.184,9.61,2.365,19.218c.164,1.319,2.255,1.335,2.091,0q-1.184-9.609-2.366-19.218c-.162-1.32-2.254-1.336-2.09,0Z" fill="#575756"/>
    </g>
    <g id="Grupo_16855" data-name="Grupo 16855" transform="translate(724.018 815.881)">
      <path id="Trazado_45098" data-name="Trazado 45098" d="M142.437,1761.015q1.485,10.242,2.968,20.483c.194,1.33,2.207.762,2.016-.555q-1.483-10.243-2.968-20.484c-.193-1.33-2.206-.761-2.016.556Z" fill="#575756"/>
    </g>
    <g id="Grupo_16856" data-name="Grupo 16856" transform="translate(724.018 815.881)">
      <path id="Trazado_45099" data-name="Trazado 45099" d="M138.1,1768.84q10.5-1.677,21.012-3.351c1.329-.212.763-2.225-.555-2.015l-21.012,3.35c-1.327.212-.762,2.227.555,2.016Z" fill="#575756"/>
    </g>
    <g id="Grupo_16857" data-name="Grupo 16857" transform="translate(724.018 815.881)">
      <path id="Trazado_45100" data-name="Trazado 45100" d="M139.01,1776.566q9.906-1.331,19.81-2.661c1.315-.177,1.332-2.269,0-2.091l-19.81,2.661c-1.315.177-1.333,2.268,0,2.091Z" fill="#575756"/>
    </g>
    <g id="Grupo_16858" data-name="Grupo 16858" transform="translate(724.018 815.881)">
      <path id="Trazado_45101" data-name="Trazado 45101" d="M184.543,1794.6c7.448-.9,11.494-9.242,14.021-15.4a100.958,100.958,0,0,0,6.854-26.829c1.392-12.1,1.9-24.3,4.487-36.241,1.134-5.229,2.751-10.717,6.127-14.967,2.582-3.251,6.211-5.787,10.448-5.886,4.5-.106,6.546,4.27,6.1,8.1-.155,1.337,1.936,1.322,2.091,0,1.117-9.6-9.442-12.754-16.227-7.372-9.159,7.262-11.033,19.725-12.463,30.662-1.571,12.015-1.678,24.358-4.417,36.19a98.048,98.048,0,0,1-5.4,16.677c-2.11,4.9-5.625,12.251-11.62,12.978-1.319.16-1.335,2.253,0,2.09Z" fill="#575756"/>
    </g>
    <g id="Grupo_16859" data-name="Grupo 16859" transform="translate(724.018 815.881)">
      <path id="Trazado_45102" data-name="Trazado 45102" d="M184.379,1797.733c10.82-2,14-9.76,18.056-18.925,3.292-7.433,4.412-15.046,5.423-23.1,1.421-11.344,2.307-22.765,4.243-34.04A51.207,51.207,0,0,1,217.106,1706c3.027-5.671,10.188-11.745,12.85-2.346a1.046,1.046,0,0,0,2.016-.556c-2.413-8.517-9.6-8.145-14.467-1.5-6.8,9.28-7.888,21.261-9.246,32.34-1.474,12.036-2.164,24.3-4.809,36.158-1.029,4.609-3.311,8.812-5.157,13.132-2.887,6.751-7.012,11.112-14.47,12.493-1.323.246-.762,2.259.556,2.015Z" fill="#575756"/>
    </g>
    <g id="Grupo_16860" data-name="Grupo 16860" transform="translate(724.018 815.881)">
      <path id="Trazado_45103" data-name="Trazado 45103" d="M227.568,1714.907v-9.462l-.98,1.287a48.624,48.624,0,0,1,8.81-.246l-1.334-1.335c.231,3.261-.254,6.5-.3,9.756a1.336,1.336,0,0,0,2.67,0c.043-3.26.527-6.495.3-9.756a1.36,1.36,0,0,0-1.337-1.336,52.2,52.2,0,0,0-9.52.343,1.33,1.33,0,0,0-.98,1.287v9.462a1.336,1.336,0,0,0,2.67,0Z" fill="#575756"/>
    </g>
    <g id="Grupo_16861" data-name="Grupo 16861" transform="translate(724.018 815.881)">
      <path id="Trazado_45104" data-name="Trazado 45104" d="M223.134,1741.221q-.033-7.368.017-14.74c.02-2.921.047-5.846.158-8.766.077-2.015.075-.709,2.085-1.1a34.87,34.87,0,0,1,8.448-.34,17.979,17.979,0,0,1,2.87.388c1.539.294.321-.252.313-.663.013.69.025,1.378.04,2.068q.081,4.219.164,8.442.143,7.359.285,14.713a1.336,1.336,0,0,0,2.67,0q-.246-12.712-.493-25.427a1.386,1.386,0,0,0-.98-1.287c-5.054-2.052-11.866-1.119-16.972.2a1.378,1.378,0,0,0-.981,1.288c-.944,8.268-.33,16.917-.295,25.229a1.336,1.336,0,0,0,2.671,0Z" fill="#575756"/>
    </g>
    <g id="Grupo_16862" data-name="Grupo 16862" transform="translate(724.018 815.881)">
      <path id="Trazado_45105" data-name="Trazado 45105" d="M221.109,1737.323c-2.816-.327-4.184,2.067-4.462,4.539-.231,2.041-.409,5.159,1.018,6.807,1.4,1.614,5.439.643,7.09.047,2.7-.974,2.641-3.683,2.174-6.075a1.333,1.333,0,0,0-1.288-.98,31.571,31.571,0,0,0-7.056.441c-1.672.412-.963,2.987.709,2.576a28.6,28.6,0,0,1,6.347-.347l-1.287-.98c.267,1.366.579,2.559-.954,3-.582.167-3.641.762-3.886.356-.514-.846-.307-2.748-.286-3.723.027-1.345.184-3.188,1.881-2.99s1.689-2.473,0-2.671Z" fill="#575756"/>
    </g>
    <g id="Grupo_16863" data-name="Grupo 16863" transform="translate(724.018 815.881)">
      <path id="Trazado_45106" data-name="Trazado 45106" d="M240.114,1740.01A2.935,2.935,0,0,1,242,1739.8l-1.335-1.336v9.068l1.335-1.335-6.9.59q.668.667,1.335,1.335a16.758,16.758,0,0,1,.044-4.413c.1-.5-.368-.061.261-.144a10.627,10.627,0,0,1,1.8-.009c.958.039,1.909.161,2.866.185l-1.152-2.008a2.848,2.848,0,0,1-.393.592c-1.019,1.391,1.3,2.721,2.3,1.346a2.754,2.754,0,0,0,.394-.591,1.35,1.35,0,0,0-1.154-2.009c-1.812-.044-5.863-1.091-7.066.86-1.045,1.7-.733,4.293-.576,6.191a1.349,1.349,0,0,0,1.335,1.336q3.452-.3,6.9-.591a1.361,1.361,0,0,0,1.337-1.335v-9.068a1.367,1.367,0,0,0-1.337-1.334,5.206,5.206,0,0,0-3.235.576c-1.522.806-.174,3.111,1.347,2.306Z" fill="#575756"/>
    </g>
    <g id="Grupo_16864" data-name="Grupo 16864" transform="translate(724.018 815.881)">
      <path id="Trazado_45107" data-name="Trazado 45107" d="M226.273,1747.241c2.617.552,5.4.07,8.042.048a1.337,1.337,0,0,0,0-2.672c-2.375.02-4.99.543-7.332.048-1.679-.354-2.4,2.22-.71,2.576Z" fill="#575756"/>
    </g>
    <g id="Grupo_16865" data-name="Grupo 16865" transform="translate(724.018 815.881)">
      <path id="Trazado_45108" data-name="Trazado 45108" d="M222.533,1748.712v11.04a1.358,1.358,0,0,0,.98,1.287,19.058,19.058,0,0,0,12.34,0,1.377,1.377,0,0,0,.98-1.287c.077-3.416.184-6.834.2-10.251a1.336,1.336,0,0,0-2.671,0c-.012,3.417-.119,6.835-.2,10.251.329-.429.655-.858.982-1.287a16.689,16.689,0,0,1-10.92,0q.49.644.981,1.287v-11.04a1.336,1.336,0,0,0-2.671,0Z" fill="#575756"/>
    </g>
    <g id="Grupo_16866" data-name="Grupo 16866" transform="translate(724.018 815.881)">
      <path id="Trazado_45109" data-name="Trazado 45109" d="M226.151,1760.372c-1.9,1.254-3.8,3.625-3.829,5.921-.056,4.266-.714,8.5-.579,12.776.056,1.717,2.726,1.723,2.672,0a81.285,81.285,0,0,1,.342-8.373c.214-3.03-.166-6.1,2.741-8.018,1.431-.945.094-3.257-1.347-2.306Z" fill="#575756"/>
    </g>
    <g id="Grupo_16867" data-name="Grupo 16867" transform="translate(724.018 815.881)">
      <path id="Trazado_45110" data-name="Trazado 45110" d="M231.4,1762.864c2.529,2.138,2.564,3.456,2.764,6.691s.478,6.461.393,9.711c-.044,1.724,2.628,1.718,2.672,0,.094-3.66-.245-7.3-.472-10.95-.074-1.2.323-3.245-.3-4.31a14.336,14.336,0,0,0-3.165-3.03c-1.308-1.1-3.206.774-1.89,1.888Z" fill="#575756"/>
    </g>
    <g id="Grupo_16868" data-name="Grupo 16868" transform="translate(724.018 815.881)">
      <path id="Trazado_45111" data-name="Trazado 45111" d="M221.83,1772.411c-2.83.152-9.127.971-7.624,5.331,1.539,4.461,9.97,4.373,13.614,4.622,4.012.276,13.891.814,16.495-3.4,2.646-4.287-4.57-5.9-7.281-6.305-1.683-.25-2.408,2.322-.708,2.575,1.861.275,8.315,1.776,3.321,3.467a29.457,29.457,0,0,1-9.19,1.081,50.157,50.157,0,0,1-9.866-1.013,9.959,9.959,0,0,1-3.141-1.195c-2.713-1.576,4.088-2.474,4.38-2.49,1.712-.093,1.721-2.764,0-2.67Z" fill="#575756"/>
    </g>
    <g id="Grupo_16869" data-name="Grupo 16869" transform="translate(724.018 815.881)">
      <path id="Trazado_45112" data-name="Trazado 45112" d="M213.464,1777.1c-.23,10.161-.351,20.685.963,30.779.852,6.542,12.822,5.207,17.524,5.12,3.385-.062,7.632-.229,10.483-2.287,2.211-1.6,2.038-5.492,2.222-7.891a230.311,230.311,0,0,0,.054-25.918c-.064-1.717-2.733-1.722-2.671,0q.327,8.923.236,17.86a77.359,77.359,0,0,1-.728,12c-.635,3.774-6.673,3.451-9.6,3.566a58.512,58.512,0,0,1-11.764-.752c-3.821-.632-3.257-2.587-3.507-6.14-.617-8.736-.744-17.581-.544-26.337a1.337,1.337,0,0,0-2.672,0Z" fill="#575756"/>
    </g>
    <g id="Grupo_16870" data-name="Grupo 16870" transform="translate(724.018 815.881)">
      <path id="Trazado_45113" data-name="Trazado 45113" d="M214.324,1802.753l-18.332,12.122c-.865.572-.914,2.239.319,2.441l38.566,6.3c3.536.579,8.577-4.822,11.239-6.676l17.06-11.878a1.347,1.347,0,0,0-.672-2.489l-17.939-2.366c-1.7-.224-1.682,2.448,0,2.671l17.939,2.365c-.226-.829-.449-1.658-.675-2.487q-7.6,5.29-15.2,10.584l-8.882,6.184q-1.176.82-2.354,1.638c.24-.165,1.333.065-.164-.179q-19.1-3.118-38.208-6.241.159,1.222.318,2.441l18.332-12.121c1.429-.946.094-3.26-1.347-2.306Z" fill="#575756"/>
    </g>
    <g id="Grupo_16871" data-name="Grupo 16871" transform="translate(724.018 815.881)">
      <path id="Trazado_45114" data-name="Trazado 45114" d="M195.85,1816.166a33.934,33.934,0,0,0-.245,5.479,1.335,1.335,0,0,0,.982,1.288c9.522,1.595,19.109,2.821,28.683,4.054,3.729.479,10.49,2.951,13.83.561q9.28-6.637,18.563-13.273,2.679-1.915,5.364-3.835c1.564-1.119.779-4.9.812-6.535a1.337,1.337,0,0,0-2.672,0q-.039,2.143-.082,4.289c-.032,1.616,1.309-.571-.062.409q-3.177,2.273-6.356,4.546-8.459,6.045-16.915,12.093c-1.414,1.012-.1.625-2.4.342q-5.04-.618-10.078-1.266-7.612-.978-15.215-2.032-3.445-.48-6.883-1c-3.8-.567-5.388.219-4.746-4.414.232-1.684-2.34-2.409-2.576-.71Z" fill="#575756"/>
    </g>
    <g id="Grupo_16872" data-name="Grupo 16872" transform="translate(724.018 815.881)">
      <path id="Trazado_45115" data-name="Trazado 45115" d="M234.8,1822.592a19.1,19.1,0,0,1,.151,4.376,1.336,1.336,0,0,0,2.671,0,22.133,22.133,0,0,0-.246-5.086c-.375-1.681-2.948-.968-2.576.71Z" fill="#575756"/>
    </g>
    <g id="Grupo_16873" data-name="Grupo 16873" transform="translate(724.018 815.881)">
      <path id="Trazado_45116" data-name="Trazado 45116" d="M225.494,1787.336c-3.375.3-7.9.781-10.2,3.559a1.068,1.068,0,0,0,.212,1.641c4.215,2.967,9.669,2.4,14.559,2.228,3.34-.114,10.887.675,13.289-2.371,3.6-4.567-9.419-4.593-11.354-4.613a1.046,1.046,0,0,0,0,2.09c1.7.017,3.388.127,5.076.277,3.188.282,6.335.858,1.307,1.957-3.156.692-6.422.505-9.623.615-4.146.14-8.641.518-12.2-1.987q.106.82.212,1.641c1.884-2.275,5.971-2.7,8.723-2.945,1.331-.118,1.342-2.21,0-2.092Z" fill="#575756"/>
    </g>
    <g id="Grupo_16874" data-name="Grupo 16874" transform="translate(724.018 815.881)">
      <path id="Trazado_45117" data-name="Trazado 45117" d="M225.964,1781.452c-1.018,6.323-.937,13.217-1.072,19.644a1.057,1.057,0,0,0,1.045,1.045,32.3,32.3,0,0,0,5.323-.147,1.073,1.073,0,0,0,1.045-1.045c.01-6.507.119-13.013-.149-19.516a1.046,1.046,0,0,0-2.09,0v.444a1.046,1.046,0,0,0,2.09,0v-.444h-2.09c.268,6.5.161,13.009.149,19.516.349-.348.7-.7,1.045-1.046a31.965,31.965,0,0,1-5.323.148q.522.522,1.046,1.045c.128-6.218.012-12.974,1-19.089.212-1.317-1.8-1.882-2.016-.555Z" fill="#575756"/>
    </g>
    <g id="Grupo_16875" data-name="Grupo 16875" transform="translate(724.018 815.881)">
      <path id="Trazado_45118" data-name="Trazado 45118" d="M218.694,1796.957a11.687,11.687,0,0,1,.615,1.215,15.317,15.317,0,0,1,.848,2.492c.229.889.4,1.734.555,2.4.059.139.086.321.141.444s.1.273.157.36c.125.216.2.338.2.338a1.832,1.832,0,0,1-.417.025,2.174,2.174,0,0,1-1.039-.412,3.694,3.694,0,0,1-1.019-1.114,5.407,5.407,0,0,1-.635-1.505,5.831,5.831,0,0,1,0-2.948A3.4,3.4,0,0,1,218.694,1796.957Z" fill="#575756"/>
    </g>
    <g id="Grupo_16876" data-name="Grupo 16876" transform="translate(724.018 815.881)">
      <path id="Trazado_45119" data-name="Trazado 45119" d="M223.276,1805.235a2.517,2.517,0,0,1,.641-.335,1.494,1.494,0,0,1,.259-.073,1.459,1.459,0,0,0,.218-.067.465.465,0,0,1,.321-.012c.239.046.431.29.61.578a4.094,4.094,0,0,1,.316.648,1.821,1.821,0,0,1-.462.567,1.188,1.188,0,0,1-1.079.245,1.522,1.522,0,0,1-.537-.338.768.768,0,0,1-.245-.491A2.5,2.5,0,0,1,223.276,1805.235Z" fill="#575756"/>
    </g>
    <g id="Grupo_16877" data-name="Grupo 16877" transform="translate(724.018 815.881)">
      <path id="Trazado_45120" data-name="Trazado 45120" d="M223.276,1720.978c2.226-.225,4.451-.443,6.683-.6q1.763-.118,3.528-.131c.49-.005.979.019,1.468.045.65.036,1.045.436.914-.085a1.046,1.046,0,0,0,2.015-.556c-.455-1.82-3.594-1.5-4.942-1.49-3.228.024-6.457.4-9.666.723-1.327.135-1.339,2.225,0,2.09Z" fill="#575756"/>
    </g>
    <g id="Grupo_16878" data-name="Grupo 16878" transform="translate(724.018 815.881)">
      <path id="Trazado_45121" data-name="Trazado 45121" d="M226.233,1723.482a4.212,4.212,0,0,1,.608,1.062,6.238,6.238,0,0,1,0,4.675,4.237,4.237,0,0,1-.611,1.062,4.182,4.182,0,0,1-.61-1.062,5.98,5.98,0,0,1-.453-2.338,6.071,6.071,0,0,1,.454-2.337A4.267,4.267,0,0,1,226.233,1723.482Z" fill="#575756"/>
    </g>
    <g id="Grupo_16879" data-name="Grupo 16879" transform="translate(724.018 815.881)">
      <path id="Trazado_45122" data-name="Trazado 45122" d="M226.825,1734.126a2.7,2.7,0,0,1,.614.6,2.237,2.237,0,0,1,.453,1.368,2.582,2.582,0,0,1-.185.783,1.628,1.628,0,0,1-.443.629,1.941,1.941,0,0,1-.735.461,4.408,4.408,0,0,1-.461-.717,2.374,2.374,0,0,1-.3-1.226,2.252,2.252,0,0,1,.457-1.294A2.686,2.686,0,0,1,226.825,1734.126Z" fill="#575756"/>
    </g>
    <g id="Grupo_16880" data-name="Grupo 16880" transform="translate(724.018 815.881)">
      <path id="Trazado_45123" data-name="Trazado 45123" d="M103.233,1788.531s.084.25.2.687.264,1.048.417,1.781c.326,1.459.674,3.362,1.1,5.207.225.917.452,1.829.72,2.664a22.4,22.4,0,0,0,.841,2.254,14.577,14.577,0,0,0,.805,1.573c.228.377.355.616.355.616s-.237-.1-.651-.311a3.777,3.777,0,0,1-.7-.458,4.886,4.886,0,0,1-.818-.723,8.8,8.8,0,0,1-1.58-2.225,11.142,11.142,0,0,1-.6-1.407,13.889,13.889,0,0,1-.447-1.5,15.766,15.766,0,0,1-.242-5.646A11.112,11.112,0,0,1,103.233,1788.531Z" fill="#575756"/>
    </g>
    <g id="Grupo_16881" data-name="Grupo 16881" transform="translate(724.018 815.881)">
      <path id="Trazado_45124" data-name="Trazado 45124" d="M110.329,1806.566a2.5,2.5,0,0,1,.776-.087,1.553,1.553,0,0,1,1.087.443,1.852,1.852,0,0,1,.4,1.249,1.909,1.909,0,0,1-.189.759,3.517,3.517,0,0,1-.787-.022,1.274,1.274,0,0,1-.917-.473,1.775,1.775,0,0,1-.316-.5,1.722,1.722,0,0,1-.126-.591A2.543,2.543,0,0,1,110.329,1806.566Z" fill="#575756"/>
    </g>
    <g id="Grupo_16882" data-name="Grupo 16882" transform="translate(724.018 815.881)">
      <path id="Trazado_45125" data-name="Trazado 45125" d="M206.719,1710.176s-.135.51-.411,1.383a13.22,13.22,0,0,0-.413,1.567c-.146.594-.294,1.255-.42,2.011-.151.74-.271,1.549-.4,2.41-.148.849-.213,1.77-.357,2.7-.221,1.9-.46,3.933-.7,5.962-.147.909-.242,2.014-.363,3-.1,1.008-.278,1.992-.408,2.951s-.3,1.876-.451,2.752c-.069.405-.174.927-.206,1.207-.058.425-.091.8-.118,1.162a19.457,19.457,0,0,1-.484,3.782,4.155,4.155,0,0,1-.415,1.012c-.12.216-.184.328-.184.328s.015-.13.044-.375a6,6,0,0,0,.017-1.026c-.05-.891-.306-2.1-.54-3.676-.056-.41-.109-.837-.141-1.243a2.59,2.59,0,0,1-.016-.386l.006-.32c.005-.215.009-.433.014-.656.017-.886.029-1.822.092-2.786s.075-1.963.174-2.971c.1-1.035.137-1.984.285-3.115.154-1.02.307-2.041.458-3.047s.378-2,.579-2.961a28.37,28.37,0,0,1,.741-2.748c.136-.432.27-.853.4-1.26.164-.4.324-.781.475-1.15a13.53,13.53,0,0,1,.959-1.968,8.167,8.167,0,0,1,.886-1.4C206.381,1710.581,206.719,1710.176,206.719,1710.176Z" fill="#575756"/>
    </g>
    <g id="Grupo_16883" data-name="Grupo 16883" transform="translate(724.018 815.881)">
      <path id="Trazado_45126" data-name="Trazado 45126" d="M201.692,1747.43a2.726,2.726,0,0,1,.232.273,3.894,3.894,0,0,1,.421.685,3.4,3.4,0,0,1,.3,1.924,3.321,3.321,0,0,1-1.531,2.278,2.208,2.208,0,0,1-.3.163,2.79,2.79,0,0,1-.22-.294,4.511,4.511,0,0,1-.394-.708,3.2,3.2,0,0,1-.235-1.864,3.359,3.359,0,0,1,.837-1.744,3.918,3.918,0,0,1,.6-.525A2.534,2.534,0,0,1,201.692,1747.43Z" fill="#575756"/>
    </g>
    <g id="Grupo_16884" data-name="Grupo 16884" transform="translate(724.018 815.881)">
      <path id="Trazado_45127" data-name="Trazado 45127" d="M102.247,1746.74c1.522-1.231,2.916-2.61,4.435-3.843.7-.566-.294-1.546-.984-.984-1.52,1.231-2.915,2.61-4.435,3.843-.7.566.294,1.546.984.984Z" fill="#575756"/>
    </g>
    <g id="Grupo_16885" data-name="Grupo 16885" transform="translate(724.018 815.881)">
      <path id="Trazado_45128" data-name="Trazado 45128" d="M104.722,1749.556a16.714,16.714,0,0,1,6.254-6.551c.754-.482.056-1.688-.7-1.2a18.022,18.022,0,0,0-6.755,7.051c-.383.807.819,1.514,1.2.7Z" fill="#575756"/>
    </g>
    <g id="Grupo_16886" data-name="Grupo 16886" transform="translate(724.018 815.881)">
      <path id="Trazado_45129" data-name="Trazado 45129" d="M106.542,1750.988c3.4-2.268,5.593-5.8,8.714-8.387.692-.572-.3-1.553-.985-.984-3.023,2.5-5.141,5.974-8.432,8.17-.745.495-.047,1.7.7,1.2Z" fill="#575756"/>
    </g>
    <g id="Grupo_16887" data-name="Grupo 16887" transform="translate(724.018 815.881)">
      <path id="Trazado_45130" data-name="Trazado 45130" d="M110.044,1754.584c3.094-4.8,7.249-8.724,11.125-12.87.614-.654-.369-1.642-.984-.984-3.96,4.234-8.184,8.251-11.345,13.151-.489.757.719,1.454,1.2.7Z" fill="#575756"/>
    </g>
    <g id="Grupo_16888" data-name="Grupo 16888" transform="translate(724.018 815.881)">
      <path id="Trazado_45131" data-name="Trazado 45131" d="M201.613,1812.961a12.889,12.889,0,0,0,2.84,4.151c.63.641,1.615-.345.984-.985a11.224,11.224,0,0,1-2.482-3.536c-.338-.818-1.686-.461-1.342.37Z" fill="#575756"/>
    </g>
    <g id="Grupo_16889" data-name="Grupo 16889" transform="translate(724.018 815.881)">
      <path id="Trazado_45132" data-name="Trazado 45132" d="M204.344,1811.648a26.606,26.606,0,0,0,4.544,6.646c.627.645,1.611-.341.984-.984a25.556,25.556,0,0,1-4.327-6.364c-.4-.8-1.606-.1-1.2.7Z" fill="#575756"/>
    </g>
    <g id="Grupo_16890" data-name="Grupo 16890" transform="translate(724.018 815.881)">
      <path id="Trazado_45133" data-name="Trazado 45133" d="M207.527,1809.411c.781,3.534,3.709,5.885,5.687,8.743.507.734,1.715.037,1.2-.7-1.892-2.739-4.8-5.035-5.547-8.409-.193-.877-1.536-.505-1.341.369Z" fill="#575756"/>
    </g>
    <g id="Grupo_16891" data-name="Grupo 16891" transform="translate(724.018 815.881)">
      <path id="Trazado_45134" data-name="Trazado 45134" d="M254.538,1803.794a19.976,19.976,0,0,0,1.547,3.715c.4.8,1.6.1,1.2-.7a18.2,18.2,0,0,1-1.409-3.381.7.7,0,0,0-1.342.369Z" fill="#575756"/>
    </g>
    <g id="Grupo_16892" data-name="Grupo 16892" transform="translate(724.018 815.881)">
      <path id="Trazado_45135" data-name="Trazado 45135" d="M250.172,1803.666a66.768,66.768,0,0,0,3.658,5.757c.564.7,1.543-.293.984-.984a63.61,63.61,0,0,1-3.439-5.477c-.488-.749-1.693-.053-1.2.7Z" fill="#575756"/>
    </g>
    <g id="Grupo_16893" data-name="Grupo 16893" transform="translate(724.018 815.881)">
      <path id="Trazado_45136" data-name="Trazado 45136" d="M245.98,1799.159c.468.335-.065-1.8-.13-2.657-.179-2.314-.233-4.639-.289-6.958-.163-6.884-.126-13.773-.078-20.657.118-16.98.483-33.959.89-50.935q.232-9.712.5-19.426c.045-1.656-.7-7.665.908-8.324,4.425-1.812,2.762,7.566,2.738,9.671q-.129,10.927-.262,21.858c-.314,26.2-.806,52.418-.822,78.626a1.047,1.047,0,0,0,2.092,0c.017-31.239.625-62.484,1-93.72q.087-7.279.171-14.56c.039-3.79-4.114-6-7.2-2.916-1.3,1.3-.614,5.606-.655,7.163q-.248,8.991-.469,17.987c-.465,18.825-.873,37.653-.991,56.486-.045,7.264-.07,14.537.177,21.8.067,1.9-.5,7.035,1.367,8.368,1.1.783,2.143-1.031,1.055-1.8Z" fill="#575756"/>
    </g>
  </g>
</svg>
