<svg xmlns="http://www.w3.org/2000/svg" width="273.194" height="117.581" viewBox="0 0 273.194 117.581">
  <g id="Grupo_31312" data-name="Grupo 31312" transform="translate(-1545.5 -7270.5)">
    <g id="Grupo_12089" data-name="Grupo 12089" transform="translate(742.985 7266.629)">
      <g id="Grupo_12088" data-name="Grupo 12088">
        <path id="Trazado_39366" data-name="Trazado 39366" d="M947.932,101.509a6.058,6.058,0,0,1,.664-.074c.3-.02.538-.045.707-.074a1.682,1.682,0,0,0,.981-.329.9.9,0,0,0,.263-.521l.641-2.961c.109-.529.2-.906.261-1.127l.033-.269.511-2.77a4.262,4.262,0,0,1,.173-.771,8.035,8.035,0,0,0,.228-1.59l.164-.793.139-1.358a.274.274,0,0,0-.139-.265,9.892,9.892,0,0,0-2.157-.428l.1-.344,3.983-.021a1.375,1.375,0,0,1,.2.291q.13.213.587.869l.62.869c.246.4.5.795.76,1.18s.5.777.729,1.17q.238.4,3.357,5.293.588.911.815,1.32.425.771.892,1.512.134-.666.217-1.4.436-2.071.509-2.791c.027-.264.062-.516.1-.75.034-.158.079-.447.134-.871l.167-1.2q.009-.206.249-1.863a19.3,19.3,0,0,0,.238-2.254,1.744,1.744,0,0,0-.1-.481,5.086,5.086,0,0,0-1.564-.392c-.291-.051-.521-.094-.688-.129a1.342,1.342,0,0,1-.033-.248v-.1l.14-.012q.2,0,2.629.121c.279.012.469.02.569.02q.708,0,1.406-.065.494-.043.762-.043a2.485,2.485,0,0,1-.127.463,11.9,11.9,0,0,0-1.914.268.617.617,0,0,0-.3.183,4.456,4.456,0,0,0-.25.985q-.228,1.245-.3,1.826t-.156.977c-.069.365-.114.607-.135.728l-.405,2.932-.726,4.379c-.145.959-.221,1.519-.228,1.685h-.257c-.072,0-.182-.008-.332-.021a9.873,9.873,0,0,0-.51-.848l-3.108-4.805q-.207-.311-.359-.58l-.782-1.158-2.478-3.85q-.51-.772-.869-1.21a2.421,2.421,0,0,0-.2-.307c-.072-.1-.16-.227-.261-.391-.036-.051-.087-.129-.152-.236-.058.215-.134.6-.228,1.17l-.25,1.373q-.2,1.192-.674,3.617l-.25,1.289-.261,1.91q-.1.805-.249,1.481a5.227,5.227,0,0,0-.152,1.105.43.43,0,0,0,.139.28,5.553,5.553,0,0,0,.7.224,4.514,4.514,0,0,0,.622.129c.049.008.432.1,1.146.27l-.1.375q-.256-.054-.895-.118-1.492-.151-2.089-.15c-.185,0-.419.006-.7.021q-1.226.054-1.566.053c-.121,0-.317,0-.587-.01Z" fill="#00223d"/>
      </g>
    </g>
    <g id="Grupo_12091" data-name="Grupo 12091" transform="translate(742.985 7266.629)">
      <g id="Grupo_12090" data-name="Grupo 12090">
        <path id="Trazado_39367" data-name="Trazado 39367" d="M881.169,48.614l3.424-11.763a17.217,17.217,0,0,1-3.542,2.008l-.043-.6A14.186,14.186,0,0,0,886,34.726h.708l-4.065,13.888Z" fill="#00223d"/>
      </g>
    </g>
    <g id="Grupo_12093" data-name="Grupo 12093" transform="translate(742.985 7266.629)">
      <g id="Grupo_12092" data-name="Grupo 12092">
        <path id="Trazado_39368" data-name="Trazado 39368" d="M880.106,63.6a.22.22,0,0,0-.059-.117.133.133,0,0,0-.091-.034q-.558,0-1.739,1.762c-.079.006-.136.01-.172.01s-.114,0-.214-.01a8.169,8.169,0,0,1,.734-1.138,6.106,6.106,0,0,1,1.083-1.143,5.033,5.033,0,0,1,1.089-.682.782.782,0,0,1,.311-.074,1.465,1.465,0,0,1,.161.01.566.566,0,0,1,.193.4,1.256,1.256,0,0,1-.027.258c-.018.086-.056.219-.113.4q-.321.922-.471,1.3l-.612,1.59q-.215.549-.418,1.158c.057-.07.107-.138.15-.2a31.539,31.539,0,0,1,2.154-2.8,9.036,9.036,0,0,1,1.906-1.787,1.964,1.964,0,0,1,1.021-.332.78.78,0,0,1,.569.2.679.679,0,0,1,.2.509,1.633,1.633,0,0,1-.043.377,8.039,8.039,0,0,1-.333,1.137q-.258.729-1.354,3.166l-1.074,2.479-.043.14a.449.449,0,0,0,.075.194q.6-.129,1.8-1.913l.44.012a11.567,11.567,0,0,1-1.095,1.545,4.791,4.791,0,0,1-1.267,1.117,1.53,1.53,0,0,1-.8.225.585.585,0,0,1-.386-.108.307.307,0,0,1-.129-.236,4.87,4.87,0,0,1,.548-1.76l1.556-3.4.6-1.428a4.833,4.833,0,0,0,.247-.654,1.627,1.627,0,0,0,.043-.365.313.313,0,0,0-.075-.221.257.257,0,0,0-.194-.08.777.777,0,0,0-.4.141,7.255,7.255,0,0,0-1.75,1.619,26.178,26.178,0,0,0-1.826,2.373,29.249,29.249,0,0,0-1.962,3.638,1.086,1.086,0,0,1-.311.44,2.766,2.766,0,0,1-.344.033,2.629,2.629,0,0,1-.429-.055.321.321,0,0,1-.043-.138,1.591,1.591,0,0,1,.107-.387q.235-.7,1.159-2.941l.247-.58Z" fill="#00223d"/>
      </g>
    </g>
    <g id="Grupo_12095" data-name="Grupo 12095" transform="translate(742.985 7266.629)">
      <g id="Grupo_12094" data-name="Grupo 12094">
        <path id="Trazado_39369" data-name="Trazado 39369" d="M928.906,39.546a.2.2,0,0,0-.048-.1.116.116,0,0,0-.074-.025q-.45,0-1.4,1.422c-.064.005-.11.008-.139.008s-.093,0-.173-.008a6.55,6.55,0,0,1,.593-.92,4.872,4.872,0,0,1,.874-.922,4.033,4.033,0,0,1,.879-.551.639.639,0,0,1,.251-.06c.029,0,.072,0,.13.009a.453.453,0,0,1,.156.319,1.062,1.062,0,0,1-.022.209c-.015.068-.045.176-.091.32q-.259.744-.381,1.049l-.493,1.282q-.174.442-.338.937c.046-.058.087-.114.122-.165a25.345,25.345,0,0,1,1.738-2.257,7.278,7.278,0,0,1,1.539-1.443,1.577,1.577,0,0,1,.824-.269.632.632,0,0,1,.46.161.552.552,0,0,1,.164.412,1.321,1.321,0,0,1-.034.3,6.578,6.578,0,0,1-.269.918q-.209.589-1.093,2.557l-.867,2-.035.112a.349.349,0,0,0,.061.155q.484-.1,1.455-1.542l.356.009a9.386,9.386,0,0,1-.884,1.248,3.866,3.866,0,0,1-1.023.9,1.246,1.246,0,0,1-.65.183.48.48,0,0,1-.312-.087.248.248,0,0,1-.1-.19,3.933,3.933,0,0,1,.442-1.421l1.257-2.747.485-1.154a3.8,3.8,0,0,0,.2-.527,1.3,1.3,0,0,0,.035-.295.248.248,0,0,0-.061-.178.2.2,0,0,0-.156-.065.639.639,0,0,0-.32.112,5.946,5.946,0,0,0-1.414,1.309,21.082,21.082,0,0,0-1.473,1.916,23.711,23.711,0,0,0-1.584,2.937.887.887,0,0,1-.252.356,2.345,2.345,0,0,1-.277.025,2.1,2.1,0,0,1-.347-.043.272.272,0,0,1-.034-.113,1.277,1.277,0,0,1,.086-.312q.191-.564.936-2.374l.2-.468Z" fill="#00223d"/>
      </g>
    </g>
    <g id="Grupo_12097" data-name="Grupo 12097" transform="translate(742.985 7266.629)">
      <g id="Grupo_12096" data-name="Grupo 12096">
        <path id="Trazado_39370" data-name="Trazado 39370" d="M928.958,66.785a.978.978,0,0,0-.269.027,3.722,3.722,0,0,0-.6.372,5.012,5.012,0,0,0-.737.71l-.5.113a5.487,5.487,0,0,1,1.483-1.412,2.7,2.7,0,0,1,1.283-.512.4.4,0,0,1,.3.1.348.348,0,0,1,.1.256,3.874,3.874,0,0,1-.486,1.414c-.04.08-.136.288-.286.623q-.52,1.136-1.11,2.148-.191.33-.416.78c-.081.162-.154.3-.217.408a1.541,1.541,0,0,0-.269.667.149.149,0,0,0,.048.108.161.161,0,0,0,.117.047.707.707,0,0,0,.29-.1,4.181,4.181,0,0,0,.777-.576,4.72,4.72,0,0,0,.8-.923h.381a7.172,7.172,0,0,1-.775,1.075,4.179,4.179,0,0,1-1.164.97,1.813,1.813,0,0,1-.87.278.645.645,0,0,1-.426-.117.389.389,0,0,1-.136-.308,7.049,7.049,0,0,1,.979-2.513l1.4-2.634a5.818,5.818,0,0,0,.3-.641.751.751,0,0,0,.052-.2A.533.533,0,0,0,928.958,66.785Zm.494-3.89a.755.755,0,0,1,.234-.542.744.744,0,0,1,.545-.239.688.688,0,0,1,.5.208.656.656,0,0,1,.208.477.923.923,0,0,1-.26.633.777.777,0,0,1-.572.165.637.637,0,0,1-.468-.192A.686.686,0,0,1,929.452,62.9Z" fill="#00223d"/>
        <path id="Trazado_39371" data-name="Trazado 39371" d="M936.167,65.243h9.281V66h-9.281Zm0,4.012h9.281v.772h-9.281Z" fill="#00223d"/>
        <path id="Trazado_39372" data-name="Trazado 39372" d="M953.225,73.146l2.765-9.5a13.885,13.885,0,0,1-2.86,1.62l-.034-.486a11.462,11.462,0,0,0,4.029-2.85h.572l-3.282,11.213Z" fill="#00223d"/>
      </g>
    </g>
    <g id="Grupo_12099" data-name="Grupo 12099" transform="translate(719.985 7266.629)">
      <g id="Grupo_12098" data-name="Grupo 12098">
        <path id="Trazado_39373" data-name="Trazado 39373" d="M1001.735,49.9l.237.267a18.364,18.364,0,0,0-3.006,3.3,19.337,19.337,0,0,0-3.37,10.873,17.737,17.737,0,0,0,.869,5.313l-.311.193a15.538,15.538,0,0,1-1.513-6.728,15.844,15.844,0,0,1,1.776-7.272A16.021,16.021,0,0,1,1001.735,49.9Z" fill="#00223d"/>
        <path id="Trazado_39374" data-name="Trazado 39374" d="M1000.243,62.228c-.036.1-.064.176-.085.226a2.376,2.376,0,0,0-.2.664.371.371,0,0,0,.118.27.381.381,0,0,0,.279.117.64.64,0,0,0,.279-.062,9.424,9.424,0,0,0,1.685-1.319q1.223-1.1,1.889-1.8a9.532,9.532,0,0,0-.6-1.166L1002.5,57.29a1.655,1.655,0,0,0-.408-.439.5.5,0,0,0-.258-.076.367.367,0,0,0-.3.15q-.182,1.374-.236,1.578a.954.954,0,0,1-.343-.408,2.291,2.291,0,0,1-.172-.955,2.2,2.2,0,0,1,.322-1.106c.215-.371.447-.558.7-.558a1.273,1.273,0,0,1,.858.42,15.766,15.766,0,0,1,2.048,3.134c.152.274.261.456.327.549l2.069-1.869a23.459,23.459,0,0,1,2.168-1.793,2.328,2.328,0,0,1,.612-.312.9.9,0,0,1,.3-.053.5.5,0,0,1,.392.2.814.814,0,0,1,.167.541,1.722,1.722,0,0,1-.634,1.449.916.916,0,0,1-.365.129,1.409,1.409,0,0,1-.375-.064,1.9,1.9,0,0,0,.429-.783.486.486,0,0,0-.129-.323.941.941,0,0,0-.182-.033,1.194,1.194,0,0,0-.343.086,4.992,4.992,0,0,0-.709.43,14.8,14.8,0,0,0-1.663,1.365l-1.469,1.4a29.7,29.7,0,0,0,1.633,2.894.54.54,0,0,0,.4.26.429.429,0,0,0,.328-.172q.243-.258.243-.375l-.043-.719.021-.1a.43.43,0,0,1,.231.054,1.816,1.816,0,0,1,.274,1.063,3.082,3.082,0,0,1-.172.752,1.228,1.228,0,0,1-.386.595.845.845,0,0,1-.537.219.881.881,0,0,1-.52-.178,4.783,4.783,0,0,1-.832-.992q-.086-.14-1.079-1.865l-.407-.639q-.162.15-.908.862a22.861,22.861,0,0,1-2.812,2.447,2.069,2.069,0,0,1-1.052.387.989.989,0,0,1-.708-.264.874.874,0,0,1-.279-.664,1.31,1.31,0,0,1,.4-.91,1.125,1.125,0,0,1,.789-.426A1.669,1.669,0,0,1,1000.243,62.228Z" fill="#00223d"/>
        <path id="Trazado_39375" data-name="Trazado 39375" d="M1011.8,66.952a.766.766,0,0,0-.194.018,2.873,2.873,0,0,0-.431.269,3.569,3.569,0,0,0-.532.514l-.363.08a3.975,3.975,0,0,1,1.07-1.019,1.958,1.958,0,0,1,.927-.369.289.289,0,0,1,.216.072.251.251,0,0,1,.072.185,2.817,2.817,0,0,1-.35,1.02c-.03.058-.1.209-.207.451q-.376.818-.8,1.551c-.092.158-.192.346-.3.562-.059.118-.111.215-.157.295a1.114,1.114,0,0,0-.194.483.109.109,0,0,0,.034.078.122.122,0,0,0,.085.033.529.529,0,0,0,.21-.074,3.137,3.137,0,0,0,.56-.416,3.473,3.473,0,0,0,.575-.666h.276a5.4,5.4,0,0,1-.56.775,3.036,3.036,0,0,1-.841.7,1.313,1.313,0,0,1-.628.2.464.464,0,0,1-.307-.084.28.28,0,0,1-.1-.223,5.086,5.086,0,0,1,.708-1.815l1.007-1.9a4,4,0,0,0,.219-.463.548.548,0,0,0,.038-.144A.386.386,0,0,0,1011.8,66.952Zm.357-2.81a.541.541,0,0,1,.169-.391.533.533,0,0,1,.394-.172.488.488,0,0,1,.363.151.471.471,0,0,1,.15.343.663.663,0,0,1-.188.457.56.56,0,0,1-.412.12.458.458,0,0,1-.338-.139A.5.5,0,0,1,1012.155,64.142Z" fill="#00223d"/>
        <path id="Trazado_39376" data-name="Trazado 39376" d="M1019.063,60.4a3.225,3.225,0,0,1,.177-.391c.083-.16.145-.289.188-.391.022-.043.05-.105.086-.185l.226-.01h.332c.072,0,.269-.012.591-.033l.332.011.526-.021.923.021c.079,0,.2,0,.355.01.25-.013.4-.021.44-.021s.175.008.354.021c.05.008.132.016.247.022a5.181,5.181,0,0,1-.419,1.019,4.275,4.275,0,0,1-.451.043l-.193-.052c-.329.013-.529.025-.6.031a2.883,2.883,0,0,0-.5-.053q-1.085,0-1.675.053A5.392,5.392,0,0,0,1019.063,60.4Z" fill="#00223d"/>
        <path id="Trazado_39377" data-name="Trazado 39377" d="M1030.881,62.228c-.036.1-.065.176-.086.226a2.379,2.379,0,0,0-.2.664.371.371,0,0,0,.118.27.384.384,0,0,0,.279.117.64.64,0,0,0,.279-.062,9.39,9.39,0,0,0,1.685-1.319q1.224-1.1,1.889-1.8a9.515,9.515,0,0,0-.6-1.166l-1.1-1.869a1.624,1.624,0,0,0-.408-.439.5.5,0,0,0-.258-.076.367.367,0,0,0-.3.15q-.183,1.374-.236,1.578a.958.958,0,0,1-.344-.408,2.308,2.308,0,0,1-.172-.955,2.211,2.211,0,0,1,.322-1.106c.215-.371.447-.558.7-.558a1.277,1.277,0,0,1,.859.42,15.782,15.782,0,0,1,2.047,3.134c.153.274.262.456.327.549l2.069-1.869a23.6,23.6,0,0,1,2.168-1.793,2.36,2.36,0,0,1,.612-.312.9.9,0,0,1,.3-.053.5.5,0,0,1,.392.2.819.819,0,0,1,.166.541,1.724,1.724,0,0,1-.633,1.449.926.926,0,0,1-.365.129,1.415,1.415,0,0,1-.376-.064,1.9,1.9,0,0,0,.429-.783.489.489,0,0,0-.128-.323.937.937,0,0,0-.183-.033,1.2,1.2,0,0,0-.343.086,5,5,0,0,0-.708.43,14.72,14.72,0,0,0-1.664,1.365l-1.468,1.4a29.567,29.567,0,0,0,1.632,2.894.54.54,0,0,0,.4.26.429.429,0,0,0,.328-.172q.243-.258.243-.375l-.043-.719.022-.1a.426.426,0,0,1,.23.054,1.809,1.809,0,0,1,.274,1.063,3.113,3.113,0,0,1-.171.752,1.229,1.229,0,0,1-.387.595.845.845,0,0,1-.536.219.884.884,0,0,1-.521-.178,4.853,4.853,0,0,1-.832-.992q-.084-.14-1.079-1.865l-.407-.639q-.162.15-.907.862a22.856,22.856,0,0,1-2.813,2.447,2.066,2.066,0,0,1-1.051.387.99.99,0,0,1-.709-.264.873.873,0,0,1-.279-.664,1.307,1.307,0,0,1,.4-.91,1.121,1.121,0,0,1,.789-.426A1.677,1.677,0,0,1,1030.881,62.228Z" fill="#00223d"/>
        <path id="Trazado_39378" data-name="Trazado 39378" d="M1044.211,69.794l-.3-.236a17.2,17.2,0,0,0,1.975-1.926,11.008,11.008,0,0,0,1-1.283c.036-.065.189-.293.461-.686a19.288,19.288,0,0,0,1.213-2.265,17.387,17.387,0,0,0,1.235-3.446,19.814,19.814,0,0,0,.536-4.679,14.538,14.538,0,0,0-.166-2.26q-.166-1.058-.671-2.967l.3-.172a16.147,16.147,0,0,1,1.492,6.7,15.863,15.863,0,0,1-.73,4.787,15.452,15.452,0,0,1-2.6,4.943A15.775,15.775,0,0,1,1044.211,69.794Z" fill="#00223d"/>
        <path id="Trazado_39379" data-name="Trazado 39379" d="M1056.472,56.116l-.206.788H1051.8l.035-.168q2.548-2.412,3.413-3.311a7.913,7.913,0,0,0,1.389-1.809,2.216,2.216,0,0,0,.213-.994,1.317,1.317,0,0,0-.3-.935,1.093,1.093,0,0,0-.836-.317,1.651,1.651,0,0,0-1.026.323,3.124,3.124,0,0,0-.826,1.179h-.338a3.285,3.285,0,0,1,.983-1.562,2.168,2.168,0,0,1,1.395-.51,1.945,1.945,0,0,1,1.4.488,1.688,1.688,0,0,1,.506,1.272,2.147,2.147,0,0,1-.137.793,3.252,3.252,0,0,1-.613.955q-.438.5-1.915,1.805l-2.241,2Z" fill="#00223d"/>
      </g>
    </g>
    <path id="Trazado_39380" data-name="Trazado 39380" d="M920.924,45.117h1.542V41.861h-16.11L915.1,53.344l-9.6,12.682h16.967V61.57H921.1v2.742h-12.34l8.4-10.626L909.27,42.718l11.826-.171Z" transform="translate(742.985 7266.629)" fill="#00223d"/>
    <line id="Línea_211" data-name="Línea 211" x2="180.366" transform="translate(1608.656 7345.43)" fill="none" stroke="#00223d" stroke-miterlimit="10" stroke-width="1"/>
    <line id="Línea_212" data-name="Línea 212" x2="32.618" transform="translate(1611.326 7323.752)" fill="none" stroke="#00223d" stroke-miterlimit="10" stroke-width="1"/>
    <g id="Grupo_12101" data-name="Grupo 12101" transform="translate(742.985 7266.629)">
      <g id="Grupo_12100" data-name="Grupo 12100">
        <path id="Trazado_39381" data-name="Trazado 39381" d="M826.96,84.175q.535,0,.88.826a1.411,1.411,0,0,0,.332.537.559.559,0,0,0,.4.139,1.228,1.228,0,0,0,.88-.43,1.347,1.347,0,0,0,.322-.988,5.2,5.2,0,0,0-.365-1.547,7.732,7.732,0,0,1-.515-2.344,3.736,3.736,0,0,1,.665-2.191,2.381,2.381,0,0,1,2.1-.957,1.4,1.4,0,0,1,.977.332,1.053,1.053,0,0,1,.364.807.753.753,0,0,1-.177.519.527.527,0,0,1-.4.2,1.085,1.085,0,0,1-.848-.457,3.026,3.026,0,0,0-.5-.531.934.934,0,0,0-.4-.064.7.7,0,0,0-.531.257.9.9,0,0,0-.231.625,8.263,8.263,0,0,0,.518,2.422,8.109,8.109,0,0,1,.513,2.412,2.165,2.165,0,0,1-.338,1.114,2.7,2.7,0,0,1-1.052.957,3.015,3.015,0,0,1-1.465.392,2.013,2.013,0,0,1-1.347-.386,1.187,1.187,0,0,1-.446-.924.737.737,0,0,1,.183-.52A.621.621,0,0,1,826.96,84.175Z" fill="#00223d"/>
        <path id="Trazado_39382" data-name="Trazado 39382" d="M839.979,76.222h11.495v.945H839.979Zm0,4.969h11.495v.955H839.979Z" fill="#00223d"/>
      </g>
    </g>
    <path id="Trazado_50915" data-name="Trazado 50915" d="M0,0H270.194V114.581H0Z" transform="translate(1547 7272)" fill="none" stroke="#adcbf7" stroke-width="3"/>
    <path id="Trazado_39383" data-name="Trazado 39383" d="M850.273,89.758l5.359-1.742,3.751,13.936,3.751-76.742h187.548" transform="translate(742.985 7266.629)" fill="none" stroke="#00223d" stroke-miterlimit="10" stroke-width="1"/>
    <line id="Línea_213" data-name="Línea 213" x2="9.677" transform="translate(1751.226 7319.871)" fill="none" stroke="#00223d" stroke-miterlimit="10" stroke-width="1"/>
  </g>
</svg>
