<svg xmlns="http://www.w3.org/2000/svg" width="473.384" height="78.677" viewBox="0 0 473.384 78.677">
  <g id="Grupo_31311" data-name="Grupo 31311" transform="translate(-1384.5 -5639.5)">
    <rect id="Rectángulo_3892" data-name="Rectángulo 3892" width="470.384" height="75.677" transform="translate(1386 5641)" fill="none" stroke="#adcbf7" stroke-miterlimit="10" stroke-width="3"/>
    <g id="Grupo_12033" data-name="Grupo 12033" transform="translate(555.214 5270.553)">
      <g id="Grupo_12032" data-name="Grupo 12032">
        <path id="Trazado_39329" data-name="Trazado 39329" d="M927.457,412.9v-.4q.117-.053.327-.123a4.5,4.5,0,0,0,.445-.177q.322-.139.687-.332a11.728,11.728,0,0,0,1.535-.945l1.905-1.561q.483-.377,1.906-1.605l1.185-1.036a2.679,2.679,0,0,1,.254-.2l.594-.525c-.214-.3-.377-.54-.488-.715a2.54,2.54,0,0,0-.135-.228q-.561-1.026-.984-1.737L933.58,401.5a10.9,10.9,0,0,0-.962-1.575,1.835,1.835,0,0,0-.692-.6,4.62,4.62,0,0,0-1.464-.3,3.462,3.462,0,0,1-.462-.065l-.021-.386h.547l1.782.053a2.743,2.743,0,0,0,.333-.032q1.073.054,1.6.054l1.2-.022c.165,0,.32.006.467.017s.267.016.36.016h.2c.007.107.01.186.01.236v.15a5.514,5.514,0,0,0-2,.268c-.143.071-.215.161-.215.269l.011.1a4.643,4.643,0,0,0,.256.548q.065.107,1.8,3.221.678,1.2.991,1.648.128-.1,2.178-1.917,1.75-1.557,2.384-2.26a5.641,5.641,0,0,0,.725-.9.823.823,0,0,0,.091-.306.353.353,0,0,0-.161-.311,4.518,4.518,0,0,0-1.515-.418v-.075a.961.961,0,0,1,.054-.269l.129-.011h.515l1.084-.01.3.032q.075,0,1.911.075h.461c.051,0,.165,0,.344.011l-.011.419a4.54,4.54,0,0,0-2.264,1.148q-.215.162-.5.364c-.093.073-.424.343-.993.813l-1.242,1.172a6.33,6.33,0,0,0-.524.43q-.546.518-2.718,2.433.761,1.393,1.877,3.248.9,1.512,1.281,2.06l.547.772a5.62,5.62,0,0,0,.687.5c.157.071.315.14.472.2a5.356,5.356,0,0,1,.719.344l.011.118a1.341,1.341,0,0,1-.021.2,9.35,9.35,0,0,1-1.2-.118,11.994,11.994,0,0,0-1.734-.118q-.494,0-2.737.086c-.007-.108-.01-.186-.01-.236s0-.14.01-.248c.208-.028.4-.045.581-.053a1.985,1.985,0,0,0,1.076-.289.439.439,0,0,0,.236-.376,1.889,1.889,0,0,0-.289-.816q-1.02-1.881-2.167-3.642-.333-.542-.437-.736a34.435,34.435,0,0,0-2.679,2.266,18.686,18.686,0,0,0-2.525,2.577.951.951,0,0,0-.183.5.374.374,0,0,0,.183.28,2.373,2.373,0,0,0,1.056.378c.149.03.288.058.415.086-.021.108-.05.222-.086.344-.092.007-.16.011-.2.011l-.2.011-.182-.011-1.21-.081q-.675-.059-.857-.059l-1.81.108A5.359,5.359,0,0,1,927.457,412.9Z" fill="#00223d"/>
      </g>
    </g>
    <g id="Grupo_12035" data-name="Grupo 12035" transform="translate(529.214 5270.553)">
      <g id="Grupo_12034" data-name="Grupo 12034">
        <path id="Trazado_39330" data-name="Trazado 39330" d="M1043.586,412.9v-.4c.079-.035.187-.076.327-.123a4.6,4.6,0,0,0,.445-.177q.322-.139.687-.332a11.722,11.722,0,0,0,1.535-.945l1.906-1.561q.482-.377,1.905-1.605l1.185-1.036a2.6,2.6,0,0,1,.255-.2l.594-.525c-.215-.3-.378-.54-.489-.715a2.54,2.54,0,0,0-.135-.228q-.561-1.026-.984-1.737l-1.109-1.823a10.8,10.8,0,0,0-.961-1.575,1.835,1.835,0,0,0-.692-.6,4.62,4.62,0,0,0-1.464-.3,3.461,3.461,0,0,1-.462-.065l-.021-.386h.547l1.782.053a2.76,2.76,0,0,0,.333-.032q1.072.054,1.6.054l1.2-.022c.165,0,.32.006.467.017s.267.016.36.016h.2c.007.107.01.186.01.236v.15a5.514,5.514,0,0,0-2,.268c-.143.071-.215.161-.215.269l.011.1a4.632,4.632,0,0,0,.256.548q.064.107,1.8,3.221.678,1.2.99,1.648.129-.1,2.18-1.917,1.749-1.557,2.383-2.26a5.643,5.643,0,0,0,.725-.9.824.824,0,0,0,.091-.306.353.353,0,0,0-.161-.311,4.518,4.518,0,0,0-1.515-.418v-.075a.961.961,0,0,1,.054-.269l.129-.011h.515l1.084-.01.3.032q.074,0,1.91.075h.462c.049,0,.164,0,.343.011l-.011.419a4.54,4.54,0,0,0-2.264,1.148q-.215.162-.5.364c-.093.073-.424.343-.993.813l-1.242,1.172a6.333,6.333,0,0,0-.524.43q-.546.518-2.718,2.433.761,1.393,1.877,3.248.9,1.512,1.281,2.06l.547.772a5.62,5.62,0,0,0,.687.5c.157.071.315.14.472.2a5.3,5.3,0,0,1,.719.344l.011.118a1.341,1.341,0,0,1-.021.2,9.35,9.35,0,0,1-1.2-.118,12,12,0,0,0-1.734-.118q-.494,0-2.736.086c-.008-.108-.011-.186-.011-.236s0-.14.011-.248c.208-.028.4-.045.58-.053a1.985,1.985,0,0,0,1.076-.289.439.439,0,0,0,.236-.376,1.89,1.89,0,0,0-.289-.816q-1.02-1.881-2.166-3.642-.335-.542-.438-.736a34.437,34.437,0,0,0-2.679,2.266,18.682,18.682,0,0,0-2.525,2.577.951.951,0,0,0-.183.5.374.374,0,0,0,.183.28,2.373,2.373,0,0,0,1.057.378c.148.03.286.058.414.086-.021.108-.05.222-.086.344-.093.007-.16.011-.2.011l-.2.011-.182-.011-1.21-.081q-.675-.059-.857-.059l-1.81.108A5.359,5.359,0,0,1,1043.586,412.9Z" fill="#00223d"/>
      </g>
    </g>
    <g id="Grupo_12037" data-name="Grupo 12037" transform="translate(538.214 5270.553)">
      <g id="Grupo_12036" data-name="Grupo 12036">
        <path id="Trazado_39331" data-name="Trazado 39331" d="M975.978,406.666l.236.268a18.322,18.322,0,0,0-3.005,3.3,19.337,19.337,0,0,0-3.37,10.873,17.711,17.711,0,0,0,.869,5.313l-.311.193a15.544,15.544,0,0,1-1.514-6.73,15.838,15.838,0,0,1,1.777-7.271A16.028,16.028,0,0,1,975.978,406.666Z" fill="#00223d"/>
      </g>
    </g>
    <g id="Grupo_12039" data-name="Grupo 12039" transform="translate(538.214 5270.553)">
      <g id="Grupo_12038" data-name="Grupo 12038">
        <path id="Trazado_39332" data-name="Trazado 39332" d="M1004.857,427.145l-.3-.236a17.283,17.283,0,0,0,1.975-1.926,10.934,10.934,0,0,0,1-1.283q.054-.1.462-.686a19.686,19.686,0,0,0,1.213-2.265,17.486,17.486,0,0,0,1.234-3.445,19.831,19.831,0,0,0,.537-4.68,14.54,14.54,0,0,0-.167-2.26q-.167-1.058-.671-2.968l.3-.171a16.151,16.151,0,0,1,1.492,6.7,15.859,15.859,0,0,1-.73,4.786,15.431,15.431,0,0,1-2.6,4.943A15.737,15.737,0,0,1,1004.857,427.145Z" fill="#00223d"/>
      </g>
    </g>
    <g id="Grupo_12041" data-name="Grupo 12041" transform="translate(538.214 5270.553)">
      <g id="Grupo_12040" data-name="Grupo 12040">
        <path id="Trazado_39333" data-name="Trazado 39333" d="M991.295,425.672l-.168.64H987.5l.029-.137q2.067-1.954,2.768-2.685a6.422,6.422,0,0,0,1.126-1.467,1.8,1.8,0,0,0,.172-.806,1.069,1.069,0,0,0-.241-.759.882.882,0,0,0-.677-.256,1.333,1.333,0,0,0-.832.262,2.533,2.533,0,0,0-.67.956h-.274a2.653,2.653,0,0,1,.8-1.266,1.756,1.756,0,0,1,1.131-.414,1.571,1.571,0,0,1,1.137.4,1.365,1.365,0,0,1,.411,1.03,1.765,1.765,0,0,1-.112.645,2.618,2.618,0,0,1-.5.774q-.355.4-1.553,1.464l-1.816,1.623Z" fill="#00223d"/>
      </g>
    </g>
    <g id="Grupo_12043" data-name="Grupo 12043" transform="translate(538.214 5270.553)">
      <g id="Grupo_12042" data-name="Grupo 12042">
        <path id="Trazado_39334" data-name="Trazado 39334" d="M977.06,410.263a2.577,2.577,0,0,1,.314-.035c.142-.01.254-.021.333-.035a.8.8,0,0,0,.464-.155.426.426,0,0,0,.125-.247l.3-1.4c.051-.251.092-.428.123-.533l.016-.127.241-1.309a2.039,2.039,0,0,1,.082-.365,3.837,3.837,0,0,0,.108-.751l.077-.376.066-.64a.132.132,0,0,0-.066-.127,4.645,4.645,0,0,0-1.019-.2l.045-.163,1.883-.009a.686.686,0,0,1,.093.136c.041.069.134.205.277.411l.293.412c.117.189.236.376.36.558s.238.366.344.553q.113.188,1.588,2.5c.184.287.313.495.385.624.133.243.274.481.421.715.042-.209.077-.43.1-.659.137-.654.218-1.093.24-1.32.013-.125.03-.243.05-.355.016-.075.037-.211.063-.411l.079-.569c0-.063.042-.357.118-.88a9.113,9.113,0,0,0,.112-1.066.809.809,0,0,0-.046-.227,2.415,2.415,0,0,0-.739-.186c-.138-.024-.247-.044-.326-.061a.649.649,0,0,1-.015-.117V403.8l.066-.006c.064,0,.478.02,1.243.057.132.007.221.01.269.01.223,0,.445-.01.664-.031.156-.013.276-.02.361-.02a1.255,1.255,0,0,1-.061.22,5.553,5.553,0,0,0-.9.126.279.279,0,0,0-.143.087,1.98,1.98,0,0,0-.118.465c-.072.393-.12.68-.143.863s-.047.337-.073.462c-.033.171-.054.287-.064.344l-.191,1.386-.344,2.07q-.1.681-.108.8h-.121c-.034,0-.086,0-.157-.009-.068-.128-.149-.262-.241-.4l-1.47-2.271c-.065-.1-.121-.19-.169-.274l-.37-.548-1.171-1.82c-.161-.243-.3-.435-.411-.573a1.279,1.279,0,0,0-.093-.145c-.034-.045-.075-.107-.123-.184-.017-.024-.041-.061-.072-.112-.028.1-.063.286-.108.553l-.118.65q-.093.563-.319,1.709l-.118.61-.123.9c-.031.253-.07.487-.118.7a2.482,2.482,0,0,0-.072.523.206.206,0,0,0,.066.132,2.691,2.691,0,0,0,.329.106,1.981,1.981,0,0,0,.294.061q.035.006.542.127l-.046.177c-.08-.016-.221-.035-.423-.055q-.7-.072-.987-.072c-.088,0-.2,0-.333.011q-.579.025-.74.026c-.057,0-.15,0-.277-.006Z" fill="#00223d"/>
        <path id="Trazado_39335" data-name="Trazado 39335" d="M988.979,407h2.5v-2.506h.446V407h2.512v.447h-2.512v2.481h-.446v-2.481h-2.5Z" fill="#00223d"/>
        <path id="Trazado_39336" data-name="Trazado 39336" d="M998.978,410.441l1.619-5.562a8.134,8.134,0,0,1-1.675.95l-.02-.285a6.711,6.711,0,0,0,2.36-1.67h.335l-1.922,6.567Z" fill="#00223d"/>
      </g>
    </g>
    <line id="Línea_198" data-name="Línea 198" y1="0.055" x2="33.058" transform="translate(1511.649 5685.133)" fill="none" stroke="#00223d" stroke-miterlimit="10" stroke-width="1"/>
    <g id="Grupo_12045" data-name="Grupo 12045" transform="translate(506.214 5270.553)">
      <g id="Grupo_12044" data-name="Grupo 12044">
        <path id="Trazado_39337" data-name="Trazado 39337" d="M1093.849,406.666l.236.268a18.288,18.288,0,0,0-3.005,3.3,19.347,19.347,0,0,0-3.371,10.873,17.716,17.716,0,0,0,.87,5.313l-.311.193a15.545,15.545,0,0,1-1.514-6.73,15.837,15.837,0,0,1,1.777-7.271A16.028,16.028,0,0,1,1093.849,406.666Z" fill="#00223d"/>
      </g>
    </g>
    <g id="Grupo_12047" data-name="Grupo 12047" transform="translate(506.214 5270.553)">
      <g id="Grupo_12046" data-name="Grupo 12046">
        <path id="Trazado_39338" data-name="Trazado 39338" d="M1122.728,427.145l-.3-.236a17.2,17.2,0,0,0,1.975-1.926,10.92,10.92,0,0,0,1-1.283q.054-.1.462-.686a19.574,19.574,0,0,0,1.212-2.265,17.423,17.423,0,0,0,1.235-3.445,19.835,19.835,0,0,0,.536-4.68,14.544,14.544,0,0,0-.166-2.26q-.167-1.058-.671-2.968l.3-.171a16.152,16.152,0,0,1,1.492,6.7,15.861,15.861,0,0,1-.73,4.786,15.432,15.432,0,0,1-2.6,4.943A15.718,15.718,0,0,1,1122.728,427.145Z" fill="#00223d"/>
      </g>
    </g>
    <g id="Grupo_12049" data-name="Grupo 12049" transform="translate(506.214 5270.553)">
      <g id="Grupo_12048" data-name="Grupo 12048">
        <path id="Trazado_39339" data-name="Trazado 39339" d="M1109.166,425.672l-.167.64h-3.624l.029-.137q2.067-1.954,2.767-2.685a6.4,6.4,0,0,0,1.127-1.467,1.8,1.8,0,0,0,.172-.806,1.069,1.069,0,0,0-.241-.759.882.882,0,0,0-.677-.256,1.333,1.333,0,0,0-.832.262,2.532,2.532,0,0,0-.67.956h-.274a2.659,2.659,0,0,1,.8-1.266,1.76,1.76,0,0,1,1.132-.414,1.57,1.57,0,0,1,1.137.4,1.365,1.365,0,0,1,.411,1.03,1.766,1.766,0,0,1-.112.645,2.637,2.637,0,0,1-.5.774q-.355.4-1.553,1.464l-1.817,1.623Z" fill="#00223d"/>
      </g>
    </g>
    <g id="Grupo_12051" data-name="Grupo 12051" transform="translate(506.214 5270.553)">
      <g id="Grupo_12050" data-name="Grupo 12050">
        <path id="Trazado_39340" data-name="Trazado 39340" d="M1096.607,410.441l1.62-5.562a8.189,8.189,0,0,1-1.675.95l-.02-.285a6.719,6.719,0,0,0,2.36-1.67h.335l-1.923,6.567Z" fill="#00223d"/>
        <path id="Trazado_39341" data-name="Trazado 39341" d="M1101.479,410.441l1.619-5.562a8.135,8.135,0,0,1-1.675.95l-.02-.285a6.718,6.718,0,0,0,2.36-1.67h.335l-1.922,6.567Z" fill="#00223d"/>
        <path id="Trazado_39342" data-name="Trazado 39342" d="M1108.474,407h2.5v-2.506h.447V407h2.511v.447h-2.511v2.481h-.447v-2.481h-2.5Z" fill="#00223d"/>
        <path id="Trazado_39343" data-name="Trazado 39343" d="M1118.473,410.441l1.619-5.562a8.163,8.163,0,0,1-1.675.95l-.02-.285a6.718,6.718,0,0,0,2.36-1.67h.335l-1.923,6.567Z" fill="#00223d"/>
      </g>
    </g>
    <line id="Línea_199" data-name="Línea 199" y1="0.055" x2="33.058" transform="translate(1597.52 5685.133)" fill="none" stroke="#00223d" stroke-miterlimit="10" stroke-width="1"/>
    <g id="Grupo_12053" data-name="Grupo 12053" transform="translate(506.214 5270.553)">
      <g id="Grupo_12052" data-name="Grupo 12052">
        <path id="Trazado_39344" data-name="Trazado 39344" d="M1155.07,412.9v-.4q.117-.053.327-.123a4.6,4.6,0,0,0,.445-.177q.322-.139.687-.332a11.73,11.73,0,0,0,1.535-.945l1.905-1.561q.482-.377,1.906-1.605l1.185-1.036a2.674,2.674,0,0,1,.254-.2l.594-.525c-.214-.3-.377-.54-.488-.715a2.334,2.334,0,0,0-.136-.228q-.56-1.026-.983-1.737l-1.109-1.823a10.8,10.8,0,0,0-.961-1.575,1.834,1.834,0,0,0-.692-.6,4.62,4.62,0,0,0-1.465-.3,3.465,3.465,0,0,1-.461-.065l-.021-.386h.547l1.782.053a2.762,2.762,0,0,0,.333-.032q1.072.054,1.6.054l1.2-.022c.165,0,.32.006.467.017s.267.016.36.016h.2c.007.107.011.186.011.236v.15a5.513,5.513,0,0,0-2,.268c-.143.071-.215.161-.215.269l.011.1a4.632,4.632,0,0,0,.256.548q.064.107,1.8,3.221.678,1.2.99,1.648.129-.1,2.18-1.917,1.749-1.557,2.383-2.26a5.541,5.541,0,0,0,.724-.9.809.809,0,0,0,.092-.306.353.353,0,0,0-.161-.311,4.518,4.518,0,0,0-1.515-.418v-.075a.961.961,0,0,1,.054-.269l.129-.011h.515l1.084-.01.3.032q.075,0,1.911.075h.462c.049,0,.164,0,.343.011l-.011.419a4.54,4.54,0,0,0-2.264,1.148q-.215.162-.5.364c-.093.073-.424.343-.993.813l-1.242,1.172a6.333,6.333,0,0,0-.524.43q-.546.518-2.718,2.433.761,1.393,1.877,3.248.9,1.512,1.281,2.06l.547.772a5.609,5.609,0,0,0,.687.5c.157.071.315.14.472.2a5.353,5.353,0,0,1,.719.344l.011.118a1.341,1.341,0,0,1-.021.2,9.353,9.353,0,0,1-1.2-.118,12,12,0,0,0-1.734-.118q-.494,0-2.737.086c-.007-.108-.01-.186-.01-.236s0-.14.01-.248c.208-.028.4-.045.581-.053a1.985,1.985,0,0,0,1.076-.289.441.441,0,0,0,.236-.376,1.881,1.881,0,0,0-.29-.816q-1.019-1.881-2.166-3.642-.333-.542-.438-.736a34.65,34.65,0,0,0-2.678,2.266,18.675,18.675,0,0,0-2.525,2.577.95.95,0,0,0-.183.5.373.373,0,0,0,.183.28,2.373,2.373,0,0,0,1.057.378c.148.03.286.058.414.086-.021.108-.05.222-.086.344-.093.007-.16.011-.2.011l-.2.011-.182-.011-1.21-.081q-.675-.059-.857-.059l-1.81.108A5.358,5.358,0,0,1,1155.07,412.9Z" fill="#00223d"/>
      </g>
    </g>
    <g id="Grupo_12055" data-name="Grupo 12055" transform="translate(484.214 5270.553)">
      <g id="Grupo_12054" data-name="Grupo 12054">
        <path id="Trazado_39345" data-name="Trazado 39345" d="M1205.333,406.666l.236.268a18.288,18.288,0,0,0-3.005,3.3,19.347,19.347,0,0,0-3.371,10.873,17.716,17.716,0,0,0,.87,5.313l-.312.193a15.558,15.558,0,0,1-1.513-6.73,15.837,15.837,0,0,1,1.777-7.271A16.028,16.028,0,0,1,1205.333,406.666Z" fill="#00223d"/>
      </g>
    </g>
    <g id="Grupo_12057" data-name="Grupo 12057" transform="translate(484.214 5270.553)">
      <g id="Grupo_12056" data-name="Grupo 12056">
        <path id="Trazado_39346" data-name="Trazado 39346" d="M1219.116,427.145l-.3-.236a17.28,17.28,0,0,0,1.975-1.926,10.928,10.928,0,0,0,1-1.283q.054-.1.461-.686a19.376,19.376,0,0,0,1.213-2.265,17.361,17.361,0,0,0,1.235-3.445,19.777,19.777,0,0,0,.536-4.68,14.544,14.544,0,0,0-.166-2.26q-.166-1.058-.671-2.968l.3-.171a16.15,16.15,0,0,1,1.492,6.7,15.861,15.861,0,0,1-.73,4.786,15.432,15.432,0,0,1-2.6,4.943A15.731,15.731,0,0,1,1219.116,427.145Z" fill="#00223d"/>
      </g>
    </g>
    <g id="Grupo_12059" data-name="Grupo 12059" transform="translate(484.214 5270.553)">
      <g id="Grupo_12058" data-name="Grupo 12058">
        <path id="Trazado_39347" data-name="Trazado 39347" d="M1213.1,425.672l-.167.64h-3.623l.028-.137q2.067-1.954,2.768-2.685a6.426,6.426,0,0,0,1.126-1.467,1.8,1.8,0,0,0,.173-.806,1.074,1.074,0,0,0-.241-.759.886.886,0,0,0-.678-.256,1.335,1.335,0,0,0-.832.262,2.545,2.545,0,0,0-.67.956h-.274a2.66,2.66,0,0,1,.8-1.266,1.76,1.76,0,0,1,1.132-.414,1.57,1.57,0,0,1,1.136.4,1.365,1.365,0,0,1,.411,1.03,1.767,1.767,0,0,1-.111.645,2.647,2.647,0,0,1-.5.774q-.354.4-1.552,1.464l-1.817,1.623Z" fill="#00223d"/>
      </g>
    </g>
    <g id="Grupo_12061" data-name="Grupo 12061" transform="translate(484.214 5270.553)">
      <g id="Grupo_12060" data-name="Grupo 12060">
        <path id="Trazado_39348" data-name="Trazado 39348" d="M1208.091,410.441l1.619-5.562a8.153,8.153,0,0,1-1.674.95l-.02-.285a6.716,6.716,0,0,0,2.359-1.67h.335l-1.922,6.567Z" fill="#00223d"/>
        <path id="Trazado_39349" data-name="Trazado 39349" d="M1215.35,409.8l-.167.64h-3.623l.028-.137q2.067-1.954,2.768-2.684a6.446,6.446,0,0,0,1.126-1.467,1.8,1.8,0,0,0,.173-.807,1.073,1.073,0,0,0-.241-.759.885.885,0,0,0-.678-.255,1.334,1.334,0,0,0-.832.261,2.543,2.543,0,0,0-.67.956h-.274a2.653,2.653,0,0,1,.8-1.265,1.754,1.754,0,0,1,1.131-.414,1.57,1.57,0,0,1,1.137.4,1.369,1.369,0,0,1,.411,1.03,1.74,1.74,0,0,1-.112.645,2.606,2.606,0,0,1-.5.774q-.356.4-1.553,1.464l-1.816,1.623Z" fill="#00223d"/>
      </g>
    </g>
    <line id="Línea_200" data-name="Línea 200" x2="17.961" transform="translate(1687.004 5685.192)" fill="none" stroke="#00223d" stroke-miterlimit="10" stroke-width="1"/>
    <g id="Grupo_12063" data-name="Grupo 12063" transform="translate(555.214 5270.553)">
      <g id="Grupo_12062" data-name="Grupo 12062">
        <path id="Trazado_39350" data-name="Trazado 39350" d="M879.793,415.023v-.086a.5.5,0,0,1,.106-.344,3.678,3.678,0,0,0,1.081-.235,1.02,1.02,0,0,0,.424-.242,3.485,3.485,0,0,0,.529-.843,17.831,17.831,0,0,0,.877-2.329l.949-2.769q.2-.676.274-.89l1.3-3.6q.262-.828.474-1.363a1.407,1.407,0,0,0,.118-.455.448.448,0,0,0-.257-.44,3.963,3.963,0,0,0-1.085-.211c-.644.022-.987.032-1.03.032h-.129l-.107-.44c.255-.015.408-.021.458-.021.206.014.344.021.415.021l.917-.032q.873,0,1.47.053c.156.015.377.026.661.033a.3.3,0,0,1,.074.118,4.966,4.966,0,0,1,.213.923l.317,1.76c.07.257.165.745.285,1.459q.346,2.029.474,3.082.327,1.534.421,2.3c.008.065.088.54.243,1.428a6.973,6.973,0,0,0,.148.751q.513-.741.89-1.368t1.295-2.324l2.328-3.972.481-.826q.885-1.643,1.989-3.37.724.031,1.4.032c.058,0,.13,0,.217-.005s.187-.006.3-.006l1.255-.032c.051.007.119.015.206.021l-.032.344a5.406,5.406,0,0,1-.8.194,3.413,3.413,0,0,0-.984.3.713.713,0,0,0-.317.4q-.339,2.157-.9,5.249l-.995,5.581-.011.086q-.021.16-.054.632a2.206,2.206,0,0,1-.033.29l-.022.108a.416.416,0,0,0,.033.14,1.717,1.717,0,0,0,.375.225,7.433,7.433,0,0,0,1.125.2c.264.036.46.069.589.1v.1a.564.564,0,0,1-.056.214q-.477.022-.689.022-.534,0-1.256-.07a13.034,13.034,0,0,0-1.356-.059q-.723,0-1.7.043c-.229.007-.378.011-.444.011-.1,0-.234-.007-.389-.022a.546.546,0,0,1-.045-.172.648.648,0,0,1,.076-.247c.186-.013.322-.021.408-.021a3.549,3.549,0,0,0,1.345-.235.643.643,0,0,0,.247-.266,6.3,6.3,0,0,0,.323-1.42l.495-2.533.569-2.919q.146-.816.254-1.611.169-.783.272-1.475t.175-1.036q.085-.484.109-.751-1.839,3.191-2.307,3.888-.11.173-1.436,2.471l-.468.913a5.025,5.025,0,0,0-.37.559q-1.861,3.255-2.655,4.78-.186.343-.327.58h-.4c0-.358-.015-.691-.043-1q-.094-1.16-.2-1.891-.021-.127-.285-1.536l-.622-3.47a8.053,8.053,0,0,1-.116-.8,4.807,4.807,0,0,0-.116-.7q-.137-.6-.358-1.881l-.264-1.4a2.307,2.307,0,0,0-.137.387l-1.117,3.252-.685,2.083q-.306.783-.744,2.34t-.806,2.564a1.465,1.465,0,0,0-.1.462.434.434,0,0,0,.14.327,2.364,2.364,0,0,0,.739.338c.171.03.311.054.418.076a5.924,5.924,0,0,1,.824.1.236.236,0,0,1,.129.108,1.134,1.134,0,0,1-.053.354l-.745-.032-.479-.022c-.042,0-.1,0-.181.011a17.407,17.407,0,0,0-1.947-.107Q881.314,414.991,879.793,415.023Z" fill="#00223d"/>
        <path id="Trazado_39351" data-name="Trazado 39351" d="M901.034,411.126a5.73,5.73,0,0,0-.354,1.969,1.841,1.841,0,0,0,.343,1.167.728.728,0,0,0,.612.3.875.875,0,0,0,.419-.1,2.8,2.8,0,0,0,.682-.48,5.081,5.081,0,0,0,.595-.727,4.134,4.134,0,0,0,.505-1.005h.15a2.285,2.285,0,0,1,.29.022,5.064,5.064,0,0,1-1.589,2.353,2.442,2.442,0,0,1-1.642.717,1.186,1.186,0,0,1-.966-.515,2.972,2.972,0,0,1-.526-1.868,5.965,5.965,0,0,1,.156-1.234,6.821,6.821,0,0,1,.359-1.2,12.05,12.05,0,0,1,.719-1.417l.827-1.2q.805-.859.9-.945a3.047,3.047,0,0,1,.757-.488,1.952,1.952,0,0,1,.789-.167,1.21,1.21,0,0,1,.923.442,1.59,1.59,0,0,1,.4,1.108,2.463,2.463,0,0,1-.306,1.167,2.531,2.531,0,0,1-.66.844l-.891.581a7.29,7.29,0,0,1-.8.274Q902.065,410.922,901.034,411.126Zm.183-.546a3.169,3.169,0,0,0,1.073-.269,5.658,5.658,0,0,0,1.052-.591,2.821,2.821,0,0,0,.59-.585,3.2,3.2,0,0,0,.505-.858,2.539,2.539,0,0,0,.171-.917.743.743,0,0,0-.182-.516.541.541,0,0,0-.408-.2,1.158,1.158,0,0,0-.687.333,6.969,6.969,0,0,0-1.4,1.943A8.974,8.974,0,0,0,901.217,410.58Z" fill="#00223d"/>
        <path id="Trazado_39352" data-name="Trazado 39352" d="M912.69,405.2h11.5v.945h-11.5Zm0,4.969h11.5v.955h-11.5Z" fill="#00223d"/>
      </g>
    </g>
    <g id="Grupo_12065" data-name="Grupo 12065" transform="translate(538.214 5270.553)">
      <g id="Grupo_12064" data-name="Grupo 12064">
        <path id="Trazado_39353" data-name="Trazado 39353" d="M1018.842,405.2h11.5v.945h-11.5Zm0,4.969h11.5v.955h-11.5Z" fill="#00223d"/>
      </g>
    </g>
    <g id="Grupo_12067" data-name="Grupo 12067" transform="translate(506.214 5270.553)">
      <g id="Grupo_12066" data-name="Grupo 12066">
        <path id="Trazado_39354" data-name="Trazado 39354" d="M1136.713,405.2h11.5v.945h-11.5Zm0,4.969h11.5v.955h-11.5Z" fill="#00223d"/>
      </g>
    </g>
    <g id="Grupo_12069" data-name="Grupo 12069" transform="translate(484.214 5270.553)">
      <g id="Grupo_12068" data-name="Grupo 12068">
        <path id="Trazado_39355" data-name="Trazado 39355" d="M1249.134,412.9v-.4q.118-.053.327-.123a4.619,4.619,0,0,0,.446-.177q.322-.139.687-.332a11.869,11.869,0,0,0,1.535-.945l1.905-1.561q.481-.377,1.906-1.605l1.184-1.036a2.913,2.913,0,0,1,.255-.2l.594-.525c-.215-.3-.377-.54-.488-.715a2.334,2.334,0,0,0-.136-.228q-.56-1.026-.983-1.737l-1.109-1.823a10.811,10.811,0,0,0-.962-1.575,1.835,1.835,0,0,0-.692-.6,4.607,4.607,0,0,0-1.464-.3,3.443,3.443,0,0,1-.461-.065l-.022-.386h.548l1.781.053a2.724,2.724,0,0,0,.333-.032q1.074.054,1.6.054l1.2-.022c.164,0,.32.006.466.017s.267.016.36.016h.2c.007.107.011.186.011.236v.15a5.517,5.517,0,0,0-2,.268c-.143.071-.215.161-.215.269l.011.1a4.843,4.843,0,0,0,.256.548q.064.107,1.805,3.221.678,1.2.99,1.648.129-.1,2.179-1.917,1.749-1.557,2.383-2.26a5.579,5.579,0,0,0,.725-.9.8.8,0,0,0,.091-.306.353.353,0,0,0-.161-.311,4.5,4.5,0,0,0-1.514-.418v-.075a.952.952,0,0,1,.053-.269l.129-.011h.515l1.084-.01.3.032q.075,0,1.911.075h.461c.05,0,.165,0,.343.011l-.01.419a4.542,4.542,0,0,0-2.265,1.148q-.215.162-.5.364c-.092.073-.423.343-.993.813l-1.242,1.172a6.528,6.528,0,0,0-.524.43q-.546.518-2.718,2.433.762,1.393,1.877,3.248.9,1.512,1.281,2.06l.547.772a5.62,5.62,0,0,0,.687.5c.158.071.315.14.473.2a5.427,5.427,0,0,1,.719.344l.011.118a1.382,1.382,0,0,1-.022.2,9.349,9.349,0,0,1-1.2-.118,11.99,11.99,0,0,0-1.733-.118q-.493,0-2.737.086c-.007-.108-.011-.186-.011-.236s0-.14.011-.248c.208-.028.4-.045.581-.053a1.986,1.986,0,0,0,1.076-.289.441.441,0,0,0,.236-.376,1.894,1.894,0,0,0-.29-.816q-1.018-1.881-2.166-3.642-.333-.542-.438-.736a34.486,34.486,0,0,0-2.678,2.266,18.782,18.782,0,0,0-2.526,2.577.951.951,0,0,0-.183.5.374.374,0,0,0,.183.28,2.378,2.378,0,0,0,1.057.378c.149.03.287.058.415.086-.022.108-.051.222-.086.344-.093.007-.161.011-.2.011l-.2.011-.182-.011-1.211-.081c-.45-.039-.735-.059-.857-.059l-1.81.108A5.332,5.332,0,0,1,1249.134,412.9Z" fill="#00223d"/>
      </g>
    </g>
    <g id="Grupo_12071" data-name="Grupo 12071" transform="translate(458.214 5270.553)">
      <g id="Grupo_12070" data-name="Grupo 12070">
        <path id="Trazado_39356" data-name="Trazado 39356" d="M1329.907,412.774l3.425-11.764a17.215,17.215,0,0,1-3.542,2.007l-.043-.6a14.216,14.216,0,0,0,4.991-3.531h.709l-4.066,13.889Z" fill="#00223d"/>
        <path id="Trazado_39357" data-name="Trazado 39357" d="M1336.481,415.951q1.074-.708,1.267-.88a3.969,3.969,0,0,0,.885-1,1.847,1.847,0,0,0,.306-.912,1.023,1.023,0,0,0-.333-.613,1.618,1.618,0,0,1-.482-.987,1.749,1.749,0,0,1,.4-1.084.761.761,0,0,1,.612-.322.909.909,0,0,1,.708.408,2,2,0,0,1,.429,1.288,4.2,4.2,0,0,1-.955,2.345,6.524,6.524,0,0,1-2.7,2.109Z" fill="#00223d"/>
        <path id="Trazado_39358" data-name="Trazado 39358" d="M1342.31,412.892a.644.644,0,0,1,.091-.381.939.939,0,0,1,.413-.177,7.77,7.77,0,0,0,2.909-1.614,13.6,13.6,0,0,0,2.56-2.7,18.711,18.711,0,0,0,1.889-3.577,9.531,9.531,0,0,0,.885-3.271,1.937,1.937,0,0,0-.386-1.3,1.169,1.169,0,0,0-.913-.452,3.068,3.068,0,0,0-1.776.713,5.634,5.634,0,0,0-1.653,2.187,6.233,6.233,0,0,0-.692,2.577,1.341,1.341,0,0,0,.322.922.948.948,0,0,0,.719.364,2.235,2.235,0,0,0,.617-.1,2.285,2.285,0,0,0,.649-.306.1.1,0,0,1,.1.054.5.5,0,0,1,.064.279.509.509,0,0,1-.3.418,2.8,2.8,0,0,1-1.514.376,2.021,2.021,0,0,1-1-.274,1.858,1.858,0,0,1-.768-.862,2.942,2.942,0,0,1-.278-1.276,5.557,5.557,0,0,1,1.921-4.074,4.877,4.877,0,0,1,3.316-1.564,2.547,2.547,0,0,1,1.975.81,3.51,3.51,0,0,1,.741,2.44,7.49,7.49,0,0,1-.2,1.78,11.568,11.568,0,0,1-1.229,2.965,12.219,12.219,0,0,1-2.184,2.74,15.98,15.98,0,0,1-2.244,1.782,10.6,10.6,0,0,1-2.64,1.339q-.7.193-.794.237a.949.949,0,0,1-.279.086A.64.64,0,0,1,1342.31,412.892Z" fill="#00223d"/>
      </g>
    </g>
    <g id="Grupo_12073" data-name="Grupo 12073" transform="translate(458.214 5270.553)">
      <g id="Grupo_12072" data-name="Grupo 12072">
        <path id="Trazado_39359" data-name="Trazado 39359" d="M1294.472,415.279l.112.127a8.656,8.656,0,0,0-1.421,1.558,9.146,9.146,0,0,0-1.593,5.14,8.382,8.382,0,0,0,.411,2.512l-.147.092a7.356,7.356,0,0,1-.716-3.182,7.489,7.489,0,0,1,.84-3.438A7.588,7.588,0,0,1,1294.472,415.279Z" fill="#00223d"/>
        <path id="Trazado_39360" data-name="Trazado 39360" d="M1300.8,415.538a.322.322,0,0,1-.043.181.441.441,0,0,1-.191.083,3.741,3.741,0,0,0-1.377.765,6.5,6.5,0,0,0-1.211,1.276,8.743,8.743,0,0,0-.9,1.691,4.5,4.5,0,0,0-.418,1.551.905.905,0,0,0,.185.611.556.556,0,0,0,.433.216,1.433,1.433,0,0,0,.835-.34,2.673,2.673,0,0,0,.781-1.036,2.935,2.935,0,0,0,.328-1.219.626.626,0,0,0-.152-.432.449.449,0,0,0-.34-.17,1.074,1.074,0,0,0-.287.046,1.1,1.1,0,0,0-.312.141.052.052,0,0,1-.041-.019.239.239,0,0,1-.035-.136.247.247,0,0,1,.142-.2,1.338,1.338,0,0,1,.715-.176.972.972,0,0,1,.477.129.858.858,0,0,1,.363.41,1.422,1.422,0,0,1,.13.6,2.623,2.623,0,0,1-.909,1.923,2.292,2.292,0,0,1-1.568.739,1.2,1.2,0,0,1-.933-.383,1.658,1.658,0,0,1-.351-1.153,3.489,3.489,0,0,1,.1-.837,5.545,5.545,0,0,1,.586-1.4,5.9,5.9,0,0,1,1.033-1.3,6.889,6.889,0,0,1,1.06-.836,4.808,4.808,0,0,1,1.243-.634q.33-.1.381-.117a.427.427,0,0,1,.127-.04A.3.3,0,0,1,1300.8,415.538Z" fill="#00223d"/>
        <path id="Trazado_39361" data-name="Trazado 39361" d="M1302.342,424.687l-.142-.112a8.073,8.073,0,0,0,.934-.91,5.274,5.274,0,0,0,.472-.606c.017-.031.09-.139.218-.326a8.948,8.948,0,0,0,.573-1.07,8.15,8.15,0,0,0,.584-1.629,9.357,9.357,0,0,0,.254-2.213,6.92,6.92,0,0,0-.079-1.067q-.078-.5-.317-1.4l.142-.081a7.631,7.631,0,0,1,.705,3.166,7.491,7.491,0,0,1-.345,2.263,7.268,7.268,0,0,1-1.228,2.336A7.42,7.42,0,0,1,1302.342,424.687Z" fill="#00223d"/>
      </g>
    </g>
    <g id="Grupo_12075" data-name="Grupo 12075" transform="translate(484.214 5270.553)">
      <g id="Grupo_12074" data-name="Grupo 12074">
        <path id="Trazado_39362" data-name="Trazado 39362" d="M1230.778,405.2h11.495v.945h-11.495Zm0,4.969h11.495v.955h-11.495Z" fill="#00223d"/>
      </g>
    </g>
    <g id="Grupo_12077" data-name="Grupo 12077" transform="translate(458.214 5270.553)">
      <g id="Grupo_12076" data-name="Grupo 12076">
        <path id="Trazado_39363" data-name="Trazado 39363" d="M1308,405.2H1319.5v.945H1308Zm0,4.969H1319.5v.955H1308Z" fill="#00223d"/>
      </g>
    </g>
  </g>
</svg>
