<svg id="Grupo_17126" data-name="Grupo 17126" xmlns="http://www.w3.org/2000/svg" width="70.917" height="78.182" viewBox="0 0 70.917 78.182">
  <g id="Grupo_17125" data-name="Grupo 17125" transform="translate(35.314 46.645)">
    <path id="Trazado_45413" data-name="Trazado 45413" d="M34.8-1037.126a5.612,5.612,0,0,1-3.991-1.651l-8.714-8.7a5.611,5.611,0,0,1-1.659-3.993,5.614,5.614,0,0,1,1.651-4,5.61,5.61,0,0,1,3.994-1.659h0a5.612,5.612,0,0,1,3.993,1.652l4.715,4.707,11.6-11.622a5.655,5.655,0,0,1,7.99-.007,5.656,5.656,0,0,1,.007,7.99L38.8-1038.785a5.612,5.612,0,0,1-3.994,1.659v0Zm-8.715-17a2.643,2.643,0,0,0-1.875.777,2.632,2.632,0,0,0-.774,1.875,2.634,2.634,0,0,0,.778,1.873l8.714,8.7a2.746,2.746,0,0,0,1.875.775,2.633,2.633,0,0,0,1.873-.778l15.591-15.621a2.653,2.653,0,0,0,0-3.747,2.654,2.654,0,0,0-3.748,0l-12.659,12.683a1.5,1.5,0,0,1-1.061.441h0a1.5,1.5,0,0,1-1.059-.439l-5.778-5.766A2.642,2.642,0,0,0,26.083-1054.124Z" transform="translate(-20.434 1064.044)" fill="#fff"/>
  </g>
  <path id="Trazado_45414" data-name="Trazado 45414" d="M48.511-1032.507H23.7a1.5,1.5,0,0,1-1.5-1.5v-8.118h3v6.618h21.81v-8.523h3v10.023A1.5,1.5,0,0,1,48.511-1032.507Z" transform="translate(14.88 1110.689)" fill="#fff"/>
  <path id="Trazado_45415" data-name="Trazado 45415" d="M25.2-1058.346h-3v-2.731a1.5,1.5,0,0,1,1.5-1.5H47.2v3h-22Z" transform="translate(14.88 1110.689)" fill="#fff"/>
  <path id="Trazado_45416" data-name="Trazado 45416" d="M23.7-1032.622H-13.38a1.5,1.5,0,0,1-1.5-1.5v-68.619a1.5,1.5,0,0,1,1.5-1.5h32.8a1.5,1.5,0,0,1,.982.365l20.7,17.912a1.5,1.5,0,0,1,.519,1.135v19.116h-3v-18.431l-19.758-17.1H-11.88v65.619H23.7Z" transform="translate(14.88 1110.689)" fill="#fff"/>
  <path id="Trazado_45417" data-name="Trazado 45417" d="M40.116-1083.329H19.164a1.5,1.5,0,0,1-1.5-1.5v-17.912h3v16.412H40.116Z" transform="translate(14.88 1110.689)" fill="#fff"/>
  <path id="Trazado_45418" data-name="Trazado 45418" d="M49.58-1065.713h-3v-26.076l-18.26-15.9H-2.507v4.948h-3v-6.448a1.5,1.5,0,0,1,1.5-1.5H28.881a1.508,1.508,0,0,1,.986.368l19.2,16.717a1.5,1.5,0,0,1,.514,1.132Z" transform="translate(14.88 1110.689)" fill="#fff"/>
  <rect id="Rectángulo_5488" data-name="Rectángulo 5488" width="18.665" height="3" transform="translate(8.656 23.194)" fill="#fff"/>
  <rect id="Rectángulo_5489" data-name="Rectángulo 5489" width="18.237" height="3" transform="translate(24.43 33.323)" fill="#fff"/>
  <rect id="Rectángulo_5490" data-name="Rectángulo 5490" width="4.744" height="3" transform="translate(16.925 33.323)" fill="#fff"/>
  <rect id="Rectángulo_5491" data-name="Rectángulo 5491" width="5.47" height="3" transform="translate(8.656 33.323)" fill="#fff"/>
  <rect id="Rectángulo_5492" data-name="Rectángulo 5492" width="22.968" height="3" transform="translate(8.656 43.451)" fill="#fff"/>
  <rect id="Rectángulo_5493" data-name="Rectángulo 5493" width="5.858" height="3" transform="translate(25.765 53.58)" fill="#fff"/>
  <rect id="Rectángulo_5494" data-name="Rectángulo 5494" width="14.103" height="3" transform="translate(8.656 53.58)" fill="#fff"/>
  <rect id="Rectángulo_5495" data-name="Rectángulo 5495" width="22.968" height="3" transform="translate(8.656 63.791)" fill="#fff"/>
</svg>
