<svg xmlns="http://www.w3.org/2000/svg" xmlns:xlink="http://www.w3.org/1999/xlink" width="458.774" height="399.936" viewBox="0 0 458.774 399.936">
  <defs>
    <clipPath id="clip-path">
      <rect id="Rectángulo_6010" data-name="Rectángulo 6010" width="337" height="382.205" fill="none"/>
    </clipPath>
  </defs>
  <g id="Grupo_31310" data-name="Grupo 31310" transform="translate(-449 -1884)">
    <rect id="Rectángulo_3851" data-name="Rectángulo 3851" width="456.774" height="397.935" transform="translate(450 1885)" fill="none" stroke="#ddd" stroke-miterlimit="10" stroke-width="2"/>
    <g id="Grupo_31309" data-name="Grupo 31309" transform="translate(504 1895)">
      <g id="Grupo_31308" data-name="Grupo 31308" clip-path="url(#clip-path)">
        <path id="Trazado_50793" data-name="Trazado 50793" d="M253.662,47.726V33.348A16.973,16.973,0,0,0,236.7,16.39H85.92A16.973,16.973,0,0,0,68.961,33.348v69.106a16.976,16.976,0,0,0,16.959,16.97H236.7a16.976,16.976,0,0,0,16.959-16.97V87.3h11.309V47.726Zm-11.309,54.728a5.66,5.66,0,0,1-5.649,5.662H85.92a5.662,5.662,0,0,1-5.652-5.662V33.348A5.659,5.659,0,0,1,85.92,27.7H236.7a5.657,5.657,0,0,1,5.649,5.649Z" transform="translate(-36.012 -8.559)" fill="#638ace"/>
        <path id="Trazado_50794" data-name="Trazado 50794" d="M520.114,116.519h-7.028v-5.063h7.028v-6.934H525.2v6.934h7.028v5.063H525.2v6.819h-5.082Z" transform="translate(-267.94 -54.583)" fill="#638ace"/>
        <rect id="Rectángulo_5993" data-name="Rectángulo 5993" width="16.549" height="5.215" transform="translate(1.433 56.741)" fill="#638ace"/>
        <path id="Trazado_50795" data-name="Trazado 50795" d="M128.028,63.9a8.5,8.5,0,1,1-8.5-8.5,8.5,8.5,0,0,1,8.5,8.5" transform="translate(-57.977 -28.93)" fill="#638ace"/>
        <path id="Trazado_50796" data-name="Trazado 50796" d="M127.632,101.829l-.036-2.764V98.2a5.024,5.024,0,0,0-4.98-5.066h-3.155l-1.3,2.248-1.553,2.691-1.553-2.691-1.3-2.248H110.6a5.024,5.024,0,0,0-4.979,5.066v.862l-.033,2.764-.149,11.573a2.014,2.014,0,0,0,3.792.943,1.944,1.944,0,0,0,.227-.943l-.148-11.573-.03-2.233a.525.525,0,0,1,.525-.531h.012a.525.525,0,0,1,.525.525v14.231a.524.524,0,0,0,.524.524h11.488a.525.525,0,0,0,.525-.524V99.59a.525.525,0,0,1,.524-.525h.01a.524.524,0,0,1,.525.531l-.027,2.233-.149,11.573a1.945,1.945,0,0,0,.228.943,2.019,2.019,0,0,0,3.563,0,1.972,1.972,0,0,0,.228-.943Z" transform="translate(-55.06 -48.637)" fill="#638ace"/>
        <path id="Trazado_50797" data-name="Trazado 50797" d="M115.7,139.762v23.193a2.42,2.42,0,0,0,4.829,0V143.488h2.879v19.467a2.42,2.42,0,0,0,4.829,0V139.762Z" transform="translate(-60.42 -72.986)" fill="#638ace"/>
        <path id="Trazado_50798" data-name="Trazado 50798" d="M180.694,63.9a8.5,8.5,0,1,1-8.5-8.5,8.5,8.5,0,0,1,8.5,8.5" transform="translate(-85.479 -28.93)" fill="#638ace"/>
        <path id="Trazado_50799" data-name="Trazado 50799" d="M180.3,101.829l-.036-2.764V98.2a5.024,5.024,0,0,0-4.98-5.066h-3.155l-1.3,2.248-1.553,2.691-1.553-2.691-1.3-2.248h-3.158a5.024,5.024,0,0,0-4.979,5.066v.862l-.033,2.764L158.1,113.4a2.014,2.014,0,0,0,3.792.943,1.944,1.944,0,0,0,.227-.943l-.148-11.573-.03-2.233a.525.525,0,0,1,.525-.531h.012a.525.525,0,0,1,.525.525v14.231a.524.524,0,0,0,.524.524h11.488a.525.525,0,0,0,.525-.524V99.59a.525.525,0,0,1,.524-.525h.01a.524.524,0,0,1,.525.531l-.027,2.233-.149,11.573a1.945,1.945,0,0,0,.228.943,2.019,2.019,0,0,0,3.563,0,1.972,1.972,0,0,0,.228-.943Z" transform="translate(-82.563 -48.637)" fill="#638ace"/>
        <path id="Trazado_50800" data-name="Trazado 50800" d="M168.366,139.762v23.193a2.42,2.42,0,0,0,4.829,0V143.488h2.879v19.467a2.42,2.42,0,0,0,4.829,0V139.762Z" transform="translate(-87.923 -72.986)" fill="#638ace"/>
        <path id="Trazado_50801" data-name="Trazado 50801" d="M233.36,63.9a8.5,8.5,0,1,1-8.5-8.5,8.5,8.5,0,0,1,8.5,8.5" transform="translate(-112.982 -28.93)" fill="#cfd1d1"/>
        <path id="Trazado_50802" data-name="Trazado 50802" d="M232.964,101.829l-.036-2.764V98.2a5.024,5.024,0,0,0-4.98-5.066h-3.155l-1.3,2.248-1.553,2.691-1.553-2.691-1.3-2.248h-3.158a5.024,5.024,0,0,0-4.98,5.066v.862l-.033,2.764-.149,11.573a2.014,2.014,0,0,0,3.792.943,1.944,1.944,0,0,0,.227-.943l-.148-11.573-.03-2.233a.525.525,0,0,1,.525-.531h.012a.525.525,0,0,1,.525.525v14.231a.524.524,0,0,0,.524.524h11.488a.525.525,0,0,0,.525-.524V99.59a.525.525,0,0,1,.524-.525h.01a.524.524,0,0,1,.525.531l-.027,2.233-.149,11.573a1.945,1.945,0,0,0,.228.943,2.019,2.019,0,0,0,3.563,0,1.972,1.972,0,0,0,.228-.943Z" transform="translate(-110.066 -48.637)" fill="#cfd1d1"/>
        <path id="Trazado_50803" data-name="Trazado 50803" d="M221.032,139.762v23.193a2.42,2.42,0,0,0,4.829,0V143.488h2.879v19.467a2.42,2.42,0,0,0,4.829,0V139.762Z" transform="translate(-115.426 -72.986)" fill="#cfd1d1"/>
        <path id="Trazado_50804" data-name="Trazado 50804" d="M286.026,63.9a8.5,8.5,0,1,1-8.5-8.5,8.5,8.5,0,0,1,8.5,8.5" transform="translate(-140.485 -28.93)" fill="#cfd1d1"/>
        <path id="Trazado_50805" data-name="Trazado 50805" d="M285.63,101.829l-.036-2.764V98.2a5.024,5.024,0,0,0-4.98-5.066h-3.155l-1.3,2.248-1.553,2.691-1.553-2.691-1.3-2.248H268.6a5.024,5.024,0,0,0-4.98,5.066v.862l-.033,2.764-.149,11.573a2.014,2.014,0,0,0,3.792.943,1.945,1.945,0,0,0,.227-.943l-.148-11.573-.03-2.233a.525.525,0,0,1,.525-.531h.012a.525.525,0,0,1,.525.525v14.231a.524.524,0,0,0,.524.524h11.488a.525.525,0,0,0,.525-.524V99.59a.525.525,0,0,1,.524-.525h.01a.524.524,0,0,1,.525.531l-.027,2.233-.149,11.573a1.945,1.945,0,0,0,.228.943,2.019,2.019,0,0,0,3.563,0,1.972,1.972,0,0,0,.228-.943Z" transform="translate(-137.569 -48.637)" fill="#cfd1d1"/>
        <path id="Trazado_50806" data-name="Trazado 50806" d="M273.7,139.762v23.193a2.42,2.42,0,0,0,4.829,0V143.488h2.879v19.467a2.42,2.42,0,0,0,4.829,0V139.762Z" transform="translate(-142.929 -72.986)" fill="#cfd1d1"/>
        <path id="Trazado_50807" data-name="Trazado 50807" d="M338.692,63.9a8.5,8.5,0,1,1-8.5-8.5,8.5,8.5,0,0,1,8.5,8.5" transform="translate(-167.988 -28.93)" fill="#cfd1d1"/>
        <path id="Trazado_50808" data-name="Trazado 50808" d="M338.3,101.829l-.036-2.764V98.2a5.024,5.024,0,0,0-4.98-5.066h-3.154l-1.3,2.248-1.554,2.691-1.553-2.691-1.3-2.248h-3.159a5.024,5.024,0,0,0-4.98,5.066v.862l-.033,2.764L316.1,113.4a2.014,2.014,0,0,0,3.792.943,1.944,1.944,0,0,0,.227-.943l-.148-11.573-.03-2.233a.525.525,0,0,1,.525-.531h.012a.525.525,0,0,1,.525.525v14.231a.524.524,0,0,0,.524.524h11.489a.525.525,0,0,0,.525-.524V99.59a.525.525,0,0,1,.524-.525h.01a.524.524,0,0,1,.525.531l-.026,2.233-.149,11.573a1.945,1.945,0,0,0,.228.943,2.02,2.02,0,0,0,3.564,0,1.977,1.977,0,0,0,.228-.943Z" transform="translate(-165.072 -48.637)" fill="#cfd1d1"/>
        <path id="Trazado_50809" data-name="Trazado 50809" d="M326.364,139.762v23.193a2.42,2.42,0,0,0,4.829,0V143.488h2.879v19.467a2.42,2.42,0,0,0,4.829,0V139.762Z" transform="translate(-170.431 -72.986)" fill="#cfd1d1"/>
        <path id="Trazado_50810" data-name="Trazado 50810" d="M391.358,63.9a8.5,8.5,0,1,1-8.5-8.5,8.5,8.5,0,0,1,8.5,8.5" transform="translate(-195.491 -28.93)" fill="#cfd1d1"/>
        <path id="Trazado_50811" data-name="Trazado 50811" d="M390.963,101.829l-.036-2.764V98.2a5.024,5.024,0,0,0-4.98-5.066h-3.154l-1.3,2.248-1.554,2.691-1.553-2.691-1.3-2.248h-3.159a5.024,5.024,0,0,0-4.98,5.066v.862l-.033,2.764-.149,11.573a2.014,2.014,0,0,0,3.791.943,1.945,1.945,0,0,0,.228-.943l-.148-11.573-.03-2.233a.525.525,0,0,1,.525-.531h.012a.525.525,0,0,1,.526.525v14.231a.524.524,0,0,0,.524.524h11.488a.525.525,0,0,0,.525-.524V99.59a.525.525,0,0,1,.524-.525h.01a.523.523,0,0,1,.525.531l-.026,2.233-.149,11.573a1.945,1.945,0,0,0,.228.943,2.02,2.02,0,0,0,3.564,0,1.977,1.977,0,0,0,.228-.943Z" transform="translate(-192.575 -48.637)" fill="#cfd1d1"/>
        <path id="Trazado_50812" data-name="Trazado 50812" d="M379.031,139.762v23.193a2.42,2.42,0,0,0,4.829,0V143.488h2.879v19.467a2.42,2.42,0,0,0,4.829,0V139.762Z" transform="translate(-197.935 -72.986)" fill="#cfd1d1"/>
        <path id="Trazado_50813" data-name="Trazado 50813" d="M616.109,64.518H612.2l.018-6.51h3.9Z" transform="translate(-319.698 -30.293)" fill="#fcb560"/>
        <path id="Trazado_50814" data-name="Trazado 50814" d="M614.843,132.684H595.49c-1.183,25.393-.11,33.394.9,48.046l5.926.087c1.088-12.534,1.088-15.629,1.229-38.1h3.247c.14,22.474.14,25.568,1.23,38.1l5.925-.087c1.009-14.652,2.083-22.652.9-48.046" transform="translate(-310.701 -69.289)" fill="#262626"/>
        <path id="Trazado_50815" data-name="Trazado 50815" d="M632.3,228.094l-.517,2.96,1,4.769h-4.5v-7.729Z" transform="translate(-328.101 -119.114)" fill="#638ace"/>
        <path id="Trazado_50816" data-name="Trazado 50816" d="M619.363,228.094l.516,2.96-1,4.769h4.5v-7.729Z" transform="translate(-323.185 -119.114)" fill="#638ace"/>
        <rect id="Rectángulo_5994" data-name="Rectángulo 5994" width="8.994" height="1.987" transform="translate(295.691 116.709)" fill="#638ace"/>
        <path id="Trazado_50817" data-name="Trazado 50817" d="M621.621,227.385a3.186,3.186,0,1,0,3.187-3.19,3.185,3.185,0,0,0-3.187,3.19" transform="translate(-324.618 -117.078)" fill="#638ace"/>
        <path id="Trazado_50818" data-name="Trazado 50818" d="M623.516,235.176h3.638a.884.884,0,0,0,0-1.767h-3.638a.884.884,0,0,0,0,1.767" transform="translate(-325.147 -121.889)" fill="#638ace"/>
        <path id="Trazado_50819" data-name="Trazado 50819" d="M623.516,239.8h3.638a.885.885,0,0,0,0-1.769h-3.638a.885.885,0,0,0,0,1.769" transform="translate(-325.147 -124.302)" fill="#638ace"/>
        <path id="Trazado_50820" data-name="Trazado 50820" d="M595.4,228.094l.516,2.96-1,4.769h4.5v-7.729Z" transform="translate(-310.672 -119.114)" fill="#638ace"/>
        <path id="Trazado_50821" data-name="Trazado 50821" d="M608.341,228.094l-.52,2.96,1,4.769h-4.495v-7.729Z" transform="translate(-315.588 -119.114)" fill="#638ace"/>
        <rect id="Rectángulo_5995" data-name="Rectángulo 5995" width="8.993" height="1.987" transform="translate(284.242 116.709)" fill="#638ace"/>
        <path id="Trazado_50822" data-name="Trazado 50822" d="M604.031,227.385a3.188,3.188,0,1,1-3.188-3.19,3.186,3.186,0,0,1,3.188,3.19" transform="translate(-312.103 -117.078)" fill="#638ace"/>
        <path id="Trazado_50823" data-name="Trazado 50823" d="M603.194,235.176h-3.64a.884.884,0,0,1,0-1.767h3.64a.884.884,0,0,1,0,1.767" transform="translate(-312.634 -121.889)" fill="#638ace"/>
        <path id="Trazado_50824" data-name="Trazado 50824" d="M603.194,239.8h-3.64a.885.885,0,0,1,0-1.769h3.64a.885.885,0,0,1,0,1.769" transform="translate(-312.634 -124.302)" fill="#638ace"/>
        <rect id="Rectángulo_5996" data-name="Rectángulo 5996" width="7.452" height="2.803" transform="translate(294.539 58.298)" fill="#6ed5ed"/>
        <path id="Trazado_50825" data-name="Trazado 50825" d="M611.4,70.636v7.095H600.063V70.636h-4.006v29.646H615.41V70.636Z" transform="translate(-311.269 -36.887)" fill="#638ace"/>
        <path id="Trazado_50826" data-name="Trazado 50826" d="M583.953,155.465a.384.384,0,0,0,.767.045l.119-2.4c.042.008.085.013.129.019l-.013,3.107c0,.6,1.006.6.912.006l.01-3.049.185,0c-.01.075-.023-.16.25,3.361a.455.455,0,0,0,.908-.072c-.275-3.532-.252-3.289-.269-3.35l.138-.016.529,2.994a.455.455,0,0,0,.9-.159l-.52-2.948a4.776,4.776,0,0,1,.024-1.47c.3-.4.886,1.126,1.464,1.674a.583.583,0,0,0,.961-.045s-.26-.366-.573-.853c-.635-.987-.743-2.335-2.061-2.988-.522-.26-.534-.822-.824-2.205l-2.485.039a4.017,4.017,0,0,0-.121,1.733c-.8.178-.674,2.379-.274,3.436,0,0,0,.009,0,.013Z" transform="translate(-304.863 -76.825)" fill="#fc9c3d"/>
        <rect id="Rectángulo_5997" data-name="Rectángulo 5997" width="10.16" height="1.99" transform="translate(289.585 31.992)" fill="#638ace"/>
        <path id="Trazado_50827" data-name="Trazado 50827" d="M597.706,70.581V92.775l0,.007-9.678-14.768-2.594,15.954a108.922,108.922,0,0,1,.756,15.386l-3.893.112-1.611-15.5c.879-12.225-.715-22.823,5.944-23.362.114-.006,8.986-.024,11.078-.024" transform="translate(-303.241 -36.858)" fill="#638ace"/>
        <path id="Trazado_50828" data-name="Trazado 50828" d="M641.394,155.465a.386.386,0,0,1-.771.045l-.114-2.4c-.044.008-.087.013-.131.019l.014,3.107c0,.6-1.008.6-.91.006l-.013-3.049-.183,0c.01.075.021-.16-.253,3.361a.456.456,0,0,1-.909-.072c.277-3.532.256-3.289.275-3.35l-.141-.016-.53,2.994a.455.455,0,0,1-.9-.159l.522-2.948a4.724,4.724,0,0,0-.027-1.47c-.3-.4-.885,1.126-1.463,1.674a.584.584,0,0,1-.961-.045s.262-.366.574-.853c.636-.987.743-2.335,2.063-2.988.519-.26.532-.822.822-2.205l2.486.039a3.99,3.99,0,0,1,.12,1.733c.8.178.674,2.379.273,3.436v.013Z" transform="translate(-331.554 -76.825)" fill="#fc9c3d"/>
        <path id="Trazado_50829" data-name="Trazado 50829" d="M616.311,70.581V92.774l0,.007,9.674-14.768,2.6,15.954a108.922,108.922,0,0,0-.756,15.386l3.893.112,1.61-15.5c-.879-12.225.713-22.823-5.945-23.362-.213-.016-5.646-.027-11.077-.024" transform="translate(-321.846 -36.858)" fill="#638ace"/>
        <path id="Trazado_50830" data-name="Trazado 50830" d="M613.563,22.745c-1.127-5.181-5.378-9.516-10.457-9.516s-9.329,4.335-10.458,9.516a1.909,1.909,0,0,0-2.011,1.914v1.966a1.916,1.916,0,0,0,2.105,1.914c1.261,5,5.416,9.107,10.364,9.107s9.105-4.1,10.358-9.107a1.918,1.918,0,0,0,2.11-1.914V24.659a1.91,1.91,0,0,0-2.011-1.914" transform="translate(-308.438 -6.908)" fill="#ffc37b"/>
        <path id="Trazado_50831" data-name="Trazado 50831" d="M608.153,1.844V0C594.7,0,589.232,6.078,593.1,20.174l1.043,1.1c-.024-2.722-.716-10.607,3.555-11.705l6.749,4.263a4.086,4.086,0,0,0,2.529.831c1.98,0,3.59-1.277,3.59-2.849h-1.278l.378-2.246c4.271,1.1,3.581,8.983,3.553,11.705l1.044-1.1c2.314-8.448,2.509-18.329-6.111-18.329" transform="translate(-309.091)" fill="#222324"/>
        <path id="Trazado_50832" data-name="Trazado 50832" d="M615.337,47.781a3.179,3.179,0,0,1-1.279-.248,1.395,1.395,0,0,0,2.556,0,3.188,3.188,0,0,1-1.278.248" transform="translate(-320.669 -24.822)" fill="#ff9045"/>
        <path id="Trazado_50833" data-name="Trazado 50833" d="M250.662,318.132V303.753A16.973,16.973,0,0,0,233.7,286.8H82.92a16.973,16.973,0,0,0-16.959,16.958v69.106a16.976,16.976,0,0,0,16.959,16.97H233.7a16.976,16.976,0,0,0,16.959-16.97V357.708h11.309V318.132Zm-11.309,54.728a5.659,5.659,0,0,1-5.649,5.661H82.92a5.661,5.661,0,0,1-5.652-5.661V303.753A5.659,5.659,0,0,1,82.92,298.1H233.7a5.657,5.657,0,0,1,5.649,5.649Z" transform="translate(-34.446 -149.768)" fill="#00838f"/>
        <path id="Trazado_50834" data-name="Trazado 50834" d="M517.114,386.926h-7.028v-5.063h7.028v-6.934H522.2v6.934h7.028v5.063H522.2v6.819h-5.082Z" transform="translate(-266.373 -195.793)" fill="#00838f"/>
        <rect id="Rectángulo_5998" data-name="Rectángulo 5998" width="16.549" height="5.215" transform="translate(0 185.937)" fill="#00838f"/>
        <path id="Trazado_50835" data-name="Trazado 50835" d="M125.028,334.309a8.5,8.5,0,1,1-8.5-8.5,8.5,8.5,0,0,1,8.5,8.5" transform="translate(-56.41 -170.14)" fill="#00838f"/>
        <path id="Trazado_50836" data-name="Trazado 50836" d="M124.632,372.235l-.036-2.764v-.862a5.024,5.024,0,0,0-4.98-5.066h-3.155l-1.3,2.248-1.553,2.691-1.553-2.691-1.3-2.248H107.6a5.024,5.024,0,0,0-4.979,5.066v.862l-.033,2.764-.149,11.573a2,2,0,0,0,2.011,2.011,2.02,2.02,0,0,0,.658-.109,2,2,0,0,0,1.123-.958,1.946,1.946,0,0,0,.227-.944l-.148-11.573-.03-2.232a.525.525,0,0,1,.525-.531h.012a.525.525,0,0,1,.525.524v14.232a.524.524,0,0,0,.524.524h11.488a.525.525,0,0,0,.525-.524V370a.524.524,0,0,1,.524-.524h.01a.523.523,0,0,1,.525.53l-.027,2.233-.149,11.573a1.947,1.947,0,0,0,.228.944,2.02,2.02,0,0,0,3.563,0,1.974,1.974,0,0,0,.228-.944Z" transform="translate(-53.494 -189.847)" fill="#00838f"/>
        <path id="Trazado_50837" data-name="Trazado 50837" d="M112.7,410.168v23.194a2.42,2.42,0,0,0,4.829,0V413.895h2.879v19.467a2.42,2.42,0,0,0,4.829,0V410.168Z" transform="translate(-58.853 -214.195)" fill="#00838f"/>
        <path id="Trazado_50838" data-name="Trazado 50838" d="M177.694,334.309a8.5,8.5,0,1,1-8.5-8.5,8.5,8.5,0,0,1,8.5,8.5" transform="translate(-83.913 -170.14)" fill="#00838f"/>
        <path id="Trazado_50839" data-name="Trazado 50839" d="M177.3,372.235l-.036-2.764v-.862a5.024,5.024,0,0,0-4.98-5.066h-3.155l-1.3,2.248-1.553,2.691-1.553-2.691-1.3-2.248h-3.158a5.024,5.024,0,0,0-4.979,5.066v.862l-.033,2.764-.149,11.573a2,2,0,0,0,2.011,2.011,2.02,2.02,0,0,0,.658-.109,2,2,0,0,0,1.123-.958,1.946,1.946,0,0,0,.227-.944l-.148-11.573-.03-2.232a.525.525,0,0,1,.525-.531h.012a.525.525,0,0,1,.525.524v14.232a.524.524,0,0,0,.524.524h11.488a.525.525,0,0,0,.525-.524V370a.524.524,0,0,1,.524-.524h.01a.523.523,0,0,1,.525.53l-.027,2.233-.149,11.573a1.947,1.947,0,0,0,.228.944,2.02,2.02,0,0,0,3.563,0,1.974,1.974,0,0,0,.228-.944Z" transform="translate(-80.997 -189.847)" fill="#00838f"/>
        <path id="Trazado_50840" data-name="Trazado 50840" d="M165.366,410.168v23.194a2.42,2.42,0,0,0,4.829,0V413.895h2.879v19.467a2.42,2.42,0,0,0,4.829,0V410.168Z" transform="translate(-86.356 -214.195)" fill="#00838f"/>
        <path id="Trazado_50841" data-name="Trazado 50841" d="M230.36,334.309a8.5,8.5,0,1,1-8.5-8.5,8.5,8.5,0,0,1,8.5,8.5" transform="translate(-111.416 -170.14)" fill="#00838f"/>
        <path id="Trazado_50842" data-name="Trazado 50842" d="M229.964,372.235l-.036-2.764v-.862a5.024,5.024,0,0,0-4.98-5.066h-3.155l-1.3,2.248-1.553,2.691-1.553-2.691-1.3-2.248h-3.158a5.024,5.024,0,0,0-4.979,5.066v.862l-.033,2.764-.149,11.573a2,2,0,0,0,2.011,2.011,2.02,2.02,0,0,0,.658-.109,2,2,0,0,0,1.123-.958,1.946,1.946,0,0,0,.227-.944l-.148-11.573-.03-2.232a.525.525,0,0,1,.525-.531h.012a.525.525,0,0,1,.525.524v14.232a.524.524,0,0,0,.524.524h11.488a.525.525,0,0,0,.525-.524V370a.524.524,0,0,1,.524-.524h.01a.523.523,0,0,1,.525.53l-.027,2.233-.149,11.573a1.947,1.947,0,0,0,.228.944,2.02,2.02,0,0,0,3.563,0,1.974,1.974,0,0,0,.228-.944Z" transform="translate(-108.499 -189.847)" fill="#00838f"/>
        <path id="Trazado_50843" data-name="Trazado 50843" d="M218.032,410.168v23.194a2.42,2.42,0,0,0,4.829,0V413.895h2.879v19.467a2.42,2.42,0,0,0,4.829,0V410.168Z" transform="translate(-113.859 -214.195)" fill="#00838f"/>
        <path id="Trazado_50844" data-name="Trazado 50844" d="M283.026,334.309a8.5,8.5,0,1,1-8.5-8.5,8.5,8.5,0,0,1,8.5,8.5" transform="translate(-138.919 -170.14)" fill="#00838f"/>
        <path id="Trazado_50845" data-name="Trazado 50845" d="M282.63,372.235l-.036-2.764v-.862a5.024,5.024,0,0,0-4.98-5.066h-3.155l-1.3,2.248-1.553,2.691-1.553-2.691-1.3-2.248H265.6a5.024,5.024,0,0,0-4.98,5.066v.862l-.033,2.764-.149,11.573a2,2,0,0,0,2.011,2.011,2.02,2.02,0,0,0,.658-.109,2,2,0,0,0,1.123-.958,1.947,1.947,0,0,0,.227-.944l-.148-11.573-.03-2.232a.525.525,0,0,1,.525-.531h.012a.525.525,0,0,1,.525.524v14.232a.524.524,0,0,0,.524.524h11.488a.525.525,0,0,0,.525-.524V370a.524.524,0,0,1,.524-.524h.01a.523.523,0,0,1,.525.53l-.027,2.233-.149,11.573a1.947,1.947,0,0,0,.228.944,2.02,2.02,0,0,0,3.563,0,1.974,1.974,0,0,0,.228-.944Z" transform="translate(-136.002 -189.847)" fill="#00838f"/>
        <path id="Trazado_50846" data-name="Trazado 50846" d="M270.7,410.168v23.194a2.42,2.42,0,0,0,4.829,0V413.895h2.879v19.467a2.42,2.42,0,0,0,4.829,0V410.168Z" transform="translate(-141.362 -214.195)" fill="#00838f"/>
        <path id="Trazado_50847" data-name="Trazado 50847" d="M335.692,334.309a8.5,8.5,0,1,1-8.5-8.5,8.5,8.5,0,0,1,8.5,8.5" transform="translate(-166.421 -170.14)" fill="#cfd1d1"/>
        <path id="Trazado_50848" data-name="Trazado 50848" d="M335.3,372.235l-.036-2.764v-.862a5.024,5.024,0,0,0-4.98-5.066h-3.155l-1.3,2.248-1.553,2.691-1.553-2.691-1.3-2.248h-3.158a5.024,5.024,0,0,0-4.979,5.066v.862l-.033,2.764-.149,11.573a2,2,0,0,0,2.011,2.011,2.02,2.02,0,0,0,.658-.109,2,2,0,0,0,1.123-.958,1.946,1.946,0,0,0,.227-.944l-.148-11.573-.03-2.232a.525.525,0,0,1,.525-.531h.012A.525.525,0,0,1,318,370v14.232a.524.524,0,0,0,.524.524h11.488a.525.525,0,0,0,.525-.524V370a.524.524,0,0,1,.525-.524h.01a.523.523,0,0,1,.525.53l-.027,2.233-.149,11.573a1.947,1.947,0,0,0,.228.944,2.021,2.021,0,0,0,3.564,0,1.979,1.979,0,0,0,.228-.944Z" transform="translate(-163.505 -189.847)" fill="#cfd1d1"/>
        <path id="Trazado_50849" data-name="Trazado 50849" d="M323.364,410.168v23.194a2.42,2.42,0,0,0,4.829,0V413.895h2.879v19.467a2.42,2.42,0,0,0,4.829,0V410.168Z" transform="translate(-168.865 -214.195)" fill="#cfd1d1"/>
        <path id="Trazado_50850" data-name="Trazado 50850" d="M388.358,334.309a8.5,8.5,0,1,1-8.5-8.5,8.5,8.5,0,0,1,8.5,8.5" transform="translate(-193.924 -170.14)" fill="#cfd1d1"/>
        <path id="Trazado_50851" data-name="Trazado 50851" d="M387.963,372.235l-.036-2.764v-.862a5.024,5.024,0,0,0-4.98-5.066h-3.154l-1.3,2.248-1.554,2.691-1.553-2.691-1.3-2.248h-3.159a5.024,5.024,0,0,0-4.98,5.066v.862l-.033,2.764-.149,11.573a2,2,0,0,0,2.01,2.011,2.014,2.014,0,0,0,1.781-1.068,1.947,1.947,0,0,0,.228-.944l-.148-11.573L369.61,370a.525.525,0,0,1,.525-.531h.012a.525.525,0,0,1,.526.524v14.232a.524.524,0,0,0,.524.524h11.488a.525.525,0,0,0,.525-.524V370a.524.524,0,0,1,.524-.524h.01a.523.523,0,0,1,.525.53l-.026,2.233-.149,11.573a1.946,1.946,0,0,0,.228.944,2.021,2.021,0,0,0,3.564,0,1.979,1.979,0,0,0,.228-.944Z" transform="translate(-191.009 -189.847)" fill="#cfd1d1"/>
        <path id="Trazado_50852" data-name="Trazado 50852" d="M376.031,410.168v23.194a2.42,2.42,0,0,0,4.829,0V413.895h2.879v19.467a2.42,2.42,0,0,0,4.829,0V410.168Z" transform="translate(-196.368 -214.195)" fill="#cfd1d1"/>
        <path id="Trazado_50853" data-name="Trazado 50853" d="M593.488,510.741s-4.733,1.937-6.576,2.491v1.57H594.2l2.665-.934h1.3v.934h3.865v-4.061Z" transform="translate(-306.493 -266.716)" fill="#222324"/>
        <path id="Trazado_50854" data-name="Trazado 50854" d="M630.24,510.741s4.732,1.937,6.575,2.491v1.57h-7.284l-2.668-.934h-1.3v.934H621.7v-4.061Z" transform="translate(-324.66 -266.716)" fill="#222324"/>
        <path id="Trazado_50855" data-name="Trazado 50855" d="M568.494,422.011a.422.422,0,0,0,.713.453l1.378-2.237.117.086-1.656,2.97c-.318.58.651,1.108.872.486l1.623-2.914c.054.03.117.062.178.092-.049.066.062-.163-1.534,3.36a.5.5,0,0,0,.907.412c1.6-3.537,1.5-3.29,1.512-3.363.045.02.093.042.141.061l-1.075,3.149a.5.5,0,0,0,.941.324l1.06-3.1c.017-.04.551-1.284.8-1.4.494-.225.254,1.548.519,2.38a.638.638,0,0,0,.943.463s-.056-.491-.1-1.119c-.087-1.282.524-2.634-.4-3.957-.359-.522-.075-1.07.378-2.55l-2.4-1.279a4.395,4.395,0,0,0-1.03,1.6c-.867-.247-1.909,1.927-2.082,3.154a.035.035,0,0,0-.008.012Z" transform="translate(-296.837 -216.369)" fill="#fc9c3d"/>
        <path id="Trazado_50856" data-name="Trazado 50856" d="M689.859,382.9a.453.453,0,0,0,.276-.862l-2.695-.819c.02-.048.04-.095.059-.144l3.53.907c.683.175.967-.973.265-1.035l-3.462-.885c.017-.069.031-.14.047-.213.082.033-.184-.017,3.9.678a.534.534,0,0,0,.178-1.053c-4.1-.7-3.812-.654-3.889-.653.007-.054.013-.11.022-.163l3.554.258a.533.533,0,0,0,.08-1.064l-3.505-.254a5.636,5.636,0,0,1-1.667-.453c-.365-.45,1.54-.684,2.326-1.185a.685.685,0,0,0,.224-1.105s-.494.193-1.133.408c-1.306.44-2.871.174-3.992,1.486-.442.519-1.088.372-2.748.3l-.667,2.839a4.665,4.665,0,0,0,1.935.633c-.02.966,2.517,1.451,3.835,1.3l.015,0Z" transform="translate(-355.398 -195.752)" fill="#fc9c3d"/>
        <path id="Trazado_50857" data-name="Trazado 50857" d="M616.71,292.071c-1.224-5.6-5.818-10.294-11.317-10.294s-10.09,4.69-11.311,10.294a2.067,2.067,0,0,0-2.175,2.071v2.127a2.075,2.075,0,0,0,2.281,2.07c1.365,5.413,5.861,9.854,11.206,9.854s9.854-4.441,11.21-9.854a2.073,2.073,0,0,0,2.282-2.07v-2.127a2.066,2.066,0,0,0-2.174-2.071" transform="translate(-309.101 -147.148)" fill="#ffc37b"/>
        <path id="Trazado_50858" data-name="Trazado 50858" d="M596.157,282.009a6.958,6.958,0,0,0,.958,6.322c0-.365,1.011-4.905,3.2-6.322,3.253,2.315,10.235,2.312,13.484,0,2.185,1.417,3.2,5.957,3.2,6.322a6.964,6.964,0,0,0,.957-6.322c2.1-4.392,2.59-7.727-2.08-8.544-6.844-6.816-25.407-3.374-19.72,8.544" transform="translate(-310.763 -140.997)" fill="#222324"/>
        <path id="Trazado_50859" data-name="Trazado 50859" d="M610.117,342.842l4.783,20.487,4.775-20.487Z" transform="translate(-318.611 -179.036)" fill="#b6e9ff"/>
        <path id="Trazado_50860" data-name="Trazado 50860" d="M589.739,342.836H582.42a5.032,5.032,0,0,0-4.562,3.017h0l-6.761,32.682,7.558,1.6,4.677-26.341-.542,20.855h11.738v-11.33Z" transform="translate(-298.233 -179.033)" fill="#474646"/>
        <path id="Trazado_50861" data-name="Trazado 50861" d="M624.919,342.836h7.319c1.836,0,4.566,3.018,4.566,3.018l-4.932,6.563v22.235H620.133v-11.33Z" transform="translate(-323.841 -179.033)" fill="#2d2d2d"/>
        <path id="Trazado_50862" data-name="Trazado 50862" d="M618.507,337.47l.007-5.327h-5.335l-.017,5.33c-.418.023-.837.043-1.246.077a3.987,3.987,0,0,0,7.849-.005c-.412-.032-.838-.052-1.258-.075" transform="translate(-319.55 -173.449)" fill="#fcb560"/>
        <rect id="Rectángulo_5999" data-name="Rectángulo 5999" width="4.335" height="1.435" transform="translate(300.344 174.047)" fill="#fff"/>
        <rect id="Rectángulo_6000" data-name="Rectángulo 6000" width="4.335" height="4.635" transform="translate(300.344 175.483)" fill="#686868"/>
        <path id="Trazado_50863" data-name="Trazado 50863" d="M604.8,342.836l-4.871,4.829,9.651,15.658Z" transform="translate(-313.29 -179.033)" fill="#2d2d2d"/>
        <path id="Trazado_50864" data-name="Trazado 50864" d="M624.907,342.836l4.87,4.829-9.65,15.658Z" transform="translate(-323.838 -179.033)" fill="#474646"/>
        <path id="Trazado_50865" data-name="Trazado 50865" d="M619.085,414.331v46.063H608.643V422.341h-1.5v38.053H596.7V414.331Z" transform="translate(-311.605 -216.369)" fill="#686868"/>
        <rect id="Rectángulo_6001" data-name="Rectángulo 6001" width="22.381" height="2.342" transform="translate(285.096 195.62)" fill="#222324"/>
        <rect id="Rectángulo_6002" data-name="Rectángulo 6002" width="4.843" height="2.342" transform="translate(293.865 195.62)" fill="#fab914"/>
        <rect id="Rectángulo_6003" data-name="Rectángulo 6003" width="4.413" height="9.72" transform="translate(285.097 199.944)" fill="#414344"/>
        <rect id="Rectángulo_6004" data-name="Rectángulo 6004" width="4.413" height="9.72" transform="translate(303.065 199.944)" fill="#414344"/>
        <path id="Trazado_50866" data-name="Trazado 50866" d="M654.572,362.45l-4.937-13.3-4.932,6.563,4.125,13.293h15.8v-6.56Z" transform="translate(-336.672 -182.333)" fill="#2d2d2d"/>
        <path id="Trazado_50867" data-name="Trazado 50867" d="M618.565,317.189a3.5,3.5,0,0,1-1.4-.271,1.528,1.528,0,0,0,2.8,0,3.5,3.5,0,0,1-1.4.271" transform="translate(-322.292 -165.499)" fill="#ff9045"/>
        <path id="Trazado_50868" data-name="Trazado 50868" d="M250.662,593.486V579.109A16.973,16.973,0,0,0,233.7,562.15H82.92a16.973,16.973,0,0,0-16.959,16.959v69.106A16.976,16.976,0,0,0,82.92,665.185H233.7a16.976,16.976,0,0,0,16.958-16.971V633.063h11.31V593.486Zm-11.309,54.728a5.66,5.66,0,0,1-5.649,5.662H82.92a5.662,5.662,0,0,1-5.652-5.662V579.109a5.659,5.659,0,0,1,5.652-5.649H233.7a5.657,5.657,0,0,1,5.649,5.649Z" transform="translate(-34.446 -293.562)" fill="#0e2571"/>
        <path id="Trazado_50869" data-name="Trazado 50869" d="M517.114,662.28h-7.028v-5.063h7.028v-6.934H522.2v6.934h7.027v5.063H522.2V669.1h-5.082Z" transform="translate(-266.373 -339.586)" fill="#0e2571"/>
        <rect id="Rectángulo_6005" data-name="Rectángulo 6005" width="16.549" height="5.214" transform="translate(0 317.499)" fill="#0e2571"/>
        <path id="Trazado_50870" data-name="Trazado 50870" d="M125.028,609.734a8.5,8.5,0,1,1-8.5-8.5,8.5,8.5,0,0,1,8.5,8.5" transform="translate(-56.41 -313.97)" fill="#0e2571"/>
        <path id="Trazado_50871" data-name="Trazado 50871" d="M124.632,647.661,124.6,644.9v-.862a5.024,5.024,0,0,0-4.98-5.066h-3.155l-1.3,2.249-1.553,2.69-1.553-2.69-1.3-2.249H107.6a5.024,5.024,0,0,0-4.979,5.066v.862l-.033,2.764-.149,11.573a2.014,2.014,0,0,0,3.792.943,1.939,1.939,0,0,0,.227-.943l-.148-11.573-.03-2.233a.525.525,0,0,1,.525-.531h.012a.525.525,0,0,1,.525.525v14.231a.524.524,0,0,0,.524.524h11.488a.524.524,0,0,0,.525-.524V645.422a.525.525,0,0,1,.524-.525h.01a.524.524,0,0,1,.525.531l-.027,2.233-.149,11.573a1.94,1.94,0,0,0,.228.943,2.019,2.019,0,0,0,3.563,0,1.966,1.966,0,0,0,.228-.943Z" transform="translate(-53.494 -333.678)" fill="#0e2571"/>
        <path id="Trazado_50872" data-name="Trazado 50872" d="M112.7,685.593v23.194a2.42,2.42,0,0,0,4.829,0V689.32h2.879v19.467a2.42,2.42,0,0,0,4.829,0V685.593Z" transform="translate(-58.853 -358.025)" fill="#0e2571"/>
        <path id="Trazado_50873" data-name="Trazado 50873" d="M177.694,609.734a8.5,8.5,0,1,1-8.5-8.5,8.5,8.5,0,0,1,8.5,8.5" transform="translate(-83.913 -313.97)" fill="#0e2571"/>
        <path id="Trazado_50874" data-name="Trazado 50874" d="M177.3,647.661l-.036-2.764v-.862a5.024,5.024,0,0,0-4.98-5.066h-3.155l-1.3,2.249-1.553,2.69-1.553-2.69-1.3-2.249h-3.158a5.024,5.024,0,0,0-4.979,5.066v.862l-.033,2.764-.149,11.573a2.014,2.014,0,0,0,3.792.943,1.939,1.939,0,0,0,.227-.943l-.148-11.573-.03-2.233a.525.525,0,0,1,.525-.531h.012a.525.525,0,0,1,.525.525v14.231a.524.524,0,0,0,.524.524h11.488a.524.524,0,0,0,.525-.524V645.422a.525.525,0,0,1,.524-.525h.01a.524.524,0,0,1,.525.531l-.027,2.233-.149,11.573a1.939,1.939,0,0,0,.228.943,2.019,2.019,0,0,0,3.563,0,1.966,1.966,0,0,0,.228-.943Z" transform="translate(-80.997 -333.678)" fill="#0e2571"/>
        <path id="Trazado_50875" data-name="Trazado 50875" d="M165.366,685.593v23.194a2.42,2.42,0,0,0,4.829,0V689.32h2.879v19.467a2.42,2.42,0,0,0,4.829,0V685.593Z" transform="translate(-86.356 -358.025)" fill="#0e2571"/>
        <path id="Trazado_50876" data-name="Trazado 50876" d="M230.36,609.734a8.5,8.5,0,1,1-8.5-8.5,8.5,8.5,0,0,1,8.5,8.5" transform="translate(-111.416 -313.97)" fill="#0e2571"/>
        <path id="Trazado_50877" data-name="Trazado 50877" d="M229.964,647.661l-.036-2.764v-.862a5.024,5.024,0,0,0-4.98-5.066h-3.155l-1.3,2.249-1.553,2.69-1.553-2.69-1.3-2.249h-3.158a5.024,5.024,0,0,0-4.979,5.066v.862l-.033,2.764-.149,11.573a2.014,2.014,0,0,0,3.792.943,1.939,1.939,0,0,0,.227-.943l-.148-11.573-.03-2.233a.525.525,0,0,1,.525-.531h.012a.525.525,0,0,1,.525.525v14.231a.524.524,0,0,0,.524.524h11.488a.524.524,0,0,0,.525-.524V645.422a.525.525,0,0,1,.524-.525h.01a.524.524,0,0,1,.525.531l-.027,2.233-.149,11.573a1.94,1.94,0,0,0,.228.943,2.019,2.019,0,0,0,3.563,0,1.966,1.966,0,0,0,.228-.943Z" transform="translate(-108.499 -333.678)" fill="#0e2571"/>
        <path id="Trazado_50878" data-name="Trazado 50878" d="M218.032,685.593v23.194a2.42,2.42,0,0,0,4.829,0V689.32h2.879v19.467a2.42,2.42,0,0,0,4.829,0V685.593Z" transform="translate(-113.859 -358.025)" fill="#0e2571"/>
        <path id="Trazado_50879" data-name="Trazado 50879" d="M283.026,609.734a8.5,8.5,0,1,1-8.5-8.5,8.5,8.5,0,0,1,8.5,8.5" transform="translate(-138.919 -313.97)" fill="#0e2571"/>
        <path id="Trazado_50880" data-name="Trazado 50880" d="M282.63,647.661l-.036-2.764v-.862a5.024,5.024,0,0,0-4.98-5.066h-3.155l-1.3,2.249-1.553,2.69-1.553-2.69-1.3-2.249H265.6a5.024,5.024,0,0,0-4.98,5.066v.862l-.033,2.764-.149,11.573a2.014,2.014,0,0,0,3.792.943,1.939,1.939,0,0,0,.227-.943l-.148-11.573-.03-2.233a.525.525,0,0,1,.525-.531h.012a.525.525,0,0,1,.525.525v14.231a.524.524,0,0,0,.524.524h11.488a.524.524,0,0,0,.525-.524V645.422a.525.525,0,0,1,.524-.525h.01a.524.524,0,0,1,.525.531l-.027,2.233-.149,11.573a1.94,1.94,0,0,0,.228.943,2.019,2.019,0,0,0,3.563,0,1.966,1.966,0,0,0,.228-.943Z" transform="translate(-136.002 -333.678)" fill="#0e2571"/>
        <path id="Trazado_50881" data-name="Trazado 50881" d="M270.7,685.593v23.194a2.42,2.42,0,0,0,4.829,0V689.32h2.879v19.467a2.42,2.42,0,0,0,4.829,0V685.593Z" transform="translate(-141.362 -358.025)" fill="#0e2571"/>
        <path id="Trazado_50882" data-name="Trazado 50882" d="M335.692,609.734a8.5,8.5,0,1,1-8.5-8.5,8.5,8.5,0,0,1,8.5,8.5" transform="translate(-166.421 -313.97)" fill="#0e2571"/>
        <path id="Trazado_50883" data-name="Trazado 50883" d="M335.3,647.661l-.036-2.764v-.862a5.024,5.024,0,0,0-4.98-5.066h-3.155l-1.3,2.249-1.553,2.69-1.553-2.69-1.3-2.249h-3.158a5.024,5.024,0,0,0-4.979,5.066v.862l-.033,2.764-.149,11.573a2.014,2.014,0,0,0,3.792.943,1.939,1.939,0,0,0,.227-.943l-.148-11.573-.03-2.233a.525.525,0,0,1,.525-.531h.012a.525.525,0,0,1,.525.525v14.231a.524.524,0,0,0,.524.524h11.488a.524.524,0,0,0,.525-.524V645.422a.525.525,0,0,1,.524-.525h.01a.524.524,0,0,1,.525.531l-.027,2.233-.149,11.573a1.939,1.939,0,0,0,.228.943,2.019,2.019,0,0,0,3.563,0,1.966,1.966,0,0,0,.228-.943Z" transform="translate(-163.505 -333.678)" fill="#0e2571"/>
        <path id="Trazado_50884" data-name="Trazado 50884" d="M323.364,685.593v23.194a2.42,2.42,0,0,0,4.829,0V689.32h2.879v19.467a2.42,2.42,0,0,0,4.829,0V685.593Z" transform="translate(-168.865 -358.025)" fill="#0e2571"/>
        <path id="Trazado_50885" data-name="Trazado 50885" d="M388.358,609.734a8.5,8.5,0,1,1-8.5-8.5,8.5,8.5,0,0,1,8.5,8.5" transform="translate(-193.924 -313.97)" fill="#0e2571"/>
        <path id="Trazado_50886" data-name="Trazado 50886" d="M387.962,647.661l-.036-2.764v-.862a5.024,5.024,0,0,0-4.98-5.066h-3.155l-1.3,2.249-1.553,2.69-1.553-2.69-1.3-2.249h-3.158a5.024,5.024,0,0,0-4.979,5.066v.862l-.033,2.764-.149,11.573a2.014,2.014,0,0,0,3.792.943,1.938,1.938,0,0,0,.227-.943l-.148-11.573-.03-2.233a.525.525,0,0,1,.525-.531h.012a.525.525,0,0,1,.525.525v14.231a.524.524,0,0,0,.524.524h11.488a.524.524,0,0,0,.525-.524V645.422a.525.525,0,0,1,.524-.525h.01a.524.524,0,0,1,.525.531l-.027,2.233-.149,11.573a1.94,1.94,0,0,0,.228.943,2.019,2.019,0,0,0,3.563,0,1.967,1.967,0,0,0,.228-.943Z" transform="translate(-191.008 -333.678)" fill="#0e2571"/>
        <path id="Trazado_50887" data-name="Trazado 50887" d="M376.03,685.593v23.194a2.42,2.42,0,0,0,4.829,0V689.32h2.879v19.467a2.42,2.42,0,0,0,4.829,0V685.593Z" transform="translate(-196.368 -358.025)" fill="#0e2571"/>
        <path id="Trazado_50888" data-name="Trazado 50888" d="M578.428,786.784h7.756a2.95,2.95,0,0,0,2.947-2.953H575.478a2.952,2.952,0,0,0,2.95,2.953" transform="translate(-300.522 -409.327)" fill="#fdad6e"/>
        <path id="Trazado_50889" data-name="Trazado 50889" d="M625.567,786.784h7.752a2.948,2.948,0,0,0,2.949-2.953H622.616a2.951,2.951,0,0,0,2.951,2.953" transform="translate(-325.138 -409.327)" fill="#fdad6e"/>
        <rect id="Rectángulo_6006" data-name="Rectángulo 6006" width="15.656" height="1.552" transform="translate(297.081 377.457)" fill="#3d3d3d"/>
        <rect id="Rectángulo_6007" data-name="Rectángulo 6007" width="58.25" height="2.816" transform="translate(308.608 381.616) rotate(-77.807)" fill="#3d3d3d"/>
        <path id="Trazado_50890" data-name="Trazado 50890" d="M579.5,681.933s-2.089,5.9,1.857,10.631c.9,5.143,3.4,19.489,3.4,19.489l-9.278,18.565h7.973l11.354-13.371,3.271-25.711Z" transform="translate(-300.523 -356.114)" fill="#cc4d15"/>
        <path id="Trazado_50891" data-name="Trazado 50891" d="M583.892,681.933s0,7.281,6.533,8.591l11.969,15.753v24.342h7.642l3.668-24.342-8.9-24.344Z" transform="translate(-304.916 -356.114)" fill="#f36f23"/>
        <path id="Trazado_50892" data-name="Trazado 50892" d="M601.238,784.727h-6.684v-4.743c3.071-.563,6.684,1.542,6.684,4.743" transform="translate(-310.484 -407.27)" fill="#3d342b"/>
        <rect id="Rectángulo_6008" data-name="Rectángulo 6008" width="15.654" height="1.552" transform="translate(275.101 377.457)" fill="#3d3d3d"/>
        <path id="Trazado_50893" data-name="Trazado 50893" d="M647.245,784.727h-6.688v-4.743c3.072-.563,6.688,1.542,6.688,4.743" transform="translate(-334.507 -407.27)" fill="#3d342b"/>
        <path id="Trazado_50894" data-name="Trazado 50894" d="M594.1,594.3s-15.25.137-15.25,15.547a134.771,134.771,0,0,0,2.41,26.325h20.917s16.917-10.681,3.327-24.323a32.426,32.426,0,0,1-.512-7.031c0-5.038-4.269-9.491-4.269-9.491Z" transform="translate(-302.282 -310.35)" fill="#0e2571"/>
        <path id="Trazado_50895" data-name="Trazado 50895" d="M643.9,548.551s6.624-1.157,8.687,3.3c1.51,3.251-.67,9.378-.67,9.378l-9.588.51Z" transform="translate(-335.431 -286.39)" fill="#ddd"/>
        <path id="Trazado_50896" data-name="Trazado 50896" d="M643.418,550.3s4.613-.937,6.047,2.676c1.05,2.635-.465,7.6-.465,7.6l-6.673.413Z" transform="translate(-335.431 -287.318)" fill="#edf0f2"/>
        <path id="Trazado_50897" data-name="Trazado 50897" d="M643.9,548.551s6.624-1.157,8.687,3.3c1.51,3.251-.67,9.378-.67,9.378l-9.588.51Z" transform="translate(-335.431 -286.39)" fill="#ddd"/>
        <path id="Trazado_50898" data-name="Trazado 50898" d="M643.418,550.3s4.613-.937,6.047,2.676c1.05,2.635-.465,7.6-.465,7.6l-6.673.413Z" transform="translate(-335.431 -287.318)" fill="#edf0f2"/>
        <path id="Trazado_50899" data-name="Trazado 50899" d="M590.748,548.551s-6.622-1.157-8.69,3.3c-1.505,3.251.672,9.378.672,9.378l9.593.51Z" transform="translate(-303.682 -286.39)" fill="#ddd"/>
        <path id="Trazado_50900" data-name="Trazado 50900" d="M594.817,550.3s-4.611-.937-6.047,2.676c-1.05,2.635.466,7.6.466,7.6l6.676.413Z" transform="translate(-307.27 -287.318)" fill="#edf0f2"/>
        <path id="Trazado_50901" data-name="Trazado 50901" d="M608.8,540c-16.872,0-13.224,14.547-11.769,24.974.383,3.2,6.831,5.769,6.831,5.769a2.8,2.8,0,0,0,2.061,1.3h5.746a2.806,2.806,0,0,0,2.065-1.3s6.443-2.571,6.828-5.769c1.3-9.3,5.626-24.974-11.763-24.974" transform="translate(-311.064 -281.995)" fill="#fdad6e"/>
        <path id="Trazado_50902" data-name="Trazado 50902" d="M595.986,572.379c0,1.815-1.105,3.288-2.466,3.288s-2.466-1.473-2.466-3.288,1.1-3.282,2.466-3.282,2.466,1.469,2.466,3.282" transform="translate(-308.655 -297.19)" fill="#fdad6e"/>
        <path id="Trazado_50903" data-name="Trazado 50903" d="M650,572.379c0,1.815-1.1,3.288-2.464,3.288s-2.467-1.473-2.467-3.288,1.1-3.282,2.467-3.282S650,570.566,650,572.379" transform="translate(-336.865 -297.19)" fill="#fdad6e"/>
        <path id="Trazado_50904" data-name="Trazado 50904" d="M607.593,563.633a1.1,1.1,0,0,1-1.1,1.1h-4.979a1.1,1.1,0,0,1,0-2.208h4.979a1.1,1.1,0,0,1,1.1,1.105" transform="translate(-313.542 -293.759)" fill="#dfdbda"/>
        <path id="Trazado_50905" data-name="Trazado 50905" d="M638.184,563.633a1.1,1.1,0,0,1-1.1,1.1h-4.972a1.1,1.1,0,0,1,0-2.208h4.972a1.1,1.1,0,0,1,1.1,1.105" transform="translate(-329.519 -293.759)" fill="#dfdbda"/>
        <path id="Trazado_50906" data-name="Trazado 50906" d="M622.8,595.371a5.485,5.485,0,0,1-9.094,0Z" transform="translate(-320.484 -310.91)" fill="#dd0500"/>
        <path id="Trazado_50907" data-name="Trazado 50907" d="M622.8,552.865a.511.511,0,0,1-.512.511h-7.957a.509.509,0,0,1,0-1.017h7.957a.508.508,0,0,1,.512.506" transform="translate(-320.549 -288.449)" fill="#ef9050"/>
        <path id="Trazado_50908" data-name="Trazado 50908" d="M622.8,557.893a.51.51,0,0,1-.512.508h-7.957a.509.509,0,0,1,0-1.019h7.957a.513.513,0,0,1,.512.51" transform="translate(-320.549 -291.073)" fill="#ef9050"/>
        <path id="Trazado_50909" data-name="Trazado 50909" d="M616.495,581.006a10.777,10.777,0,0,0,1.617-5.627c.478.714,1.6,4.064-1.617,5.627" transform="translate(-321.942 -300.47)" fill="#ffc49c"/>
        <path id="Trazado_50910" data-name="Trazado 50910" d="M622.347,591.317h-2.139c-2.422,0-2.235-1.916-3.708-1.916-1.084,0-1.783-.156-2.351.483-.571-.638-1.269-.483-2.352-.483-1.474,0-1.288,1.916-3.706,1.916H605.95a2.3,2.3,0,0,0,2.457,2.916h3.482a2.616,2.616,0,0,1,4.519,0c2.993,0,6.709.567,5.939-2.916" transform="translate(-316.406 -307.784)" fill="#ddd"/>
        <path id="Trazado_50911" data-name="Trazado 50911" d="M616.495,587.156a3.49,3.49,0,0,0,6.428,0Z" transform="translate(-321.942 -306.62)" fill="#ef9050"/>
        <path id="Trazado_50912" data-name="Trazado 50912" d="M621.822,568.769h-12.6a5.854,5.854,0,0,0-4.587,0H591.751v1.385h4.065v1.991a4.027,4.027,0,0,0,3.876,4.158h1.457a4.029,4.029,0,0,0,3.874-4.158v-2.03a4.484,4.484,0,0,1,3.793-.018v2.047a4.028,4.028,0,0,0,3.877,4.158h1.454a4.03,4.03,0,0,0,3.878-4.158v-1.991h3.8Zm-18.091,3.376a2.687,2.687,0,0,1-2.582,2.774h-1.457a2.685,2.685,0,0,1-2.583-2.774v-1.991h6.623Zm13,0a2.685,2.685,0,0,1-2.583,2.774h-1.454a2.686,2.686,0,0,1-2.586-2.774v-1.991h6.624Z" transform="translate(-309.02 -296.774)" fill="#0e2571"/>
        <rect id="Rectángulo_6009" data-name="Rectángulo 6009" width="5.572" height="3.559" transform="translate(319.438 322.549)" fill="#ffb000"/>
        <path id="Trazado_50913" data-name="Trazado 50913" d="M667.073,666.359l6.232,2.382v3.568h-1.358V670.53h-7.587Z" transform="translate(-346.938 -347.981)" fill="#fdad6e"/>
        <path id="Trazado_50914" data-name="Trazado 50914" d="M631.942,631.324c-10.905-4.347-24.552-14.041-26.342-28.286a4.234,4.234,0,0,0-3.361-3.651,4.184,4.184,0,0,0-5.122,4.559c1.69,14.082,19.934,29.112,34.127,32.438Z" transform="translate(-311.807 -312.946)" fill="#f36f23"/>
      </g>
    </g>
  </g>
</svg>
