<svg xmlns="http://www.w3.org/2000/svg" width="582.484" height="117.581" viewBox="0 0 582.484 117.581">
  <g id="Grupo_11937" data-name="Grupo 11937" transform="translate(-673.29 -4.693)">
    <g id="Grupo_11915" data-name="Grupo 11915">
      <g id="Grupo_11914" data-name="Grupo 11914">
        <path id="Trazado_39204" data-name="Trazado 39204" d="M867.723,58.081h11.5v.945h-11.5Zm0,4.969h11.5V64h-11.5Z" fill="#00223d"/>
      </g>
    </g>
    <g id="Grupo_11917" data-name="Grupo 11917">
      <g id="Grupo_11916" data-name="Grupo 11916">
        <path id="Trazado_39205" data-name="Trazado 39205" d="M1131.917,58.081h11.495v.945h-11.495Zm0,4.969h11.495V64h-11.495Z" fill="#00223d"/>
      </g>
    </g>
    <g id="Grupo_11919" data-name="Grupo 11919">
      <g id="Grupo_11918" data-name="Grupo 11918">
        <path id="Trazado_39206" data-name="Trazado 39206" d="M898.591,48.488l3.425-11.764a17.21,17.21,0,0,1-3.542,2.007l-.043-.6a14.23,14.23,0,0,0,4.992-3.531h.708l-4.066,13.889Z" fill="#00223d"/>
        <path id="Trazado_39207" data-name="Trazado 39207" d="M905.165,51.664q1.074-.707,1.267-.879a3.984,3.984,0,0,0,.885-1,1.847,1.847,0,0,0,.306-.913,1.024,1.024,0,0,0-.332-.612,1.614,1.614,0,0,1-.483-.987,1.749,1.749,0,0,1,.4-1.084.763.763,0,0,1,.612-.322.909.909,0,0,1,.708.408,2,2,0,0,1,.429,1.288A4.2,4.2,0,0,1,908,49.91a6.526,6.526,0,0,1-2.705,2.109Z" fill="#00223d"/>
        <path id="Trazado_39208" data-name="Trazado 39208" d="M915.48,41.5a5.267,5.267,0,0,1-1.524-3.37,3.139,3.139,0,0,1,.585-1.7,3.917,3.917,0,0,1,1.476-1.363,4.342,4.342,0,0,1,2.05-.467,2.918,2.918,0,0,1,2.039.649,2.115,2.115,0,0,1,.709,1.626,2.311,2.311,0,0,1-.28,1.117,4.52,4.52,0,0,1-1.094,1.352,26.982,26.982,0,0,1-2.383,1.685,9.142,9.142,0,0,1,1.427,2.055,4.216,4.216,0,0,1,.408,1.777,3.737,3.737,0,0,1-1.17,2.8,4.127,4.127,0,0,1-2.994,1.133,3.52,3.52,0,0,1-2.437-.817,2.43,2.43,0,0,1-.912-1.846,2.777,2.777,0,0,1,.4-1.384,6.9,6.9,0,0,1,1.513-1.76A19.108,19.108,0,0,1,915.48,41.5Zm.344.366a9.62,9.62,0,0,0-1.589,1.3,5.518,5.518,0,0,0-1.041,1.626,4.491,4.491,0,0,0-.365,1.712,1.731,1.731,0,0,0,.542,1.31,2.011,2.011,0,0,0,1.444.515,2.584,2.584,0,0,0,1.926-.827,2.858,2.858,0,0,0,.8-2.071,3.787,3.787,0,0,0-.37-1.573A9.677,9.677,0,0,0,915.824,41.866Zm.89-1.213a9.449,9.449,0,0,0,2.233-2.126,3.343,3.343,0,0,0,.58-1.846,1.63,1.63,0,0,0-.457-1.213,1.669,1.669,0,0,0-1.229-.451,2.282,2.282,0,0,0-1.212.355,2.411,2.411,0,0,0-.913,1.041,2.986,2.986,0,0,0-.053,2.629A7.677,7.677,0,0,0,916.714,40.653Z" fill="#00223d"/>
        <path id="Trazado_39209" data-name="Trazado 39209" d="M928.5,41.21h5.281v-5.3h.945v5.3h5.313v.945h-5.313V47.4h-.945V42.155H928.5Z" fill="#00223d"/>
        <path id="Trazado_39210" data-name="Trazado 39210" d="M954.7,47.135l-.354,1.353h-7.663l.06-.29q4.371-4.133,5.854-5.678a13.583,13.583,0,0,0,2.382-3.1,3.8,3.8,0,0,0,.365-1.707,2.26,2.26,0,0,0-.51-1.6,1.87,1.87,0,0,0-1.432-.542,2.831,2.831,0,0,0-1.761.553,5.389,5.389,0,0,0-1.416,2.023h-.58a5.617,5.617,0,0,1,1.685-2.678,3.721,3.721,0,0,1,2.394-.875,3.327,3.327,0,0,1,2.4.837A2.888,2.888,0,0,1,957,37.6a3.707,3.707,0,0,1-.236,1.363,5.525,5.525,0,0,1-1.052,1.637,45.1,45.1,0,0,1-3.284,3.1l-3.842,3.434Z" fill="#00223d"/>
        <path id="Trazado_39211" data-name="Trazado 39211" d="M956.223,51.664q1.074-.707,1.267-.879a3.983,3.983,0,0,0,.885-1,1.847,1.847,0,0,0,.306-.913,1.024,1.024,0,0,0-.332-.612,1.614,1.614,0,0,1-.483-.987,1.749,1.749,0,0,1,.4-1.084.762.762,0,0,1,.611-.322.909.909,0,0,1,.709.408,2,2,0,0,1,.429,1.288,4.2,4.2,0,0,1-.955,2.345,6.526,6.526,0,0,1-2.705,2.109Z" fill="#00223d"/>
        <path id="Trazado_39212" data-name="Trazado 39212" d="M965.622,48.488l1.171-4.079h-5.017l.1-.805L970.6,34.6h.569l-2.561,8.855h2.561l-.236.955h-2.624l-1.157,4.079Zm1.446-5.034,1.808-6.294-6.058,6.294Z" fill="#00223d"/>
        <path id="Trazado_39213" data-name="Trazado 39213" d="M979.558,41.21h5.28v-5.3h.945v5.3H991.1v.945h-5.313V47.4h-.945V42.155h-5.28Z" fill="#00223d"/>
        <path id="Trazado_39214" data-name="Trazado 39214" d="M1005.757,47.135l-.354,1.353H997.74l.06-.29q4.371-4.133,5.854-5.678a13.583,13.583,0,0,0,2.382-3.1,3.8,3.8,0,0,0,.365-1.707,2.264,2.264,0,0,0-.509-1.6,1.875,1.875,0,0,0-1.433-.542,2.831,2.831,0,0,0-1.761.553,5.4,5.4,0,0,0-1.417,2.023h-.579a5.617,5.617,0,0,1,1.685-2.678,3.719,3.719,0,0,1,2.394-.875,3.327,3.327,0,0,1,2.4.837,2.892,2.892,0,0,1,.869,2.179,3.706,3.706,0,0,1-.236,1.363,5.524,5.524,0,0,1-1.052,1.637,45.072,45.072,0,0,1-3.284,3.1l-3.843,3.434Z" fill="#00223d"/>
        <path id="Trazado_39215" data-name="Trazado 39215" d="M1015.5,41.21h5.281v-5.3h.944v5.3h5.313v.945h-5.313V47.4h-.944V42.155H1015.5Z" fill="#00223d"/>
        <path id="Trazado_39216" data-name="Trazado 39216" d="M1036.653,48.488l3.425-11.764a17.211,17.211,0,0,1-3.542,2.007l-.043-.6a14.215,14.215,0,0,0,4.991-3.531h.709l-4.066,13.889Z" fill="#00223d"/>
        <path id="Trazado_39217" data-name="Trazado 39217" d="M1043.227,51.664q1.074-.707,1.267-.879a3.983,3.983,0,0,0,.885-1,1.847,1.847,0,0,0,.306-.913,1.022,1.022,0,0,0-.333-.612,1.614,1.614,0,0,1-.483-.987,1.751,1.751,0,0,1,.4-1.084.761.761,0,0,1,.611-.322.909.909,0,0,1,.709.408,2,2,0,0,1,.429,1.288,4.2,4.2,0,0,1-.955,2.345,6.533,6.533,0,0,1-2.705,2.109Z" fill="#00223d"/>
        <path id="Trazado_39218" data-name="Trazado 39218" d="M1059.552,34.706a.652.652,0,0,1-.091.381.913.913,0,0,1-.4.177,7.881,7.881,0,0,0-2.915,1.619,13.67,13.67,0,0,0-2.559,2.7,18.465,18.465,0,0,0-1.9,3.577,9.522,9.522,0,0,0-.885,3.281,1.919,1.919,0,0,0,.392,1.292,1.175,1.175,0,0,0,.917.456,3.037,3.037,0,0,0,1.766-.718,5.681,5.681,0,0,0,1.653-2.191,6.239,6.239,0,0,0,.692-2.577,1.316,1.316,0,0,0-.322-.916.951.951,0,0,0-.719-.36,2.289,2.289,0,0,0-.606.1,2.331,2.331,0,0,0-.661.3.1.1,0,0,1-.085-.043.481.481,0,0,1-.075-.287q0-.223.3-.414a2.83,2.83,0,0,1,1.513-.373,2.061,2.061,0,0,1,1.009.273,1.83,1.83,0,0,1,.768.867,3.006,3.006,0,0,1,.273,1.269,5.541,5.541,0,0,1-1.921,4.067,4.855,4.855,0,0,1-3.316,1.564,2.549,2.549,0,0,1-1.975-.81,3.512,3.512,0,0,1-.741-2.44,7.369,7.369,0,0,1,.2-1.77,11.76,11.76,0,0,1,1.24-2.971,12.57,12.57,0,0,1,2.184-2.746,14.638,14.638,0,0,1,2.243-1.769,10.2,10.2,0,0,1,2.63-1.341q.7-.2.805-.246a.912.912,0,0,1,.268-.086A.64.64,0,0,1,1059.552,34.706Z" fill="#00223d"/>
        <path id="Trazado_39219" data-name="Trazado 39219" d="M1066.561,41.21h5.281v-5.3h.945v5.3h5.312v.945h-5.312V47.4h-.945V42.155h-5.281Z" fill="#00223d"/>
        <path id="Trazado_39220" data-name="Trazado 39220" d="M1087.711,48.488l3.425-11.764a17.208,17.208,0,0,1-3.542,2.007l-.043-.6a14.215,14.215,0,0,0,4.991-3.531h.709l-4.066,13.889Z" fill="#00223d"/>
        <path id="Trazado_39221" data-name="Trazado 39221" d="M1094.285,51.664q1.074-.707,1.267-.879a3.983,3.983,0,0,0,.885-1,1.847,1.847,0,0,0,.306-.913,1.022,1.022,0,0,0-.333-.612,1.614,1.614,0,0,1-.483-.987,1.756,1.756,0,0,1,.4-1.084.764.764,0,0,1,.612-.322.909.909,0,0,1,.709.408,2,2,0,0,1,.429,1.288,4.2,4.2,0,0,1-.955,2.345,6.532,6.532,0,0,1-2.705,2.109Z" fill="#00223d"/>
        <path id="Trazado_39222" data-name="Trazado 39222" d="M1103.684,48.488l1.171-4.079h-5.017l.1-.805,8.732-9.005h.569l-2.561,8.855h2.561l-.236.955h-2.624l-1.158,4.079Zm1.446-5.034,1.808-6.294-6.058,6.294Z" fill="#00223d"/>
      </g>
    </g>
    <g id="Grupo_11921" data-name="Grupo 11921">
      <g id="Grupo_11920" data-name="Grupo 11920">
        <path id="Trazado_39223" data-name="Trazado 39223" d="M1009.311,77.839l2.222-6.547.987-.021q.462,0,1.342.038c.35.018.576.026.676.026a9.01,9.01,0,0,0,1.417-.064.511.511,0,0,0,.268-.21.376.376,0,0,1,.322-.166h.2l-.408,1.371a1.224,1.224,0,0,1-.194.432,6.944,6.944,0,0,1-1.095.086q-.581,0-2.074-.054-.773-.033-1.321-.032L1010.536,76a3.7,3.7,0,0,1,1.029-.182,2.817,2.817,0,0,1,2.9,2.919,5.589,5.589,0,0,1-1.089,3.177,7.584,7.584,0,0,1-3.3,2.565,10.731,10.731,0,0,1-3.939.741,1.785,1.785,0,0,1-.022-.258.387.387,0,0,1,.075-.225,9.19,9.19,0,0,0,1.933-.285,6.891,6.891,0,0,0,2.3-1,5.949,5.949,0,0,0,1.814-1.986,4.705,4.705,0,0,0,.746-2.345,1.958,1.958,0,0,0-.521-1.406,1.75,1.75,0,0,0-1.326-.547A3.666,3.666,0,0,0,1009.311,77.839Z" fill="#00223d"/>
      </g>
    </g>
    <g id="Grupo_11923" data-name="Grupo 11923" transform="translate(20)">
      <g id="Grupo_11922" data-name="Grupo 11922">
        <path id="Trazado_39224" data-name="Trazado 39224" d="M751.446,53.372l3.425-11.763a17.21,17.21,0,0,1-3.542,2.007l-.043-.6a14.22,14.22,0,0,0,4.992-3.531h.708L752.92,53.372Z" fill="#00223d"/>
      </g>
    </g>
    <g id="Grupo_11925" data-name="Grupo 11925" transform="translate(20)">
      <g id="Grupo_11924" data-name="Grupo 11924">
        <path id="Trazado_39225" data-name="Trazado 39225" d="M750.03,80.282l2.222-6.547.987-.022q.462,0,1.342.038c.35.018.576.027.676.027a8.968,8.968,0,0,0,1.417-.065.506.506,0,0,0,.268-.21.376.376,0,0,1,.322-.166h.2l-.408,1.371a1.215,1.215,0,0,1-.194.432,6.837,6.837,0,0,1-1.1.086q-.581,0-2.074-.054-.773-.031-1.321-.032l-1.122,3.307a3.715,3.715,0,0,1,1.03-.183,2.818,2.818,0,0,1,2.9,2.919,5.593,5.593,0,0,1-1.09,3.178,7.572,7.572,0,0,1-3.3,2.564,10.69,10.69,0,0,1-3.939.741,1.765,1.765,0,0,1-.022-.257.39.39,0,0,1,.075-.226,9.245,9.245,0,0,0,1.932-.284,6.928,6.928,0,0,0,2.3-1,5.961,5.961,0,0,0,1.814-1.987,4.7,4.7,0,0,0,.746-2.344,1.957,1.957,0,0,0-.521-1.406,1.746,1.746,0,0,0-1.326-.547A3.653,3.653,0,0,0,750.03,80.282Z" fill="#00223d"/>
      </g>
    </g>
    <g id="Grupo_11927" data-name="Grupo 11927" transform="translate(20)">
      <g id="Grupo_11926" data-name="Grupo 11926">
        <path id="Trazado_39226" data-name="Trazado 39226" d="M788.712,24.5l2.221-6.546.988-.022c.307,0,.755.013,1.341.038.351.018.576.027.677.027a8.942,8.942,0,0,0,1.416-.065.509.509,0,0,0,.269-.21.375.375,0,0,1,.322-.166h.2l-.409,1.371a1.2,1.2,0,0,1-.193.432,6.956,6.956,0,0,1-1.1.086q-.579,0-2.073-.054-.773-.031-1.321-.032l-1.122,3.306a3.71,3.71,0,0,1,1.03-.182,2.817,2.817,0,0,1,2.9,2.919,5.594,5.594,0,0,1-1.089,3.178,7.572,7.572,0,0,1-3.3,2.564,10.735,10.735,0,0,1-3.939.741,1.774,1.774,0,0,1-.022-.258.387.387,0,0,1,.075-.225,9.245,9.245,0,0,0,1.932-.284,6.923,6.923,0,0,0,2.3-1,5.951,5.951,0,0,0,1.814-1.987,4.692,4.692,0,0,0,.746-2.344,1.959,1.959,0,0,0-.52-1.407,1.75,1.75,0,0,0-1.326-.547A3.663,3.663,0,0,0,788.712,24.5Z" fill="#00223d"/>
      </g>
    </g>
    <g id="Grupo_11929" data-name="Grupo 11929" transform="translate(20)">
      <g id="Grupo_11928" data-name="Grupo 11928">
        <path id="Trazado_39227" data-name="Trazado 39227" d="M784.13,103.64a1.283,1.283,0,0,0-.333.032,4.748,4.748,0,0,0-.74.461,6.241,6.241,0,0,0-.913.881l-.622.139a6.8,6.8,0,0,1,1.836-1.749,3.355,3.355,0,0,1,1.59-.634.5.5,0,0,1,.37.124.428.428,0,0,1,.124.316,4.8,4.8,0,0,1-.6,1.751q-.077.15-.355.773-.645,1.405-1.375,2.661c-.158.272-.329.594-.516.966q-.15.3-.268.5a1.91,1.91,0,0,0-.333.827.185.185,0,0,0,.059.134.2.2,0,0,0,.145.059.878.878,0,0,0,.359-.129,5.269,5.269,0,0,0,.963-.714,5.862,5.862,0,0,0,.985-1.143h.473a8.882,8.882,0,0,1-.96,1.331,5.182,5.182,0,0,1-1.442,1.2,2.246,2.246,0,0,1-1.077.344.8.8,0,0,1-.528-.146.477.477,0,0,1-.168-.381,8.712,8.712,0,0,1,1.213-3.112l1.728-3.263a7.061,7.061,0,0,0,.375-.794.952.952,0,0,0,.065-.247A.657.657,0,0,0,784.13,103.64Zm.612-4.819a.93.93,0,0,1,.29-.671.916.916,0,0,1,.676-.295.849.849,0,0,1,.622.257.813.813,0,0,1,.258.591,1.138,1.138,0,0,1-.322.783.963.963,0,0,1-.708.2.786.786,0,0,1-.58-.236A.859.859,0,0,1,784.742,98.821Z" fill="#00223d"/>
        <path id="Trazado_39228" data-name="Trazado 39228" d="M787.565,101.729H799.06v.945H787.565Zm0,4.97H799.06v.955H787.565Z" fill="#00223d"/>
        <path id="Trazado_39229" data-name="Trazado 39229" d="M803.2,111.518l3.425-11.764a17.217,17.217,0,0,1-3.543,2.007l-.043-.6a14.212,14.212,0,0,0,4.992-3.532h.709l-4.066,13.889Z" fill="#00223d"/>
      </g>
    </g>
    <g id="Grupo_11931" data-name="Grupo 11931">
      <g id="Grupo_11930" data-name="Grupo 11930">
        <path id="Trazado_39230" data-name="Trazado 39230" d="M845.264,64.613c-.036.1-.064.175-.086.225a2.38,2.38,0,0,0-.2.665.373.373,0,0,0,.118.269.385.385,0,0,0,.279.118.642.642,0,0,0,.28-.062,9.424,9.424,0,0,0,1.685-1.319q1.223-1.1,1.888-1.8a9.482,9.482,0,0,0-.6-1.167l-1.1-1.868a1.646,1.646,0,0,0-.408-.44.506.506,0,0,0-.257-.075.367.367,0,0,0-.3.15q-.183,1.374-.236,1.578a.965.965,0,0,1-.343-.408,2.291,2.291,0,0,1-.172-.955,2.2,2.2,0,0,1,.322-1.106q.321-.558.7-.558a1.271,1.271,0,0,1,.858.419,15.8,15.8,0,0,1,2.047,3.135q.23.409.327.549l2.07-1.87a23.638,23.638,0,0,1,2.168-1.793,2.356,2.356,0,0,1,.612-.311.905.905,0,0,1,.3-.054.5.5,0,0,1,.392.2.816.816,0,0,1,.166.542,1.726,1.726,0,0,1-.633,1.449.931.931,0,0,1-.365.128,1.421,1.421,0,0,1-.376-.064,1.88,1.88,0,0,0,.43-.783.489.489,0,0,0-.129-.323.912.912,0,0,0-.183-.032,1.176,1.176,0,0,0-.343.086,4.964,4.964,0,0,0-.708.43,14.7,14.7,0,0,0-1.663,1.364l-1.469,1.4a29.693,29.693,0,0,0,1.633,2.9.541.541,0,0,0,.4.26.433.433,0,0,0,.328-.172q.243-.258.243-.376l-.043-.719.021-.1a.433.433,0,0,1,.23.053,1.811,1.811,0,0,1,.275,1.063,3.121,3.121,0,0,1-.172.752,1.23,1.23,0,0,1-.386.6.847.847,0,0,1-.537.22.891.891,0,0,1-.521-.178,4.88,4.88,0,0,1-.832-.992q-.084-.14-1.079-1.866l-.406-.639q-.162.15-.908.863a22.952,22.952,0,0,1-2.812,2.447,2.072,2.072,0,0,1-1.052.387.99.99,0,0,1-.708-.265.869.869,0,0,1-.279-.663,1.312,1.312,0,0,1,.4-.911,1.125,1.125,0,0,1,.789-.426A1.619,1.619,0,0,1,845.264,64.613Z" fill="#00223d"/>
        <path id="Trazado_39231" data-name="Trazado 39231" d="M856.819,69.336a.709.709,0,0,0-.194.019,2.783,2.783,0,0,0-.432.269,3.608,3.608,0,0,0-.532.513l-.363.081a3.993,3.993,0,0,1,1.071-1.019,1.951,1.951,0,0,1,.927-.369.289.289,0,0,1,.216.072.249.249,0,0,1,.072.184,2.8,2.8,0,0,1-.351,1.021c-.029.057-.1.208-.206.45q-.376.819-.8,1.552c-.092.158-.192.346-.3.562-.058.118-.11.215-.156.294a1.106,1.106,0,0,0-.194.483.109.109,0,0,0,.034.078.119.119,0,0,0,.085.034.52.52,0,0,0,.209-.075,3.008,3.008,0,0,0,.561-.416,3.477,3.477,0,0,0,.575-.666h.275a5.249,5.249,0,0,1-.559.775,3.034,3.034,0,0,1-.841.7,1.319,1.319,0,0,1-.628.2.468.468,0,0,1-.308-.085.279.279,0,0,1-.1-.222,5.083,5.083,0,0,1,.707-1.815l1.008-1.9a4.077,4.077,0,0,0,.219-.464.528.528,0,0,0,.037-.143A.375.375,0,0,0,856.819,69.336Zm.357-2.809a.543.543,0,0,1,.169-.392.537.537,0,0,1,.394-.172.492.492,0,0,1,.363.151.471.471,0,0,1,.15.343.664.664,0,0,1-.188.457.558.558,0,0,1-.413.12.46.46,0,0,1-.338-.138A.5.5,0,0,1,857.176,66.527Z" fill="#00223d"/>
      </g>
    </g>
    <g id="Grupo_11933" data-name="Grupo 11933">
      <g id="Grupo_11932" data-name="Grupo 11932">
        <path id="Trazado_39232" data-name="Trazado 39232" d="M1155.181,66.609l3.424-11.764a17.208,17.208,0,0,1-3.542,2.007l-.043-.6a14.211,14.211,0,0,0,4.992-3.531h.708l-4.065,13.889Z" fill="#00223d"/>
        <path id="Trazado_39233" data-name="Trazado 39233" d="M1161.755,69.786q1.072-.708,1.266-.88a3.969,3.969,0,0,0,.886-1,1.847,1.847,0,0,0,.306-.912,1.023,1.023,0,0,0-.333-.613,1.614,1.614,0,0,1-.483-.987,1.75,1.75,0,0,1,.4-1.084.764.764,0,0,1,.612-.322.906.906,0,0,1,.708.408,2,2,0,0,1,.43,1.288,4.2,4.2,0,0,1-.956,2.345,6.529,6.529,0,0,1-2.7,2.109Z" fill="#00223d"/>
        <path id="Trazado_39234" data-name="Trazado 39234" d="M1172.069,59.622a5.271,5.271,0,0,1-1.524-3.371,3.138,3.138,0,0,1,.585-1.7,3.925,3.925,0,0,1,1.476-1.363,4.343,4.343,0,0,1,2.05-.467,2.918,2.918,0,0,1,2.04.65A2.112,2.112,0,0,1,1177.4,55a2.309,2.309,0,0,1-.279,1.116,4.511,4.511,0,0,1-1.095,1.352,26.624,26.624,0,0,1-2.383,1.685,9.129,9.129,0,0,1,1.428,2.056,4.208,4.208,0,0,1,.408,1.776,3.74,3.74,0,0,1-1.17,2.8,4.13,4.13,0,0,1-2.995,1.133,3.518,3.518,0,0,1-2.436-.817,2.427,2.427,0,0,1-.913-1.846,2.79,2.79,0,0,1,.4-1.384,6.882,6.882,0,0,1,1.514-1.76A18.87,18.87,0,0,1,1172.069,59.622Zm.344.365a9.6,9.6,0,0,0-1.589,1.3,5.513,5.513,0,0,0-1.041,1.626,4.483,4.483,0,0,0-.365,1.711,1.731,1.731,0,0,0,.542,1.31,2.013,2.013,0,0,0,1.444.515,2.59,2.59,0,0,0,1.927-.826,2.865,2.865,0,0,0,.8-2.072,3.772,3.772,0,0,0-.37-1.573A9.679,9.679,0,0,0,1172.413,59.987Zm.891-1.213a9.458,9.458,0,0,0,2.232-2.126,3.336,3.336,0,0,0,.58-1.846,1.63,1.63,0,0,0-.456-1.213,1.676,1.676,0,0,0-1.229-.451,2.285,2.285,0,0,0-1.213.355,2.409,2.409,0,0,0-.912,1.041,2.985,2.985,0,0,0-.054,2.63A7.716,7.716,0,0,0,1173.3,58.774Z" fill="#00223d"/>
        <path id="Trazado_39235" data-name="Trazado 39235" d="M1181.457,66.609l1.172-4.079h-5.018l.1-.805,8.732-9h.569l-2.561,8.855h2.561l-.236.955h-2.624l-1.157,4.079Zm1.446-5.034,1.809-6.294-6.059,6.294Z" fill="#00223d"/>
        <path id="Trazado_39236" data-name="Trazado 39236" d="M1198.108,52.752l.032-.311q1.315-.107,1.995-.108h.475v.145l-.333,1.041q-.023.042-.784,1.985l-1.45,3.779q-.385,1.062-1.288,3.283l-.354.934a8.308,8.308,0,0,1-.6,1.373,1.953,1.953,0,0,0-.354.856l.043.172a1.723,1.723,0,0,0,.869-.484,6.689,6.689,0,0,0,1.376-1.621,1.631,1.631,0,0,1,.309-.043l.12.011a5.558,5.558,0,0,1-.866,1.277,9.91,9.91,0,0,1-1.01.978,5.835,5.835,0,0,1-1.185.719,1.737,1.737,0,0,1-.711.161.364.364,0,0,1-.278-.1.34.34,0,0,1-.093-.247,26.089,26.089,0,0,1,1.717-4.433q.527-1.191,1.1-2.726,1-2.684,1.535-3.821a12.533,12.533,0,0,0,.783-2.05.679.679,0,0,0,.022-.154.387.387,0,0,0-.151-.29A2.5,2.5,0,0,0,1198.108,52.752Z" fill="#00223d"/>
        <path id="Trazado_39237" data-name="Trazado 39237" d="M1206.673,51.3h.945l-7.567,18.278h-.934Z" fill="#00223d"/>
        <path id="Trazado_39238" data-name="Trazado 39238" d="M1210.1,64.774q.537,0,.881.826a1.405,1.405,0,0,0,.332.536.555.555,0,0,0,.4.14,1.226,1.226,0,0,0,.88-.43,1.345,1.345,0,0,0,.322-.988,5.17,5.17,0,0,0-.365-1.548,7.76,7.76,0,0,1-.515-2.343,3.742,3.742,0,0,1,.666-2.192,2.382,2.382,0,0,1,2.1-.957,1.392,1.392,0,0,1,.976.333,1.05,1.05,0,0,1,.365.805.756.756,0,0,1-.177.521.529.529,0,0,1-.4.2,1.087,1.087,0,0,1-.848-.456,2.9,2.9,0,0,0-.505-.531.927.927,0,0,0-.4-.065.7.7,0,0,0-.531.258.9.9,0,0,0-.231.624,8.247,8.247,0,0,0,.518,2.423,8.094,8.094,0,0,1,.512,2.412,2.149,2.149,0,0,1-.338,1.113,2.693,2.693,0,0,1-1.052.957,3.012,3.012,0,0,1-1.465.392,2.009,2.009,0,0,1-1.347-.387,1.181,1.181,0,0,1-.445-.922.739.739,0,0,1,.182-.521A.623.623,0,0,1,1210.1,64.774Z" fill="#00223d"/>
      </g>
    </g>
    <path id="Trazado_39239" data-name="Trazado 39239" d="M803.815,45.336h3.191V38.6H773.679l18.082,23.754L771.906,88.59h35.1V79.372H804.17v5.673H778.642l17.373-21.982L779.706,40.372l24.464-.355Z" transform="translate(20)" fill="#00223d"/>
    <line id="Línea_186" data-name="Línea 186" x2="229.923" transform="translate(891.948 61.881)" fill="none" stroke="#00223d" stroke-miterlimit="10" stroke-width="1"/>
    <line id="Línea_187" data-name="Línea 187" x2="32.618" transform="translate(758.618 61.881)" fill="none" stroke="#00223d" stroke-miterlimit="10" stroke-width="1"/>
    <g id="Grupo_11936" data-name="Grupo 11936" transform="translate(20)">
      <g id="Grupo_11935" data-name="Grupo 11935">
        <g id="Grupo_11934" data-name="Grupo 11934">
          <path id="Trazado_39240" data-name="Trazado 39240" d="M700.452,67.1c-.036.1-.065.175-.086.226a2.369,2.369,0,0,0-.2.665.369.369,0,0,0,.118.268.385.385,0,0,0,.279.118.64.64,0,0,0,.279-.062,9.453,9.453,0,0,0,1.685-1.318q1.224-1.1,1.889-1.8a9.546,9.546,0,0,0-.6-1.167l-1.1-1.868a1.685,1.685,0,0,0-.408-.441.509.509,0,0,0-.258-.075.37.37,0,0,0-.3.15q-.182,1.374-.236,1.579a.967.967,0,0,1-.343-.409,2.292,2.292,0,0,1-.172-.955,2.2,2.2,0,0,1,.322-1.1q.323-.558.7-.559a1.28,1.28,0,0,1,.859.419,15.891,15.891,0,0,1,2.047,3.136c.152.272.262.455.327.549l2.069-1.87a23.459,23.459,0,0,1,2.168-1.793,2.359,2.359,0,0,1,.612-.312.906.906,0,0,1,.3-.054.5.5,0,0,1,.391.2.813.813,0,0,1,.167.542,1.725,1.725,0,0,1-.634,1.449.926.926,0,0,1-.365.128,1.416,1.416,0,0,1-.375-.065,1.874,1.874,0,0,0,.429-.783.487.487,0,0,0-.129-.322.828.828,0,0,0-.182-.032,1.169,1.169,0,0,0-.343.086,4.848,4.848,0,0,0-.709.429,14.9,14.9,0,0,0-1.663,1.364l-1.468,1.395a29.887,29.887,0,0,0,1.632,2.9.544.544,0,0,0,.4.259.429.429,0,0,0,.328-.172q.243-.256.243-.376l-.043-.718.022-.1a.437.437,0,0,1,.23.054,1.807,1.807,0,0,1,.274,1.062,3.073,3.073,0,0,1-.172.752,1.224,1.224,0,0,1-.386.6.852.852,0,0,1-.537.22.9.9,0,0,1-.52-.178,4.847,4.847,0,0,1-.832-.992q-.086-.141-1.079-1.867l-.407-.638q-.162.148-.907.862a22.921,22.921,0,0,1-2.813,2.447,2.066,2.066,0,0,1-1.051.387.99.99,0,0,1-.709-.265.871.871,0,0,1-.279-.663,1.309,1.309,0,0,1,.4-.911,1.125,1.125,0,0,1,.788-.426A1.635,1.635,0,0,1,700.452,67.1Z" fill="#00223d"/>
          <path id="Trazado_39241" data-name="Trazado 39241" d="M717.55,59.3h11.495v.945H717.55Zm0,4.97h11.495v.955H717.55Z" fill="#00223d"/>
        </g>
      </g>
      <line id="Línea_188" data-name="Línea 188" x2="9.218" transform="translate(700.84 58.139)" fill="none" stroke="#00223d" stroke-miterlimit="10" stroke-width="1"/>
    </g>
    <rect id="Rectángulo_3880" data-name="Rectángulo 3880" width="579.484" height="114.581" transform="translate(674.79 6.194)" fill="none" stroke="#adcbf7" stroke-miterlimit="10" stroke-width="3"/>
  </g>
</svg>
