<svg xmlns="http://www.w3.org/2000/svg" width="74.648" height="58.768" viewBox="0 0 74.648 58.768">
  <g id="Grupo_17851" data-name="Grupo 17851" transform="translate(-1236.969 -2407.255)">
    <g id="Grupo_16928" data-name="Grupo 16928" transform="translate(389.017 835.881)">
      <g id="Grupo_16922" data-name="Grupo 16922">
        <path id="Trazado_45165" data-name="Trazado 45165" d="M850.306,1603.929c3.3-2.578,4.558-5.61,6.06-9.4,2.667-6.72,6.753-13.391,13.347-16.708,11.847-5.962,29.351-4.747,41.1.764,6.849,3.212,11.3,10.106,5.788,16.885-6.385,7.853-19.114,10.156-28.56,10.656-8.878.47-18.084-.891-26.767-2.645-3.793-.766-7.993-2.325-11.914-1.835-1.686.211-1.706,2.883,0,2.67,5.619-.7,12.234,2.04,17.745,2.926,10.821,1.738,21.911,2.358,32.663-.044,11.874-2.653,31.8-15.539,16.983-28.028-10.531-8.873-28.857-9.031-41.5-6.085a25.238,25.238,0,0,0-15.686,10.213c-4.061,5.748-5.541,14.366-11.145,18.739C847.061,1603.1,848.966,1604.974,850.306,1603.929Z" fill="#575756"/>
      </g>
      <g id="Grupo_16923" data-name="Grupo 16923">
        <path id="Trazado_45166" data-name="Trazado 45166" d="M852.759,1603.774c.825,8.669,5.855,20.04,14.435,23.792,7.362,3.219,17.186,2.685,24.978,2.244,6.794-.383,16.19-1.092,21.112-6.465,8.178-8.927,9.639-21.627,9.263-33.173-.057-1.717-2.726-1.723-2.671,0,.34,10.443-.878,20.348-6.858,29.16-4.5,6.629-13.5,7.285-20.846,7.809a76.026,76.026,0,0,1-21.026-1.148c-9.3-1.98-14.9-13.657-15.718-22.219-.161-1.7-2.833-1.716-2.669,0Z" fill="#575756"/>
      </g>
      <g id="Grupo_16924" data-name="Grupo 16924">
        <path id="Trazado_45167" data-name="Trazado 45167" d="M861.782,1609.686s.157.195.4.546.552.886.948,1.451c.372.575.8,1.244,1.267,1.963.223.362.444.738.7,1.1s.486.745.722,1.125c.259.361.522.717.762,1.083a11.758,11.758,0,0,0,.754,1.036c.256.323.477.671.717.967.255.278.485.56.7.827a5.318,5.318,0,0,0,.621.7c.2.188.374.374.521.526.289.309.457.507.457.507s-.237-.033-.658-.133c-.208-.055-.469-.117-.762-.215a3.31,3.31,0,0,1-.929-.42c-.325-.182-.681-.385-1.046-.622a12.033,12.033,0,0,1-1.022-.869,6.944,6.944,0,0,1-.987-1.037c-.308-.378-.6-.771-.9-1.167a15.905,15.905,0,0,1-1.328-2.542,11.475,11.475,0,0,1-.734-2.4,8.431,8.431,0,0,1-.207-1.743C861.77,1609.938,861.782,1609.686,861.782,1609.686Z" fill="#575756"/>
      </g>
      <g id="Grupo_16925" data-name="Grupo 16925">
        <path id="Trazado_45168" data-name="Trazado 45168" d="M871.588,1622.993a2.586,2.586,0,0,1,.324-.052c.19-.036.488.007.754-.041a6.182,6.182,0,0,1,.853-.041,7.315,7.315,0,0,1,.948.09,5.65,5.65,0,0,1,1.844.6,4.1,4.1,0,0,1,.894.622,3.151,3.151,0,0,1-.926.6,3.309,3.309,0,0,1-.989.285,4.224,4.224,0,0,1-1.161-.008,3.853,3.853,0,0,1-1.14-.387,3.02,3.02,0,0,1-.9-.688,1.921,1.921,0,0,1-.4-.675A2.973,2.973,0,0,1,871.588,1622.993Z" fill="#575756"/>
      </g>
      <g id="Grupo_16926" data-name="Grupo 16926">
        <path id="Trazado_45169" data-name="Trazado 45169" d="M861.486,1593.129s.08-.477.254-1.3c.046-.2.1-.433.153-.68.091-.242.188-.5.293-.785a9.3,9.3,0,0,1,.852-1.845c.188-.321.367-.671.587-1.007.244-.32.5-.653.755-.992a15.611,15.611,0,0,1,1.843-1.967,19.833,19.833,0,0,1,2.281-1.747,29.323,29.323,0,0,1,2.547-1.486c.895-.4,1.786-.82,2.688-1.147.889-.374,1.806-.6,2.672-.882a39.983,39.983,0,0,1,4.831-1.049,38.945,38.945,0,0,1,4.784-.487s-.445.191-1.231.49-1.911.709-3.253,1.182c-.669.239-1.393.494-2.159.768s-1.558.572-2.384.875c-.815.319-1.656.656-2.495,1.012-.853.331-1.674.752-2.507,1.144-.808.429-1.647.816-2.392,1.314-.779.454-1.494.958-2.191,1.454-.344.25-.639.545-.966.793a7.006,7.006,0,0,0-.9.8q-.417.417-.812.8c-.254.267-.467.553-.692.814a12.513,12.513,0,0,0-1.125,1.5q-.243.352-.455.656l-.329.613C861.734,1592.713,861.486,1593.129,861.486,1593.129Z" fill="#575756"/>
      </g>
      <g id="Grupo_16927" data-name="Grupo 16927">
        <path id="Trazado_45170" data-name="Trazado 45170" d="M890.165,1578.05a5.822,5.822,0,0,1,1.341-.609,9.389,9.389,0,0,1,2.947-.456,9.291,9.291,0,0,1,2.948.454.809.809,0,1,1,0,1.222,9.774,9.774,0,0,1-5.9,0A5.776,5.776,0,0,1,890.165,1578.05Z" fill="#575756"/>
      </g>
    </g>
    <g id="Grupo_16929" data-name="Grupo 16929" transform="translate(389.017 835.881)">
      <path id="Trazado_45171" data-name="Trazado 45171" d="M870.61,1607.083c9.117-7.487,24.143-4.835,34.575-2.022a1.337,1.337,0,0,0,.71-2.576c-11.556-3.113-27.162-5.509-37.173,2.71-1.332,1.094.569,2.97,1.888,1.888Z" fill="#575756"/>
    </g>
  </g>
</svg>
