<svg xmlns="http://www.w3.org/2000/svg" width="90.018" height="65.95" viewBox="0 0 90.018 65.95">
  <g id="Grupo_17848" data-name="Grupo 17848" transform="translate(-855.133 -1989.753)">
    <g id="Grupo_16788" data-name="Grupo 16788" transform="translate(389.017 835.881)">
      <path id="Trazado_45031" data-name="Trazado 45031" d="M468.413,1175.324c-3.156,4.061-2.917,7.09-.155,11.357,2.988,4.615,5.59,9.8,10.815,12.214,3.641,1.677,7.515.211,10.911-1.292,4.562-2.019,9.187-3.9,13.8-5.8,10.454-4.294,20.943-8.5,31.368-12.868,5.508-2.308,13.2-4.3,17.776-8.323,4.608-4.053-9.736-11.315-11.816-12.512-4.275-2.463-8.25-4.233-13.285-4.232-4.544,0-10.9,2.741-12.208,7.507-.611,2.222,1.605,6.279,4.349,5.251a13.586,13.586,0,0,0,4.392-2.945c3.562-3.2,7.051-2.849,11.473-1.621.642.178,9.044,4.47,8.577,4.989a8.626,8.626,0,0,1-2.169,1.425c-3.089,1.765-6.385,3.193-9.63,4.642-15.911,7.1-32.639,14.673-49.467,19.352-2.326.646-5.111-4.776-6.025-6.282-.756-1.245-1.4-2.556-2.044-3.861q-.72-1.486-1.313-3.03-1.451.6-.128,1.005c2.037,1.253,4.689,3.75,7.216,2.429,2.774-1.451-.107-5.639-1.3-6.944-3.146-3.425-7.815-3.267-11.136-.465-1.318,1.113.581,2.992,1.888,1.889,3.449-2.913,6.791-.657,8.571,1.985,1.5,2.231-1.318.452-1.72.211a22.86,22.86,0,0,0-3.651-2.219c-2.148-.776-2.849,1.037-2.311,2.819,1.41,4.676,6.69,16.818,13.246,14.871,15.869-4.714,31.439-11.626,46.612-18.177,4.657-2.009,11.881-4.019,15.405-7.931,1.714-1.905-2.063-5.294-3.34-6.144a23.446,23.446,0,0,0-15.082-4.071,6.43,6.43,0,0,0-3.7,1.585c-.958.826-1.89,1.682-2.831,2.527q-.927-1.393-1.857-2.787a11.786,11.786,0,0,1,5.282-2.89c6.822-2.21,13.572,2.533,19.095,5.959a36,36,0,0,1,6.244,4.689c1.347,1.315.669,1.2-.685,1.936-3.226,1.758-6.665,3.164-10.034,4.62-12.46,5.388-25.1,10.365-37.653,15.522-4.688,1.926-9.374,3.861-14.008,5.911-4.953,2.191-8.8,1.116-12.328-2.81-3.28-3.645-8.869-10.963-5.257-15.606C471.344,1175.871,469.469,1173.967,468.413,1175.324Z" fill="#575756"/>
    </g>
    <g id="Grupo_16789" data-name="Grupo 16789" transform="translate(389.017 835.881)">
      <path id="Trazado_45032" data-name="Trazado 45032" d="M480.9,1198.281c.981,13.128,8.514,22.3,22.366,21.146a19.957,19.957,0,0,0,14.328-8.137c1.82-2.465,7.044-14.907,11.1-12.658,3.165,1.755,4.117,5.628,8.22,6.144,5.948.75,11.816-3.608,15.242-8.074,5.694-7.417,4.447-19.411,1.4-27.669-.591-1.6-3.172-.91-2.576.71,2.84,7.7,3.651,17.2-.439,24.553-2.813,5.058-11.379,10.8-16.555,6-1.834-1.7-3.1-4.212-5.791-4.634-6.647-1.048-10.868,12.042-14.2,15.773-5.208,5.837-14.729,7.035-21.626,3.794-6.283-2.952-8.333-10.64-8.8-16.946-.129-1.706-2.8-1.718-2.671,0Z" fill="#575756"/>
    </g>
    <g id="Grupo_16790" data-name="Grupo 16790" transform="translate(389.017 835.881)">
      <path id="Trazado_45033" data-name="Trazado 45033" d="M472.372,1194.5c2.26,7.7,2.18,15.658,9.19,20.785,5.563,4.068,13.866,5.16,20.523,4.229,1.7-.239.973-2.811-.71-2.576a28.957,28.957,0,0,1-17.334-3.257c-7.348-3.909-7.043-12.907-9.094-19.89a1.336,1.336,0,0,0-2.575.709Z" fill="#575756"/>
    </g>
    <g id="Grupo_16791" data-name="Grupo 16791" transform="translate(389.017 835.881)">
      <path id="Trazado_45034" data-name="Trazado 45034" d="M501.157,1197.986a12.379,12.379,0,0,1,.13,2.226c-.02.646-.046,1.4-.073,2.2-.035.788-.116,1.613-.234,2.436-.067.836-.169,1.669-.307,2.45-.164.783-.277,1.51-.4,2.139a13.26,13.26,0,0,1-.592,2.144,11.387,11.387,0,0,1-.63-2.145,9.181,9.181,0,0,1-.262-2.25c-.014-.824.013-1.7.078-2.576.132-.877.3-1.749.5-2.553a9.753,9.753,0,0,1,.732-2.115A12.464,12.464,0,0,1,501.157,1197.986Z" fill="#575756"/>
    </g>
    <g id="Grupo_16792" data-name="Grupo 16792" transform="translate(389.017 835.881)">
      <path id="Trazado_45035" data-name="Trazado 45035" d="M507.662,1197.69a6.173,6.173,0,0,1,.42,1.473,10.232,10.232,0,0,1,.05,3.124,10.529,10.529,0,0,1-1.07,3.016,5.837,5.837,0,0,1-.878,1.259,6.533,6.533,0,0,1-.32-1.5,9.74,9.74,0,0,1,.157-3.049,10.371,10.371,0,0,1,.855-3.007A6.287,6.287,0,0,1,507.662,1197.69Z" fill="#575756"/>
    </g>
    <g id="Grupo_16793" data-name="Grupo 16793" transform="translate(389.017 835.881)">
      <path id="Trazado_45036" data-name="Trazado 45036" d="M538.413,1184.089a4.836,4.836,0,0,1,.448,1.24,7.245,7.245,0,0,1,.118,2.6,6.969,6.969,0,0,1-.725,2.483,4.449,4.449,0,0,1-.729,1.066,4.971,4.971,0,0,1-.48-1.247,7.009,7.009,0,0,1,.612-5.08A4.761,4.761,0,0,1,538.413,1184.089Z" fill="#575756"/>
    </g>
    <g id="Grupo_16794" data-name="Grupo 16794" transform="translate(389.017 835.881)">
      <path id="Trazado_45037" data-name="Trazado 45037" d="M543.734,1181.132a16.521,16.521,0,0,1,.5,2.543c.049.38.1.793.136,1.228a11.185,11.185,0,0,1,.007,1.386c-.033.966-.112,2-.229,3.028a27.565,27.565,0,0,1-1.4,5.421,16.3,16.3,0,0,1-1.077,2.362,16.473,16.473,0,0,1-.125-2.588,38.172,38.172,0,0,1,.5-5.5c.116-.974.271-1.942.458-2.852.082-.459.218-.887.274-1.324.073-.429.163-.836.246-1.211A16.473,16.473,0,0,1,543.734,1181.132Z" fill="#575756"/>
    </g>
  </g>
</svg>
