<svg xmlns="http://www.w3.org/2000/svg" width="132.383" height="62.61" viewBox="0 0 132.383 62.61">
  <g id="Grupo_17849" data-name="Grupo 17849" transform="translate(-609.389 -2161.352)">
    <g id="Grupo_16894" data-name="Grupo 16894" transform="translate(389.017 835.881)">
      <path id="Trazado_45137" data-name="Trazado 45137" d="M222.1,1388.045c15.6-3.408,29.739-10.8,44.356-17.227,2.91-1.279,5.821-2.558,8.721-3.864,1.192-.536-1.291-.63-.393-.075a4.785,4.785,0,0,0,1.042.469,8.463,8.463,0,0,0,3.852-.1c7.539-1.149,16.04-5.331,21.925-10.1a7.775,7.775,0,0,0,2.117-2.543,2.536,2.536,0,0,0,.287-1.063c0-1.366.056.046-.036.091,4.484-2.222,9.063-4.257,13.626-6.308,9.592-4.313,19.241-8.5,28.879-12.707,2.2-.962,4.464-1.6,5.813-3.694,1.319-2.05-.335-5.461-2.811-5.461-1.655,0-3.616,1.3-5.063,1.966q-5.371,2.468-10.744,4.941-17.137,7.884-34.273,15.773.913.24,1.826.48c-3.819-5.848-17.122,1.578-21.289,3.734-2.721,1.41-6.575,3.337-8.026,6.234-.792,1.578.888-.015-1.112.924-1.856.87-3.724,1.716-5.59,2.568-9.855,4.493-19.74,8.916-29.624,13.344-6.094,2.73-9.7,5.842-14.782,10.377-1.287,1.15.609,3.032,1.888,1.889,2.424-2.166,5.869-6.213,8.308-7.305q5.709-2.553,11.416-5.113c10.429-4.677,20.982-9.17,31.256-14.181a1.307,1.307,0,0,0,.662-1.153c-.286-4.064,22.256-13.538,24.587-9.971a1.372,1.372,0,0,0,1.827.479q22.508-10.36,45.018-20.714l3.021-1.388c1.039-.475.833,1.968-.013,2.357-.555.256-1.115.5-1.674.745-4.334,1.91-8.679,3.79-13.017,5.686-10.781,4.716-21.646,9.33-32.19,14.556a1.327,1.327,0,0,0-.614,1.508c1.094,3.327-22.41,14.39-25.1,11.318a1.357,1.357,0,0,0-1.617-.208c-9.264,4.235-18.642,8.232-27.974,12.31q-6.635,2.9-13.273,5.793c-3.825,1.669-7.734,2.134-11.922,3.049C219.708,1385.836,220.422,1388.411,222.1,1388.045Z" fill="#575756"/>
    </g>
    <g id="Grupo_16895" data-name="Grupo 16895" transform="translate(389.017 835.881)">
      <path id="Trazado_45138" data-name="Trazado 45138" d="M330.593,1337.188c.12.021.07,0-.154-.072-.3-.172-.073-.039.009.047a2.477,2.477,0,0,1,.358.479,12.022,12.022,0,0,1,.763,1.3c.78,1.535,3.085.184,2.306-1.347a12.375,12.375,0,0,0-1.011-1.65c-.369-.511-.883-1.228-1.561-1.329a1.371,1.371,0,0,0-1.644.933,1.339,1.339,0,0,0,.934,1.643Z" fill="#575756"/>
    </g>
    <g id="Grupo_16896" data-name="Grupo 16896" transform="translate(389.017 835.881)">
      <path id="Trazado_45139" data-name="Trazado 45139" d="M278.318,1360.54s.192.009.51.053a2.322,2.322,0,0,0,.521,0c.166.007.4-.057.619-.07s.472-.11.717-.15c.256-.082.513-.126.789-.224.546-.148,1.132-.368,1.727-.559,1.189-.41,2.426-.823,3.428-1.064a13.989,13.989,0,0,1,1.741-.351,5.921,5.921,0,0,1-1.143,1.417,9.187,9.187,0,0,1-3.344,2.014,7.813,7.813,0,0,1-2.127.406,4.8,4.8,0,0,1-1.948-.283,2.907,2.907,0,0,1-.731-.372,1.713,1.713,0,0,1-.464-.4C278.42,1360.7,278.318,1360.54,278.318,1360.54Z" fill="#575756"/>
    </g>
    <g id="Grupo_16897" data-name="Grupo 16897" transform="translate(389.017 835.881)">
      <path id="Trazado_45140" data-name="Trazado 45140" d="M290.935,1356.6a2.672,2.672,0,0,1,.03-.674.825.825,0,0,1,.415-.67,1,1,0,0,1,.9.229,1.748,1.748,0,0,1,.427.524,6.483,6.483,0,0,1-.142.665c-.079.313-.184.508-.351.539a.84.84,0,0,1-.772-.166A2.771,2.771,0,0,1,290.935,1356.6Z" fill="#575756"/>
    </g>
  </g>
</svg>
