<svg xmlns="http://www.w3.org/2000/svg" width="283.875" height="73.839" viewBox="0 0 283.875 73.839">
  <g id="Grupo_11982" data-name="Grupo 11982" transform="translate(-977.041 300.274)">
    <g id="Grupo_11969" data-name="Grupo 11969" transform="translate(15)">
      <g id="Grupo_11968" data-name="Grupo 11968">
        <path id="Trazado_39267" data-name="Trazado 39267" d="M1137.824-260.125v-.4c.079-.036.188-.077.327-.124a4.381,4.381,0,0,0,.446-.177c.214-.093.443-.2.687-.332a11.794,11.794,0,0,0,1.535-.945l1.905-1.561q.482-.376,1.906-1.6l1.185-1.036a2.7,2.7,0,0,1,.254-.2l.594-.524c-.215-.3-.377-.54-.488-.716a2.438,2.438,0,0,0-.136-.228q-.561-1.024-.983-1.737l-1.109-1.822a10.777,10.777,0,0,0-.962-1.576,1.837,1.837,0,0,0-.692-.6,4.636,4.636,0,0,0-1.464-.3,3.641,3.641,0,0,1-.461-.064l-.022-.387h.548l1.782.054a2.8,2.8,0,0,0,.332-.033q1.074.054,1.6.054l1.2-.021c.164,0,.32.005.467.016s.266.016.359.016h.2c.007.107.011.186.011.236v.151a5.488,5.488,0,0,0-2,.267c-.144.071-.215.161-.215.269l.01.1a4.679,4.679,0,0,0,.257.548q.063.106,1.8,3.221.678,1.2.99,1.648.129-.1,2.179-1.917,1.75-1.557,2.383-2.259a5.6,5.6,0,0,0,.725-.9.805.805,0,0,0,.091-.305.354.354,0,0,0-.161-.312,4.5,4.5,0,0,0-1.514-.418v-.075a.929.929,0,0,1,.054-.269l.128-.01h.515l1.085-.011.3.032q.075,0,1.91.075h.462c.05,0,.164,0,.343.011l-.01.419a4.535,4.535,0,0,0-2.264,1.148c-.144.108-.312.229-.505.365q-.138.108-.993.812l-1.241,1.172a6.191,6.191,0,0,0-.525.43q-.546.518-2.718,2.433.762,1.394,1.877,3.248.9,1.512,1.281,2.06l.547.772a5.711,5.711,0,0,0,.687.5c.158.072.315.14.473.2a5.408,5.408,0,0,1,.719.344l.011.118a1.365,1.365,0,0,1-.022.2,9.389,9.389,0,0,1-1.2-.118,11.987,11.987,0,0,0-1.733-.118q-.494,0-2.737.086c-.007-.107-.011-.186-.011-.236s0-.14.011-.247c.208-.029.4-.046.581-.054a1.976,1.976,0,0,0,1.076-.289.441.441,0,0,0,.236-.376,1.9,1.9,0,0,0-.29-.816q-1.019-1.879-2.166-3.642c-.223-.36-.369-.606-.438-.735a34.353,34.353,0,0,0-2.678,2.265,18.768,18.768,0,0,0-2.526,2.577.948.948,0,0,0-.182.5.375.375,0,0,0,.182.281,2.4,2.4,0,0,0,1.057.378c.149.029.287.057.415.086-.022.107-.051.221-.086.343-.093.007-.161.011-.2.011l-.2.011-.182-.011-1.211-.081q-.675-.059-.856-.059l-1.811.108A5.178,5.178,0,0,1,1137.824-260.125Z" fill="#00223d"/>
      </g>
    </g>
    <g id="Grupo_11971" data-name="Grupo 11971">
      <g id="Grupo_11970" data-name="Grupo 11970">
        <path id="Trazado_39268" data-name="Trazado 39268" d="M1196.005-266.363l.237.269a18.3,18.3,0,0,0-3.006,3.295,18.855,18.855,0,0,0-2.458,5.039,18.892,18.892,0,0,0-.912,5.834,17.733,17.733,0,0,0,.869,5.312l-.311.194a15.544,15.544,0,0,1-1.513-6.73,15.849,15.849,0,0,1,1.776-7.271A16.03,16.03,0,0,1,1196.005-266.363Z" fill="#00223d"/>
      </g>
    </g>
    <g id="Grupo_11973" data-name="Grupo 11973">
      <g id="Grupo_11972" data-name="Grupo 11972">
        <path id="Trazado_39269" data-name="Trazado 39269" d="M1228.369-246.463l-.3-.237a17.2,17.2,0,0,0,1.975-1.926,10.808,10.808,0,0,0,1-1.283q.054-.1.462-.686a19.533,19.533,0,0,0,1.213-2.265,17.42,17.42,0,0,0,1.234-3.445,19.777,19.777,0,0,0,.537-4.68,14.525,14.525,0,0,0-.167-2.26q-.166-1.058-.67-2.967l.3-.172a16.135,16.135,0,0,1,1.492,6.7,15.83,15.83,0,0,1-.73,4.786,15.449,15.449,0,0,1-2.6,4.943A15.783,15.783,0,0,1,1228.369-246.463Z" fill="#00223d"/>
      </g>
    </g>
    <g id="Grupo_11975" data-name="Grupo 11975">
      <g id="Grupo_11974" data-name="Grupo 11974">
        <path id="Trazado_39270" data-name="Trazado 39270" d="M1211.216-247.356l-.167.64h-3.623l.028-.137q2.067-1.955,2.768-2.685a6.425,6.425,0,0,0,1.126-1.466,1.8,1.8,0,0,0,.172-.807,1.074,1.074,0,0,0-.24-.759.886.886,0,0,0-.678-.256,1.333,1.333,0,0,0-.832.262,2.534,2.534,0,0,0-.67.956h-.274a2.66,2.66,0,0,1,.8-1.266,1.758,1.758,0,0,1,1.131-.414,1.571,1.571,0,0,1,1.137.4,1.367,1.367,0,0,1,.411,1.03,1.744,1.744,0,0,1-.112.645,2.6,2.6,0,0,1-.5.774q-.355.4-1.553,1.464l-1.816,1.623Z" fill="#00223d"/>
      </g>
    </g>
    <g id="Grupo_11977" data-name="Grupo 11977">
      <g id="Grupo_11976" data-name="Grupo 11976">
        <path id="Trazado_39271" data-name="Trazado 39271" d="M1197.087-262.765a2.825,2.825,0,0,1,.314-.035c.143-.01.254-.021.334-.035a.8.8,0,0,0,.464-.155.425.425,0,0,0,.124-.246l.3-1.4c.052-.251.093-.427.124-.533l.015-.127.242-1.308a1.941,1.941,0,0,1,.082-.366,3.847,3.847,0,0,0,.108-.751l.077-.376.066-.64a.132.132,0,0,0-.066-.127,4.674,4.674,0,0,0-1.02-.2l.046-.164,1.883-.009a.713.713,0,0,1,.092.136q.062.1.278.412l.293.411c.116.189.236.376.359.558s.238.367.345.553q.112.188,1.587,2.5.278.43.385.624c.134.243.274.481.422.715.042-.209.076-.43.1-.659.137-.654.217-1.093.24-1.32.013-.125.029-.243.049-.355.016-.074.038-.211.064-.411l.078-.569c0-.063.043-.357.118-.88a9.15,9.15,0,0,0,.113-1.066.806.806,0,0,0-.047-.226,2.4,2.4,0,0,0-.739-.187c-.138-.023-.246-.044-.325-.061a.576.576,0,0,1-.016-.117v-.045l.066-.006c.064,0,.479.02,1.243.057.132.007.222.01.269.01.224,0,.445-.01.665-.03.155-.014.276-.021.36-.021a1.158,1.158,0,0,1-.06.22,5.579,5.579,0,0,0-.905.126.285.285,0,0,0-.143.087,2.094,2.094,0,0,0-.118.466q-.108.588-.142.862c-.023.182-.048.337-.074.462-.033.172-.054.287-.064.344l-.191,1.386-.343,2.071q-.1.68-.108.8h-.122c-.033,0-.086,0-.156-.009-.069-.128-.149-.262-.242-.4l-1.469-2.271c-.065-.1-.122-.19-.17-.274l-.369-.547-1.172-1.821q-.242-.365-.411-.573a1.135,1.135,0,0,0-.092-.145,2.129,2.129,0,0,1-.124-.184q-.025-.036-.072-.111-.04.151-.108.552l-.118.65q-.092.564-.318,1.71l-.118.609-.123.9q-.047.38-.119.7a2.465,2.465,0,0,0-.072.522.206.206,0,0,0,.066.132,2.678,2.678,0,0,0,.329.106,2.005,2.005,0,0,0,.294.061c.024,0,.2.046.542.127l-.045.178c-.081-.017-.222-.036-.423-.056-.471-.048-.8-.071-.988-.071-.087,0-.2,0-.332.01-.387.017-.633.026-.741.026-.057,0-.149,0-.277-.006Z" fill="#00223d"/>
      </g>
    </g>
    <g id="Grupo_11979" data-name="Grupo 11979">
      <g id="Grupo_11978" data-name="Grupo 11978">
        <path id="Trazado_39272" data-name="Trazado 39272" d="M1210.29-266.027h2.5v-2.507h.447v2.507h2.511v.446h-2.511v2.481h-.447v-2.481h-2.5Z" fill="#00223d"/>
        <path id="Trazado_39273" data-name="Trazado 39273" d="M1220.289-262.587l1.619-5.561a8.154,8.154,0,0,1-1.675.949l-.02-.284a6.729,6.729,0,0,0,2.359-1.67h.335l-1.922,6.566Z" fill="#00223d"/>
      </g>
    </g>
    <line id="Línea_192" data-name="Línea 192" y1="0.345" x2="32.921" transform="translate(1193.463 -258.742)" fill="none" stroke="#00223d" stroke-miterlimit="10" stroke-width="1"/>
    <g id="Grupo_11981" data-name="Grupo 11981" transform="translate(15)">
      <g id="Grupo_11980" data-name="Grupo 11980">
        <path id="Trazado_39274" data-name="Trazado 39274" d="M988.741-257.812v-.086a.5.5,0,0,1,.106-.344,3.67,3.67,0,0,0,1.081-.235,1.02,1.02,0,0,0,.424-.242,3.509,3.509,0,0,0,.53-.843,17.876,17.876,0,0,0,.876-2.329l.949-2.769q.2-.676.274-.89l1.3-3.6q.264-.828.474-1.363a1.407,1.407,0,0,0,.118-.455.448.448,0,0,0-.257-.44,3.951,3.951,0,0,0-1.084-.211c-.645.022-.988.032-1.031.032h-.129l-.107-.44c.255-.015.408-.021.458-.021.206.014.344.021.415.021l.917-.032c.582,0,1.072.017,1.47.054q.236.021.661.032a.319.319,0,0,1,.075.118,5.047,5.047,0,0,1,.213.923l.316,1.761c.07.256.165.744.285,1.458q.346,2.03.474,3.082.327,1.535.422,2.3c.007.065.087.54.242,1.428a6.969,6.969,0,0,0,.148.751q.513-.741.891-1.368t1.294-2.324l2.328-3.972.481-.826q.885-1.643,1.989-3.37.724.031,1.4.032c.057,0,.129,0,.216,0s.187-.006.3-.006l1.254-.032c.051.007.119.015.206.022l-.032.343a5.406,5.406,0,0,1-.8.194,3.436,3.436,0,0,0-.984.3.713.713,0,0,0-.317.4q-.339,2.157-.9,5.249l-.995,5.581-.01.086q-.022.16-.055.632a2.058,2.058,0,0,1-.033.291l-.021.107a.41.41,0,0,0,.032.14,1.739,1.739,0,0,0,.375.225,7.431,7.431,0,0,0,1.125.2c.264.036.46.069.589.1v.1a.58.58,0,0,1-.055.214q-.479.023-.69.022-.534,0-1.256-.07a13.033,13.033,0,0,0-1.356-.059q-.722,0-1.7.043c-.23.007-.378.011-.445.011-.1,0-.233-.007-.389-.022a.546.546,0,0,1-.045-.172.668.668,0,0,1,.076-.247c.186-.013.322-.021.409-.021a3.547,3.547,0,0,0,1.344-.235.643.643,0,0,0,.247-.266,6.28,6.28,0,0,0,.323-1.42l.495-2.533.569-2.919q.146-.816.254-1.611.169-.783.272-1.475t.175-1.036q.085-.484.109-.751-1.839,3.191-2.307,3.888-.109.172-1.436,2.471l-.468.913a5.178,5.178,0,0,0-.37.559q-1.861,3.255-2.655,4.78-.186.344-.327.58h-.4q0-.537-.042-1-.1-1.159-.2-1.89-.021-.129-.285-1.537l-.622-3.47c-.063-.343-.1-.61-.116-.8a4.816,4.816,0,0,0-.116-.7q-.137-.6-.358-1.881l-.263-1.4a2.3,2.3,0,0,0-.138.387l-1.117,3.252-.685,2.083q-.306.783-.744,2.34t-.806,2.564a1.5,1.5,0,0,0-.1.462.434.434,0,0,0,.14.327,2.364,2.364,0,0,0,.739.338c.171.03.311.054.418.076a5.922,5.922,0,0,1,.824.1.229.229,0,0,1,.129.108,1.134,1.134,0,0,1-.053.354l-.745-.032-.479-.022c-.042,0-.1,0-.181.011a17.4,17.4,0,0,0-1.947-.107Q990.262-257.844,988.741-257.812Z" fill="#00223d"/>
        <path id="Trazado_39275" data-name="Trazado 39275" d="M1009.982-261.709a5.73,5.73,0,0,0-.354,1.969,1.841,1.841,0,0,0,.344,1.167.725.725,0,0,0,.611.3.875.875,0,0,0,.419-.1,2.8,2.8,0,0,0,.682-.48,5.085,5.085,0,0,0,.595-.727,4.1,4.1,0,0,0,.505-1.005h.15a2.285,2.285,0,0,1,.29.022,5.064,5.064,0,0,1-1.589,2.353,2.44,2.44,0,0,1-1.642.717,1.186,1.186,0,0,1-.966-.515,2.972,2.972,0,0,1-.526-1.868,5.964,5.964,0,0,1,.156-1.234,6.821,6.821,0,0,1,.359-1.2,11.9,11.9,0,0,1,.72-1.417l.826-1.2q.805-.859.9-.945a3.025,3.025,0,0,1,.756-.488,1.952,1.952,0,0,1,.789-.167,1.21,1.21,0,0,1,.923.442,1.592,1.592,0,0,1,.4,1.108,2.464,2.464,0,0,1-.306,1.167,2.5,2.5,0,0,1-.66.844l-.891.581a7.067,7.067,0,0,1-.8.274Q1011.013-261.913,1009.982-261.709Zm.183-.546a3.169,3.169,0,0,0,1.073-.269,5.66,5.66,0,0,0,1.052-.591,2.82,2.82,0,0,0,.59-.585,3.2,3.2,0,0,0,.505-.858,2.54,2.54,0,0,0,.172-.917.744.744,0,0,0-.183-.516.544.544,0,0,0-.408-.2,1.158,1.158,0,0,0-.687.333,6.989,6.989,0,0,0-1.4,1.943A8.973,8.973,0,0,0,1010.165-262.255Z" fill="#00223d"/>
        <path id="Trazado_39276" data-name="Trazado 39276" d="M1021.6-265.465l1.159-3.7q.075-.237.214-.774a1.77,1.77,0,0,1,.043-.172,4.124,4.124,0,0,0,.226-.895.336.336,0,0,0-.14-.256,2.613,2.613,0,0,0-.976-.384l-.226-.063.086-.312a7.608,7.608,0,0,0,2.426-.247l.129-.011a1.049,1.049,0,0,1,.279.043q-.075.322-.108.441l-.01.064-.89,2.662-1.073,3.435c-.193.587-.321,1.019-.386,1.3a11.233,11.233,0,0,1-.322,1.159l-1.522,4.561.032.065q.386-.064,1.972-1.815a.616.616,0,0,1,.257.194,8.629,8.629,0,0,1-2,2.168,2.424,2.424,0,0,1-1.191.59.9.9,0,0,1-.236-.043.322.322,0,0,1-.065-.171,7.088,7.088,0,0,1,.365-1.493q.364-1.168.5-1.695-.28.268-.82.891a11.137,11.137,0,0,1-2.17,1.964,2.72,2.72,0,0,1-1.484.558.655.655,0,0,1-.571-.3,2.187,2.187,0,0,1-.333-1.3,5.581,5.581,0,0,1,.46-2.147,13.446,13.446,0,0,1,.9-1.739,9.66,9.66,0,0,1,1.411-1.852,5.764,5.764,0,0,1,1.484-1.137,2.929,2.929,0,0,1,1.281-.349,1.465,1.465,0,0,1,.794.215A1.715,1.715,0,0,1,1021.6-265.465Zm-4.75,6.956a1.732,1.732,0,0,0,.964-.4,8.782,8.782,0,0,0,1.893-1.937,7.938,7.938,0,0,0,1.245-2.409,8.778,8.778,0,0,0,.358-1.428,1.014,1.014,0,0,0-.259-.655.693.693,0,0,0-.477-.311,2.136,2.136,0,0,0-.929.278,4.154,4.154,0,0,0-1.146.956,11.082,11.082,0,0,0-1.048,1.567,15.226,15.226,0,0,0-1.047,2.051,3.9,3.9,0,0,0-.343,1.319,1.051,1.051,0,0,0,.223.709A.715.715,0,0,0,1016.846-258.509Z" fill="#00223d"/>
        <path id="Trazado_39277" data-name="Trazado 39277" d="M1026.673-265.722a1.273,1.273,0,0,0-.333.032,4.771,4.771,0,0,0-.741.461,6.184,6.184,0,0,0-.912.881l-.623.139a6.812,6.812,0,0,1,1.837-1.75,3.363,3.363,0,0,1,1.589-.633.506.506,0,0,1,.371.124.427.427,0,0,1,.123.316,4.778,4.778,0,0,1-.6,1.751q-.075.15-.354.773-.645,1.405-1.375,2.661c-.158.272-.33.593-.516.966q-.15.3-.269.5a1.908,1.908,0,0,0-.332.828.181.181,0,0,0,.059.133.2.2,0,0,0,.144.06.886.886,0,0,0,.36-.129,5.281,5.281,0,0,0,.962-.714,5.9,5.9,0,0,0,.986-1.143h.472a8.988,8.988,0,0,1-.959,1.331,5.213,5.213,0,0,1-1.442,1.2,2.264,2.264,0,0,1-1.078.344.792.792,0,0,1-.527-.146.478.478,0,0,1-.169-.381,8.7,8.7,0,0,1,1.213-3.112l1.728-3.263a7.1,7.1,0,0,0,.376-.795.922.922,0,0,0,.064-.246A.676.676,0,0,0,1026.673-265.722Zm.611-4.82a.933.933,0,0,1,.29-.67.914.914,0,0,1,.676-.295.855.855,0,0,1,.623.256.814.814,0,0,1,.257.591,1.144,1.144,0,0,1-.321.784.963.963,0,0,1-.709.2.788.788,0,0,1-.58-.237A.856.856,0,0,1,1027.284-270.542Z" fill="#00223d"/>
        <path id="Trazado_39278" data-name="Trazado 39278" d="M1036.053-265.615a1.423,1.423,0,0,0,.14-.29,1,1,0,0,1,.258-.419c.2-.021.348-.032.441-.032a.88.88,0,0,1,.355.075l.032.13a.558.558,0,0,1-.054.193c-.021.043-.068.179-.14.408l-.085.215-.709,1.92q-.452,1.3-.79,2.072a15.11,15.11,0,0,0-.585,1.572,5.818,5.818,0,0,1-.451,1.144l-.043.1c0,.042.038.1.113.165a3.81,3.81,0,0,0,.764-.579q.8-.806.955-1c.074-.093.144-.179.212-.258a2.235,2.235,0,0,1,.221.226,10.577,10.577,0,0,1-.967,1.137,5.328,5.328,0,0,1-1.224,1.02,1.693,1.693,0,0,1-.792.226.521.521,0,0,1-.355-.106.347.347,0,0,1-.118-.273,2.648,2.648,0,0,1,.107-.555q.268-.71.376-.935c.071-.15.168-.382.289-.7q.108-.289.44-1.009a6.151,6.151,0,0,0-.518.6,15.729,15.729,0,0,1-2.053,2.072,7.527,7.527,0,0,1-1.28.719,3.409,3.409,0,0,1-.883.183,1.55,1.55,0,0,1-.574-.086,1.053,1.053,0,0,1-.43-.441,1.529,1.529,0,0,1-.122-.7,4.461,4.461,0,0,1,.307-1.524,8.07,8.07,0,0,1,1.064-2.115,10.375,10.375,0,0,1,1.827-1.888,7.779,7.779,0,0,1,1.662-1.021,4.51,4.51,0,0,1,1.733-.429,2.433,2.433,0,0,1,.46.043A2.022,2.022,0,0,1,1036.053-265.615Zm-5.239,7.041a1.716,1.716,0,0,0,.465-.182c.081-.043.369-.241.863-.591q1.35-1.32,1.528-1.513a9.536,9.536,0,0,0,.874-1.148,11.124,11.124,0,0,0,.565-1.01l.279-.74a6.689,6.689,0,0,0,.15-.751.831.831,0,0,0-.249-.57.763.763,0,0,0-.542-.161,1.8,1.8,0,0,0-.741.14,5.5,5.5,0,0,0-1.271.815,9.021,9.021,0,0,0-1.492,1.735,10.771,10.771,0,0,0-1.017,1.765,4.3,4.3,0,0,0-.409,1.459.9.9,0,0,0,.166.591.531.531,0,0,0,.421.193C1030.463-258.542,1030.6-258.552,1030.814-258.574Z" fill="#00223d"/>
        <path id="Trazado_39279" data-name="Trazado 39279" d="M1040.572-265.283a.232.232,0,0,0-.059-.118.138.138,0,0,0-.091-.032q-.558,0-1.739,1.761c-.079.006-.136.01-.172.01s-.114,0-.214-.01a8.079,8.079,0,0,1,.734-1.138,6.114,6.114,0,0,1,1.083-1.144,5.065,5.065,0,0,1,1.089-.681.782.782,0,0,1,.311-.074,1.468,1.468,0,0,1,.161.01.565.565,0,0,1,.193.4,1.252,1.252,0,0,1-.027.258c-.018.086-.056.218-.113.4-.214.615-.372,1.048-.471,1.3l-.612,1.589q-.215.548-.418,1.159c.057-.071.107-.14.15-.2a31.381,31.381,0,0,1,2.154-2.8,9.01,9.01,0,0,1,1.906-1.787,1.947,1.947,0,0,1,1.021-.332.779.779,0,0,1,.569.2.683.683,0,0,1,.2.511,1.615,1.615,0,0,1-.043.376,8.087,8.087,0,0,1-.333,1.137q-.258.73-1.354,3.165l-1.074,2.48-.043.14a.447.447,0,0,0,.075.193q.6-.129,1.8-1.911l.441.011a11.578,11.578,0,0,1-1.095,1.545,4.808,4.808,0,0,1-1.267,1.117,1.539,1.539,0,0,1-.8.225.594.594,0,0,1-.386-.107.308.308,0,0,1-.129-.236,4.858,4.858,0,0,1,.547-1.76l1.557-3.4.6-1.426a4.873,4.873,0,0,0,.247-.656,1.618,1.618,0,0,0,.043-.364.312.312,0,0,0-.076-.221.253.253,0,0,0-.193-.08.785.785,0,0,0-.4.14,7.3,7.3,0,0,0-1.751,1.62,26.4,26.4,0,0,0-1.825,2.372,29.459,29.459,0,0,0-1.962,3.639,1.072,1.072,0,0,1-.312.44,2.558,2.558,0,0,1-.343.033,2.719,2.719,0,0,1-.429-.054.336.336,0,0,1-.043-.14,1.586,1.586,0,0,1,.107-.387q.235-.7,1.159-2.94l.247-.58Z" fill="#00223d"/>
        <path id="Trazado_39280" data-name="Trazado 39280" d="M1054.375-265.615a1.408,1.408,0,0,0,.139-.29.993.993,0,0,1,.259-.419c.2-.021.347-.032.44-.032a.877.877,0,0,1,.355.075l.032.13a.573.573,0,0,1-.053.193,4.231,4.231,0,0,0-.14.408l-.086.215-.709,1.92q-.452,1.3-.789,2.072a14.652,14.652,0,0,0-.585,1.572,5.807,5.807,0,0,1-.452,1.144l-.042.1c0,.042.037.1.113.165a3.874,3.874,0,0,0,.764-.579q.8-.806.955-1c.074-.093.144-.179.211-.258a2.248,2.248,0,0,1,.221.226,10.462,10.462,0,0,1-.967,1.137,5.288,5.288,0,0,1-1.224,1.02,1.694,1.694,0,0,1-.792.226.523.523,0,0,1-.355-.106.351.351,0,0,1-.118-.273,2.716,2.716,0,0,1,.107-.555q.268-.71.376-.935c.072-.15.168-.382.29-.7q.107-.289.44-1.009a6.021,6.021,0,0,0-.519.6,15.719,15.719,0,0,1-2.052,2.072,7.554,7.554,0,0,1-1.281.719,3.4,3.4,0,0,1-.883.183,1.554,1.554,0,0,1-.574-.086,1.058,1.058,0,0,1-.43-.441,1.529,1.529,0,0,1-.121-.7,4.458,4.458,0,0,1,.307-1.524,8.04,8.04,0,0,1,1.064-2.115,10.373,10.373,0,0,1,1.826-1.888,7.8,7.8,0,0,1,1.662-1.021,4.513,4.513,0,0,1,1.733-.429,2.445,2.445,0,0,1,.461.043A2.06,2.06,0,0,1,1054.375-265.615Zm-5.24,7.041a1.714,1.714,0,0,0,.465-.182c.081-.043.369-.241.864-.591q1.35-1.32,1.527-1.513a9.416,9.416,0,0,0,.875-1.148,11.027,11.027,0,0,0,.564-1.01l.279-.74a6.568,6.568,0,0,0,.151-.751.832.832,0,0,0-.25-.57.761.761,0,0,0-.541-.161,1.792,1.792,0,0,0-.741.14,5.5,5.5,0,0,0-1.271.815,9.022,9.022,0,0,0-1.492,1.735,10.769,10.769,0,0,0-1.017,1.765,4.274,4.274,0,0,0-.409,1.459.889.889,0,0,0,.166.591.53.53,0,0,0,.421.193C1048.785-258.542,1048.921-258.552,1049.135-258.574Z" fill="#00223d"/>
        <path id="Trazado_39281" data-name="Trazado 39281" d="M1062.854-267.633h11.5v.945h-11.5Zm0,4.969h11.5v.955h-11.5Z" fill="#00223d"/>
        <path id="Trazado_39282" data-name="Trazado 39282" d="M1080.092-257.812v-.086a.5.5,0,0,1,.106-.344,3.687,3.687,0,0,0,1.081-.235,1.018,1.018,0,0,0,.423-.242,3.482,3.482,0,0,0,.53-.843,18,18,0,0,0,.877-2.329l.949-2.769q.2-.676.274-.89l1.3-3.6q.264-.828.475-1.363a1.433,1.433,0,0,0,.118-.455.447.447,0,0,0-.258-.44,3.951,3.951,0,0,0-1.084-.211c-.644.022-.988.032-1.031.032h-.128l-.108-.44c.256-.015.409-.021.459-.021.2.014.344.021.415.021l.916-.032c.583,0,1.073.017,1.471.054q.234.021.661.032a.306.306,0,0,1,.074.118,5.058,5.058,0,0,1,.213.923l.317,1.761c.07.256.164.744.284,1.458q.348,2.03.475,3.082.326,1.535.421,2.3c.007.065.088.54.243,1.428a7.312,7.312,0,0,0,.147.751q.515-.741.891-1.368t1.3-2.324l2.328-3.972.481-.826q.885-1.643,1.989-3.37.725.031,1.4.032c.058,0,.13,0,.216,0s.188-.006.3-.006l1.255-.032c.05.007.119.015.205.022l-.032.343a5.346,5.346,0,0,1-.8.194,3.415,3.415,0,0,0-.983.3.709.709,0,0,0-.317.4q-.339,2.157-.9,5.249l-.994,5.581-.011.086c-.015.107-.033.318-.055.632a2.231,2.231,0,0,1-.032.291l-.022.107a.436.436,0,0,0,.032.14,1.742,1.742,0,0,0,.375.225,7.488,7.488,0,0,0,1.125.2c.265.036.461.069.59.1v.1a.565.565,0,0,1-.056.214c-.319.015-.548.022-.689.022q-.534,0-1.256-.07a13.03,13.03,0,0,0-1.356-.059q-.723,0-1.7.043c-.23.007-.378.011-.444.011-.1,0-.234-.007-.39-.022a.568.568,0,0,1-.044-.172.66.66,0,0,1,.075-.247c.187-.013.323-.021.409-.021a3.547,3.547,0,0,0,1.344-.235.644.644,0,0,0,.248-.266,6.3,6.3,0,0,0,.322-1.42l.5-2.533.569-2.919q.144-.816.254-1.611.168-.783.272-1.475t.175-1.036c.056-.323.093-.573.109-.751q-1.839,3.191-2.307,3.888-.109.172-1.437,2.471l-.467.913a5.2,5.2,0,0,0-.371.559q-1.86,3.255-2.655,4.78-.185.344-.326.58h-.4q0-.537-.042-1-.094-1.159-.2-1.89c-.015-.086-.109-.6-.285-1.537l-.622-3.47a8.05,8.05,0,0,1-.116-.8,4.961,4.961,0,0,0-.116-.7q-.137-.6-.358-1.881l-.264-1.4a2.311,2.311,0,0,0-.137.387l-1.117,3.252-.686,2.083q-.306.783-.743,2.34t-.806,2.564a1.464,1.464,0,0,0-.1.462.433.433,0,0,0,.139.327,2.36,2.36,0,0,0,.74.338c.171.03.31.054.417.076a5.961,5.961,0,0,1,.825.1.236.236,0,0,1,.129.108,1.136,1.136,0,0,1-.053.354l-.745-.032-.479-.022c-.043,0-.1,0-.181.011a17.432,17.432,0,0,0-1.948-.107Q1081.614-257.844,1080.092-257.812Z" fill="#00223d"/>
        <path id="Trazado_39283" data-name="Trazado 39283" d="M1101.333-261.709a5.732,5.732,0,0,0-.354,1.969,1.841,1.841,0,0,0,.343,1.167.726.726,0,0,0,.612.3.878.878,0,0,0,.419-.1,2.814,2.814,0,0,0,.681-.48,5.089,5.089,0,0,0,.6-.727,4.1,4.1,0,0,0,.5-1.005h.151a2.257,2.257,0,0,1,.289.022,5.054,5.054,0,0,1-1.588,2.353,2.442,2.442,0,0,1-1.642.717,1.183,1.183,0,0,1-.966-.515,2.971,2.971,0,0,1-.526-1.868,6.03,6.03,0,0,1,.155-1.234,6.9,6.9,0,0,1,.36-1.2,11.906,11.906,0,0,1,.719-1.417l.827-1.2q.8-.859.9-.945a3.028,3.028,0,0,1,.757-.488,1.951,1.951,0,0,1,.789-.167,1.212,1.212,0,0,1,.923.442,1.6,1.6,0,0,1,.4,1.108,2.464,2.464,0,0,1-.306,1.167,2.53,2.53,0,0,1-.66.844l-.891.581a7.07,7.07,0,0,1-.805.274Q1102.364-261.913,1101.333-261.709Zm.182-.546a3.173,3.173,0,0,0,1.074-.269,5.693,5.693,0,0,0,1.052-.591,2.842,2.842,0,0,0,.59-.585,3.166,3.166,0,0,0,.5-.858,2.52,2.52,0,0,0,.172-.917.748.748,0,0,0-.182-.516.544.544,0,0,0-.408-.2,1.156,1.156,0,0,0-.687.333,6.968,6.968,0,0,0-1.4,1.943A9.058,9.058,0,0,0,1101.515-262.255Z" fill="#00223d"/>
        <path id="Trazado_39284" data-name="Trazado 39284" d="M1112.989-267.633h11.5v.945h-11.5Zm0,4.969h11.5v.955h-11.5Z" fill="#00223d"/>
      </g>
    </g>
    <rect id="Rectángulo_3885" data-name="Rectángulo 3885" width="280.875" height="70.839" transform="translate(978.541 -298.774)" fill="none" stroke="#adcbf7" stroke-miterlimit="10" stroke-width="3"/>
  </g>
</svg>
