<svg id="Grupo_17346" data-name="Grupo 17346" xmlns="http://www.w3.org/2000/svg" width="84.113" height="77.326" viewBox="0 0 84.113 77.326">
  <g id="Grupo_17345" data-name="Grupo 17345" transform="translate(26.516 28.134)">
    <path id="Trazado_45673" data-name="Trazado 45673" d="M12.974,2246.233a5.57,5.57,0,0,1-3.961-1.64l-8.607-8.608a5.6,5.6,0,0,1,7.923-7.922l4.645,4.645,11.464-11.465a5.6,5.6,0,1,1,7.922,7.922l-15.425,15.427A5.567,5.567,0,0,1,12.974,2246.233Zm-8.606-16.81a2.6,2.6,0,0,0-1.841,4.441l8.606,8.607a2.668,2.668,0,0,0,3.681,0l15.425-15.426a2.6,2.6,0,1,0-3.679-3.68L14.034,2235.89a1.5,1.5,0,0,1-1.06.439h0a1.5,1.5,0,0,1-1.061-.439l-5.7-5.706A2.6,2.6,0,0,0,4.368,2229.423Z" transform="translate(1.231 -2219.606)" fill="#fff"/>
  </g>
  <path id="Trazado_45674" data-name="Trazado 45674" d="M14.31,2255.752a22.031,22.031,0,1,1,22.031-22.031A22.056,22.056,0,0,1,14.31,2255.752Zm0-41.062a19.031,19.031,0,1,0,19.031,19.031A19.052,19.052,0,0,0,14.31,2214.69Z" transform="translate(27.747 -2191.472)" fill="#fff"/>
  <path id="Trazado_45675" data-name="Trazado 45675" d="M14.31,2262.02a28.491,28.491,0,1,1,28.49-28.492A28.524,28.524,0,0,1,14.31,2262.02Zm0-53.982a25.491,25.491,0,1,0,25.49,25.49A25.519,25.519,0,0,0,14.31,2208.038Z" transform="translate(27.747 -2191.472)" fill="#fff"/>
  <rect id="Rectángulo_5568" data-name="Rectángulo 5568" width="3" height="8.278" transform="translate(40.557 6.788)" fill="#fff"/>
  <rect id="Rectángulo_5569" data-name="Rectángulo 5569" width="3" height="3.986" transform="translate(40.557)" fill="#fff"/>
  <rect id="Rectángulo_5570" data-name="Rectángulo 5570" width="3" height="8.278" transform="translate(40.557 69.048)" fill="#fff"/>
  <rect id="Rectángulo_5571" data-name="Rectángulo 5571" width="8.279" height="3" transform="translate(69.047 40.557)" fill="#fff"/>
  <rect id="Rectángulo_5572" data-name="Rectángulo 5572" width="3.986" height="3" transform="translate(80.127 40.557)" fill="#fff"/>
  <rect id="Rectángulo_5573" data-name="Rectángulo 5573" width="8.279" height="3" transform="translate(6.787 40.557)" fill="#fff"/>
  <rect id="Rectángulo_5574" data-name="Rectángulo 5574" width="3.986" height="3" transform="translate(0 40.557)" fill="#fff"/>
  <rect id="Rectángulo_5575" data-name="Rectángulo 5575" width="8.279" height="3" transform="translate(60.081 21.911) rotate(-45)" fill="#fff"/>
  <rect id="Rectángulo_5576" data-name="Rectángulo 5576" width="3.986" height="3" transform="translate(67.916 14.077) rotate(-45)" fill="#fff"/>
  <rect id="Rectángulo_5577" data-name="Rectángulo 5577" width="8.278" height="3" transform="translate(16.058 65.935) rotate(-45)" fill="#fff"/>
  <rect id="Rectángulo_5578" data-name="Rectángulo 5578" width="3.986" height="3" transform="translate(11.258 70.735) rotate(-45)" fill="#fff"/>
  <rect id="Rectángulo_5579" data-name="Rectángulo 5579" width="3" height="8.279" transform="translate(60.081 62.203) rotate(-45.005)" fill="#fff"/>
  <rect id="Rectángulo_5580" data-name="Rectángulo 5580" width="3" height="3.986" transform="translate(67.916 70.037) rotate(-44.99)" fill="#fff"/>
  <rect id="Rectángulo_5581" data-name="Rectángulo 5581" width="3" height="8.278" transform="translate(16.058 18.179) rotate(-45)" fill="#fff"/>
  <rect id="Rectángulo_5582" data-name="Rectángulo 5582" width="8.278" height="3" transform="translate(51.338 16.667) rotate(-66.723)" fill="#fff"/>
  <rect id="Rectángulo_5583" data-name="Rectángulo 5583" width="8.278" height="3" transform="translate(26.748 73.866) rotate(-66.723)" fill="#fff"/>
  <rect id="Rectángulo_5584" data-name="Rectángulo 5584" width="3" height="8.278" transform="translate(66.261 54.095) rotate(-66.738)" fill="#fff"/>
  <rect id="Rectángulo_5585" data-name="Rectángulo 5585" width="3" height="8.278" transform="matrix(0.395, -0.919, 0.919, 0.395, 9.063, 29.506)" fill="#fff"/>
  <rect id="Rectángulo_5586" data-name="Rectángulo 5586" width="8.279" height="3.001" transform="translate(66.572 30.668) rotate(-21.739)" fill="#fff"/>
  <rect id="Rectángulo_5587" data-name="Rectángulo 5587" width="8.278" height="3.001" transform="translate(8.74 53.725) rotate(-21.739)" fill="#fff"/>
  <rect id="Rectángulo_5588" data-name="Rectángulo 5588" width="3.001" height="8.279" transform="translate(50.659 67.684) rotate(-21.739)" fill="#fff"/>
  <rect id="Rectángulo_5589" data-name="Rectángulo 5589" width="3.001" height="8.278" transform="translate(27.601 9.851) rotate(-21.735)" fill="#fff"/>
  <rect id="Rectángulo_5590" data-name="Rectángulo 5590" width="3" height="3.986" transform="translate(11.258 13.379) rotate(-44.99)" fill="#fff"/>
</svg>
