<svg id="Grupo_17341" data-name="Grupo 17341" xmlns="http://www.w3.org/2000/svg" width="69.531" height="79.291" viewBox="0 0 69.531 79.291">
  <g id="Grupo_17340" data-name="Grupo 17340" transform="translate(36.519 22.469)">
    <path id="Trazado_45658" data-name="Trazado 45658" d="M39.5,2770.406a5.29,5.29,0,0,1-3.761-1.557l-8.014-8.015a5.32,5.32,0,1,1,7.524-7.523l4.251,4.252,10.6-10.6a5.32,5.32,0,1,1,7.523,7.524l-14.365,14.364A5.285,5.285,0,0,1,39.5,2770.406Zm-8.014-15.653a2.319,2.319,0,0,0-1.64,3.96l8.013,8.014a2.4,2.4,0,0,0,3.282,0l14.365-14.365a2.32,2.32,0,1,0-3.281-3.281L40.56,2760.744a1.5,1.5,0,0,1-1.061.44h0a1.5,1.5,0,0,1-1.061-.44l-5.311-5.312A2.316,2.316,0,0,0,31.485,2754.753Z" transform="translate(-26.168 -2745.405)" fill="#fff"/>
  </g>
  <path id="Trazado_45659" data-name="Trazado 45659" d="M34.746,2802.226h-38.3a6.8,6.8,0,0,1-6.794-6.794v-65.7a6.8,6.8,0,0,1,6.794-6.793h38.3a6.8,6.8,0,0,1,6.794,6.793v16.8h-3v-16.8a3.8,3.8,0,0,0-3.794-3.793h-38.3a3.8,3.8,0,0,0-3.794,3.793v65.7a3.8,3.8,0,0,0,3.794,3.794h38.3a3.8,3.8,0,0,0,3.794-3.794v-22.608h3v22.608A6.8,6.8,0,0,1,34.746,2802.226Z" transform="translate(10.35 -2722.935)" fill="#fff"/>
  <path id="Trazado_45660" data-name="Trazado 45660" d="M24.969,2733.965H6.222a6.924,6.924,0,0,1-6.916-6.917v-2.613a1.5,1.5,0,0,1,1.5-1.5H30.385a1.5,1.5,0,0,1,1.5,1.5v2.613A6.925,6.925,0,0,1,24.969,2733.965Zm-22.663-8.03v1.113a3.921,3.921,0,0,0,3.916,3.917H24.969a3.921,3.921,0,0,0,3.916-3.917v-1.113Z" transform="translate(10.35 -2722.935)" fill="#fff"/>
  <rect id="Rectángulo_5546" data-name="Rectángulo 5546" width="48.89" height="3" transform="translate(1.5 63.793)" fill="#fff"/>
  <rect id="Rectángulo_5547" data-name="Rectángulo 5547" width="13.87" height="3" transform="translate(19.01 70.092)" fill="#fff"/>
  <path id="Trazado_45661" data-name="Trazado 45661" d="M48.833,2774.324h-26.3a1.5,1.5,0,0,1-1.5-1.5v-26.3a1.5,1.5,0,0,1,1.5-1.5h26.3a1.5,1.5,0,0,1,1.5,1.5v3.255h-3v-1.755h-23.3v23.3h23.3v-9.938h3v11.438A1.5,1.5,0,0,1,48.833,2774.324Z" transform="translate(10.35 -2722.935)" fill="#fff"/>
  <path id="Trazado_45662" data-name="Trazado 45662" d="M16.188,2751.905H-1.432a1.5,1.5,0,0,1-1.5-1.5v-6.8a1.5,1.5,0,0,1,1.5-1.5h17.62a1.5,1.5,0,0,1,1.5,1.5v6.8A1.5,1.5,0,0,1,16.188,2751.905Zm-16.12-3h14.62v-3.8H.068Z" transform="translate(10.35 -2722.935)" fill="#fff"/>
  <rect id="Rectángulo_5548" data-name="Rectángulo 5548" width="4.277" height="3" transform="translate(22.887 34.445)" fill="#fff"/>
  <rect id="Rectángulo_5549" data-name="Rectángulo 5549" width="11.173" height="3" transform="translate(8.292 34.445)" fill="#fff"/>
  <rect id="Rectángulo_5550" data-name="Rectángulo 5550" width="5.172" height="3" transform="translate(21.993 42.92)" fill="#fff"/>
  <rect id="Rectángulo_5551" data-name="Rectángulo 5551" width="4.472" height="3" transform="translate(15.122 42.92)" fill="#fff"/>
  <rect id="Rectángulo_5552" data-name="Rectángulo 5552" width="18.872" height="3" transform="translate(8.292 52.122)" fill="#fff"/>
</svg>
