<svg xmlns="http://www.w3.org/2000/svg" width="581.166" height="117.581" viewBox="0 0 581.166 117.581">
  <g id="Grupo_12026" data-name="Grupo 12026" transform="translate(-812.396 -4.307)">
    <rect id="Rectángulo_3886" data-name="Rectángulo 3886" width="578.166" height="114.581" transform="translate(813.896 5.806)" fill="none" stroke="#adcbf7" stroke-miterlimit="10" stroke-width="3"/>
    <g id="Grupo_12025" data-name="Grupo 12025">
      <g id="Grupo_11984" data-name="Grupo 11984">
        <g id="Grupo_11983" data-name="Grupo 11983">
          <path id="Trazado_39285" data-name="Trazado 39285" d="M902.082,51.359v-.4c.079-.035.188-.076.328-.123a4.7,4.7,0,0,0,.445-.177c.215-.093.444-.2.687-.332a11.8,11.8,0,0,0,1.535-.945l1.9-1.561q.481-.377,1.906-1.605l1.185-1.036a2.686,2.686,0,0,1,.254-.2l.594-.525c-.215-.3-.377-.54-.488-.715a2.446,2.446,0,0,0-.136-.228q-.559-1.026-.983-1.737l-1.109-1.822a10.772,10.772,0,0,0-.962-1.576,1.828,1.828,0,0,0-.692-.6,4.607,4.607,0,0,0-1.464-.3,3.452,3.452,0,0,1-.461-.065l-.022-.386h.548l1.782.053a2.73,2.73,0,0,0,.332-.032q1.074.054,1.6.054l1.2-.022c.164,0,.32.006.467.017s.266.016.359.016h.2c.007.107.011.186.011.236v.15a5.516,5.516,0,0,0-2,.268c-.143.071-.214.161-.214.269l.01.1a4.733,4.733,0,0,0,.257.548q.063.107,1.8,3.221.678,1.2.99,1.648.129-.1,2.179-1.917,1.75-1.557,2.383-2.26a5.576,5.576,0,0,0,.725-.9.8.8,0,0,0,.091-.306.351.351,0,0,0-.161-.311,4.5,4.5,0,0,0-1.514-.418v-.075a.989.989,0,0,1,.053-.269l.129-.011h.515l1.084-.01.3.032q.075,0,1.911.075h.461c.05,0,.165,0,.343.011l-.01.419a4.536,4.536,0,0,0-2.264,1.148c-.143.108-.312.229-.505.365q-.138.108-.993.812l-1.242,1.172a6.5,6.5,0,0,0-.524.43q-.546.518-2.718,2.433.762,1.393,1.877,3.248.9,1.512,1.281,2.06l.548.772a5.541,5.541,0,0,0,.687.5c.157.071.314.14.472.2a5.41,5.41,0,0,1,.719.344l.011.118a1.367,1.367,0,0,1-.022.2,9.383,9.383,0,0,1-1.2-.118,11.992,11.992,0,0,0-1.733-.118q-.493,0-2.737.086c-.007-.107-.011-.186-.011-.236s0-.14.011-.247c.208-.029.4-.046.581-.054a1.985,1.985,0,0,0,1.076-.289.441.441,0,0,0,.236-.376,1.894,1.894,0,0,0-.29-.816q-1.019-1.881-2.166-3.642-.333-.542-.438-.736a34.67,34.67,0,0,0-2.678,2.266A18.78,18.78,0,0,0,905.9,49.72a.949.949,0,0,0-.182.5.375.375,0,0,0,.182.281,2.39,2.39,0,0,0,1.057.377c.149.03.287.058.415.086-.022.108-.05.222-.086.344-.093.007-.161.011-.2.011l-.2.011-.182-.011-1.211-.081q-.673-.059-.857-.059l-1.81.108A5.332,5.332,0,0,1,902.082,51.359Z" fill="#00223d"/>
        </g>
      </g>
      <g id="Grupo_11986" data-name="Grupo 11986">
        <g id="Grupo_11985" data-name="Grupo 11985">
          <path id="Trazado_39286" data-name="Trazado 39286" d="M958.82,43.953h5.28v-5.3h.945v5.3h5.313V44.9h-5.313v5.249H964.1V44.9h-5.28Z" fill="#00223d"/>
          <path id="Trazado_39287" data-name="Trazado 39287" d="M976.422,51.359v-.4q.118-.052.327-.123a4.626,4.626,0,0,0,.446-.177c.215-.093.443-.2.687-.332a11.866,11.866,0,0,0,1.535-.945l1.905-1.561q.481-.377,1.906-1.605l1.185-1.036a2.681,2.681,0,0,1,.254-.2l.594-.525c-.215-.3-.377-.54-.488-.715a2.459,2.459,0,0,0-.136-.228q-.561-1.026-.983-1.737l-1.109-1.822a10.766,10.766,0,0,0-.962-1.576,1.835,1.835,0,0,0-.692-.6,4.607,4.607,0,0,0-1.464-.3,3.425,3.425,0,0,1-.461-.065l-.022-.386h.548l1.781.053a2.725,2.725,0,0,0,.333-.032q1.074.054,1.6.054l1.2-.022c.164,0,.32.006.466.017s.267.016.36.016h.2c.007.107.011.186.011.236v.15a5.515,5.515,0,0,0-2,.268c-.143.071-.214.161-.214.269l.01.1a4.851,4.851,0,0,0,.256.548q.064.107,1.8,3.221.678,1.2.99,1.648.129-.1,2.179-1.917,1.75-1.557,2.383-2.26a5.574,5.574,0,0,0,.725-.9.8.8,0,0,0,.091-.306.351.351,0,0,0-.161-.311A4.5,4.5,0,0,0,990,37.438v-.075a.991.991,0,0,1,.053-.269l.129-.011h.515l1.084-.01.3.032q.075,0,1.91.075h.462c.05,0,.164,0,.343.011l-.01.419a4.539,4.539,0,0,0-2.265,1.148c-.143.108-.311.229-.5.365-.092.072-.424.342-.993.812l-1.242,1.172a6.328,6.328,0,0,0-.524.43q-.546.518-2.718,2.433.762,1.393,1.877,3.248.9,1.512,1.281,2.06l.548.772a5.531,5.531,0,0,0,.687.5c.157.071.314.14.472.2a5.417,5.417,0,0,1,.719.344l.01.118a1.349,1.349,0,0,1-.021.2,9.351,9.351,0,0,1-1.2-.118,11.99,11.99,0,0,0-1.733-.118q-.494,0-2.737.086c-.007-.107-.011-.186-.011-.236s0-.14.011-.247c.208-.029.4-.046.581-.054a1.988,1.988,0,0,0,1.076-.289.441.441,0,0,0,.236-.376,1.894,1.894,0,0,0-.29-.816q-1.019-1.881-2.166-3.642-.333-.542-.438-.736a34.473,34.473,0,0,0-2.678,2.266,18.713,18.713,0,0,0-2.526,2.577.948.948,0,0,0-.182.5.375.375,0,0,0,.182.281,2.39,2.39,0,0,0,1.057.377c.149.03.287.058.415.086-.022.108-.05.222-.086.344-.093.007-.161.011-.2.011l-.2.011-.182-.011-1.211-.081c-.45-.039-.735-.059-.857-.059l-1.81.108A5.347,5.347,0,0,1,976.422,51.359Z" fill="#00223d"/>
        </g>
      </g>
      <g id="Grupo_11988" data-name="Grupo 11988">
        <g id="Grupo_11987" data-name="Grupo 11987">
          <path id="Trazado_39288" data-name="Trazado 39288" d="M973.583,90.3l-.355,1.352h-7.663l.06-.29q4.372-4.133,5.854-5.677a13.644,13.644,0,0,0,2.383-3.1,3.817,3.817,0,0,0,.365-1.707,2.26,2.26,0,0,0-.51-1.6,1.87,1.87,0,0,0-1.433-.542,2.832,2.832,0,0,0-1.76.552,5.386,5.386,0,0,0-1.417,2.024h-.58a5.625,5.625,0,0,1,1.685-2.678,3.721,3.721,0,0,1,2.394-.875,3.321,3.321,0,0,1,2.4.837,2.887,2.887,0,0,1,.87,2.179,3.713,3.713,0,0,1-.236,1.363,5.591,5.591,0,0,1-1.052,1.637q-.751.854-3.285,3.1L967.465,90.3Z" fill="#00223d"/>
        </g>
      </g>
      <g id="Grupo_11990" data-name="Grupo 11990">
        <g id="Grupo_11989" data-name="Grupo 11989">
          <path id="Trazado_39289" data-name="Trazado 39289" d="M1126.873,90.3l-.354,1.352h-7.664l.06-.29q4.372-4.133,5.854-5.677a13.614,13.614,0,0,0,2.383-3.1,3.817,3.817,0,0,0,.365-1.707,2.259,2.259,0,0,0-.51-1.6,1.87,1.87,0,0,0-1.433-.542,2.834,2.834,0,0,0-1.76.552A5.386,5.386,0,0,0,1122.4,81.3h-.579a5.61,5.61,0,0,1,1.685-2.678,3.718,3.718,0,0,1,2.393-.875,3.326,3.326,0,0,1,2.405.837,2.89,2.89,0,0,1,.869,2.179,3.714,3.714,0,0,1-.236,1.363,5.567,5.567,0,0,1-1.052,1.637q-.751.854-3.284,3.1l-3.843,3.435Z" fill="#00223d"/>
        </g>
      </g>
      <g id="Grupo_11992" data-name="Grupo 11992">
        <g id="Grupo_11991" data-name="Grupo 11991">
          <path id="Trazado_39290" data-name="Trazado 39290" d="M1244.744,90.3l-.354,1.352h-7.664l.061-.29q4.371-4.133,5.853-5.677a13.582,13.582,0,0,0,2.383-3.1,3.817,3.817,0,0,0,.365-1.707,2.26,2.26,0,0,0-.51-1.6,1.869,1.869,0,0,0-1.433-.542,2.832,2.832,0,0,0-1.76.552,5.385,5.385,0,0,0-1.417,2.024h-.58a5.618,5.618,0,0,1,1.686-2.678,3.716,3.716,0,0,1,2.393-.875,3.321,3.321,0,0,1,2.4.837,2.887,2.887,0,0,1,.87,2.179,3.714,3.714,0,0,1-.236,1.363,5.572,5.572,0,0,1-1.052,1.637q-.752.854-3.285,3.1l-3.842,3.435Z" fill="#00223d"/>
        </g>
      </g>
      <g id="Grupo_11994" data-name="Grupo 11994">
        <g id="Grupo_11993" data-name="Grupo 11993">
          <path id="Trazado_39291" data-name="Trazado 39291" d="M929.3,45.122l.236.268a18.286,18.286,0,0,0-3.005,3.3,19.347,19.347,0,0,0-3.371,10.873,17.714,17.714,0,0,0,.87,5.313l-.312.193a15.557,15.557,0,0,1-1.513-6.73,15.838,15.838,0,0,1,1.777-7.271A16.019,16.019,0,0,1,929.3,45.122Z" fill="#00223d"/>
        </g>
      </g>
      <g id="Grupo_11996" data-name="Grupo 11996">
        <g id="Grupo_11995" data-name="Grupo 11995">
          <path id="Trazado_39292" data-name="Trazado 39292" d="M940.756,65.021l-.3-.236a17.27,17.27,0,0,0,1.974-1.926,10.891,10.891,0,0,0,1-1.283c.036-.065.19-.293.462-.687a19.363,19.363,0,0,0,1.213-2.265,17.332,17.332,0,0,0,1.234-3.445,19.771,19.771,0,0,0,.537-4.68,14.529,14.529,0,0,0-.167-2.259q-.165-1.058-.67-2.968l.3-.172a16.138,16.138,0,0,1,1.492,6.7,15.819,15.819,0,0,1-.73,4.786,15.434,15.434,0,0,1-2.6,4.944A15.8,15.8,0,0,1,940.756,65.021Z" fill="#00223d"/>
        </g>
      </g>
      <g id="Grupo_11998" data-name="Grupo 11998">
        <g id="Grupo_11997" data-name="Grupo 11997">
          <path id="Trazado_39293" data-name="Trazado 39293" d="M934.506,64.128l-.167.64h-3.623l.028-.137q2.067-1.954,2.768-2.685a6.422,6.422,0,0,0,1.126-1.467,1.8,1.8,0,0,0,.173-.806,1.074,1.074,0,0,0-.241-.759.886.886,0,0,0-.678-.256,1.335,1.335,0,0,0-.832.262,2.544,2.544,0,0,0-.67.956h-.274a2.66,2.66,0,0,1,.8-1.266,1.76,1.76,0,0,1,1.132-.414,1.57,1.57,0,0,1,1.136.4,1.366,1.366,0,0,1,.411,1.03,1.767,1.767,0,0,1-.111.645,2.645,2.645,0,0,1-.5.774q-.355.4-1.552,1.464l-1.817,1.623Z" fill="#00223d"/>
        </g>
      </g>
      <g id="Grupo_12000" data-name="Grupo 12000">
        <g id="Grupo_11999" data-name="Grupo 11999">
          <path id="Trazado_39294" data-name="Trazado 39294" d="M932.054,48.9l1.62-5.562a8.187,8.187,0,0,1-1.675.95l-.02-.285a6.714,6.714,0,0,0,2.359-1.669h.335L932.751,48.9Z" fill="#00223d"/>
          <path id="Trazado_39295" data-name="Trazado 39295" d="M939.313,48.257l-.167.64h-3.623l.028-.137q2.067-1.953,2.768-2.684a6.443,6.443,0,0,0,1.126-1.467,1.8,1.8,0,0,0,.173-.807,1.074,1.074,0,0,0-.241-.759.889.889,0,0,0-.678-.255,1.332,1.332,0,0,0-.832.261,2.544,2.544,0,0,0-.67.956h-.274a2.652,2.652,0,0,1,.8-1.265,1.752,1.752,0,0,1,1.131-.414,1.574,1.574,0,0,1,1.137.4,1.368,1.368,0,0,1,.411,1.03,1.738,1.738,0,0,1-.112.645,2.605,2.605,0,0,1-.5.774,21.329,21.329,0,0,1-1.553,1.464l-1.816,1.623Z" fill="#00223d"/>
        </g>
      </g>
      <line id="Línea_193" data-name="Línea 193" x2="17.437" transform="translate(926.753 53.087)" fill="none" stroke="#00223d" stroke-miterlimit="10" stroke-width="1"/>
      <g id="Grupo_12002" data-name="Grupo 12002">
        <g id="Grupo_12001" data-name="Grupo 12001">
          <path id="Trazado_39296" data-name="Trazado 39296" d="M1004.8,45.122l.236.268a18.283,18.283,0,0,0-3.005,3.3,19.337,19.337,0,0,0-3.37,10.873,17.713,17.713,0,0,0,.869,5.313l-.311.193a15.543,15.543,0,0,1-1.514-6.73,15.838,15.838,0,0,1,1.777-7.271A16.028,16.028,0,0,1,1004.8,45.122Z" fill="#00223d"/>
        </g>
      </g>
      <g id="Grupo_12004" data-name="Grupo 12004">
        <g id="Grupo_12003" data-name="Grupo 12003">
          <path id="Trazado_39297" data-name="Trazado 39297" d="M1033.676,65.6l-.3-.237a17.2,17.2,0,0,0,1.975-1.926,10.92,10.92,0,0,0,1-1.283q.054-.1.462-.686a19.553,19.553,0,0,0,1.212-2.265,17.424,17.424,0,0,0,1.235-3.445,19.835,19.835,0,0,0,.536-4.68,14.545,14.545,0,0,0-.166-2.26q-.167-1.057-.671-2.967l.3-.172a16.152,16.152,0,0,1,1.492,6.7,15.861,15.861,0,0,1-.73,4.786,15.431,15.431,0,0,1-2.6,4.943A15.744,15.744,0,0,1,1033.676,65.6Z" fill="#00223d"/>
        </g>
      </g>
      <g id="Grupo_12006" data-name="Grupo 12006">
        <g id="Grupo_12005" data-name="Grupo 12005">
          <path id="Trazado_39298" data-name="Trazado 39298" d="M1010.008,64.128l-.168.64h-3.623l.029-.137q2.067-1.954,2.767-2.685a6.432,6.432,0,0,0,1.127-1.467,1.81,1.81,0,0,0,.172-.806,1.069,1.069,0,0,0-.241-.759.883.883,0,0,0-.677-.256,1.336,1.336,0,0,0-.833.262,2.532,2.532,0,0,0-.669.956h-.274a2.653,2.653,0,0,1,.8-1.266,1.76,1.76,0,0,1,1.132-.414,1.572,1.572,0,0,1,1.137.4,1.365,1.365,0,0,1,.41,1.03,1.765,1.765,0,0,1-.111.645,2.658,2.658,0,0,1-.5.774q-.355.4-1.553,1.464l-1.817,1.623Z" fill="#00223d"/>
        </g>
      </g>
      <g id="Grupo_12008" data-name="Grupo 12008">
        <g id="Grupo_12007" data-name="Grupo 12007">
          <path id="Trazado_39299" data-name="Trazado 39299" d="M1023.791,53.2h2.5V50.691h.447V53.2h2.512v.447h-2.512v2.481h-.447V53.645h-2.5Z" fill="#00223d"/>
          <path id="Trazado_39300" data-name="Trazado 39300" d="M1031.192,56.639l1.619-5.562a8.087,8.087,0,0,1-1.675.949l-.02-.284a6.718,6.718,0,0,0,2.36-1.67h.335l-1.922,6.567Z" fill="#00223d"/>
        </g>
      </g>
      <g id="Grupo_12010" data-name="Grupo 12010">
        <g id="Grupo_12009" data-name="Grupo 12009">
          <path id="Trazado_39301" data-name="Trazado 39301" d="M1007.556,48.9l1.619-5.562a8.134,8.134,0,0,1-1.675.95l-.02-.285a6.719,6.719,0,0,0,2.36-1.669h.335l-1.922,6.566Z" fill="#00223d"/>
          <path id="Trazado_39302" data-name="Trazado 39302" d="M1014.814,48.257l-.167.64h-3.623l.028-.137q2.067-1.953,2.768-2.684a6.453,6.453,0,0,0,1.127-1.467,1.818,1.818,0,0,0,.172-.807,1.069,1.069,0,0,0-.241-.759.889.889,0,0,0-.678-.255,1.334,1.334,0,0,0-.832.261,2.544,2.544,0,0,0-.67.956h-.273a2.644,2.644,0,0,1,.8-1.265,1.755,1.755,0,0,1,1.132-.414,1.573,1.573,0,0,1,1.136.4,1.369,1.369,0,0,1,.411,1.03,1.759,1.759,0,0,1-.111.645,2.631,2.631,0,0,1-.5.774,21.257,21.257,0,0,1-1.552,1.464l-1.817,1.623Z" fill="#00223d"/>
        </g>
      </g>
      <line id="Línea_194" data-name="Línea 194" x2="17.437" transform="translate(1002.255 53.087)" fill="none" stroke="#00223d" stroke-miterlimit="10" stroke-width="1"/>
      <g id="Grupo_12012" data-name="Grupo 12012">
        <g id="Grupo_12011" data-name="Grupo 12011">
          <path id="Trazado_39303" data-name="Trazado 39303" d="M852.1,78.253v-.086a.5.5,0,0,1,.106-.344,3.679,3.679,0,0,0,1.081-.235,1.026,1.026,0,0,0,.424-.242,3.484,3.484,0,0,0,.529-.843,17.988,17.988,0,0,0,.877-2.329l.949-2.769c.133-.451.225-.748.274-.89l1.3-3.6q.262-.828.474-1.363a1.413,1.413,0,0,0,.118-.455.447.447,0,0,0-.258-.44,3.943,3.943,0,0,0-1.084-.211c-.644.022-.987.032-1.03.032h-.129l-.107-.44c.255-.015.408-.022.458-.022.206.015.344.022.415.022l.917-.032q.873,0,1.47.053c.156.015.377.026.661.033a.3.3,0,0,1,.074.118,5.047,5.047,0,0,1,.213.923l.317,1.76c.07.257.165.745.284,1.459q.348,2.029.475,3.081.325,1.536.421,2.3c.007.065.088.54.243,1.428a7.332,7.332,0,0,0,.147.751q.515-.741.891-1.368t1.295-2.324l2.328-3.972.481-.826q.885-1.642,1.989-3.37.725.031,1.4.032c.058,0,.13,0,.216,0s.188-.006.3-.006l1.255-.032c.05.007.119.015.206.021l-.033.344a5.354,5.354,0,0,1-.8.194,3.414,3.414,0,0,0-.984.3.713.713,0,0,0-.317.4q-.339,2.157-.9,5.249l-.995,5.581-.011.086c-.014.107-.033.318-.054.632a2.387,2.387,0,0,1-.033.29l-.022.108a.417.417,0,0,0,.033.14,1.717,1.717,0,0,0,.375.225,7.436,7.436,0,0,0,1.124.2c.265.036.461.069.59.1v.1a.57.57,0,0,1-.056.214q-.477.022-.689.022-.534,0-1.256-.07a13.033,13.033,0,0,0-1.356-.059q-.723,0-1.7.043c-.229.007-.378.011-.444.011-.1,0-.234-.007-.389-.022a.554.554,0,0,1-.045-.172.649.649,0,0,1,.076-.247c.186-.013.322-.021.408-.021a3.558,3.558,0,0,0,1.344-.235.639.639,0,0,0,.248-.266,6.258,6.258,0,0,0,.322-1.42l.5-2.533.569-2.919q.144-.816.254-1.611.168-.783.272-1.475t.175-1.036c.056-.323.093-.573.109-.751q-1.839,3.19-2.307,3.888-.109.172-1.436,2.471l-.468.913a5.018,5.018,0,0,0-.37.559q-1.862,3.255-2.655,4.78-.186.343-.327.58h-.4q0-.537-.042-1-.094-1.16-.2-1.891-.021-.128-.285-1.536l-.622-3.47a8.03,8.03,0,0,1-.116-.8,4.962,4.962,0,0,0-.116-.7q-.137-.6-.358-1.881l-.264-1.4a2.3,2.3,0,0,0-.137.387l-1.117,3.252-.685,2.083q-.306.783-.744,2.34t-.806,2.564a1.466,1.466,0,0,0-.1.462.434.434,0,0,0,.14.327,2.352,2.352,0,0,0,.739.338c.171.03.31.054.418.075a6.033,6.033,0,0,1,.824.1.236.236,0,0,1,.129.108,1.139,1.139,0,0,1-.053.354l-.745-.032-.479-.022c-.043,0-.1,0-.181.011a17.418,17.418,0,0,0-1.947-.107Q853.617,78.221,852.1,78.253Z" fill="#00223d"/>
          <path id="Trazado_39304" data-name="Trazado 39304" d="M873.337,74.356a5.731,5.731,0,0,0-.354,1.969,1.841,1.841,0,0,0,.343,1.167.729.729,0,0,0,.612.3.875.875,0,0,0,.419-.1,2.793,2.793,0,0,0,.681-.48,5.079,5.079,0,0,0,.6-.727,4.132,4.132,0,0,0,.505-1h.15a2.287,2.287,0,0,1,.29.022,5.064,5.064,0,0,1-1.589,2.353,2.442,2.442,0,0,1-1.642.717,1.186,1.186,0,0,1-.966-.515,2.972,2.972,0,0,1-.526-1.868,5.956,5.956,0,0,1,.156-1.234,6.791,6.791,0,0,1,.359-1.2,12.043,12.043,0,0,1,.719-1.417l.827-1.2q.8-.859.9-.945a3.047,3.047,0,0,1,.757-.488,1.951,1.951,0,0,1,.789-.167,1.214,1.214,0,0,1,.923.441,1.594,1.594,0,0,1,.4,1.109,2.464,2.464,0,0,1-.306,1.167,2.53,2.53,0,0,1-.66.844l-.891.581a7.3,7.3,0,0,1-.805.274Q874.368,74.152,873.337,74.356Zm.183-.546a3.169,3.169,0,0,0,1.073-.269,5.661,5.661,0,0,0,1.052-.591,2.845,2.845,0,0,0,.59-.585,3.2,3.2,0,0,0,.505-.858,2.539,2.539,0,0,0,.171-.917.748.748,0,0,0-.182-.516.541.541,0,0,0-.408-.2,1.158,1.158,0,0,0-.687.333,6.976,6.976,0,0,0-1.395,1.942A9,9,0,0,0,873.52,73.81Z" fill="#00223d"/>
          <path id="Trazado_39305" data-name="Trazado 39305" d="M884.993,68.432h11.5v.945h-11.5Zm0,4.969h11.5v.955h-11.5Z" fill="#00223d"/>
        </g>
      </g>
      <g id="Grupo_12014" data-name="Grupo 12014">
        <g id="Grupo_12013" data-name="Grupo 12013">
          <path id="Trazado_39306" data-name="Trazado 39306" d="M1318.761,78.221l3.425-11.764a17.214,17.214,0,0,1-3.542,2.007l-.043-.6a14.216,14.216,0,0,0,4.991-3.531h.709l-4.066,13.889Z" fill="#00223d"/>
          <path id="Trazado_39307" data-name="Trazado 39307" d="M1325.335,81.4q1.074-.707,1.267-.879a3.985,3.985,0,0,0,.885-1,1.847,1.847,0,0,0,.306-.913,1.021,1.021,0,0,0-.333-.612,1.612,1.612,0,0,1-.482-.987,1.754,1.754,0,0,1,.4-1.084.764.764,0,0,1,.612-.322.909.909,0,0,1,.709.408,2,2,0,0,1,.429,1.288,4.2,4.2,0,0,1-.955,2.345,6.54,6.54,0,0,1-2.7,2.109Z" fill="#00223d"/>
          <path id="Trazado_39308" data-name="Trazado 39308" d="M1335.65,71.233a5.267,5.267,0,0,1-1.524-3.37,3.139,3.139,0,0,1,.585-1.7,3.913,3.913,0,0,1,1.475-1.363,4.347,4.347,0,0,1,2.051-.467,2.917,2.917,0,0,1,2.039.649,2.114,2.114,0,0,1,.708,1.626,2.31,2.31,0,0,1-.279,1.117,4.524,4.524,0,0,1-1.095,1.352,26.925,26.925,0,0,1-2.382,1.685,9.176,9.176,0,0,1,1.427,2.055,4.217,4.217,0,0,1,.408,1.777,3.737,3.737,0,0,1-1.17,2.8,4.127,4.127,0,0,1-2.995,1.132,3.517,3.517,0,0,1-2.436-.816,2.429,2.429,0,0,1-.912-1.846,2.776,2.776,0,0,1,.4-1.384,6.876,6.876,0,0,1,1.513-1.76A19.116,19.116,0,0,1,1335.65,71.233Zm.343.366a9.6,9.6,0,0,0-1.588,1.3,5.517,5.517,0,0,0-1.041,1.626,4.471,4.471,0,0,0-.365,1.712,1.727,1.727,0,0,0,.542,1.31,2.009,2.009,0,0,0,1.443.515,2.584,2.584,0,0,0,1.927-.827,2.858,2.858,0,0,0,.8-2.071,3.773,3.773,0,0,0-.371-1.573A9.673,9.673,0,0,0,1335.993,71.6Zm.891-1.213a9.509,9.509,0,0,0,2.233-2.126,3.341,3.341,0,0,0,.579-1.846,1.63,1.63,0,0,0-.456-1.213,1.67,1.67,0,0,0-1.229-.451,2.3,2.3,0,0,0-1.213.354,2.422,2.422,0,0,0-.912,1.041,2.984,2.984,0,0,0-.054,2.63A7.733,7.733,0,0,0,1336.884,70.386Z" fill="#00223d"/>
          <path id="Trazado_39309" data-name="Trazado 39309" d="M1344.376,71.094l2.222-6.547.987-.022q.462,0,1.342.038c.35.018.576.027.676.027a8.959,8.959,0,0,0,1.417-.065.505.505,0,0,0,.268-.21.376.376,0,0,1,.322-.166h.2l-.408,1.371a1.218,1.218,0,0,1-.193.432,6.858,6.858,0,0,1-1.1.086q-.58,0-2.073-.054-.774-.032-1.321-.032l-1.122,3.307a3.711,3.711,0,0,1,1.03-.183,2.817,2.817,0,0,1,2.9,2.919,5.585,5.585,0,0,1-1.09,3.178,7.572,7.572,0,0,1-3.3,2.564,10.689,10.689,0,0,1-3.939.741,1.913,1.913,0,0,1-.021-.257.389.389,0,0,1,.075-.226,9.245,9.245,0,0,0,1.932-.284,6.933,6.933,0,0,0,2.3-1,5.968,5.968,0,0,0,1.814-1.986,4.705,4.705,0,0,0,.746-2.345,1.958,1.958,0,0,0-.521-1.406,1.745,1.745,0,0,0-1.325-.547A3.659,3.659,0,0,0,1344.376,71.094Z" fill="#00223d"/>
        </g>
      </g>
      <g id="Grupo_12016" data-name="Grupo 12016">
        <g id="Grupo_12015" data-name="Grupo 12015">
          <path id="Trazado_39310" data-name="Trazado 39310" d="M1056.177,68.432h11.5v.945h-11.5Zm0,4.969h11.5v.955h-11.5Z" fill="#00223d"/>
        </g>
      </g>
      <g id="Grupo_12018" data-name="Grupo 12018">
        <g id="Grupo_12017" data-name="Grupo 12017">
          <path id="Trazado_39311" data-name="Trazado 39311" d="M1179.274,68.432h11.5v.945h-11.5Zm0,4.969h11.5v.955h-11.5Z" fill="#00223d"/>
        </g>
      </g>
      <g id="Grupo_12020" data-name="Grupo 12020">
        <g id="Grupo_12019" data-name="Grupo 12019">
          <path id="Trazado_39312" data-name="Trazado 39312" d="M1300.049,68.432h11.495v.945h-11.495Zm0,4.969h11.495v.955h-11.495Z" fill="#00223d"/>
        </g>
      </g>
      <line id="Línea_195" data-name="Línea 195" x2="145.232" y2="0.119" transform="translate(901.671 71.07)" fill="none" stroke="#00223d" stroke-miterlimit="10" stroke-width="1"/>
      <line id="Línea_196" data-name="Línea 196" x2="97.293" transform="translate(1077.026 71.071)" fill="none" stroke="#00223d" stroke-miterlimit="10" stroke-width="1"/>
      <line id="Línea_197" data-name="Línea 197" x2="97.293" transform="translate(1196.058 71.071)" fill="none" stroke="#00223d" stroke-miterlimit="10" stroke-width="1"/>
      <g id="Grupo_12022" data-name="Grupo 12022">
        <g id="Grupo_12021" data-name="Grupo 12021">
          <path id="Trazado_39313" data-name="Trazado 39313" d="M1079.65,57.111v-.4q.117-.052.327-.123a4.515,4.515,0,0,0,.445-.177q.322-.139.687-.332a11.732,11.732,0,0,0,1.535-.945l1.906-1.561q.481-.376,1.906-1.6l1.184-1.036a2.686,2.686,0,0,1,.254-.2l.594-.525q-.321-.452-.488-.715a2.539,2.539,0,0,0-.135-.228q-.561-1.026-.984-1.737l-1.109-1.823a10.812,10.812,0,0,0-.961-1.575,1.835,1.835,0,0,0-.692-.6,4.621,4.621,0,0,0-1.464-.3,3.467,3.467,0,0,1-.462-.065l-.021-.386h.547l1.782.053a2.76,2.76,0,0,0,.333-.032q1.072.054,1.6.054l1.2-.022c.165,0,.321.006.467.017s.267.016.36.016h.2c.008.107.011.186.011.236v.15a5.514,5.514,0,0,0-2,.268c-.143.071-.215.161-.215.269l.011.1a4.656,4.656,0,0,0,.256.548q.064.106,1.8,3.221.678,1.2.99,1.648.129-.1,2.18-1.917,1.749-1.557,2.383-2.26a5.547,5.547,0,0,0,.724-.9.811.811,0,0,0,.092-.306.353.353,0,0,0-.161-.311,4.516,4.516,0,0,0-1.515-.418v-.075a.96.96,0,0,1,.054-.269l.129-.011h.515l1.084-.01.3.032c.049,0,.687.025,1.91.075h.462c.049,0,.164,0,.343.011l-.011.419a4.54,4.54,0,0,0-2.264,1.148q-.214.162-.5.364-.14.109-.993.813l-1.242,1.172a6.3,6.3,0,0,0-.524.43q-.546.517-2.718,2.433.76,1.394,1.877,3.248.9,1.512,1.281,2.06l.547.772a5.624,5.624,0,0,0,.687.5c.157.071.315.14.472.2a5.386,5.386,0,0,1,.72.344l.01.118a1.357,1.357,0,0,1-.021.2,9.351,9.351,0,0,1-1.2-.118,12,12,0,0,0-1.733-.118q-.495,0-2.737.086c-.008-.108-.011-.186-.011-.236s0-.14.011-.248c.208-.028.4-.045.58-.053a1.986,1.986,0,0,0,1.076-.289.439.439,0,0,0,.236-.376,1.89,1.89,0,0,0-.289-.816q-1.018-1.881-2.166-3.642-.335-.542-.438-.736a34.458,34.458,0,0,0-2.679,2.266,18.692,18.692,0,0,0-2.525,2.577.951.951,0,0,0-.183.5.374.374,0,0,0,.183.28,2.373,2.373,0,0,0,1.057.378c.148.03.286.058.414.086-.021.108-.05.222-.086.344-.092.007-.16.011-.2.011l-.2.011-.182-.011-1.21-.081q-.675-.058-.857-.059l-1.81.108A5.362,5.362,0,0,1,1079.65,57.111Z" fill="#00223d"/>
          <path id="Trazado_39314" data-name="Trazado 39314" d="M1101.482,55.949l.137.156a10.607,10.607,0,0,0-1.752,1.921,11.279,11.279,0,0,0-1.965,6.339,10.328,10.328,0,0,0,.507,3.1l-.181.113a9.066,9.066,0,0,1-.883-3.923,9.233,9.233,0,0,1,1.036-4.24A9.337,9.337,0,0,1,1101.482,55.949Z" fill="#00223d"/>
          <path id="Trazado_39315" data-name="Trazado 39315" d="M1109.285,56.267a.383.383,0,0,1-.054.223.525.525,0,0,1-.234.1,4.615,4.615,0,0,0-1.7.945,7.946,7.946,0,0,0-1.492,1.573,10.728,10.728,0,0,0-1.1,2.085,5.556,5.556,0,0,0-.516,1.913,1.122,1.122,0,0,0,.228.753.685.685,0,0,0,.535.266,1.768,1.768,0,0,0,1.03-.419,3.316,3.316,0,0,0,.963-1.277,3.637,3.637,0,0,0,.4-1.5.77.77,0,0,0-.188-.534.553.553,0,0,0-.419-.209,1.379,1.379,0,0,0-.354.056,1.4,1.4,0,0,0-.385.175.059.059,0,0,1-.05-.025.286.286,0,0,1-.043-.167c0-.087.058-.167.175-.241a1.645,1.645,0,0,1,.882-.218,1.212,1.212,0,0,1,.588.159,1.069,1.069,0,0,1,.448.506,1.757,1.757,0,0,1,.159.739,3.229,3.229,0,0,1-1.12,2.372,2.828,2.828,0,0,1-1.933.912,1.486,1.486,0,0,1-1.152-.473,2.043,2.043,0,0,1-.432-1.422,4.259,4.259,0,0,1,.12-1.032,6.829,6.829,0,0,1,.722-1.732,7.285,7.285,0,0,1,1.274-1.6,8.446,8.446,0,0,1,1.307-1.032,5.957,5.957,0,0,1,1.534-.782q.406-.119.469-.143a.535.535,0,0,1,.156-.051A.376.376,0,0,1,1109.285,56.267Z" fill="#00223d"/>
          <path id="Trazado_39316" data-name="Trazado 39316" d="M1111.187,67.55l-.175-.137a10.156,10.156,0,0,0,1.151-1.124,6.292,6.292,0,0,0,.582-.748c.021-.038.11-.17.269-.4a11.3,11.3,0,0,0,.707-1.32,10.17,10.17,0,0,0,.72-2.009,11.565,11.565,0,0,0,.313-2.729,8.575,8.575,0,0,0-.1-1.317q-.1-.616-.391-1.73l.175-.1a9.426,9.426,0,0,1,.87,3.9,9.229,9.229,0,0,1-.426,2.791,9,9,0,0,1-1.514,2.882A9.208,9.208,0,0,1,1111.187,67.55Z" fill="#00223d"/>
          <path id="Trazado_39317" data-name="Trazado 39317" d="M1117.815,49.705h5.281V44.4h.944v5.3h5.313v.944h-5.313V55.9h-.944V50.649h-5.281Z" fill="#00223d"/>
          <path id="Trazado_39318" data-name="Trazado 39318" d="M1129.922,57.111v-.4q.118-.052.327-.123a4.613,4.613,0,0,0,.446-.177c.215-.093.443-.2.687-.332a11.767,11.767,0,0,0,1.534-.945l1.906-1.561q.481-.376,1.906-1.6l1.185-1.036a2.7,2.7,0,0,1,.254-.2l.594-.525c-.215-.3-.377-.54-.489-.715a2.128,2.128,0,0,0-.135-.228q-.561-1.026-.983-1.737l-1.109-1.823a10.823,10.823,0,0,0-.962-1.575,1.835,1.835,0,0,0-.692-.6,4.607,4.607,0,0,0-1.464-.3,3.43,3.43,0,0,1-.461-.065l-.022-.386h.548l1.781.053a2.724,2.724,0,0,0,.333-.032q1.074.054,1.6.054l1.2-.022c.164,0,.32.006.466.017s.267.016.36.016h.2c.007.107.011.186.011.236v.15a5.516,5.516,0,0,0-2,.268c-.143.071-.215.161-.215.269l.011.1a4.845,4.845,0,0,0,.256.548q.065.106,1.805,3.221.678,1.2.99,1.648.129-.1,2.179-1.917,1.75-1.557,2.383-2.26a5.578,5.578,0,0,0,.725-.9.822.822,0,0,0,.091-.306.351.351,0,0,0-.161-.311,4.51,4.51,0,0,0-1.515-.418v-.075a1,1,0,0,1,.054-.269l.129-.011h.515l1.084-.01.3.032q.075,0,1.91.075h.462c.05,0,.164,0,.343.011l-.01.419a4.538,4.538,0,0,0-2.265,1.148q-.214.162-.5.364c-.092.073-.424.343-.993.813l-1.242,1.172a6.32,6.32,0,0,0-.524.43q-.546.517-2.718,2.433.762,1.394,1.877,3.248.9,1.512,1.281,2.06l.548.772a5.461,5.461,0,0,0,.687.5c.157.071.314.14.472.2a5.41,5.41,0,0,1,.719.344l.01.118a1.341,1.341,0,0,1-.021.2,9.351,9.351,0,0,1-1.2-.118,11.992,11.992,0,0,0-1.733-.118q-.493,0-2.737.086c-.007-.108-.011-.186-.011-.236s0-.14.011-.248c.208-.028.4-.045.581-.053a1.982,1.982,0,0,0,1.075-.289.44.44,0,0,0,.237-.376,1.894,1.894,0,0,0-.29-.816q-1.019-1.881-2.166-3.642-.333-.542-.438-.736a34.273,34.273,0,0,0-2.678,2.266,18.66,18.66,0,0,0-2.526,2.577.948.948,0,0,0-.182.5.372.372,0,0,0,.182.28,2.378,2.378,0,0,0,1.057.378c.149.03.287.058.414.086-.021.108-.049.222-.085.344-.093.007-.161.011-.2.011l-.2.011-.182-.011-1.211-.081c-.45-.039-.735-.059-.857-.059l-1.81.108A5.348,5.348,0,0,1,1129.922,57.111Z" fill="#00223d"/>
          <path id="Trazado_39319" data-name="Trazado 39319" d="M1151.754,55.949l.138.156a10.611,10.611,0,0,0-1.752,1.921,11.279,11.279,0,0,0-1.965,6.339,10.328,10.328,0,0,0,.507,3.1l-.182.113a9.065,9.065,0,0,1-.882-3.923,9.233,9.233,0,0,1,1.036-4.24A9.333,9.333,0,0,1,1151.754,55.949Z" fill="#00223d"/>
          <path id="Trazado_39320" data-name="Trazado 39320" d="M1158.7,57.282l-.807-.026h-1.227a4.435,4.435,0,0,0-.713.037,2.8,2.8,0,0,1-.57.076.66.66,0,0,1-.344-.076.107.107,0,0,1-.062-.093l.037-.113.219-.626q1.63.026,3.391.026c.192,0,.33,0,.413-.013a2.952,2.952,0,0,1,.407-.037.434.434,0,0,1,.238.057.1.1,0,0,1,.043.081,12.2,12.2,0,0,1-.832,1.292l-4.267,6.389a.424.424,0,0,1-.3.2.371.371,0,0,1-.183-.032.061.061,0,0,1-.032-.056c0-.059.067-.162.2-.313a8.661,8.661,0,0,0,.789-1.238l.037-.074c.021-.038.128-.2.319-.494l1.9-2.889Q1157.667,58.883,1158.7,57.282Z" fill="#00223d"/>
          <path id="Trazado_39321" data-name="Trazado 39321" d="M1161.459,67.55l-.175-.137a10.181,10.181,0,0,0,1.152-1.124,6.528,6.528,0,0,0,.582-.748c.02-.038.11-.17.269-.4a11.448,11.448,0,0,0,.707-1.32,10.173,10.173,0,0,0,.719-2.009,11.514,11.514,0,0,0,.313-2.729,8.439,8.439,0,0,0-.1-1.317q-.1-.616-.391-1.73l.175-.1a9.411,9.411,0,0,1,.87,3.9,9.255,9.255,0,0,1-.425,2.791,9,9,0,0,1-1.515,2.882A9.169,9.169,0,0,1,1161.459,67.55Z" fill="#00223d"/>
        </g>
      </g>
      <g id="Grupo_12024" data-name="Grupo 12024">
        <g id="Grupo_12023" data-name="Grupo 12023">
          <path id="Trazado_39322" data-name="Trazado 39322" d="M1205.713,56.982l3.425-11.764a17.208,17.208,0,0,1-3.542,2.007l-.043-.6a14.2,14.2,0,0,0,4.991-3.531h.709l-4.066,13.889Z" fill="#00223d"/>
          <path id="Trazado_39323" data-name="Trazado 39323" d="M1212.288,60.159q1.073-.708,1.266-.88a3.966,3.966,0,0,0,.885-1,1.836,1.836,0,0,0,.306-.912,1.026,1.026,0,0,0-.332-.613,1.614,1.614,0,0,1-.483-.987,1.749,1.749,0,0,1,.4-1.084.762.762,0,0,1,.611-.322.909.909,0,0,1,.709.408,2,2,0,0,1,.429,1.288,4.2,4.2,0,0,1-.955,2.345,6.524,6.524,0,0,1-2.7,2.109Z" fill="#00223d"/>
          <path id="Trazado_39324" data-name="Trazado 39324" d="M1222.6,49.995a5.272,5.272,0,0,1-1.524-3.371,3.138,3.138,0,0,1,.585-1.7,3.933,3.933,0,0,1,1.476-1.363,4.352,4.352,0,0,1,2.05-.467,2.913,2.913,0,0,1,2.039.65,2.112,2.112,0,0,1,.708,1.626,2.309,2.309,0,0,1-.279,1.116,4.511,4.511,0,0,1-1.095,1.352,26.565,26.565,0,0,1-2.382,1.685,9.128,9.128,0,0,1,1.427,2.056,4.209,4.209,0,0,1,.408,1.776,3.737,3.737,0,0,1-1.17,2.8,4.127,4.127,0,0,1-2.994,1.133,3.519,3.519,0,0,1-2.437-.817,2.429,2.429,0,0,1-.912-1.845,2.783,2.783,0,0,1,.4-1.385,6.862,6.862,0,0,1,1.514-1.76A18.875,18.875,0,0,1,1222.6,49.995Zm.344.365a9.556,9.556,0,0,0-1.589,1.3,5.489,5.489,0,0,0-1.041,1.626,4.464,4.464,0,0,0-.365,1.712,1.73,1.73,0,0,0,.542,1.309,2.008,2.008,0,0,0,1.443.515,2.587,2.587,0,0,0,1.927-.826,2.862,2.862,0,0,0,.8-2.072,3.761,3.761,0,0,0-.371-1.573A9.621,9.621,0,0,0,1222.946,50.36Zm.89-1.213a9.448,9.448,0,0,0,2.233-2.126,3.342,3.342,0,0,0,.579-1.846,1.626,1.626,0,0,0-.456-1.213,1.674,1.674,0,0,0-1.229-.451,2.288,2.288,0,0,0-1.213.355,2.416,2.416,0,0,0-.912,1.041,2.98,2.98,0,0,0-.053,2.63A7.7,7.7,0,0,0,1223.836,49.147Z" fill="#00223d"/>
          <path id="Trazado_39325" data-name="Trazado 39325" d="M1235.622,49.705h5.28V44.4h.945v5.3h5.313v.944h-5.313V55.9h-.945V50.649h-5.28Z" fill="#00223d"/>
          <path id="Trazado_39326" data-name="Trazado 39326" d="M1256.771,56.982l3.425-11.764a17.214,17.214,0,0,1-3.542,2.007l-.043-.6a14.211,14.211,0,0,0,4.992-3.531h.708l-4.066,13.889Z" fill="#00223d"/>
          <path id="Trazado_39327" data-name="Trazado 39327" d="M1263.345,60.159q1.074-.708,1.267-.88a3.993,3.993,0,0,0,.886-1,1.854,1.854,0,0,0,.3-.912,1.026,1.026,0,0,0-.332-.613,1.609,1.609,0,0,1-.483-.987,1.749,1.749,0,0,1,.4-1.084.763.763,0,0,1,.612-.322.909.909,0,0,1,.708.408,2,2,0,0,1,.429,1.288,4.2,4.2,0,0,1-.955,2.345,6.518,6.518,0,0,1-2.7,2.109Z" fill="#00223d"/>
          <path id="Trazado_39328" data-name="Trazado 39328" d="M1269.174,57.1a.652.652,0,0,1,.091-.381.939.939,0,0,1,.413-.177,7.77,7.77,0,0,0,2.909-1.614,13.572,13.572,0,0,0,2.56-2.7,18.717,18.717,0,0,0,1.889-3.577,9.531,9.531,0,0,0,.885-3.271,1.937,1.937,0,0,0-.386-1.3,1.169,1.169,0,0,0-.912-.452,3.068,3.068,0,0,0-1.777.713,5.645,5.645,0,0,0-1.653,2.187,6.233,6.233,0,0,0-.692,2.577,1.341,1.341,0,0,0,.322.922.949.949,0,0,0,.719.364,2.23,2.23,0,0,0,.617-.1,2.3,2.3,0,0,0,.65-.306.1.1,0,0,1,.1.054.5.5,0,0,1,.065.279.51.51,0,0,1-.3.418,2.8,2.8,0,0,1-1.513.376,2.025,2.025,0,0,1-1-.274,1.851,1.851,0,0,1-.767-.862,2.943,2.943,0,0,1-.279-1.276,5.557,5.557,0,0,1,1.921-4.074,4.881,4.881,0,0,1,3.316-1.564,2.545,2.545,0,0,1,1.975.81,3.51,3.51,0,0,1,.741,2.44,7.49,7.49,0,0,1-.2,1.78,11.572,11.572,0,0,1-1.229,2.965,12.219,12.219,0,0,1-2.184,2.74,16.025,16.025,0,0,1-2.243,1.782,10.623,10.623,0,0,1-2.641,1.339q-.7.194-.794.237a.949.949,0,0,1-.279.086A.645.645,0,0,1,1269.174,57.1Z" fill="#00223d"/>
        </g>
      </g>
    </g>
  </g>
</svg>
