<svg xmlns="http://www.w3.org/2000/svg" width="81.337" height="46.932" viewBox="0 0 81.337 46.932">
  <g id="Grupo_17852" data-name="Grupo 17852" transform="translate(-1219.884 -2544.194)">
    <g id="Grupo_16786" data-name="Grupo 16786" transform="translate(389.017 835.881)">
      <path id="Trazado_45029" data-name="Trazado 45029" d="M856.5,1710.423c-2.658,6.495,20.427,14.935,23.994,16.447a117.7,117.7,0,0,0,20.167,6.791c2.787.622,8.919,2.162,10.913-.945,4.767-7.429-18.888-15.573-22.756-17.08a125.707,125.707,0,0,0-21.653-6.491c-2.915-.566-8.4-1.958-10.532.959-1.017,1.392,1.3,2.722,2.306,1.347,1.272-1.738,8.65.485,10.2.825a132.126,132.126,0,0,1,16.79,5.11,116.7,116.7,0,0,1,15.667,6.961c.821.446,9.512,5.576,7.659,6.984-6.418,4.881-52.014-15.717-50.18-20.2C859.724,1709.539,857.141,1708.851,856.5,1710.423Z" fill="#575756"/>
    </g>
    <g id="Grupo_16787" data-name="Grupo 16787" transform="translate(389.017 835.881)">
      <path id="Trazado_45030" data-name="Trazado 45030" d="M861.333,1727.083c-8.495.753-20.106,3.806-26.372,10.052l2.1.271-3.153-5.323a1.345,1.345,0,0,0-2.488.673c-.264,4.371-1.629,12.829,1.288,16.533,1.474,1.872,4.9,2.436,7.022,3.008a94.976,94.976,0,0,0,16.676,2.6,103.466,103.466,0,0,0,33.26-2.69c6.258-1.558,6.772-6.5,6.163-12.533a1.369,1.369,0,0,0-.98-1.288c-5.795-1.429-11.66,1.844-17.676,2.533a113.472,113.472,0,0,1-28.713-.488,41.134,41.134,0,0,1-10.41-2.636c-7.536-3.236-1.449-10.336,3.3-13.091a32.82,32.82,0,0,1,10.308-3.4c1.008-.2,2.311.05,2.82-1.037q1.79-3.816,3.576-7.633l-2.44-1.029c-.7,2.11-4.346,8.779-3.12,10.785,2.846,4.65,8.625,7.172,13.373,9.328,12.453,5.653,26.791,10.108,40.452,11.441a1.349,1.349,0,0,0,1.288-.982c1.277-3.408,2.732-6.727,4.259-10.029.718-1.551-1.584-2.91-2.306-1.347-.831,1.8-1.674,3.595-2.442,5.423-.783,1.857-.747,4.312-2.82,4.031-2.849-.386-5.67-1.008-8.472-1.641a181.306,181.306,0,0,1-21.319-6.284c-6.227-2.236-13.111-4.833-18.113-9.322-1.91-1.715-1.126-1.931-.179-4.776q.987-2.96,1.972-5.917c.476-1.426-1.8-2.4-2.439-1.028q-1.538,3.284-3.077,6.568c-.773,1.651-3.634,1.244-5.522,1.712A35.224,35.224,0,0,0,840,1722.4c-5.308,2.647-11.205,9.039-6.933,15.05,2.7,3.8,9.36,4.65,13.505,5.373a114.721,114.721,0,0,0,25.413,1.189c6.462-.331,13.238-1.071,19.232-3.642,1.784-.766,2.205,1.95,1.962-.468a24.229,24.229,0,0,1-.251,6.57c-.725,4.2-9.494,4.362-12.77,4.862a102.97,102.97,0,0,1-39.722-1.611c-5.354-1.306-6.174-2.327-6.469-7.86a80.444,80.444,0,0,1,.12-9.106l-2.489.674q1.576,2.661,3.153,5.323a1.35,1.35,0,0,0,2.1.27c5.752-5.733,16.635-8.574,24.484-9.268,1.7-.151,1.715-2.823,0-2.672Z" fill="#575756"/>
    </g>
  </g>
</svg>
