<svg xmlns="http://www.w3.org/2000/svg" width="72.931" height="97.769" viewBox="0 0 72.931 97.769">
  <g id="Grupo_17850" data-name="Grupo 17850" transform="translate(-881.784 -2299.926)">
    <g id="Grupo_16903" data-name="Grupo 16903" transform="translate(389.017 835.881)">
      <path id="Trazado_45146" data-name="Trazado 45146" d="M492.934,1498.337c.01,8.278.155,16.554.211,24.832.046,6.973-.589,14.037.376,20.962,2.18,15.617,15.582,17.376,28.845,17.639,10.207.2,22.547.052,29.917-8.133,4.823-5.356,4.227-12.819,4.24-19.485.024-11.645.045-23.287-.3-34.929-.051-1.717-2.721-1.723-2.67,0,.262,8.715.326,17.43.323,26.149,0,7.834,1.575,17.518-2.27,24.646-5.215,9.672-19.933,9.149-29.235,9.082-5.883-.042-11.957-.43-17.555-2.356-7.393-2.545-8.951-11.909-9.14-18.651-.373-13.2-.053-26.542-.065-39.756a1.337,1.337,0,0,0-2.672,0Z" fill="#575756"/>
    </g>
    <g id="Grupo_16904" data-name="Grupo 16904" transform="translate(389.017 835.881)">
      <path id="Trazado_45147" data-name="Trazado 45147" d="M542.523,1485.813a70.8,70.8,0,0,0-28.061-.682c-6.237,1.045-13.957,3.04-18.887,7.3-2.853,2.468-4.049,6.156-1.1,9.1,1.1,1.1,6.563,2.351,5.412,4.47-.9,1.66-3.009,2.872-2.638,4.961a1.333,1.333,0,0,0,.932.933c1.945.623,4.313-.561,6.147-1.1,5.328-1.567,9.282-.837,14.472.331,6.5,1.46,13.7.564,20.161-.618,6.432-1.177,12.984-3.4,16.732-9.049,3.523-5.308-2.625-10.441-6.654-12.734a1.336,1.336,0,0,0-1.347,2.306c2.861,1.628,6.663,3.965,6.1,8.032-.522,3.776-5.891,5.993-8.907,7.113-5.544,2.058-11.652,2.727-17.522,2.9-4.976.15-9.176-1.816-13.927-2.1a28.438,28.438,0,0,0-8.4.854c-1.314.309-2.608.735-3.9,1.121-1.127.336-2.2,2.574-.4.333,1.18-1.468,3.71-4.641,1.568-6.45a11.909,11.909,0,0,0-3.278-1.812c-3.744-1.566-4.243-4.684-1.066-7.076,11.506-8.658,30.614-8.65,43.848-5.56,1.676.39,2.386-2.184.709-2.576Z" fill="#575756"/>
    </g>
    <g id="Grupo_16905" data-name="Grupo 16905" transform="translate(389.017 835.881)">
      <path id="Trazado_45148" data-name="Trazado 45148" d="M547.556,1493.622c4.986,3.306,3.878,6.169-1.161,8.291a52.084,52.084,0,0,1-13.953,3.186c-3.78.453-7.909.853-11.682.136-6.663-1.265-10.514-3.139-16.964.183q.632.822,1.266,1.642c1.351-1.056,6.133-5.129,2.143-6.576-1.937-.7-7.713-.684-5.528-4.873.955-1.829,4.025-2.631,5.788-3.208,9.968-3.263,23.816-4.175,33.836-.685,1.275.445,1.818-1.574.555-2.015-10.971-3.822-25.957-2.629-36.751,1.309-2.68.977-7.237,3.663-6.3,7.288a3.744,3.744,0,0,0,2.446,2.735,21.791,21.791,0,0,0,3.235.869c2.958.613.6,2.5-.9,3.677-.977.764.267,2.156,1.267,1.642,7.259-3.739,13.249.423,20.636.419a70.425,70.425,0,0,0,16.562-2.153c3.719-.911,8.335-2.246,10.659-5.541s-1.7-6.543-4.1-8.131c-1.127-.747-2.172,1.063-1.055,1.8Z" fill="#575756"/>
    </g>
    <g id="Grupo_16906" data-name="Grupo 16906" transform="translate(389.017 835.881)">
      <path id="Trazado_45149" data-name="Trazado 45149" d="M533.565,1506.106c8.015-12.721,16.011-25.456,24.138-38.107,2.124-3.306.4,2.018-.513,3.469-.974,1.54-1.933,3.091-2.893,4.64q-3.6,5.811-7.174,11.646-5.18,8.44-10.335,16.892c-.9,1.473,1.411,2.814,2.306,1.347q6.523-10.689,13.078-21.356c1.217-1.98,14.112-19.516,8.05-20.523-3.328-.551-4.684,2.314-6.233,4.732q-4.569,7.145-9.092,14.318-6.832,10.79-13.638,21.6c-.921,1.462,1.392,2.8,2.306,1.347Z" fill="#575756"/>
    </g>
    <g id="Grupo_16907" data-name="Grupo 16907" transform="translate(389.017 835.881)">
      <path id="Trazado_45150" data-name="Trazado 45150" d="M528.557,1509.645q-6.906,12.25-13.8,24.506c-1.241,2.2-14.234,20.456-7.424,21.816,4.02.8,5.37-2.5,6.972-5.484q4.005-7.466,8.008-14.931,6.707-12.5,13.414-25.008c.814-1.517-1.491-2.864-2.306-1.347q-11.446,21.344-22.9,42.689c-.488.909-2.925.495-2.567-.156.262-.481.531-.958.8-1.437q1.252-2.242,2.512-4.482,4.072-7.26,8.16-14.512,5.715-10.155,11.439-20.307a1.336,1.336,0,0,0-2.306-1.347Z" fill="#575756"/>
    </g>
    <g id="Grupo_16908" data-name="Grupo 16908" transform="translate(389.017 835.881)">
      <path id="Trazado_45151" data-name="Trazado 45151" d="M539.8,1515.939a15.291,15.291,0,0,0,5.3-.628c1.253-.459.712-2.48-.557-2.015a13.527,13.527,0,0,1-4.748.553,1.046,1.046,0,0,0,0,2.09Z" fill="#575756"/>
    </g>
    <g id="Grupo_16909" data-name="Grupo 16909" transform="translate(389.017 835.881)">
      <path id="Trazado_45152" data-name="Trazado 45152" d="M540.1,1524.515a13.572,13.572,0,0,0,4.712-.925c1.244-.481.705-2.5-.555-2.016a11.852,11.852,0,0,1-4.157.85,1.046,1.046,0,0,0,0,2.091Z" fill="#575756"/>
    </g>
    <g id="Grupo_16910" data-name="Grupo 16910" transform="translate(389.017 835.881)">
      <path id="Trazado_45153" data-name="Trazado 45153" d="M540.69,1531.59c-.259,0-.063-.016.022.018q.365.366.731.73l0-.008q-.24.591-.48,1.179c-.257.175-.227.086-.044.048.163-.033.328-.055.493-.08.433-.063.917-.118,1.374-.169.774-.089,1.562-.2,2.342-.219a1.046,1.046,0,0,0,0-2.091c-.889.017-1.788.156-2.67.258a6.3,6.3,0,0,0-2.55.449,1.1,1.1,0,0,0-.479,1.181v.008c.052.376.417.6.729.728a1.553,1.553,0,0,0,.533.059,1.046,1.046,0,0,0,0-2.091Z" fill="#575756"/>
    </g>
    <g id="Grupo_16911" data-name="Grupo 16911" transform="translate(389.017 835.881)">
      <path id="Trazado_45154" data-name="Trazado 45154" d="M539.822,1541.089a1.589,1.589,0,0,0-.822.344,1.048,1.048,0,0,0,.212,1.642A5.217,5.217,0,0,0,541.8,1543a10.937,10.937,0,0,0,2.963-.593c1.232-.541.167-2.34-1.055-1.8.345-.151.019-.029-.066-.007-.177.044-.357.077-.536.11-.476.087-.954.155-1.432.221-.414.058-.83.1-1.246.151-.155.017-.31.032-.466.044-.332.028-.268-.1.3.148.07.548.141,1.094.211,1.642-.5.4-.516.263-.1.193,1.326-.227.761-2.241-.556-2.016Z" fill="#575756"/>
    </g>
    <g id="Grupo_16912" data-name="Grupo 16912" transform="translate(389.017 835.881)">
      <path id="Trazado_45155" data-name="Trazado 45155" d="M500.775,1517.269a12.758,12.758,0,0,1,.281,2.251c.017.332.033.695.033,1.072.029.373.052.764.061,1.165.024.8,0,1.646-.053,2.489a27.214,27.214,0,0,1-.58,4.749,12.817,12.817,0,0,1-.629,2.171,12.417,12.417,0,0,1-.592-2.187,21.422,21.422,0,0,1-.325-4.835c.065-.9.172-1.789.311-2.618.069-.414.149-.81.231-1.183.105-.365.228-.7.342-1.016A12.629,12.629,0,0,1,500.775,1517.269Z" fill="#575756"/>
    </g>
    <g id="Grupo_16913" data-name="Grupo 16913" transform="translate(389.017 835.881)">
      <path id="Trazado_45156" data-name="Trazado 45156" d="M500.479,1534.418s.055.137.121.365a2.364,2.364,0,0,0,.118.4c.064.137.137.28.191.416s.12.275.188.474c.061.183.121.373.166.569a8.64,8.64,0,0,1,.242,1.248,9.219,9.219,0,0,1,.086,1.27,8.732,8.732,0,0,1-.069,1.136,4.037,4.037,0,0,1-.067.479c-.018.14-.032.261-.044.363l-.044.381a1.713,1.713,0,0,1-.328-.175,2.582,2.582,0,0,1-.688-.7,4.383,4.383,0,0,1-.612-1.122,6.427,6.427,0,0,1-.344-1.362,6.888,6.888,0,0,1-.012-1.405c.029-.23.072-.452.118-.658a3.923,3.923,0,0,1,.2-.625,3.129,3.129,0,0,1,.241-.512c.061-.151.187-.217.261-.3A3.07,3.07,0,0,1,500.479,1534.418Z" fill="#575756"/>
    </g>
    <g id="Grupo_16914" data-name="Grupo 16914" transform="translate(389.017 835.881)">
      <path id="Trazado_45157" data-name="Trazado 45157" d="M545.717,1474.388a3.245,3.245,0,0,1-.467-.363,2.439,2.439,0,0,1-.715-1.6,2.54,2.54,0,0,1,.356-1.326,3.67,3.67,0,0,1,.982-1.059,6.07,6.07,0,0,1,2.479-1,8.052,8.052,0,0,1,4.521.515,5.126,5.126,0,0,1,1.318.824,2.035,2.035,0,0,1,.4.459s-.226.012-.569.055-.821.126-1.373.221c-1.1.194-2.518.377-3.82.6a12.223,12.223,0,0,0-1.747.4,2.066,2.066,0,0,0-1,.58,1.477,1.477,0,0,0-.245.54,4.687,4.687,0,0,0-.094.561C545.733,1474.162,545.717,1474.388,545.717,1474.388Z" fill="#575756"/>
    </g>
    <g id="Grupo_16915" data-name="Grupo 16915" transform="translate(389.017 835.881)">
      <path id="Trazado_45158" data-name="Trazado 45158" d="M553.405,1480.6s.3-.029.807-.029a5.654,5.654,0,0,0,.89-.04c.336-.041.667-.035,1.074-.106s.82-.077,1.258-.166.9-.124,1.353-.259a11.787,11.787,0,0,0,1.365-.372l.67-.218.6-.294a1.726,1.726,0,0,0,.559-.311,5.909,5.909,0,0,1,.515-.335c.069-.066.431-.387.481-.457a4.132,4.132,0,0,0,.31-.355c.152-.25.221-.334.23-.481a1,1,0,0,0-.406-.645,4.5,4.5,0,0,0-.813-.57c-.285-.141-.545-.281-.773-.372l-.732-.312.2-.07a3.988,3.988,0,0,1,.584-.158,4.654,4.654,0,0,1,.953-.1,3.956,3.956,0,0,1,1.31.188,2.661,2.661,0,0,1,1.52,1.147,2.741,2.741,0,0,1,.106,2.406,4.3,4.3,0,0,1-.548.966,5.582,5.582,0,0,1-.611.734,7.087,7.087,0,0,1-1.671,1.16l-.9.395c-.3.1-.611.156-.911.229a7.9,7.9,0,0,1-1.772.217,9.71,9.71,0,0,1-1.628-.092,10.353,10.353,0,0,1-1.416-.312,6.962,6.962,0,0,1-1.16-.45,3.171,3.171,0,0,1-.8-.453C553.634,1480.792,553.405,1480.6,553.405,1480.6Z" fill="#575756"/>
    </g>
    <g id="Grupo_16916" data-name="Grupo 16916" transform="translate(389.017 835.881)">
      <path id="Trazado_45159" data-name="Trazado 45159" d="M544.239,1468.178s-.02-.03-.061-.085a1,1,0,0,1-.135-.239,1.179,1.179,0,0,1,.055-.533,1.81,1.81,0,0,1,.264-.551,3.283,3.283,0,0,1,2.259-1.306,3.461,3.461,0,0,1,2.394.537,2.545,2.545,0,0,1,.664.654,1.535,1.535,0,0,1,.178.34l-1.036.571a5.735,5.735,0,0,1-1.842.593,5.541,5.541,0,0,1-.947.033,5.856,5.856,0,0,1-.823-.1c-.133-.02-.237-.05-.352-.061s-.171-.061-.294-.039C544.371,1468.1,544.239,1468.178,544.239,1468.178Z" fill="#575756"/>
    </g>
    <g id="Grupo_16917" data-name="Grupo 16917" transform="translate(389.017 835.881)">
      <path id="Trazado_45160" data-name="Trazado 45160" d="M509.054,1547.282a1.046,1.046,0,0,0,0-2.091,1.046,1.046,0,0,0,0,2.091Z" fill="#575756"/>
    </g>
    <g id="Grupo_16918" data-name="Grupo 16918" transform="translate(389.017 835.881)">
      <path id="Trazado_45161" data-name="Trazado 45161" d="M509.054,1545.191c-6-.27-11.661,4.878-4.664,8.551,10.72,5.629,26.617,4.655,37.671.7,3.948-1.414,11.973-7.419,4.124-9.289-9.726-2.315-21.04-.855-30.915-.339-1.34.07-1.347,2.161,0,2.091,6.281-.329,12.565-.553,18.855-.53,2.758.011,5.512.113,8.261.338a26.207,26.207,0,0,1,3.933.62c2.6.618-1.239,3.286-1.778,3.634-7.178,4.665-17.842,4.636-26.025,4.063a38.42,38.42,0,0,1-13.072-3.091c-5.015-2.276.318-4.805,3.61-4.655,1.349.059,1.342-2.03,0-2.091Z" fill="#575756"/>
    </g>
    <g id="Grupo_16919" data-name="Grupo 16919" transform="translate(389.017 835.881)">
      <path id="Trazado_45162" data-name="Trazado 45162" d="M542.564,1547.024a30.193,30.193,0,0,1,2.551,3.112c.533.71,1.743.017,1.2-.7a32.794,32.794,0,0,0-2.77-3.393c-.63-.642-1.615.344-.985.984Z" fill="#575756"/>
    </g>
    <g id="Grupo_16920" data-name="Grupo 16920" transform="translate(389.017 835.881)">
      <path id="Trazado_45163" data-name="Trazado 45163" d="M538.812,1545.054c.17,2.4,2.658,4.4,3.938,6.264.506.736,1.714.04,1.2-.7-.637-.927-1.362-1.79-2.058-2.671-.612-.773-1.618-1.853-1.692-2.89-.062-.892-1.457-.9-1.392,0Z" fill="#575756"/>
    </g>
    <g id="Grupo_16921" data-name="Grupo 16921" transform="translate(389.017 835.881)">
      <path id="Trazado_45164" data-name="Trazado 45164" d="M535.173,1546.136c2.1,2.5,3.737,5.526,6.209,7.688.673.589,1.662-.392.984-.984-2.472-2.163-4.107-5.188-6.209-7.688-.578-.689-1.559.3-.984.984Z" fill="#575756"/>
    </g>
  </g>
</svg>
