<svg xmlns="http://www.w3.org/2000/svg" width="390.097" height="117.581" viewBox="0 0 390.097 117.581">
  <g id="Grupo_11910" data-name="Grupo 11910" transform="translate(-555.548 -5.081)">
    <g id="Grupo_11892" data-name="Grupo 11892">
      <g id="Grupo_11891" data-name="Grupo 11891">
        <path id="Trazado_39176" data-name="Trazado 39176" d="M808.8,56.08H820.3v.946H808.8Zm0,4.97H820.3v.955H808.8Z" fill="#00223d"/>
      </g>
    </g>
    <g id="Grupo_11894" data-name="Grupo 11894">
      <g id="Grupo_11893" data-name="Grupo 11893">
        <path id="Trazado_39177" data-name="Trazado 39177" d="M634.638,46.617v-.4q.118-.053.327-.123a4.4,4.4,0,0,0,.446-.178q.322-.138.687-.332a11.7,11.7,0,0,0,1.535-.944l1.905-1.562q.481-.377,1.906-1.6l1.185-1.036a2.513,2.513,0,0,1,.254-.2l.594-.525q-.322-.453-.488-.716a2.442,2.442,0,0,0-.136-.227q-.56-1.026-.983-1.738l-1.109-1.822a10.759,10.759,0,0,0-.962-1.575,1.831,1.831,0,0,0-.692-.6,4.642,4.642,0,0,0-1.464-.3,3.62,3.62,0,0,1-.461-.065l-.022-.387h.548l1.782.054a2.958,2.958,0,0,0,.332-.032q1.074.054,1.6.054l1.2-.022c.164,0,.32.006.467.017s.266.015.359.015h.2c.007.108.011.187.011.237v.15a5.493,5.493,0,0,0-2,.268c-.143.071-.214.161-.214.268l.01.1a4.757,4.757,0,0,0,.257.548q.063.106,1.8,3.22.678,1.2.99,1.649.129-.1,2.179-1.917,1.75-1.557,2.383-2.26a5.621,5.621,0,0,0,.725-.9.808.808,0,0,0,.091-.306.35.35,0,0,0-.161-.311,4.477,4.477,0,0,0-1.514-.418V32.62a.992.992,0,0,1,.053-.268l.129-.011h.515L650,32.33l.3.033q.075,0,1.911.075h.461c.05,0,.165,0,.343.011l-.01.419a4.536,4.536,0,0,0-2.264,1.148c-.143.107-.312.228-.505.364q-.138.108-.993.813L648,36.365a6.536,6.536,0,0,0-.524.429q-.546.519-2.718,2.434.762,1.394,1.877,3.248.9,1.512,1.281,2.059l.548.773a5.531,5.531,0,0,0,.687.5c.157.071.314.14.472.2a5.3,5.3,0,0,1,.719.344l.011.118a1.373,1.373,0,0,1-.022.2,9.384,9.384,0,0,1-1.2-.118,11.99,11.99,0,0,0-1.733-.118q-.494,0-2.737.086c-.007-.108-.011-.186-.011-.237s0-.139.011-.247c.208-.028.4-.046.581-.054a1.968,1.968,0,0,0,1.076-.289.439.439,0,0,0,.236-.376,1.9,1.9,0,0,0-.29-.815q-1.019-1.881-2.166-3.643-.333-.54-.438-.735a34.66,34.66,0,0,0-2.678,2.266,18.776,18.776,0,0,0-2.526,2.577.942.942,0,0,0-.182.5.374.374,0,0,0,.182.28,2.377,2.377,0,0,0,1.057.378c.149.029.287.058.415.086-.022.108-.05.222-.086.344-.093.007-.161.011-.2.011l-.2.01-.182-.01-1.211-.081c-.449-.04-.735-.059-.857-.059l-1.81.107A5.212,5.212,0,0,1,634.638,46.617Z" fill="#00223d"/>
        <path id="Trazado_39178" data-name="Trazado 39178" d="M653.057,53.808l2-6.858a9.957,9.957,0,0,1-2.065,1.169l-.025-.349a8.274,8.274,0,0,0,2.91-2.06h.413l-2.37,8.1Z" fill="#00223d"/>
        <path id="Trazado_39179" data-name="Trazado 39179" d="M659.45,39.21h5.281v-5.3h.944v5.3h5.313v.945h-5.313V45.4h-.944V40.155H659.45Z" fill="#00223d"/>
        <path id="Trazado_39180" data-name="Trazado 39180" d="M671.557,46.617v-.4q.118-.053.327-.123a4.4,4.4,0,0,0,.446-.178c.215-.092.443-.2.687-.332a11.7,11.7,0,0,0,1.535-.944l1.9-1.562q.482-.377,1.906-1.6l1.185-1.036a2.525,2.525,0,0,1,.254-.2l.594-.525q-.322-.453-.488-.716a2.429,2.429,0,0,0-.136-.227q-.561-1.026-.983-1.738l-1.109-1.822a10.764,10.764,0,0,0-.962-1.575,1.831,1.831,0,0,0-.692-.6,4.642,4.642,0,0,0-1.464-.3,3.62,3.62,0,0,1-.461-.065l-.022-.387h.548l1.781.054a2.949,2.949,0,0,0,.333-.032q1.074.054,1.6.054l1.2-.022c.164,0,.32.006.467.017s.266.015.359.015h.2c.007.108.011.187.011.237v.15a5.493,5.493,0,0,0-2,.268c-.143.071-.214.161-.214.268l.01.1a4.851,4.851,0,0,0,.256.548q.064.106,1.8,3.22.678,1.2.99,1.649.129-.1,2.179-1.917,1.75-1.557,2.383-2.26a5.621,5.621,0,0,0,.725-.9.808.808,0,0,0,.091-.306.35.35,0,0,0-.161-.311,4.477,4.477,0,0,0-1.514-.418V32.62a.992.992,0,0,1,.053-.268l.129-.011h.515l1.084-.011.3.033q.075,0,1.91.075h.462c.05,0,.164,0,.343.011l-.01.419a4.536,4.536,0,0,0-2.264,1.148q-.216.161-.505.364-.138.108-.993.813l-1.242,1.172a6.351,6.351,0,0,0-.524.429q-.546.519-2.718,2.434.762,1.394,1.877,3.248.9,1.512,1.281,2.059l.548.773a5.534,5.534,0,0,0,.687.5c.157.071.314.14.472.2a5.3,5.3,0,0,1,.719.344l.011.118a1.373,1.373,0,0,1-.022.2,9.368,9.368,0,0,1-1.2-.118,11.99,11.99,0,0,0-1.733-.118q-.493,0-2.737.086c-.007-.108-.011-.186-.011-.237s0-.139.011-.247c.208-.028.4-.046.581-.054a1.968,1.968,0,0,0,1.076-.289.439.439,0,0,0,.236-.376,1.9,1.9,0,0,0-.29-.815q-1.019-1.881-2.166-3.643-.333-.54-.438-.735A34.66,34.66,0,0,0,677.9,42.4a18.776,18.776,0,0,0-2.526,2.577.942.942,0,0,0-.182.5.374.374,0,0,0,.182.28,2.377,2.377,0,0,0,1.057.378c.149.029.287.058.415.086-.022.108-.05.222-.086.344-.093.007-.161.011-.2.011l-.2.01-.182-.01-1.211-.081c-.45-.04-.735-.059-.857-.059l-1.81.107A5.213,5.213,0,0,1,671.557,46.617Z" fill="#00223d"/>
        <path id="Trazado_39181" data-name="Trazado 39181" d="M692.92,53.02l-.207.788h-4.468l.036-.169q2.548-2.409,3.412-3.311a7.909,7.909,0,0,0,1.389-1.807,2.223,2.223,0,0,0,.213-.995,1.321,1.321,0,0,0-.3-.936,1.09,1.09,0,0,0-.835-.316,1.651,1.651,0,0,0-1.027.322,3.149,3.149,0,0,0-.826,1.18h-.338a3.28,3.28,0,0,1,.983-1.562,2.169,2.169,0,0,1,1.395-.51,1.939,1.939,0,0,1,1.4.489,1.683,1.683,0,0,1,.507,1.27,2.149,2.149,0,0,1-.138.794,3.24,3.24,0,0,1-.613.955q-.438.5-1.915,1.8l-2.24,2Z" fill="#00223d"/>
        <path id="Trazado_39182" data-name="Trazado 39182" d="M696.369,39.21h5.281v-5.3h.944v5.3h5.313v.945h-5.313V45.4h-.944V40.155h-5.281Z" fill="#00223d"/>
        <path id="Trazado_39183" data-name="Trazado 39183" d="M708.476,46.617v-.4q.118-.053.327-.123a4.4,4.4,0,0,0,.446-.178c.215-.092.443-.2.687-.332a11.694,11.694,0,0,0,1.535-.944l1.9-1.562q.482-.377,1.906-1.6l1.185-1.036a2.525,2.525,0,0,1,.254-.2l.594-.525c-.215-.3-.377-.54-.488-.716a2.442,2.442,0,0,0-.136-.227q-.561-1.026-.983-1.738L714.6,35.215a10.769,10.769,0,0,0-.962-1.575,1.831,1.831,0,0,0-.692-.6,4.642,4.642,0,0,0-1.464-.3,3.594,3.594,0,0,1-.461-.065L711,32.287h.548l1.781.054a2.947,2.947,0,0,0,.333-.032q1.074.054,1.6.054l1.2-.022c.164,0,.32.006.467.017s.266.015.359.015h.2c.007.108.011.187.011.237v.15a5.493,5.493,0,0,0-2,.268c-.143.071-.215.161-.215.268l.011.1a4.851,4.851,0,0,0,.256.548q.064.106,1.8,3.22.678,1.2.99,1.649.129-.1,2.179-1.917,1.75-1.557,2.383-2.26a5.621,5.621,0,0,0,.725-.9.809.809,0,0,0,.091-.306.352.352,0,0,0-.161-.311,4.477,4.477,0,0,0-1.514-.418V32.62a.953.953,0,0,1,.053-.268l.129-.011h.515l1.084-.011.3.033q.075,0,1.91.075h.462c.05,0,.164,0,.343.011l-.01.419a4.538,4.538,0,0,0-2.265,1.148q-.215.161-.5.364-.138.108-.993.813l-1.242,1.172a6.358,6.358,0,0,0-.524.429q-.546.519-2.718,2.434.762,1.394,1.877,3.248.9,1.512,1.281,2.059l.547.773a5.624,5.624,0,0,0,.687.5c.158.071.315.14.473.2a5.3,5.3,0,0,1,.719.344l.01.118a1.349,1.349,0,0,1-.021.2,9.367,9.367,0,0,1-1.2-.118,11.99,11.99,0,0,0-1.733-.118q-.493,0-2.737.086c-.007-.108-.011-.186-.011-.237s0-.139.011-.247c.208-.028.4-.046.581-.054a1.971,1.971,0,0,0,1.076-.289.439.439,0,0,0,.236-.376,1.9,1.9,0,0,0-.29-.815q-1.019-1.881-2.166-3.643c-.223-.36-.368-.6-.438-.735a34.474,34.474,0,0,0-2.678,2.266,18.776,18.776,0,0,0-2.526,2.577.942.942,0,0,0-.182.5.374.374,0,0,0,.182.28,2.377,2.377,0,0,0,1.057.378c.149.029.287.058.414.086-.021.108-.05.222-.085.344-.093.007-.161.011-.2.011l-.2.01-.182-.01-1.211-.081c-.45-.04-.735-.059-.857-.059l-1.81.107A5.213,5.213,0,0,1,708.476,46.617Z" fill="#00223d"/>
        <path id="Trazado_39184" data-name="Trazado 39184" d="M727.893,47.181l-.257-.112a1.883,1.883,0,0,1,.7-.989,1.8,1.8,0,0,1,1.1-.376,1.42,1.42,0,0,1,.995.313,1.032,1.032,0,0,1,.338.789,1.2,1.2,0,0,1-.151.585,1.674,1.674,0,0,1-.444.5q-.125.1-1.164.807a1.679,1.679,0,0,1,.942.5,1.292,1.292,0,0,1,.291.86,3.381,3.381,0,0,1-.607,1.78,4.343,4.343,0,0,1-1.727,1.539,4.947,4.947,0,0,1-2.3.579q-.125,0-.375-.006l.056-.263a4.338,4.338,0,0,0,1.508-.272,3.885,3.885,0,0,0,1.3-.786,4.357,4.357,0,0,0,.9-1.154,2.56,2.56,0,0,0,.344-1.2,1.02,1.02,0,0,0-.247-.723.82.82,0,0,0-.629-.266,1.373,1.373,0,0,0-.6.181,2.877,2.877,0,0,0-.713.47.59.59,0,0,1-.175-.232,7.085,7.085,0,0,1,.951-.675,9.545,9.545,0,0,0,1.132-.751,2.452,2.452,0,0,0,.595-.682,1.5,1.5,0,0,0,.194-.733.616.616,0,0,0-.194-.465.713.713,0,0,0-.513-.186,1.224,1.224,0,0,0-.682.229A1.614,1.614,0,0,0,727.893,47.181Z" fill="#00223d"/>
        <path id="Trazado_39185" data-name="Trazado 39185" d="M733.288,39.21h5.281v-5.3h.944v5.3h5.313v.945h-5.313V45.4h-.944V40.155h-5.281Z" fill="#00223d"/>
        <path id="Trazado_39186" data-name="Trazado 39186" d="M746.511,45.618a1.142,1.142,0,0,1,.349-.827,1.108,1.108,0,0,1,.81-.353,1,1,0,0,1,.763.332,1.271,1.271,0,0,1-.017,1.685,1.066,1.066,0,0,1-1.572,0A1.167,1.167,0,0,1,746.511,45.618Z" fill="#00223d"/>
        <path id="Trazado_39187" data-name="Trazado 39187" d="M751.32,45.618a1.142,1.142,0,0,1,.349-.827,1.1,1.1,0,0,1,.81-.353,1,1,0,0,1,.762.332,1.272,1.272,0,0,1-.016,1.685,1.066,1.066,0,0,1-1.572,0A1.167,1.167,0,0,1,751.32,45.618Z" fill="#00223d"/>
        <path id="Trazado_39188" data-name="Trazado 39188" d="M756.128,45.618a1.142,1.142,0,0,1,.349-.827,1.108,1.108,0,0,1,.81-.353,1,1,0,0,1,.762.332,1.269,1.269,0,0,1-.016,1.685,1.066,1.066,0,0,1-1.572,0A1.167,1.167,0,0,1,756.128,45.618Z" fill="#00223d"/>
        <path id="Trazado_39189" data-name="Trazado 39189" d="M762.364,39.21h5.281v-5.3h.945v5.3H773.9v.945H768.59V45.4h-.945V40.155h-5.281Z" fill="#00223d"/>
        <path id="Trazado_39190" data-name="Trazado 39190" d="M774.471,46.617v-.4c.079-.035.188-.076.328-.123a4.388,4.388,0,0,0,.445-.178q.322-.138.687-.332a11.7,11.7,0,0,0,1.535-.944l1.9-1.562q.482-.377,1.906-1.6l1.185-1.036a2.525,2.525,0,0,1,.254-.2l.594-.525q-.321-.453-.488-.716a2.429,2.429,0,0,0-.136-.227q-.559-1.026-.983-1.738l-1.109-1.822a10.675,10.675,0,0,0-.962-1.575,1.831,1.831,0,0,0-.692-.6,4.642,4.642,0,0,0-1.464-.3,3.646,3.646,0,0,1-.461-.065l-.021-.387h.547l1.782.054a2.958,2.958,0,0,0,.332-.032q1.074.054,1.6.054l1.2-.022c.164,0,.32.006.467.017s.266.015.359.015h.2c.007.108.011.187.011.237v.15a5.486,5.486,0,0,0-2,.268c-.144.071-.215.161-.215.268l.01.1a4.757,4.757,0,0,0,.257.548q.063.106,1.8,3.22.678,1.2.99,1.649.129-.1,2.179-1.917,1.75-1.557,2.383-2.26a5.621,5.621,0,0,0,.725-.9.809.809,0,0,0,.091-.306.35.35,0,0,0-.161-.311,4.477,4.477,0,0,0-1.514-.418V32.62a.962.962,0,0,1,.054-.268l.128-.011h.516l1.084-.011.3.033q.075,0,1.911.075h.461c.05,0,.165,0,.344.011l-.011.419a4.536,4.536,0,0,0-2.264,1.148q-.215.161-.505.364-.138.108-.992.813l-1.242,1.172a6.413,6.413,0,0,0-.525.429q-.544.519-2.718,2.434.762,1.394,1.877,3.248.9,1.512,1.281,2.059l.548.773a5.616,5.616,0,0,0,.687.5c.157.071.314.14.472.2a5.3,5.3,0,0,1,.719.344l.011.118a1.253,1.253,0,0,1-.022.2,9.357,9.357,0,0,1-1.2-.118,12.014,12.014,0,0,0-1.734-.118q-.493,0-2.737.086c-.007-.108-.011-.186-.011-.237s0-.139.011-.247q.312-.042.581-.054a1.968,1.968,0,0,0,1.076-.289.439.439,0,0,0,.236-.376,1.881,1.881,0,0,0-.29-.815q-1.019-1.881-2.166-3.643-.333-.54-.438-.735a34.66,34.66,0,0,0-2.678,2.266,18.776,18.776,0,0,0-2.526,2.577.951.951,0,0,0-.182.5.377.377,0,0,0,.182.28,2.377,2.377,0,0,0,1.057.378c.149.029.287.058.415.086-.022.108-.05.222-.086.344-.093.007-.161.011-.2.011l-.2.01-.182-.01-1.21-.081c-.45-.04-.736-.059-.857-.059l-1.811.107A5.213,5.213,0,0,1,774.471,46.617Z" fill="#00223d"/>
        <path id="Trazado_39191" data-name="Trazado 39191" d="M793.212,49.471a.13.13,0,0,0-.034-.068.078.078,0,0,0-.053-.019q-.325,0-1.014,1.026c-.046,0-.079.006-.1.006s-.067,0-.125-.006a4.777,4.777,0,0,1,.428-.664,3.575,3.575,0,0,1,.631-.666,2.954,2.954,0,0,1,.635-.4.462.462,0,0,1,.181-.044.84.84,0,0,1,.094.007.326.326,0,0,1,.113.23.779.779,0,0,1-.016.151c-.011.05-.032.127-.066.231-.125.359-.217.611-.275.758l-.356.926c-.083.213-.165.438-.244.676.033-.041.063-.082.088-.119a18.352,18.352,0,0,1,1.255-1.631,5.248,5.248,0,0,1,1.112-1.041,1.137,1.137,0,0,1,.594-.194.452.452,0,0,1,.332.116.4.4,0,0,1,.119.3.947.947,0,0,1-.025.22,4.752,4.752,0,0,1-.194.663q-.15.425-.789,1.846l-.626,1.445-.025.081a.249.249,0,0,0,.043.112q.351-.073,1.052-1.113l.256.006a6.78,6.78,0,0,1-.638.9,2.826,2.826,0,0,1-.738.651.9.9,0,0,1-.47.132.349.349,0,0,1-.225-.063.18.18,0,0,1-.075-.138,2.829,2.829,0,0,1,.319-1.026l.907-1.983.351-.833a2.9,2.9,0,0,0,.144-.381.982.982,0,0,0,.025-.213.181.181,0,0,0-.044-.129.148.148,0,0,0-.113-.047.447.447,0,0,0-.231.082,4.275,4.275,0,0,0-1.021.944,15.455,15.455,0,0,0-1.064,1.383,17.193,17.193,0,0,0-1.144,2.121.616.616,0,0,1-.182.257,1.451,1.451,0,0,1-.2.019,1.508,1.508,0,0,1-.25-.031.194.194,0,0,1-.025-.082.966.966,0,0,1,.062-.225q.138-.406.676-1.714l.144-.338Z" fill="#00223d"/>
      </g>
    </g>
    <g id="Grupo_11896" data-name="Grupo 11896">
      <g id="Grupo_11895" data-name="Grupo 11895">
        <path id="Trazado_39192" data-name="Trazado 39192" d="M706.256,82.59a5.816,5.816,0,0,1,.664-.074q.453-.031.707-.074a1.674,1.674,0,0,0,.98-.329.892.892,0,0,0,.264-.521l.641-2.962q.163-.793.261-1.127l.032-.268.511-2.77a4.291,4.291,0,0,1,.174-.772,8.1,8.1,0,0,0,.228-1.589l.163-.794.14-1.357a.276.276,0,0,0-.14-.266,9.955,9.955,0,0,0-2.156-.427l.1-.344,3.983-.021a1.432,1.432,0,0,1,.2.29c.087.142.283.433.587.869l.619.869q.371.6.761,1.181t.728,1.17q.24.4,3.358,5.292.586.912.815,1.32.425.772.891,1.513c.09-.444.163-.908.218-1.4q.435-2.073.508-2.791c.028-.264.063-.515.1-.751.035-.158.08-.447.135-.87l.166-1.2q.01-.2.249-1.862a19.382,19.382,0,0,0,.239-2.255,1.711,1.711,0,0,0-.1-.48,5.119,5.119,0,0,0-1.563-.393c-.292-.051-.521-.094-.689-.129a1.325,1.325,0,0,1-.032-.247v-.1l.139-.011q.2,0,2.63.12c.279.013.468.02.569.02q.708,0,1.406-.064.493-.043.762-.043a2.508,2.508,0,0,1-.128.463,11.94,11.94,0,0,0-1.913.267.611.611,0,0,0-.3.185,4.358,4.358,0,0,0-.25.984q-.228,1.245-.3,1.825t-.155.977q-.105.547-.135.729l-.4,2.931-.726,4.379q-.219,1.438-.229,1.685H720.7c-.072,0-.182-.007-.332-.021a9.784,9.784,0,0,0-.511-.848l-3.108-4.8q-.207-.312-.358-.58l-.783-1.158-2.477-3.849q-.512-.774-.87-1.212a2.4,2.4,0,0,0-.2-.306q-.109-.146-.261-.392c-.036-.049-.087-.128-.152-.236q-.087.322-.229,1.17l-.249,1.374q-.2,1.191-.674,3.617l-.25,1.288-.261,1.91a14.766,14.766,0,0,1-.25,1.482,5.276,5.276,0,0,0-.152,1.105.432.432,0,0,0,.139.28,5.805,5.805,0,0,0,.7.224,4.457,4.457,0,0,0,.621.129q.075.012,1.146.269l-.095.376c-.171-.036-.469-.075-.9-.118q-1.491-.151-2.088-.151c-.185,0-.419.007-.7.022q-1.226.054-1.566.053c-.121,0-.316,0-.586-.01Z" fill="#00223d"/>
      </g>
    </g>
    <g id="Grupo_11898" data-name="Grupo 11898">
      <g id="Grupo_11897" data-name="Grupo 11897">
        <path id="Trazado_39193" data-name="Trazado 39193" d="M838.266,51.372l3.425-11.763a17.21,17.21,0,0,1-3.542,2.007l-.043-.6a14.211,14.211,0,0,0,4.992-3.531h.708L839.74,51.372Z" fill="#00223d"/>
      </g>
    </g>
    <g id="Grupo_11900" data-name="Grupo 11900">
      <g id="Grupo_11899" data-name="Grupo 11899">
        <path id="Trazado_39194" data-name="Trazado 39194" d="M833.1,85.033a5.736,5.736,0,0,1,.664-.075c.3-.02.538-.046.707-.074a1.668,1.668,0,0,0,.98-.329.9.9,0,0,0,.264-.52l.641-2.962c.109-.53.2-.906.261-1.127l.032-.269.511-2.769a4.315,4.315,0,0,1,.174-.773,8.172,8.172,0,0,0,.228-1.589l.163-.794.14-1.356a.277.277,0,0,0-.14-.267,9.957,9.957,0,0,0-2.156-.427l.1-.343,3.983-.022a1.507,1.507,0,0,1,.2.29q.13.214.587.869l.619.87q.371.6.761,1.18t.728,1.17q.24.4,3.358,5.292.586.913.815,1.32.423.772.891,1.513.135-.665.218-1.394.435-2.073.508-2.791c.028-.265.062-.516.1-.751.035-.159.08-.448.135-.87l.166-1.2q.011-.2.249-1.862a19.339,19.339,0,0,0,.239-2.255,1.706,1.706,0,0,0-.1-.479,5.079,5.079,0,0,0-1.563-.394c-.292-.051-.521-.094-.689-.129a1.325,1.325,0,0,1-.033-.247v-.1l.14-.01q.2,0,2.63.12c.279.013.468.019.569.019q.708,0,1.4-.064c.329-.028.584-.043.763-.043a2.541,2.541,0,0,1-.128.464,11.987,11.987,0,0,0-1.913.266.618.618,0,0,0-.3.185,4.354,4.354,0,0,0-.25.984q-.228,1.245-.3,1.826c-.048.385-.1.711-.155.976-.07.365-.115.609-.136.73l-.4,2.93-.726,4.379q-.219,1.438-.229,1.686h-.256c-.072,0-.182-.008-.332-.022q-.218-.408-.511-.847L843.6,80.143q-.207-.311-.358-.579l-.783-1.158-2.477-3.85q-.512-.774-.87-1.212a2.476,2.476,0,0,0-.2-.306c-.073-.1-.16-.227-.261-.391-.036-.05-.087-.129-.152-.237q-.087.322-.229,1.17l-.249,1.374q-.2,1.191-.674,3.618l-.25,1.288-.261,1.91q-.1.806-.25,1.481a5.293,5.293,0,0,0-.152,1.106.431.431,0,0,0,.139.279,5.784,5.784,0,0,0,.7.225,4.458,4.458,0,0,0,.621.129q.075.011,1.146.268l-.1.376q-.255-.054-.9-.118-1.491-.151-2.088-.15c-.185,0-.42.006-.7.021q-1.225.054-1.566.054c-.121,0-.316,0-.586-.011Z" fill="#00223d"/>
      </g>
    </g>
    <g id="Grupo_11902" data-name="Grupo 11902">
      <g id="Grupo_11901" data-name="Grupo 11901">
        <path id="Trazado_39195" data-name="Trazado 39195" d="M866.786,29.251a6,6,0,0,1,.664-.074c.3-.02.538-.046.706-.074a1.675,1.675,0,0,0,.981-.329.9.9,0,0,0,.264-.521l.641-2.962q.162-.794.26-1.127l.033-.268.511-2.77a4.285,4.285,0,0,1,.173-.772,8.08,8.08,0,0,0,.229-1.589l.163-.794.139-1.356a.276.276,0,0,0-.139-.267,9.957,9.957,0,0,0-2.157-.427l.1-.344,3.983-.021a1.438,1.438,0,0,1,.2.29q.13.215.587.869l.619.869q.369.6.761,1.181t.728,1.17q.238.4,3.358,5.292.586.912.815,1.32.423.772.891,1.513.135-.664.218-1.395.435-2.072.508-2.791c.028-.264.062-.515.1-.751.034-.158.079-.447.135-.87l.166-1.2q.011-.2.249-1.862a19.382,19.382,0,0,0,.239-2.255,1.748,1.748,0,0,0-.1-.48,5.119,5.119,0,0,0-1.563-.393c-.292-.051-.521-.094-.689-.129a1.319,1.319,0,0,1-.033-.247v-.1l.14-.011q.2,0,2.629.121c.279.012.469.019.569.019q.708,0,1.406-.064.493-.044.762-.043a2.544,2.544,0,0,1-.127.464,11.843,11.843,0,0,0-1.913.266.619.619,0,0,0-.3.185,4.384,4.384,0,0,0-.249.984q-.228,1.245-.3,1.825c-.049.386-.1.712-.156.977q-.1.547-.135.729l-.4,2.931-.727,4.379q-.218,1.438-.228,1.685h-.257c-.071,0-.182-.007-.332-.021-.144-.272-.315-.555-.51-.848l-3.108-4.8c-.138-.207-.257-.4-.359-.579l-.782-1.159-2.478-3.849q-.51-.774-.869-1.212a2.307,2.307,0,0,0-.2-.306q-.108-.146-.261-.391c-.036-.05-.087-.129-.151-.237q-.088.323-.229,1.17l-.25,1.374q-.2,1.191-.673,3.617l-.25,1.288-.261,1.911q-.1.805-.25,1.481a5.212,5.212,0,0,0-.152,1.106.433.433,0,0,0,.139.279,5.745,5.745,0,0,0,.7.224,4.458,4.458,0,0,0,.621.129q.075.012,1.146.269l-.1.376c-.17-.036-.469-.075-.9-.118q-1.491-.151-2.088-.151-.278,0-.7.022-1.226.054-1.566.054c-.121,0-.316,0-.586-.011Z" fill="#00223d"/>
      </g>
    </g>
    <g id="Grupo_11904" data-name="Grupo 11904">
      <g id="Grupo_11903" data-name="Grupo 11903">
        <path id="Trazado_39196" data-name="Trazado 39196" d="M870.95,101.64a1.283,1.283,0,0,0-.333.032,4.748,4.748,0,0,0-.74.461,6.133,6.133,0,0,0-.912.881l-.623.139a6.793,6.793,0,0,1,1.837-1.749,3.348,3.348,0,0,1,1.589-.634.5.5,0,0,1,.37.124.424.424,0,0,1,.124.316,4.8,4.8,0,0,1-.6,1.751c-.05.1-.169.358-.355.773q-.645,1.405-1.375,2.661-.237.408-.516.966-.15.3-.268.5a1.911,1.911,0,0,0-.333.827.187.187,0,0,0,.059.134.2.2,0,0,0,.145.059.878.878,0,0,0,.359-.129,5.269,5.269,0,0,0,.963-.714,5.932,5.932,0,0,0,.986-1.143h.472a8.928,8.928,0,0,1-.96,1.331,5.182,5.182,0,0,1-1.442,1.2,2.257,2.257,0,0,1-1.077.344.8.8,0,0,1-.528-.146.477.477,0,0,1-.168-.381,8.706,8.706,0,0,1,1.213-3.112l1.728-3.263a6.888,6.888,0,0,0,.375-.795.938.938,0,0,0,.065-.246A.657.657,0,0,0,870.95,101.64Zm.612-4.819a.934.934,0,0,1,.29-.671.913.913,0,0,1,.676-.295.849.849,0,0,1,.622.257.813.813,0,0,1,.258.59,1.139,1.139,0,0,1-.322.784.963.963,0,0,1-.708.2.783.783,0,0,1-.58-.237A.855.855,0,0,1,871.562,96.821Z" fill="#00223d"/>
        <path id="Trazado_39197" data-name="Trazado 39197" d="M874.385,99.729H885.88v.945H874.385Zm0,4.97H885.88v.955H874.385Z" fill="#00223d"/>
        <path id="Trazado_39198" data-name="Trazado 39198" d="M890.018,109.518l3.425-11.764a17.218,17.218,0,0,1-3.543,2.007l-.043-.6a14.211,14.211,0,0,0,4.992-3.531h.709l-4.066,13.889Z" fill="#00223d"/>
      </g>
    </g>
    <g id="Grupo_11906" data-name="Grupo 11906" transform="translate(-26)">
      <g id="Grupo_11905" data-name="Grupo 11905">
        <path id="Trazado_39199" data-name="Trazado 39199" d="M932.084,62.613c-.036.1-.064.174-.086.225a2.38,2.38,0,0,0-.2.665.37.37,0,0,0,.119.269.381.381,0,0,0,.278.118.642.642,0,0,0,.28-.063,9.4,9.4,0,0,0,1.685-1.318q1.223-1.1,1.888-1.8a9.482,9.482,0,0,0-.6-1.167l-1.1-1.868a1.646,1.646,0,0,0-.408-.44.506.506,0,0,0-.257-.075.367.367,0,0,0-.3.15q-.183,1.374-.236,1.578a.976.976,0,0,1-.344-.408,2.312,2.312,0,0,1-.171-.955,2.2,2.2,0,0,1,.322-1.106q.323-.558.7-.558a1.273,1.273,0,0,1,.858.419,15.8,15.8,0,0,1,2.047,3.135c.153.273.262.455.327.549l2.07-1.87a23.63,23.63,0,0,1,2.168-1.793,2.356,2.356,0,0,1,.612-.311.88.88,0,0,1,.3-.054.5.5,0,0,1,.392.2.816.816,0,0,1,.166.542,1.726,1.726,0,0,1-.633,1.449.931.931,0,0,1-.365.128,1.421,1.421,0,0,1-.376-.064,1.88,1.88,0,0,0,.43-.783.489.489,0,0,0-.129-.323.917.917,0,0,0-.182-.032,1.173,1.173,0,0,0-.344.086,4.964,4.964,0,0,0-.708.43,14.7,14.7,0,0,0-1.663,1.364l-1.469,1.4a29.835,29.835,0,0,0,1.633,2.9.541.541,0,0,0,.4.26.433.433,0,0,0,.328-.172c.161-.172.243-.3.243-.376l-.043-.719.021-.1a.433.433,0,0,1,.23.054,1.811,1.811,0,0,1,.275,1.063,3.144,3.144,0,0,1-.172.752,1.23,1.23,0,0,1-.386.6.847.847,0,0,1-.537.22.89.89,0,0,1-.521-.178,4.854,4.854,0,0,1-.831-.992q-.086-.141-1.079-1.866l-.407-.639q-.162.15-.908.863a23.027,23.027,0,0,1-2.812,2.447,2.072,2.072,0,0,1-1.052.387.99.99,0,0,1-.708-.265.875.875,0,0,1-.28-.663,1.313,1.313,0,0,1,.4-.911,1.125,1.125,0,0,1,.789-.426A1.619,1.619,0,0,1,932.084,62.613Z" fill="#00223d"/>
        <path id="Trazado_39200" data-name="Trazado 39200" d="M943.639,67.336a.709.709,0,0,0-.194.019,2.783,2.783,0,0,0-.432.269,3.657,3.657,0,0,0-.532.513l-.362.081a3.975,3.975,0,0,1,1.07-1.019,1.944,1.944,0,0,1,.927-.37.289.289,0,0,1,.216.073.249.249,0,0,1,.072.184,2.8,2.8,0,0,1-.351,1.021c-.029.057-.1.208-.206.45q-.376.819-.8,1.552-.138.237-.3.562-.087.176-.156.294a1.106,1.106,0,0,0-.194.483.109.109,0,0,0,.034.078.119.119,0,0,0,.085.034.515.515,0,0,0,.209-.075,3.008,3.008,0,0,0,.561-.416,3.474,3.474,0,0,0,.575-.666h.275a5.245,5.245,0,0,1-.559.775,3.036,3.036,0,0,1-.841.7,1.316,1.316,0,0,1-.628.2.463.463,0,0,1-.308-.085.276.276,0,0,1-.1-.221,5.083,5.083,0,0,1,.707-1.815l1.008-1.9a4.159,4.159,0,0,0,.219-.464.528.528,0,0,0,.037-.143A.377.377,0,0,0,943.639,67.336ZM944,64.527a.581.581,0,0,1,.563-.564.492.492,0,0,1,.363.151.47.47,0,0,1,.15.343.664.664,0,0,1-.188.457.562.562,0,0,1-.413.12.46.46,0,0,1-.338-.138A.5.5,0,0,1,944,64.527Z" fill="#00223d"/>
      </g>
    </g>
    <path id="Trazado_39201" data-name="Trazado 39201" d="M890.635,43.336h3.191V36.6H860.5l18.082,23.754L858.726,86.59h35.1V77.372H890.99v5.673H865.463l17.373-21.982L866.526,38.372l24.464-.355Z" fill="#00223d"/>
    <line id="Línea_183" data-name="Línea 183" x2="166.872" transform="translate(631.542 59.881)" fill="none" stroke="#00223d" stroke-miterlimit="10" stroke-width="1"/>
    <line id="Línea_184" data-name="Línea 184" x2="32.618" transform="translate(825.438 59.881)" fill="none" stroke="#00223d" stroke-miterlimit="10" stroke-width="1"/>
    <g id="Grupo_11909" data-name="Grupo 11909">
      <g id="Grupo_11908" data-name="Grupo 11908">
        <g id="Grupo_11907" data-name="Grupo 11907">
          <path id="Trazado_39202" data-name="Trazado 39202" d="M593.336,65.1c-.036.1-.064.175-.086.226a2.37,2.37,0,0,0-.2.665.373.373,0,0,0,.118.268.385.385,0,0,0,.279.118.642.642,0,0,0,.28-.062,9.453,9.453,0,0,0,1.685-1.318q1.223-1.1,1.888-1.8a9.411,9.411,0,0,0-.6-1.167l-1.1-1.868a1.653,1.653,0,0,0-.408-.441.506.506,0,0,0-.257-.075.37.37,0,0,0-.3.15q-.183,1.374-.236,1.578a.97.97,0,0,1-.344-.408,2.309,2.309,0,0,1-.171-.955,2.194,2.194,0,0,1,.322-1.1q.321-.558.7-.559a1.276,1.276,0,0,1,.859.419A15.81,15.81,0,0,1,597.8,61.9q.23.408.327.549l2.07-1.87a23.469,23.469,0,0,1,2.168-1.793,2.361,2.361,0,0,1,.612-.312.906.906,0,0,1,.3-.054.5.5,0,0,1,.392.2.813.813,0,0,1,.166.542,1.727,1.727,0,0,1-.633,1.449.931.931,0,0,1-.365.128,1.429,1.429,0,0,1-.376-.065,1.874,1.874,0,0,0,.43-.783.487.487,0,0,0-.129-.322.843.843,0,0,0-.183-.032,1.2,1.2,0,0,0-.343.085,5.066,5.066,0,0,0-.708.43,14.7,14.7,0,0,0-1.663,1.364l-1.469,1.395a29.353,29.353,0,0,0,1.633,2.9.54.54,0,0,0,.4.26.43.43,0,0,0,.328-.172q.243-.258.243-.376l-.043-.718.021-.1a.424.424,0,0,1,.23.054,1.805,1.805,0,0,1,.275,1.062,3.121,3.121,0,0,1-.172.752,1.232,1.232,0,0,1-.387.6.848.848,0,0,1-.536.22.9.9,0,0,1-.521-.178,4.88,4.88,0,0,1-.832-.992q-.084-.141-1.079-1.867l-.406-.638q-.162.148-.908.862a22.861,22.861,0,0,1-2.812,2.447,2.072,2.072,0,0,1-1.052.387.99.99,0,0,1-.708-.265.868.868,0,0,1-.279-.663,1.312,1.312,0,0,1,.4-.911,1.125,1.125,0,0,1,.789-.426A1.619,1.619,0,0,1,593.336,65.1Z" fill="#00223d"/>
          <path id="Trazado_39203" data-name="Trazado 39203" d="M610.434,57.3h11.5v.945h-11.5Zm0,4.97h11.5v.955h-11.5Z" fill="#00223d"/>
        </g>
      </g>
      <line id="Línea_185" data-name="Línea 185" x2="9.218" transform="translate(593.724 56.139)" fill="none" stroke="#00223d" stroke-miterlimit="10" stroke-width="1"/>
    </g>
    <rect id="Rectángulo_3876" data-name="Rectángulo 3876" width="387.097" height="114.581" transform="translate(557.048 6.581)" fill="none" stroke="#adcbf7" stroke-miterlimit="10" stroke-width="3"/>
  </g>
</svg>
