<svg xmlns="http://www.w3.org/2000/svg" width="124.094" height="51.742" viewBox="0 0 124.094 51.742">
  <g id="Grupo_17846" data-name="Grupo 17846" transform="translate(-967.997 -1610)">
    <g id="Grupo_16795" data-name="Grupo 16795" transform="translate(389.017 835.881)">
      <path id="Trazado_45038" data-name="Trazado 45038" d="M588.61,802.738c.029,7.228.3,14.459.591,21.681a1.354,1.354,0,0,0,1.336,1.336c22.949-.116,45.9-.207,68.851-.081,4.652.025,9.307.041,13.959.184,3.829.117,5.427-2.8,8.111-5.457,2.832-2.8,6.364-4.772,6.451-8.877q.176-8.532.352-17.065a1.336,1.336,0,0,0-2.67,0q-.159,7.7-.319,15.4-.03,1.443-.059,2.886c-.03,1.4.87-.676-.247.428q-3.094,3.065-6.192,6.124-1.406,1.394-2.814,2.785c-.329.324-.656.65-.984.974-.819.81-.492.163.095.208-1.251-.1-2.512-.1-3.766-.131-4.978-.11-9.959-.124-14.938-.146-21.942-.1-43.886-.015-65.83.095.444.446.89.889,1.336,1.335-.291-7.222-.564-14.453-.592-21.681a1.336,1.336,0,0,0-2.671,0Z" fill="#575756"/>
    </g>
    <g id="Grupo_16796" data-name="Grupo 16796" transform="translate(389.017 835.881)">
      <path id="Trazado_45039" data-name="Trazado 45039" d="M673.173,801.752c.157,7.093.372,14.192.4,21.288a1.335,1.335,0,0,0,2.669,0c-.021-7.1-.237-14.2-.394-21.288a1.336,1.336,0,0,0-2.67,0Z" fill="#575756"/>
    </g>
    <g id="Grupo_16797" data-name="Grupo 16797" transform="translate(389.017 835.881)">
      <path id="Trazado_45040" data-name="Trazado 45040" d="M585.653,797.416c.119,1.654.381,3.247.64,4.887a1.325,1.325,0,0,0,1.287.98c21.431-.053,42.862-.542,64.293-.7,8.075-.058,16.423-.65,24.479.089,1.121.1,2.522-1.306,3.355-1.857l8.093-5.356c4.171-2.761,4.008-3.118,4.008-8.3a1.346,1.346,0,0,0-2.008-1.153l-12.371,7.831c-3.034,1.921-1.818,1.841-4.825,1.853q-13.992.066-27.983.127l-57.632.258a1.337,1.337,0,0,0,0,2.672l58.734-.266,27.622-.123c2.034-.009,2.861-.589,4.665-1.73l13.139-8.316q-1.006-.576-2.009-1.153v4.656q1.078-1.221.335-.664l-5.72,3.787q-3.366,2.226-6.73,4.454c-1.494.989-.208.6-1.9.54-9.223-.336-18.493-.059-27.718.014q-19.218.153-38.435.407-7.463.09-14.924.184l-4.361.052-1.361.013-.454,0c1.231-.009.528-2.1.451-3.2C588.2,795.709,585.531,795.7,585.653,797.416Z" fill="#575756"/>
    </g>
    <g id="Grupo_16798" data-name="Grupo 16798" transform="translate(389.017 835.881)">
      <path id="Trazado_45041" data-name="Trazado 45041" d="M589.043,797.187c4-3.023,7.848-6.261,11.7-9.471,1.324-1.1-.575-2.981-1.888-1.888-3.678,3.063-7.343,6.168-11.164,9.053-1.354,1.024-.027,3.345,1.35,2.306Z" fill="#575756"/>
    </g>
    <g id="Grupo_16799" data-name="Grupo 16799" transform="translate(389.017 835.881)">
      <path id="Trazado_45042" data-name="Trazado 45042" d="M592.355,802.934q.1,8.673.2,17.346a1.349,1.349,0,0,0,1.335,1.336c25.616-.146,51.284.147,76.891-.6a1.354,1.354,0,0,0,1.334-1.335q.09-8.965.183-17.93a1.336,1.336,0,0,0-2.671,0q-.09,8.964-.181,17.93.666-.669,1.335-1.335c-25.607.745-51.275.453-76.891.6l1.334,1.335q-.1-8.673-.2-17.346a1.336,1.336,0,0,0-2.67,0Z" fill="#575756"/>
    </g>
    <g id="Grupo_16800" data-name="Grupo 16800" transform="translate(389.017 835.881)">
      <path id="Trazado_45043" data-name="Trazado 45043" d="M595.6,819.409a42.048,42.048,0,0,0,5.927-4.1c1.043-.856-.445-2.326-1.476-1.479a39.065,39.065,0,0,1-5.505,3.778,1.046,1.046,0,0,0,1.054,1.8Z" fill="#575756"/>
    </g>
    <g id="Grupo_16801" data-name="Grupo 16801" transform="translate(389.017 835.881)">
      <path id="Trazado_45044" data-name="Trazado 45044" d="M599.69,776.176q-.074,8.451-.145,16.9a1.03,1.03,0,0,0,.517.9,14.066,14.066,0,0,0,9.542.676c2.079-.591,1.883-1.736,1.863-3.516l-.174-15.013a1.045,1.045,0,0,0-2.089,0q.051,4.572.106,9.144.033,2.933.067,5.869c.006.545.013,1.092.02,1.637,0-.03-2.431.266-3.245.3-.7.032-4.511-.8-4.516-.038,0-.366.005-.731.009-1.1q.025-3,.051-5.99.042-4.891.084-9.78a1.046,1.046,0,0,0-2.09,0Z" fill="#575756"/>
    </g>
    <g id="Grupo_16802" data-name="Grupo 16802" transform="translate(389.017 835.881)">
      <path id="Trazado_45045" data-name="Trazado 45045" d="M599.594,802.491c-.076,3.773-1.1,14.488,4.143,15.793,7.623,1.9,7.247-11.232,7.261-15.5a1.046,1.046,0,0,0-2.091,0c-.006,1.9-.473,17.265-5.268,13.034-1.629-1.437-1.727-4.793-1.878-6.749-.171-2.186-.121-4.39-.078-6.58a1.045,1.045,0,0,0-2.089,0Z" fill="#575756"/>
    </g>
    <g id="Grupo_16803" data-name="Grupo 16803" transform="translate(389.017 835.881)">
      <path id="Trazado_45046" data-name="Trazado 45046" d="M608.031,792.691a9.188,9.188,0,0,0,1.959-.321.7.7,0,0,0-.371-1.342,7.584,7.584,0,0,1-1.588.271.7.7,0,0,0,0,1.392Z" fill="#575756"/>
    </g>
    <g id="Grupo_16804" data-name="Grupo 16804" transform="translate(389.017 835.881)">
      <path id="Trazado_45047" data-name="Trazado 45047" d="M607.143,806.144a11.545,11.545,0,0,0,2.108-.173c.883-.162.506-1.5-.371-1.342a9.7,9.7,0,0,1-1.737.122.7.7,0,0,0,0,1.393Z" fill="#575756"/>
    </g>
    <g id="Grupo_16805" data-name="Grupo 16805" transform="translate(389.017 835.881)">
      <path id="Trazado_45048" data-name="Trazado 45048" d="M607.476,811a18.939,18.939,0,0,1,1.923-.445c.88-.176.505-1.519-.372-1.342a18.608,18.608,0,0,0-1.92.444c-.855.268-.49,1.614.369,1.343Z" fill="#575756"/>
    </g>
    <g id="Grupo_16806" data-name="Grupo 16806" transform="translate(389.017 835.881)">
      <path id="Trazado_45049" data-name="Trazado 45049" d="M620.144,775.436v17.889a1.07,1.07,0,0,0,.767,1.008c2.658.99,10.817,2.712,11.134-1.791.406-5.759.983-11.641.671-17.415-.072-1.34-2.161-1.347-2.089,0,.312,5.775-.271,11.654-.671,17.415-.085,1.233,1.137-.236-.613.4-1.062.388-7.11,1.05-7.11-.934V775.436a1.045,1.045,0,0,0-2.089,0Z" fill="#575756"/>
    </g>
    <g id="Grupo_16807" data-name="Grupo 16807" transform="translate(389.017 835.881)">
      <path id="Trazado_45050" data-name="Trazado 45050" d="M620.144,802.343c-.448,4.622-1.125,15.37,5.331,16.125,6.4.747,6.355-12.155,6.219-15.977-.048-1.344-2.138-1.348-2.089,0,.121,3.393.514,12.642-3.609,13.86-4.607,1.36-4-11.587-3.763-14.008.13-1.341-1.961-1.328-2.089,0Z" fill="#575756"/>
    </g>
    <g id="Grupo_16808" data-name="Grupo 16808" transform="translate(389.017 835.881)">
      <path id="Trazado_45051" data-name="Trazado 45051" d="M628.136,791.064a14.233,14.233,0,0,0,2.551-.172c.882-.159.508-1.5-.371-1.342a12.393,12.393,0,0,1-2.18.122.7.7,0,0,0,0,1.392Z" fill="#575756"/>
    </g>
    <g id="Grupo_16809" data-name="Grupo 16809" transform="translate(389.017 835.881)">
      <path id="Trazado_45052" data-name="Trazado 45052" d="M627.841,806.588a7.344,7.344,0,0,1,1.588.123c.876.192,1.248-1.151.372-1.343a9.02,9.02,0,0,0-1.96-.173.7.7,0,0,0,0,1.393Z" fill="#575756"/>
    </g>
    <g id="Grupo_16810" data-name="Grupo 16810" transform="translate(389.017 835.881)">
      <path id="Trazado_45053" data-name="Trazado 45053" d="M627.951,810.553a8.8,8.8,0,0,0,1.811.321c.9.035.9-1.358,0-1.392a7.157,7.157,0,0,1-1.44-.271.7.7,0,0,0-.371,1.342Z" fill="#575756"/>
    </g>
    <g id="Grupo_16811" data-name="Grupo 16811" transform="translate(389.017 835.881)">
      <path id="Trazado_45054" data-name="Trazado 45054" d="M643.65,775.732c-.017,5.72-.174,11.44-.286,17.159a1.031,1.031,0,0,0,.517.9,13.9,13.9,0,0,0,9.078.944c2.145-.485,2.393-1.571,2.37-3.422q-.088-7.569-.179-15.136a1.045,1.045,0,0,0-2.088,0l.1,8.69q.033,2.764.066,5.529c.006.647.015,1.293.022,1.941.011.912-.755.362-1.559.544a11.958,11.958,0,0,1-4.345-.112,13.273,13.273,0,0,1-1.888-.241q.049-2.525.1-5.052c.072-3.914.169-7.83.181-11.746a1.045,1.045,0,0,0-2.088,0Z" fill="#575756"/>
    </g>
    <g id="Grupo_16812" data-name="Grupo 16812" transform="translate(389.017 835.881)">
      <path id="Trazado_45055" data-name="Trazado 45055" d="M643.944,802.786c0,4.811-.28,15.973,7.118,15.282,6.028-.563,5.128-11.279,4.877-15.282-.083-1.338-2.173-1.346-2.088,0,.216,3.482,1.122,10.623-2.217,12.935-2.925,2.026-4.583-2.729-5-4.648a38.9,38.9,0,0,1-.6-8.287,1.046,1.046,0,0,0-2.091,0Z" fill="#575756"/>
    </g>
    <g id="Grupo_16813" data-name="Grupo 16813" transform="translate(389.017 835.881)">
      <path id="Trazado_45056" data-name="Trazado 45056" d="M651.161,790.744a5.832,5.832,0,0,0,1.665.173.7.7,0,0,0,0-1.393,4.5,4.5,0,0,1-1.294-.123.7.7,0,0,0-.371,1.343Z" fill="#575756"/>
    </g>
    <g id="Grupo_16814" data-name="Grupo 16814" transform="translate(389.017 835.881)">
      <path id="Trazado_45057" data-name="Trazado 45057" d="M652.715,806.711a8.075,8.075,0,0,1,1.736-.123.7.7,0,0,0,0-1.393,9.734,9.734,0,0,0-2.107.173c-.876.193-.5,1.535.371,1.343Z" fill="#575756"/>
    </g>
    <g id="Grupo_16815" data-name="Grupo 16815" transform="translate(389.017 835.881)">
      <path id="Trazado_45058" data-name="Trazado 45058" d="M652.677,809.692a11.551,11.551,0,0,0,2.108-.172c.882-.163.507-1.505-.372-1.343a9.591,9.591,0,0,1-1.736.123.7.7,0,0,0,0,1.392Z" fill="#575756"/>
    </g>
    <g id="Grupo_16816" data-name="Grupo 16816" transform="translate(389.017 835.881)">
      <path id="Trazado_45059" data-name="Trazado 45059" d="M663.9,776.324q.082,6.221.149,12.441c.013,1.33-.384,3.161.576,4.206,1.405,1.527,4.421,1.611,6.3,1.531,1.68-.072,3.639-.631,4.384-2.276.466-1.03.142-2.678.142-3.764v-11.99a1.045,1.045,0,0,0-2.089,0v13.8c0,1.724-.476,1.931-2.437,2.141-1.337.143-4.766.017-4.77-1.3,0-1.815-.028-3.629-.049-5.442q-.053-4.676-.116-9.35a1.046,1.046,0,0,0-2.09,0Z" fill="#575756"/>
    </g>
    <g id="Grupo_16817" data-name="Grupo 16817" transform="translate(389.017 835.881)">
      <path id="Trazado_45060" data-name="Trazado 45060" d="M671.9,790.621h2.365a.7.7,0,0,0,0-1.392H671.9a.7.7,0,0,0,0,1.392Z" fill="#575756"/>
    </g>
    <g id="Grupo_16818" data-name="Grupo 16818" transform="translate(389.017 835.881)">
      <path id="Trazado_45061" data-name="Trazado 45061" d="M664.2,801.193c0,3.5.012,7,.086,10.494.087,4,2.671,7.445,6.808,4.864,1.141-.712.092-2.521-1.055-1.805-4.607,2.875-3.715-6.267-3.73-8.1q-.021-2.724-.021-5.448a1.045,1.045,0,0,0-2.088,0Z" fill="#575756"/>
    </g>
    <g id="Grupo_16819" data-name="Grupo 16819" transform="translate(389.017 835.881)">
      <path id="Trazado_45062" data-name="Trazado 45062" d="M610.444,812.154l10.646-.2a1.336,1.336,0,0,0,0-2.671l-10.646.2a1.336,1.336,0,0,0,0,2.671Z" fill="#575756"/>
    </g>
    <g id="Grupo_16820" data-name="Grupo 16820" transform="translate(389.017 835.881)">
      <path id="Trazado_45063" data-name="Trazado 45063" d="M631.34,812.353c4.664-.011,9.33-.118,13.995-.2a1.336,1.336,0,0,0,0-2.671c-4.665.082-9.331.188-13.995.2a1.337,1.337,0,0,0,0,2.672Z" fill="#575756"/>
    </g>
    <g id="Grupo_16821" data-name="Grupo 16821" transform="translate(389.017 835.881)">
      <path id="Trazado_45064" data-name="Trazado 45064" d="M655.782,811.761l9.265-.2a1.336,1.336,0,0,0,0-2.671l-9.265.2a1.336,1.336,0,0,0,0,2.671Z" fill="#575756"/>
    </g>
    <g id="Grupo_16822" data-name="Grupo 16822" transform="translate(389.017 835.881)">
      <path id="Trazado_45065" data-name="Trazado 45065" d="M691.657,781.646s.308,0,.828.062a3.51,3.51,0,0,1,.952.327,5.456,5.456,0,0,1,1.126.7,8.312,8.312,0,0,1,1.1,1.075,10.814,10.814,0,0,1,1.749,3.008,14.624,14.624,0,0,1,.552,1.761,14.106,14.106,0,0,1,.269,1.824,9.587,9.587,0,0,1,.009,1.792,10.107,10.107,0,0,1-.261,1.669,8.359,8.359,0,0,1-.506,1.447,5.3,5.3,0,0,1-.675,1.117,4.028,4.028,0,0,1-.685.723,6.039,6.039,0,0,1-.712.462s.1-.316.266-.769a7.9,7.9,0,0,0,.186-.849c.086-.3.047-.71.111-1.084.015-.394-.015-.832,0-1.272-.054-.458-.054-.922-.134-1.415-.027-.244-.056-.492-.084-.742q-.077-.377-.134-.759c-.064-.512-.209-1.023-.3-1.539-.139-.5-.236-1.027-.4-1.516-.079-.244-.147-.492-.213-.739-.082-.237-.165-.47-.245-.7-.145-.478-.34-.9-.5-1.325-.2-.393-.374-.787-.56-1.134-.218-.3-.383-.689-.575-.9a5.018,5.018,0,0,0-.551-.665C691.873,781.868,691.657,781.646,691.657,781.646Z" fill="#575756"/>
    </g>
    <g id="Grupo_16823" data-name="Grupo 16823" transform="translate(389.017 835.881)">
      <path id="Trazado_45066" data-name="Trazado 45066" d="M700.722,783.519a3.1,3.1,0,0,1,.354.166,4.8,4.8,0,0,1,.755.512,5.093,5.093,0,0,1,.4.382,2.533,2.533,0,0,1,.333.547,6.14,6.14,0,0,1,.472,1.355,5.746,5.746,0,0,1-.009,1.331,3.229,3.229,0,0,1-.355,1.147,4.289,4.289,0,0,1-.506.781,2.588,2.588,0,0,1-.267.285,3.375,3.375,0,0,1-.274-.291,5.531,5.531,0,0,1-1.273-2.819,3.468,3.468,0,0,1-.072-1.035c.005-.179.059-.35.057-.543a4.739,4.739,0,0,1,.034-.558,5.054,5.054,0,0,1,.2-.894A2.593,2.593,0,0,1,700.722,783.519Z" fill="#575756"/>
    </g>
    <g id="Grupo_16824" data-name="Grupo 16824" transform="translate(389.017 835.881)">
      <path id="Trazado_45067" data-name="Trazado 45067" d="M582.455,794.459l-.121.229a3.837,3.837,0,0,0-.277.634,10.207,10.207,0,0,0-.256,1.013q-.1.6-.172,1.333c-.041.491-.062,1.022-.084,1.587s0,1.161,0,1.776c.027,1.231.1,2.545.212,3.85s.279,2.6.485,3.8c.116.595.21,1.178.348,1.712s.284,1.032.438,1.489a9.74,9.74,0,0,0,.524,1.193,5.843,5.843,0,0,0,.571.845,3.388,3.388,0,0,0,.494.476c.131.109.2.166.2.166a3.087,3.087,0,0,1-1-.194,4.3,4.3,0,0,1-1.047-.6,6.107,6.107,0,0,1-1.1-1.109,11.631,11.631,0,0,1-1.767-3.367,16.132,16.132,0,0,1-.544-2.036,19.052,19.052,0,0,1-.218-6.381,14.117,14.117,0,0,1,.979-3.61,8.061,8.061,0,0,1,.723-1.339,5.344,5.344,0,0,1,.761-.907A3.051,3.051,0,0,1,582.455,794.459Z" fill="#575756"/>
    </g>
  </g>
</svg>
