<svg xmlns="http://www.w3.org/2000/svg" width="102.734" height="56.347" viewBox="0 0 102.734 56.347">
  <g id="Grupo_16898" data-name="Grupo 16898" transform="translate(-183.961 -976.373)">
    <path id="Trazado_45141" data-name="Trazado 45141" d="M207.307,1013.342c-6.525-.347-15.094-.116-20.4,4.147-4.063,3.267-3.994,10.595.633,13.326,6.08,3.587,12.666,1.821,17.466-2.909a25.407,25.407,0,0,0,4.742-6.982c1-2.046-.779-.242,1.084-1.083q18.545-8.371,37.181-16.532c5.431-2.367,10.859-4.8,16.416-6.858,3.4-1.257,7.656-.547,11.224-1.526,4.152-1.139,7.594-4.238,10.656-7.1a1.352,1.352,0,0,0,0-1.888l-8.28-9.166a1.3,1.3,0,0,0-1.3-.344,29.544,29.544,0,0,0-11.878,7.94c-2.037,2.217-3.62,4.449-6.421,5.712q-8.584,3.872-17.163,7.763-17.32,7.836-34.636,15.679c-1.567.71-.21,3.01,1.347,2.306q20.317-9.2,40.637-18.4c4.883-2.21,11.42-3.982,15.263-7.9,1.606-1.637,2.993-3.477,4.61-5.112,1.3-1.316,7.165-6.3,8.414-4.92q3.759,4.16,7.517,8.32V985.94c-3.142,2.933-6.319,5.543-10.524,6.7-2.849.784-5.938.582-8.848,1.033-4.137.641-8.254,2.98-12.086,4.616-11.415,4.868-22.746,9.943-34.071,15.018q-4.869,2.184-9.734,4.38c-1.937.874-2.54,3.576-3.635,5.3a16.39,16.39,0,0,1-7.559,6.558c-4.669,1.888-12.082-.516-11.275-6.476,1.042-7.72,14.844-7.359,20.616-7.05C209.029,1016.1,209.021,1013.433,207.307,1013.342Z" fill="#575756"/>
  </g>
</svg>
