<svg xmlns="http://www.w3.org/2000/svg" width="338.613" height="117.581" viewBox="0 0 338.613 117.581">
  <g id="Grupo_11967" data-name="Grupo 11967" transform="translate(-945.672 485.371)">
    <g id="Grupo_11940" data-name="Grupo 11940">
      <g id="Grupo_11939" data-name="Grupo 11939">
        <path id="Trazado_39242" data-name="Trazado 39242" d="M1111.229-442.673v-.4c.079-.035.188-.076.328-.123a4.377,4.377,0,0,0,.445-.178q.323-.138.687-.332a11.692,11.692,0,0,0,1.535-.944l1.905-1.561q.481-.376,1.906-1.6l1.185-1.036a2.7,2.7,0,0,1,.254-.2l.594-.525c-.215-.3-.377-.54-.488-.716a2.417,2.417,0,0,0-.136-.227q-.559-1.026-.983-1.737l-1.109-1.823a10.76,10.76,0,0,0-.961-1.575,1.822,1.822,0,0,0-.693-.6,4.607,4.607,0,0,0-1.464-.3,3.48,3.48,0,0,1-.461-.065l-.021-.386h.547l1.782.053a2.763,2.763,0,0,0,.333-.032q1.073.054,1.6.054l1.2-.022c.164,0,.32.006.467.017s.266.015.359.015h.2c.007.108.011.187.011.237v.15a5.512,5.512,0,0,0-2,.268c-.144.071-.215.161-.215.268l.011.1a4.643,4.643,0,0,0,.256.548q.064.106,1.8,3.221.678,1.2.99,1.648.129-.1,2.179-1.917,1.75-1.557,2.383-2.26a5.557,5.557,0,0,0,.725-.9.8.8,0,0,0,.091-.306.351.351,0,0,0-.16-.311,4.493,4.493,0,0,0-1.515-.418v-.075a.96.96,0,0,1,.054-.269l.128-.011h.516l1.084-.01.3.032q.075,0,1.911.075h.461c.05,0,.165,0,.344.011l-.011.419a4.54,4.54,0,0,0-2.264,1.148c-.143.107-.311.229-.5.364q-.14.109-.994.813l-1.241,1.172a6.583,6.583,0,0,0-.525.429q-.545.519-2.717,2.434.76,1.394,1.877,3.248.9,1.512,1.28,2.06l.548.772a5.627,5.627,0,0,0,.687.5c.157.071.315.14.472.2a5.229,5.229,0,0,1,.719.344l.011.118a1.246,1.246,0,0,1-.022.2,9.354,9.354,0,0,1-1.2-.118,12.014,12.014,0,0,0-1.734-.118q-.493,0-2.737.086c-.007-.108-.01-.186-.01-.237s0-.139.01-.247q.312-.042.581-.053a1.986,1.986,0,0,0,1.076-.289.441.441,0,0,0,.236-.376,1.881,1.881,0,0,0-.29-.816q-1.019-1.881-2.166-3.642-.333-.541-.438-.736a34.668,34.668,0,0,0-2.678,2.266,18.784,18.784,0,0,0-2.526,2.577.951.951,0,0,0-.182.5.375.375,0,0,0,.182.28,2.378,2.378,0,0,0,1.057.378c.149.03.287.058.415.086-.022.108-.05.222-.086.344-.093.007-.161.011-.2.011l-.2.01-.182-.01-1.21-.081q-.675-.059-.857-.059l-1.811.107A5.214,5.214,0,0,1,1111.229-442.673Z" fill="#00223d"/>
      </g>
    </g>
    <g id="Grupo_11942" data-name="Grupo 11942">
      <g id="Grupo_11941" data-name="Grupo 11941">
        <path id="Trazado_39243" data-name="Trazado 39243" d="M1163.322-450.08h5.28v-5.3h.945v5.3h5.313v.945h-5.313v5.249h-.945v-5.249h-5.28Z" fill="#00223d"/>
      </g>
    </g>
    <g id="Grupo_11944" data-name="Grupo 11944">
      <g id="Grupo_11943" data-name="Grupo 11943">
        <path id="Trazado_39244" data-name="Trazado 39244" d="M1183.7-403.192l-.355,1.352h-7.663l.06-.29q4.373-4.133,5.854-5.678a13.622,13.622,0,0,0,2.383-3.1,3.821,3.821,0,0,0,.365-1.707,2.269,2.269,0,0,0-.51-1.605,1.874,1.874,0,0,0-1.433-.542,2.832,2.832,0,0,0-1.76.553,5.388,5.388,0,0,0-1.417,2.023h-.58a5.621,5.621,0,0,1,1.685-2.677,3.721,3.721,0,0,1,2.394-.875,3.321,3.321,0,0,1,2.4.837,2.886,2.886,0,0,1,.869,2.178,3.693,3.693,0,0,1-.236,1.364,5.533,5.533,0,0,1-1.052,1.636,44.889,44.889,0,0,1-3.284,3.1l-3.842,3.435Z" fill="#00223d"/>
      </g>
    </g>
    <g id="Grupo_11946" data-name="Grupo 11946">
      <g id="Grupo_11945" data-name="Grupo 11945">
        <path id="Trazado_39245" data-name="Trazado 39245" d="M1135.346-448.137l.236.269a18.286,18.286,0,0,0-3.005,3.3,18.851,18.851,0,0,0-2.458,5.039,18.893,18.893,0,0,0-.912,5.834,17.729,17.729,0,0,0,.869,5.312l-.311.194a15.542,15.542,0,0,1-1.513-6.73,15.849,15.849,0,0,1,1.776-7.271A16.039,16.039,0,0,1,1135.346-448.137Z" fill="#00223d"/>
      </g>
    </g>
    <g id="Grupo_11948" data-name="Grupo 11948">
      <g id="Grupo_11947" data-name="Grupo 11947">
        <path id="Trazado_39246" data-name="Trazado 39246" d="M1146.032-428.237l-.3-.237a17.371,17.371,0,0,0,1.975-1.925,11,11,0,0,0,1-1.284q.053-.1.461-.686a19.53,19.53,0,0,0,1.213-2.265,17.336,17.336,0,0,0,1.234-3.445,19.783,19.783,0,0,0,.537-4.68,14.554,14.554,0,0,0-.166-2.26q-.166-1.057-.671-2.967l.3-.172a16.134,16.134,0,0,1,1.492,6.7,15.822,15.822,0,0,1-.73,4.786,15.425,15.425,0,0,1-2.6,4.944A15.794,15.794,0,0,1,1146.032-428.237Z" fill="#00223d"/>
      </g>
    </g>
    <line id="Línea_189" data-name="Línea 189" x2="145.232" y2="0.119" transform="translate(1108.134 -421.279)" fill="none" stroke="#00223d" stroke-miterlimit="10" stroke-width="1"/>
    <g id="Grupo_11950" data-name="Grupo 11950">
      <g id="Grupo_11949" data-name="Grupo 11949">
        <path id="Trazado_39247" data-name="Trazado 39247" d="M1140.492-428.743l-.167.64H1136.7l.028-.137q2.067-1.953,2.768-2.684a6.448,6.448,0,0,0,1.126-1.467,1.8,1.8,0,0,0,.173-.807,1.074,1.074,0,0,0-.241-.759.889.889,0,0,0-.678-.255,1.334,1.334,0,0,0-.832.261,2.544,2.544,0,0,0-.67.956h-.274a2.652,2.652,0,0,1,.8-1.265,1.754,1.754,0,0,1,1.131-.414,1.574,1.574,0,0,1,1.137.4,1.368,1.368,0,0,1,.411,1.03,1.759,1.759,0,0,1-.111.645,2.632,2.632,0,0,1-.5.774,21.335,21.335,0,0,1-1.553,1.464l-1.816,1.623Z" fill="#00223d"/>
      </g>
    </g>
    <g id="Grupo_11952" data-name="Grupo 11952">
      <g id="Grupo_11951" data-name="Grupo 11951">
        <path id="Trazado_39248" data-name="Trazado 39248" d="M1136.428-444.539a2.578,2.578,0,0,1,.314-.035c.143-.01.254-.022.334-.035a.8.8,0,0,0,.464-.156.418.418,0,0,0,.124-.246l.3-1.4c.052-.251.093-.428.124-.533l.015-.127.241-1.309a2.123,2.123,0,0,1,.082-.365,3.763,3.763,0,0,0,.108-.751l.077-.376.066-.641a.134.134,0,0,0-.066-.127,4.745,4.745,0,0,0-1.019-.2l.046-.163,1.883-.01a.727.727,0,0,1,.092.137q.062.1.278.411l.292.411q.175.285.36.559c.123.183.238.366.344.553q.114.188,1.588,2.5.277.431.385.624.2.364.421.714.064-.314.1-.659.207-.98.241-1.319c.013-.125.029-.243.049-.356.016-.074.037-.21.064-.411l.078-.568c0-.064.043-.357.118-.88a9.2,9.2,0,0,0,.113-1.066.818.818,0,0,0-.047-.227,2.416,2.416,0,0,0-.739-.186c-.138-.024-.246-.044-.326-.061a.659.659,0,0,1-.015-.117V-451l.066-.006c.064,0,.478.02,1.243.057.132.007.222.009.269.009.223,0,.445-.009.665-.03.155-.013.275-.02.36-.02a1.311,1.311,0,0,1-.06.219,5.554,5.554,0,0,0-.9.126.292.292,0,0,0-.143.087,2.056,2.056,0,0,0-.118.466c-.072.393-.12.68-.142.862s-.048.337-.074.462c-.033.172-.054.287-.064.345l-.191,1.386-.343,2.07c-.069.453-.1.719-.108.8h-.122c-.034,0-.086,0-.157-.01-.068-.128-.149-.261-.241-.4l-1.469-2.272c-.066-.1-.122-.189-.17-.273l-.37-.548-1.171-1.82c-.161-.243-.3-.435-.411-.573a1.272,1.272,0,0,0-.092-.145,2.141,2.141,0,0,1-.124-.185q-.025-.035-.072-.111c-.027.1-.063.285-.108.553l-.118.649q-.092.564-.318,1.71l-.118.61-.124.9q-.047.379-.118.7a2.481,2.481,0,0,0-.072.523.2.2,0,0,0,.066.131,2.512,2.512,0,0,0,.329.107,2.013,2.013,0,0,0,.294.06c.024,0,.2.046.542.127l-.046.178c-.08-.017-.221-.035-.423-.056q-.7-.07-.987-.071c-.087,0-.2,0-.332.011-.387.016-.634.025-.741.025-.057,0-.15,0-.277-.006Z" fill="#00223d"/>
      </g>
    </g>
    <line id="Línea_190" data-name="Línea 190" x2="15.421" transform="translate(1132.804 -440.171)" fill="none" stroke="#00223d" stroke-miterlimit="10" stroke-width="1"/>
    <g id="Grupo_11954" data-name="Grupo 11954">
      <g id="Grupo_11953" data-name="Grupo 11953">
        <path id="Trazado_39249" data-name="Trazado 39249" d="M1182.455-442.673v-.4c.079-.035.188-.076.328-.123a4.378,4.378,0,0,0,.445-.178q.322-.138.687-.332a11.7,11.7,0,0,0,1.535-.944l1.905-1.561q.482-.376,1.906-1.6l1.185-1.036a2.676,2.676,0,0,1,.254-.2l.594-.525q-.321-.453-.488-.716a2.443,2.443,0,0,0-.136-.227q-.56-1.026-.983-1.737l-1.109-1.823a10.674,10.674,0,0,0-.962-1.575,1.819,1.819,0,0,0-.692-.6,4.606,4.606,0,0,0-1.464-.3,3.454,3.454,0,0,1-.461-.065l-.021-.386h.547l1.782.053a2.736,2.736,0,0,0,.332-.032q1.074.054,1.6.054l1.2-.022c.164,0,.32.006.467.017s.266.015.359.015h.2c.007.108.011.187.011.237v.15a5.52,5.52,0,0,0-2,.268c-.143.071-.214.161-.214.268l.01.1a4.726,4.726,0,0,0,.257.548q.063.106,1.8,3.221.678,1.2.99,1.648.129-.1,2.179-1.917,1.75-1.557,2.384-2.26a5.647,5.647,0,0,0,.724-.9.8.8,0,0,0,.091-.306.35.35,0,0,0-.161-.311,4.478,4.478,0,0,0-1.514-.418v-.075a.989.989,0,0,1,.053-.269l.129-.011h.515l1.084-.01.3.032q.075,0,1.911.075h.461c.05,0,.165,0,.344.011l-.011.419a4.536,4.536,0,0,0-2.264,1.148c-.143.107-.311.229-.505.364q-.138.109-.992.813l-1.243,1.172a6.535,6.535,0,0,0-.524.429q-.546.519-2.718,2.434.762,1.394,1.877,3.248.9,1.512,1.281,2.06l.548.772a5.627,5.627,0,0,0,.687.5c.157.071.314.14.472.2a5.285,5.285,0,0,1,.719.344l.011.118a1.246,1.246,0,0,1-.022.2,9.353,9.353,0,0,1-1.2-.118,12.014,12.014,0,0,0-1.734-.118q-.494,0-2.737.086c-.007-.108-.011-.186-.011-.237s0-.139.011-.247q.312-.042.581-.053a1.985,1.985,0,0,0,1.076-.289.441.441,0,0,0,.236-.376,1.894,1.894,0,0,0-.29-.816q-1.018-1.881-2.166-3.642-.333-.541-.438-.736a34.648,34.648,0,0,0-2.678,2.266,18.776,18.776,0,0,0-2.526,2.577.951.951,0,0,0-.182.5.375.375,0,0,0,.182.28,2.382,2.382,0,0,0,1.057.378c.149.03.287.058.415.086-.022.108-.05.222-.086.344-.093.007-.161.011-.2.011l-.2.01-.182-.01-1.21-.081q-.675-.059-.858-.059l-1.81.107A5.213,5.213,0,0,1,1182.455-442.673Z" fill="#00223d"/>
      </g>
    </g>
    <g id="Grupo_11956" data-name="Grupo 11956">
      <g id="Grupo_11955" data-name="Grupo 11955">
        <path id="Trazado_39250" data-name="Trazado 39250" d="M1206.572-448.137l.236.269a18.286,18.286,0,0,0-3.005,3.3,18.792,18.792,0,0,0-2.458,5.039,18.9,18.9,0,0,0-.912,5.834,17.733,17.733,0,0,0,.869,5.312l-.311.194a15.544,15.544,0,0,1-1.513-6.73,15.836,15.836,0,0,1,1.776-7.271A16.038,16.038,0,0,1,1206.572-448.137Z" fill="#00223d"/>
      </g>
    </g>
    <g id="Grupo_11958" data-name="Grupo 11958">
      <g id="Grupo_11957" data-name="Grupo 11957">
        <path id="Trazado_39251" data-name="Trazado 39251" d="M1238.936-428.237l-.3-.237a17.371,17.371,0,0,0,1.975-1.925,10.991,10.991,0,0,0,1-1.284q.054-.1.462-.686a19.569,19.569,0,0,0,1.212-2.265,17.4,17.4,0,0,0,1.235-3.445,19.828,19.828,0,0,0,.536-4.68,14.539,14.539,0,0,0-.166-2.26q-.166-1.057-.671-2.967l.3-.172a16.15,16.15,0,0,1,1.492,6.7,15.856,15.856,0,0,1-.73,4.786,15.446,15.446,0,0,1-2.6,4.944A15.8,15.8,0,0,1,1238.936-428.237Z" fill="#00223d"/>
      </g>
    </g>
    <g id="Grupo_11960" data-name="Grupo 11960">
      <g id="Grupo_11959" data-name="Grupo 11959">
        <path id="Trazado_39252" data-name="Trazado 39252" d="M1211.718-428.743l-.167.64h-3.623l.028-.137q2.067-1.953,2.768-2.684a6.441,6.441,0,0,0,1.126-1.467,1.8,1.8,0,0,0,.173-.807,1.074,1.074,0,0,0-.241-.759.889.889,0,0,0-.678-.255,1.334,1.334,0,0,0-.832.261,2.543,2.543,0,0,0-.67.956h-.274a2.652,2.652,0,0,1,.8-1.265,1.754,1.754,0,0,1,1.131-.414,1.574,1.574,0,0,1,1.137.4,1.368,1.368,0,0,1,.411,1.03,1.739,1.739,0,0,1-.112.645,2.6,2.6,0,0,1-.5.774,21.307,21.307,0,0,1-1.553,1.464l-1.816,1.623Z" fill="#00223d"/>
      </g>
    </g>
    <g id="Grupo_11962" data-name="Grupo 11962">
      <g id="Grupo_11961" data-name="Grupo 11961">
        <path id="Trazado_39253" data-name="Trazado 39253" d="M1207.654-444.539a2.572,2.572,0,0,1,.314-.035c.143-.01.254-.022.334-.035a.794.794,0,0,0,.463-.156.42.42,0,0,0,.125-.246l.3-1.4c.051-.251.092-.428.123-.533l.016-.127.241-1.309a2.035,2.035,0,0,1,.082-.365,3.839,3.839,0,0,0,.108-.751l.077-.376.066-.641a.134.134,0,0,0-.066-.127,4.745,4.745,0,0,0-1.019-.2l.046-.163,1.883-.01a.734.734,0,0,1,.092.137c.041.068.134.205.277.411l.293.411q.176.285.36.559c.123.183.238.366.344.553q.113.188,1.588,2.5.278.431.385.624c.133.243.274.481.421.714q.064-.314.1-.659c.137-.653.218-1.093.24-1.319.014-.125.03-.243.05-.356.016-.074.037-.21.064-.411l.078-.568q0-.1.118-.88a9.1,9.1,0,0,0,.112-1.066.809.809,0,0,0-.046-.227,2.413,2.413,0,0,0-.739-.186c-.138-.024-.247-.044-.326-.061a.668.668,0,0,1-.015-.117V-451l.066-.006c.064,0,.478.02,1.243.057.132.007.221.009.269.009.223,0,.445-.009.665-.03.155-.013.275-.02.36-.02a1.215,1.215,0,0,1-.061.219,5.555,5.555,0,0,0-.9.126.292.292,0,0,0-.143.087,2.053,2.053,0,0,0-.118.466c-.072.393-.12.68-.142.862s-.048.337-.074.462c-.033.172-.054.287-.064.345l-.191,1.386-.344,2.07c-.068.453-.1.719-.108.8h-.121c-.034,0-.086,0-.157-.01-.068-.128-.149-.261-.241-.4l-1.47-2.272c-.065-.1-.121-.189-.169-.273l-.37-.548-1.171-1.82c-.161-.243-.3-.435-.411-.573a1.157,1.157,0,0,0-.093-.145c-.034-.045-.075-.107-.123-.185q-.025-.035-.072-.111c-.027.1-.063.285-.108.553l-.118.649q-.093.564-.318,1.71l-.119.61-.123.9q-.047.379-.118.7a2.482,2.482,0,0,0-.072.523.2.2,0,0,0,.066.131,2.5,2.5,0,0,0,.329.107,2.007,2.007,0,0,0,.294.06q.035.006.542.127l-.046.178c-.08-.017-.221-.035-.423-.056q-.7-.07-.987-.071c-.088,0-.2,0-.333.011-.386.016-.633.025-.74.025-.057,0-.15,0-.277-.006Z" fill="#00223d"/>
      </g>
    </g>
    <g id="Grupo_11964" data-name="Grupo 11964">
      <g id="Grupo_11963" data-name="Grupo 11963">
        <path id="Trazado_39254" data-name="Trazado 39254" d="M1223.953-441.608h2.5v-2.507h.446v2.507h2.512v.446H1226.9v2.482h-.446v-2.482h-2.5Z" fill="#00223d"/>
        <path id="Trazado_39255" data-name="Trazado 39255" d="M1233.952-438.167l1.619-5.562a8.086,8.086,0,0,1-1.675.949l-.02-.284a6.709,6.709,0,0,0,2.36-1.67h.335l-1.922,6.567Z" fill="#00223d"/>
      </g>
    </g>
    <line id="Línea_191" data-name="Línea 191" x2="15.421" transform="translate(1204.03 -440.171)" fill="none" stroke="#00223d" stroke-miterlimit="10" stroke-width="1"/>
    <g id="Grupo_11966" data-name="Grupo 11966">
      <g id="Grupo_11965" data-name="Grupo 11965">
        <path id="Trazado_39256" data-name="Trazado 39256" d="M961.373-414.038v-.086a.5.5,0,0,1,.105-.343,3.634,3.634,0,0,0,1.081-.236,1.019,1.019,0,0,0,.424-.242,3.455,3.455,0,0,0,.53-.843,17.807,17.807,0,0,0,.876-2.329l.949-2.768c.134-.451.225-.748.275-.891l1.3-3.6q.264-.826.475-1.363a1.419,1.419,0,0,0,.117-.455.447.447,0,0,0-.257-.439,3.914,3.914,0,0,0-1.084-.211q-.966.031-1.031.032H965l-.107-.441c.256-.014.408-.021.458-.021.206.015.345.021.416.021l.916-.032q.875,0,1.471.054c.156.015.376.025.66.032a.307.307,0,0,1,.075.118,5.063,5.063,0,0,1,.213.923l.316,1.761q.1.386.285,1.459.348,2.028.474,3.081.327,1.535.422,2.3.011.1.242,1.428a7.646,7.646,0,0,0,.148.751q.514-.742.891-1.369t1.295-2.324l2.328-3.972.48-.826q.885-1.641,1.989-3.37.726.033,1.4.032c.058,0,.129,0,.216,0s.187-.006.3-.006l1.255-.033c.05.007.118.015.2.022l-.032.344a5.429,5.429,0,0,1-.8.193,3.429,3.429,0,0,0-.984.3.712.712,0,0,0-.317.4q-.339,2.158-.9,5.249l-.994,5.581-.011.086q-.023.16-.055.633a2.039,2.039,0,0,1-.033.29l-.021.107a.412.412,0,0,0,.032.14,1.75,1.75,0,0,0,.375.226,7.568,7.568,0,0,0,1.125.2c.264.036.461.068.589.1v.1a.565.565,0,0,1-.055.215c-.319.015-.549.021-.69.021q-.532,0-1.256-.07a13.033,13.033,0,0,0-1.356-.059q-.721,0-1.7.043c-.23.007-.378.011-.445.011-.1,0-.233-.007-.389-.021a.545.545,0,0,1-.044-.172.652.652,0,0,1,.075-.247c.186-.014.322-.022.409-.022a3.551,3.551,0,0,0,1.344-.234.653.653,0,0,0,.247-.267,6.264,6.264,0,0,0,.323-1.42l.5-2.533.568-2.919q.145-.816.254-1.61.17-.784.272-1.476c.068-.462.127-.806.176-1.036q.084-.483.108-.751-1.839,3.191-2.307,3.889-.108.171-1.436,2.471l-.468.913a5.149,5.149,0,0,0-.37.558q-1.862,3.255-2.655,4.781-.184.342-.327.58h-.4q0-.539-.042-1-.1-1.161-.2-1.891-.021-.129-.284-1.536l-.622-3.471a7.714,7.714,0,0,1-.116-.8,4.974,4.974,0,0,0-.116-.7q-.138-.6-.359-1.881l-.263-1.4a2.218,2.218,0,0,0-.137.387l-1.118,3.252-.685,2.083q-.306.782-.743,2.339t-.807,2.565a1.488,1.488,0,0,0-.1.462.436.436,0,0,0,.14.327,2.388,2.388,0,0,0,.739.338c.172.029.311.053.418.075a5.759,5.759,0,0,1,.825.1.225.225,0,0,1,.128.107,1.115,1.115,0,0,1-.053.355l-.745-.033-.479-.021c-.042,0-.1,0-.181.011a17.17,17.17,0,0,0-1.947-.108Z" fill="#00223d"/>
        <path id="Trazado_39257" data-name="Trazado 39257" d="M982.613-417.934a5.727,5.727,0,0,0-.354,1.969,1.843,1.843,0,0,0,.344,1.167.725.725,0,0,0,.612.3.885.885,0,0,0,.418-.1,2.8,2.8,0,0,0,.682-.481,5.078,5.078,0,0,0,.6-.726,4.166,4.166,0,0,0,.5-1.005h.15a2.455,2.455,0,0,1,.29.021,5.068,5.068,0,0,1-1.588,2.354,2.449,2.449,0,0,1-1.643.717,1.185,1.185,0,0,1-.966-.516,2.973,2.973,0,0,1-.526-1.867,5.965,5.965,0,0,1,.156-1.235,6.926,6.926,0,0,1,.36-1.2,11.815,11.815,0,0,1,.719-1.417l.826-1.2q.805-.858.9-.944a2.984,2.984,0,0,1,.757-.488,1.927,1.927,0,0,1,.788-.167,1.207,1.207,0,0,1,.923.441,1.593,1.593,0,0,1,.4,1.108,2.458,2.458,0,0,1-.306,1.167,2.531,2.531,0,0,1-.66.844l-.891.581a7.147,7.147,0,0,1-.8.275Q983.643-418.139,982.613-417.934Zm.183-.547a3.14,3.14,0,0,0,1.073-.269,5.557,5.557,0,0,0,1.052-.59,2.872,2.872,0,0,0,.591-.585,3.216,3.216,0,0,0,.5-.859,2.536,2.536,0,0,0,.172-.917.739.739,0,0,0-.183-.515.538.538,0,0,0-.408-.2,1.153,1.153,0,0,0-.686.333,6.98,6.98,0,0,0-1.4,1.942A8.969,8.969,0,0,0,982.8-418.481Z" fill="#00223d"/>
        <path id="Trazado_39258" data-name="Trazado 39258" d="M994.227-421.691l1.159-3.7q.075-.235.215-.774a1.317,1.317,0,0,1,.043-.171,4.165,4.165,0,0,0,.225-.9.338.338,0,0,0-.139-.256,2.66,2.66,0,0,0-.977-.384l-.225-.063.085-.312a7.6,7.6,0,0,0,2.426-.247l.129-.01a1,1,0,0,1,.279.043c-.05.214-.086.361-.107.44l-.011.064-.89,2.663-1.073,3.434q-.29.881-.386,1.3a11.4,11.4,0,0,1-.321,1.159l-1.523,4.562.032.064q.385-.064,1.972-1.814a.607.607,0,0,1,.257.193,8.613,8.613,0,0,1-2,2.168,2.416,2.416,0,0,1-1.191.591.948.948,0,0,1-.236-.043.322.322,0,0,1-.064-.172,7.045,7.045,0,0,1,.364-1.492q.366-1.169.505-1.7-.281.267-.82.89a11.082,11.082,0,0,1-2.17,1.964,2.72,2.72,0,0,1-1.484.559.657.657,0,0,1-.571-.3,2.191,2.191,0,0,1-.332-1.3,5.57,5.57,0,0,1,.46-2.147,13.288,13.288,0,0,1,.9-1.739,9.616,9.616,0,0,1,1.411-1.851,5.732,5.732,0,0,1,1.485-1.138,2.938,2.938,0,0,1,1.28-.349,1.477,1.477,0,0,1,.8.215A1.726,1.726,0,0,1,994.227-421.691Zm-4.75,6.956a1.74,1.74,0,0,0,.965-.4,8.807,8.807,0,0,0,1.892-1.938,7.881,7.881,0,0,0,1.245-2.409,8.632,8.632,0,0,0,.358-1.428,1.01,1.01,0,0,0-.259-.655.693.693,0,0,0-.477-.311,2.126,2.126,0,0,0-.929.279,4.138,4.138,0,0,0-1.146.956,11.08,11.08,0,0,0-1.047,1.566,15.188,15.188,0,0,0-1.048,2.051,3.924,3.924,0,0,0-.342,1.319,1.046,1.046,0,0,0,.223.709A.714.714,0,0,0,989.477-414.735Z" fill="#00223d"/>
        <path id="Trazado_39259" data-name="Trazado 39259" d="M999.3-421.948a1.276,1.276,0,0,0-.333.032,4.765,4.765,0,0,0-.741.461,6.185,6.185,0,0,0-.912.881l-.622.139a6.8,6.8,0,0,1,1.836-1.749,3.355,3.355,0,0,1,1.59-.634.5.5,0,0,1,.37.124.43.43,0,0,1,.123.317,4.79,4.79,0,0,1-.6,1.751c-.05.1-.168.357-.354.772q-.645,1.406-1.375,2.661c-.158.273-.33.594-.516.966q-.15.3-.269.5a1.918,1.918,0,0,0-.332.827.182.182,0,0,0,.059.134.2.2,0,0,0,.145.059.888.888,0,0,0,.359-.129,5.255,5.255,0,0,0,.963-.713,5.868,5.868,0,0,0,.985-1.144h.473a8.877,8.877,0,0,1-.96,1.331,5.2,5.2,0,0,1-1.442,1.2,2.246,2.246,0,0,1-1.078.344.793.793,0,0,1-.527-.146.473.473,0,0,1-.168-.38,8.719,8.719,0,0,1,1.212-3.113l1.728-3.262a7.175,7.175,0,0,0,.376-.795.922.922,0,0,0,.064-.246A.641.641,0,0,0,999.3-421.948Zm.611-4.819a.934.934,0,0,1,.29-.671.92.92,0,0,1,.677-.3.85.85,0,0,1,.622.257.813.813,0,0,1,.258.591,1.141,1.141,0,0,1-.322.783.959.959,0,0,1-.709.2.784.784,0,0,1-.579-.236A.854.854,0,0,1,999.915-426.767Z" fill="#00223d"/>
        <path id="Trazado_39260" data-name="Trazado 39260" d="M1008.685-421.84a1.464,1.464,0,0,0,.139-.29,1,1,0,0,1,.258-.419q.3-.033.441-.033a.882.882,0,0,1,.355.076l.032.13a.569.569,0,0,1-.054.193c-.021.043-.068.179-.139.407l-.086.215-.709,1.921q-.452,1.3-.789,2.071a14.956,14.956,0,0,0-.586,1.572,5.729,5.729,0,0,1-.451,1.144l-.043.1c0,.042.038.1.113.166a3.815,3.815,0,0,0,.764-.58q.805-.805.955-1c.074-.092.145-.178.212-.257a2.235,2.235,0,0,1,.221.225,10.542,10.542,0,0,1-.967,1.138,5.349,5.349,0,0,1-1.224,1.019,1.682,1.682,0,0,1-.792.226.521.521,0,0,1-.355-.1.351.351,0,0,1-.118-.274,2.658,2.658,0,0,1,.107-.555q.269-.708.376-.934c.071-.151.168-.383.289-.7q.108-.291.441-1.009a5.981,5.981,0,0,0-.519.6,15.673,15.673,0,0,1-2.053,2.073,7.623,7.623,0,0,1-1.28.718,3.369,3.369,0,0,1-.883.183,1.533,1.533,0,0,1-.574-.086,1.056,1.056,0,0,1-.43-.44,1.533,1.533,0,0,1-.122-.7,4.489,4.489,0,0,1,.307-1.524,8.079,8.079,0,0,1,1.064-2.114,10.451,10.451,0,0,1,1.827-1.889,7.78,7.78,0,0,1,1.662-1.021,4.507,4.507,0,0,1,1.733-.428,2.366,2.366,0,0,1,.461.043A1.941,1.941,0,0,1,1008.685-421.84Zm-5.24,7.041a1.715,1.715,0,0,0,.465-.183q.122-.064.863-.591,1.352-1.32,1.528-1.512a9.628,9.628,0,0,0,.875-1.149,11.547,11.547,0,0,0,.564-1.01l.279-.74a6.614,6.614,0,0,0,.15-.751.827.827,0,0,0-.249-.569.757.757,0,0,0-.542-.161,1.806,1.806,0,0,0-.74.139,5.48,5.48,0,0,0-1.271.816,9.018,9.018,0,0,0-1.493,1.734,10.727,10.727,0,0,0-1.017,1.766,4.279,4.279,0,0,0-.408,1.459.891.891,0,0,0,.166.591.53.53,0,0,0,.42.193C1003.094-414.767,1003.231-414.778,1003.445-414.8Z" fill="#00223d"/>
        <path id="Trazado_39261" data-name="Trazado 39261" d="M1013.2-421.508a.223.223,0,0,0-.059-.118.132.132,0,0,0-.091-.033q-.558,0-1.739,1.761c-.079.007-.136.011-.171.011s-.115,0-.215-.011a8.169,8.169,0,0,1,.734-1.138,6.048,6.048,0,0,1,1.084-1.143,5.045,5.045,0,0,1,1.088-.682.782.782,0,0,1,.311-.074,1.527,1.527,0,0,1,.161.011.559.559,0,0,1,.193.4,1.256,1.256,0,0,1-.027.258c-.018.086-.056.219-.112.4-.215.616-.372,1.048-.472,1.3l-.611,1.589q-.215.547-.419,1.159c.057-.071.108-.139.151-.2a31.343,31.343,0,0,1,2.153-2.8,9.013,9.013,0,0,1,1.907-1.787,1.953,1.953,0,0,1,1.02-.332.783.783,0,0,1,.569.2.683.683,0,0,1,.2.511,1.615,1.615,0,0,1-.043.376,8.043,8.043,0,0,1-.333,1.138q-.258.729-1.353,3.165l-1.075,2.479-.043.14a.438.438,0,0,0,.076.193q.6-.129,1.8-1.911l.44.011a11.63,11.63,0,0,1-1.095,1.546,4.822,4.822,0,0,1-1.267,1.116,1.538,1.538,0,0,1-.8.226.59.59,0,0,1-.386-.108.307.307,0,0,1-.129-.236,4.865,4.865,0,0,1,.548-1.76l1.556-3.4.6-1.427a4.831,4.831,0,0,0,.247-.655,1.615,1.615,0,0,0,.043-.364.312.312,0,0,0-.075-.221.254.254,0,0,0-.194-.08.791.791,0,0,0-.4.139,7.288,7.288,0,0,0-1.75,1.621,26.2,26.2,0,0,0-1.826,2.372,29.524,29.524,0,0,0-1.962,3.638,1.09,1.09,0,0,1-.311.441,2.726,2.726,0,0,1-.344.032,2.715,2.715,0,0,1-.429-.054.33.33,0,0,1-.043-.139,1.616,1.616,0,0,1,.107-.387q.237-.7,1.159-2.941l.247-.58Z" fill="#00223d"/>
        <path id="Trazado_39262" data-name="Trazado 39262" d="M1027.006-421.84a1.477,1.477,0,0,0,.14-.29,1,1,0,0,1,.258-.419c.2-.022.347-.033.44-.033a.879.879,0,0,1,.355.076l.033.13a.57.57,0,0,1-.054.193,4.275,4.275,0,0,0-.14.407l-.086.215-.709,1.921q-.45,1.3-.789,2.071a14.735,14.735,0,0,0-.585,1.572,5.793,5.793,0,0,1-.451,1.144l-.043.1c0,.042.038.1.113.166a3.844,3.844,0,0,0,.764-.58q.8-.805.955-1c.074-.092.144-.178.211-.257a2.129,2.129,0,0,1,.221.225,10.626,10.626,0,0,1-.966,1.138,5.329,5.329,0,0,1-1.225,1.019,1.682,1.682,0,0,1-.792.226.523.523,0,0,1-.355-.1.354.354,0,0,1-.118-.274,2.683,2.683,0,0,1,.108-.555c.178-.472.3-.784.375-.934s.168-.383.29-.7q.108-.291.44-1.009a5.988,5.988,0,0,0-.519.6,15.723,15.723,0,0,1-2.052,2.073,7.649,7.649,0,0,1-1.281.718,3.361,3.361,0,0,1-.882.183,1.524,1.524,0,0,1-.574-.086,1.058,1.058,0,0,1-.431-.44,1.535,1.535,0,0,1-.121-.7,4.464,4.464,0,0,1,.307-1.524,8.08,8.08,0,0,1,1.064-2.114,10.384,10.384,0,0,1,1.827-1.889,7.8,7.8,0,0,1,1.661-1.021,4.515,4.515,0,0,1,1.734-.428,2.355,2.355,0,0,1,.46.043A1.923,1.923,0,0,1,1027.006-421.84Zm-5.239,7.041a1.7,1.7,0,0,0,.464-.183q.121-.064.864-.591,1.35-1.32,1.528-1.512a9.636,9.636,0,0,0,.874-1.149,11.117,11.117,0,0,0,.565-1.01l.279-.74a6.6,6.6,0,0,0,.15-.751.824.824,0,0,0-.25-.569.754.754,0,0,0-.541-.161,1.808,1.808,0,0,0-.741.139,5.5,5.5,0,0,0-1.271.816,9.015,9.015,0,0,0-1.492,1.734,10.722,10.722,0,0,0-1.017,1.766,4.262,4.262,0,0,0-.409,1.459.891.891,0,0,0,.166.591.534.534,0,0,0,.421.193C1021.416-414.767,1021.552-414.778,1021.767-414.8Z" fill="#00223d"/>
        <path id="Trazado_39263" data-name="Trazado 39263" d="M1035.486-423.859h11.495v.945h-11.495Zm0,4.97h11.495v.955h-11.495Z" fill="#00223d"/>
        <path id="Trazado_39264" data-name="Trazado 39264" d="M1052.723-414.038v-.086a.5.5,0,0,1,.106-.343,3.641,3.641,0,0,0,1.081-.236,1.011,1.011,0,0,0,.423-.242,3.425,3.425,0,0,0,.53-.843,17.791,17.791,0,0,0,.877-2.329l.949-2.768q.2-.676.274-.891l1.3-3.6q.264-.826.475-1.363a1.4,1.4,0,0,0,.118-.455.446.446,0,0,0-.258-.439,3.9,3.9,0,0,0-1.084-.211q-.966.031-1.03.032h-.129l-.107-.441c.255-.014.408-.021.458-.021.206.015.344.021.415.021l.917-.032q.873,0,1.47.054c.156.015.377.025.661.032a.306.306,0,0,1,.074.118,4.985,4.985,0,0,1,.213.923l.317,1.761q.1.386.284,1.459.348,2.028.475,3.081.327,1.535.421,2.3c.008.064.088.54.243,1.428a7.067,7.067,0,0,0,.148.751q.513-.742.89-1.369t1.3-2.324l2.328-3.972.481-.826q.885-1.641,1.989-3.37.725.033,1.4.032c.058,0,.13,0,.217,0s.187-.006.3-.006l1.255-.033c.05.007.119.015.206.022l-.033.344a5.382,5.382,0,0,1-.8.193,3.405,3.405,0,0,0-.984.3.708.708,0,0,0-.317.4q-.339,2.158-.9,5.249l-.995,5.581-.011.086c-.014.107-.033.318-.054.633a2.384,2.384,0,0,1-.033.29l-.022.107a.417.417,0,0,0,.033.14,1.729,1.729,0,0,0,.375.226,7.572,7.572,0,0,0,1.125.2q.4.054.589.1v.1a.57.57,0,0,1-.056.215c-.318.015-.548.021-.689.021q-.534,0-1.256-.07a13.031,13.031,0,0,0-1.356-.059q-.723,0-1.7.043c-.229.007-.378.011-.444.011-.1,0-.234-.007-.389-.021a.555.555,0,0,1-.045-.172.64.64,0,0,1,.076-.247c.186-.014.322-.022.408-.022a3.543,3.543,0,0,0,1.344-.234.647.647,0,0,0,.248-.267,6.318,6.318,0,0,0,.323-1.42l.495-2.533.569-2.919q.144-.816.254-1.61.168-.784.272-1.476c.068-.462.127-.806.175-1.036q.086-.483.109-.751-1.839,3.191-2.307,3.889-.109.171-1.436,2.471l-.468.913a5.009,5.009,0,0,0-.37.558q-1.862,3.255-2.656,4.781-.185.342-.326.58h-.4q0-.539-.042-1-.094-1.161-.2-1.891-.021-.129-.285-1.536l-.622-3.471a7.979,7.979,0,0,1-.116-.8,4.827,4.827,0,0,0-.116-.7q-.136-.6-.358-1.881l-.264-1.4a2.3,2.3,0,0,0-.137.387l-1.117,3.252-.685,2.083q-.306.782-.744,2.339t-.806,2.565a1.459,1.459,0,0,0-.1.462.438.438,0,0,0,.139.327,2.41,2.41,0,0,0,.74.338c.171.029.311.053.417.075a5.718,5.718,0,0,1,.825.1.229.229,0,0,1,.129.107,1.143,1.143,0,0,1-.053.355l-.745-.033-.479-.021c-.043,0-.1,0-.181.011a17.182,17.182,0,0,0-1.947-.108Z" fill="#00223d"/>
        <path id="Trazado_39265" data-name="Trazado 39265" d="M1073.964-417.934a5.727,5.727,0,0,0-.354,1.969,1.843,1.843,0,0,0,.343,1.167.728.728,0,0,0,.612.3.886.886,0,0,0,.419-.1,2.777,2.777,0,0,0,.681-.481,5.017,5.017,0,0,0,.6-.726,4.169,4.169,0,0,0,.505-1.005h.15a2.472,2.472,0,0,1,.29.021,5.071,5.071,0,0,1-1.589,2.354,2.446,2.446,0,0,1-1.642.717,1.185,1.185,0,0,1-.966-.516,2.966,2.966,0,0,1-.526-1.867,5.965,5.965,0,0,1,.156-1.235,6.837,6.837,0,0,1,.359-1.2,12.11,12.11,0,0,1,.719-1.417l.827-1.2q.806-.858.9-.944a3.021,3.021,0,0,1,.757-.488,1.935,1.935,0,0,1,.789-.167,1.209,1.209,0,0,1,.923.441,1.592,1.592,0,0,1,.4,1.108,2.458,2.458,0,0,1-.306,1.167,2.529,2.529,0,0,1-.66.844l-.891.581a6.984,6.984,0,0,1-.8.275Q1074.995-418.139,1073.964-417.934Zm.183-.547a3.15,3.15,0,0,0,1.073-.269,5.585,5.585,0,0,0,1.052-.59,2.872,2.872,0,0,0,.59-.585,3.22,3.22,0,0,0,.5-.859,2.535,2.535,0,0,0,.171-.917.739.739,0,0,0-.182-.515.54.54,0,0,0-.408-.2,1.158,1.158,0,0,0-.687.333,6.963,6.963,0,0,0-1.4,1.942A8.973,8.973,0,0,0,1074.147-418.481Z" fill="#00223d"/>
        <path id="Trazado_39266" data-name="Trazado 39266" d="M1085.621-423.859h11.495v.945h-11.495Zm0,4.97h11.495v.955h-11.495Z" fill="#00223d"/>
      </g>
    </g>
    <rect id="Rectángulo_3883" data-name="Rectángulo 3883" width="335.613" height="114.581" transform="translate(947.172 -483.871)" fill="none" stroke="#adcbf7" stroke-miterlimit="10" stroke-width="3"/>
  </g>
</svg>
