<svg xmlns="http://www.w3.org/2000/svg" width="72.978" height="102.36" viewBox="0 0 72.978 102.36">
  <g id="Grupo_17847" data-name="Grupo 17847" transform="translate(-1271.882 -1934.099)">
    <g id="Grupo_16825" data-name="Grupo 16825" transform="translate(389.017 835.881)">
      <path id="Trazado_45068" data-name="Trazado 45068" d="M949.087,1195.214c-2.981-4.436-7.854-14.1-14.363-13.831-2.594.108-3.993,1.6-6.705.292-5.219-2.517-9.158-9.627-12.427-14.138-6.922-9.548-13.2-19.575-19.336-29.641-5.181-8.5-16.114-23.21-7.979-32.851,9.845-11.665,21.241,4.114,26.4,11.757,7.411,10.975,13.915,22.67,20.49,34.158q3.481,6.081,6.819,12.24c2.386,4.409,3.871,7.446,1.908,12.166-.968,2.325-.182,4.121.818,6.307a77.107,77.107,0,0,0,4.705,8.337q.988,1.572,2.013,3.123c1.61,2.469-.621,4.262-2.553,1.81-1.066-1.351-2.94.552-1.889,1.889,1.6,2.034,5.009,5.444,7.7,2.753,2.877-2.877-.336-6.856-1.949-9.329a100.714,100.714,0,0,1-5.719-9.931c-1.457-2.9-.49-3.6.4-6.168,1.528-4.412-1.093-8.518-3.127-12.3-7.108-13.244-14.838-26.168-22.637-39.013-5.391-8.878-12.656-22.964-24.245-24.516-9.2-1.23-15.2,8.661-14.488,16.584.533,5.921,3.65,11.646,6.485,16.732,3.835,6.876,8.141,13.533,12.372,20.17,4.007,6.284,8.167,12.469,12.541,18.5,3.2,4.412,6.7,10.1,11.368,13.047a8.32,8.32,0,0,0,7.712,1.081c5.82-1.9,10.788,8.26,13.382,12.12C947.737,1197.983,950.051,1196.647,949.087,1195.214Z" fill="#575756"/>
    </g>
    <g id="Grupo_16826" data-name="Grupo 16826" transform="translate(389.017 835.881)">
      <path id="Trazado_45069" data-name="Trazado 45069" d="M896.46,1125.092c-.511-2.579,5.861-5.66,7.671-6.385,2.668-1.07,3.287.96,4.437,2.755q4.592,7.172,9.148,14.363c6.311,9.947,13.174,19.81,18.633,30.263,2.427,4.645-5.752,9.521-9.187,6.244a37.07,37.07,0,0,1-4.087-5.068c-3.744-5.123-7.176-10.481-10.592-15.825-5.495-8.6-11.748-17.346-16.128-26.6-.576-1.217-2.378-.157-1.8,1.054,5.878,12.416,14.4,24.217,22,35.61,2.889,4.33,5.888,9.889,10.1,13.123,5,3.844,14.448-3.288,11.736-9.112-2.533-5.438-6.163-10.516-9.326-15.593q-7.176-11.52-14.5-22.951c-1.652-2.593-4.656-10.165-8.166-10.719-3.854-.607-12.843,4.907-11.953,9.393C894.707,1126.968,896.72,1126.408,896.46,1125.092Z" fill="#575756"/>
    </g>
    <g id="Grupo_16827" data-name="Grupo 16827" transform="translate(389.017 835.881)">
      <path id="Trazado_45070" data-name="Trazado 45070" d="M906.874,1125.745a13.242,13.242,0,0,0,4.447-2.545c.648-.622-.339-1.606-.986-.984a11.436,11.436,0,0,1-3.831,2.187c-.824.33-.465,1.677.37,1.342Z" fill="#575756"/>
    </g>
    <g id="Grupo_16828" data-name="Grupo 16828" transform="translate(389.017 835.881)">
      <path id="Trazado_45071" data-name="Trazado 45071" d="M911.912,1131.184a5.775,5.775,0,0,1,2.057-1.3c.841-.3.478-1.645-.37-1.342a7.415,7.415,0,0,0-2.673,1.658c-.647.624.34,1.608.986.984Z" fill="#575756"/>
    </g>
    <g id="Grupo_16829" data-name="Grupo 16829" transform="translate(389.017 835.881)">
      <path id="Trazado_45072" data-name="Trazado 45072" d="M915.023,1136.911c.777-.512,1.589-.967,2.365-1.478.747-.493.05-1.7-.7-1.2-.776.512-1.587.967-2.365,1.478-.747.492-.05,1.7.7,1.2Z" fill="#575756"/>
    </g>
    <g id="Grupo_16830" data-name="Grupo 16830" transform="translate(389.017 835.881)">
      <path id="Trazado_45073" data-name="Trazado 45073" d="M919.163,1143.711a18.946,18.946,0,0,0,2.8-2.179c.641-.629-.344-1.614-.986-.984a17.057,17.057,0,0,1-2.519,1.961c-.744.495-.048,1.7.7,1.2Z" fill="#575756"/>
    </g>
    <g id="Grupo_16831" data-name="Grupo 16831" transform="translate(389.017 835.881)">
      <path id="Trazado_45074" data-name="Trazado 45074" d="M923.553,1149.67a7.513,7.513,0,0,1,2.114-1.819c.742-.5.046-1.7-.7-1.2a9.313,9.313,0,0,0-2.615,2.321c-.516.738.692,1.433,1.2.7Z" fill="#575756"/>
    </g>
    <g id="Grupo_16832" data-name="Grupo 16832" transform="translate(389.017 835.881)">
      <path id="Trazado_45075" data-name="Trazado 45075" d="M926.849,1154.948c1-.672,1.96-1.4,2.957-2.07.742-.5.045-1.706-.7-1.2-1,.672-1.958,1.4-2.956,2.07-.742.5-.045,1.706.7,1.2Z" fill="#575756"/>
    </g>
    <g id="Grupo_16833" data-name="Grupo 16833" transform="translate(389.017 835.881)">
      <path id="Trazado_45076" data-name="Trazado 45076" d="M930.527,1161.522a10.546,10.546,0,0,0,3.123-1.55c.744-.495.047-1.7-.7-1.2a9.56,9.56,0,0,1-2.79,1.409.7.7,0,0,0,.369,1.342Z" fill="#575756"/>
    </g>
    <g id="Grupo_16834" data-name="Grupo 16834" transform="translate(389.017 835.881)">
      <path id="Trazado_45077" data-name="Trazado 45077" d="M934.679,1167.552a16.074,16.074,0,0,0,2.178-2.211c.516-.737-.692-1.433-1.2-.7a14.6,14.6,0,0,1-1.96,1.929c-.645.627.341,1.611.986.984Z" fill="#575756"/>
    </g>
    <g id="Grupo_16835" data-name="Grupo 16835" transform="translate(389.017 835.881)">
      <path id="Trazado_45078" data-name="Trazado 45078" d="M898.169,1130.406a24.618,24.618,0,0,0,2.365-1.479c.744-.494.048-1.7-.7-1.2a25.65,25.65,0,0,1-2.364,1.478c-.8.413-.093,1.615.7,1.2Z" fill="#575756"/>
    </g>
    <g id="Grupo_16836" data-name="Grupo 16836" transform="translate(389.017 835.881)">
      <path id="Trazado_45079" data-name="Trazado 45079" d="M901.661,1137.3a3.781,3.781,0,0,0,2.268-1.386.7.7,0,0,0-.986-.985c-.323.324-.788.935-1.282.979-.887.078-.894,1.471,0,1.392Z" fill="#575756"/>
    </g>
    <g id="Grupo_16837" data-name="Grupo 16837" transform="translate(389.017 835.881)">
      <path id="Trazado_45080" data-name="Trazado 45080" d="M907.477,1144.488a5.418,5.418,0,0,1,2.057-1c.847-.282.485-1.627-.37-1.342a6.958,6.958,0,0,0-2.673,1.361c-.658.614.328,1.6.986.984Z" fill="#575756"/>
    </g>
    <g id="Grupo_16838" data-name="Grupo 16838" transform="translate(389.017 835.881)">
      <path id="Trazado_45081" data-name="Trazado 45081" d="M912.658,1154.059a9.383,9.383,0,0,0,2.211-1.587c.646-.625-.339-1.609-.986-.984a8.121,8.121,0,0,1-1.928,1.369c-.8.412-.1,1.614.7,1.2Z" fill="#575756"/>
    </g>
    <g id="Grupo_16839" data-name="Grupo 16839" transform="translate(389.017 835.881)">
      <path id="Trazado_45082" data-name="Trazado 45082" d="M917.518,1161.522a5.569,5.569,0,0,0,2.781-2.094c.517-.738-.691-1.433-1.2-.7a3.977,3.977,0,0,1-1.95,1.455c-.841.3-.478,1.642.371,1.342Z" fill="#575756"/>
    </g>
    <g id="Grupo_16840" data-name="Grupo 16840" transform="translate(389.017 835.881)">
      <path id="Trazado_45083" data-name="Trazado 45083" d="M923.147,1169.621a5.785,5.785,0,0,1,2.058-1.3c.84-.3.479-1.646-.37-1.342a7.4,7.4,0,0,0-2.672,1.657c-.649.625.337,1.609.984.984Z" fill="#575756"/>
    </g>
    <g id="Grupo_16841" data-name="Grupo 16841" transform="translate(389.017 835.881)">
      <path id="Trazado_45084" data-name="Trazado 45084" d="M908.2,1135.209l25.623,38.04c.956,1.421,3.27.085,2.306-1.347q-12.81-19.02-25.622-38.04c-.956-1.42-3.27-.084-2.307,1.347Z" fill="#575756"/>
    </g>
    <g id="Grupo_16842" data-name="Grupo 16842" transform="translate(389.017 835.881)">
      <path id="Trazado_45085" data-name="Trazado 45085" d="M944.766,1191.025a39.857,39.857,0,0,0,4.055-3.416c.96-.948-.518-2.424-1.477-1.478a35.661,35.661,0,0,1-3.633,3.089c-1.06.8-.022,2.617,1.055,1.805Z" fill="#575756"/>
    </g>
    <g id="Grupo_16843" data-name="Grupo 16843" transform="translate(389.017 835.881)">
      <path id="Trazado_45086" data-name="Trazado 45086" d="M889.834,1108.221s-.073.168-.224.436a1.852,1.852,0,0,0-.127.453c-.035.145-.029.378-.066.559.019.227,0,.428.027.68.011.239.035.491.069.763.054.531.138,1.117.219,1.713a23.573,23.573,0,0,1,.26,3.443,8.3,8.3,0,0,1-.158,1.709,6.9,6.9,0,0,1-1.022-1.391,9.336,9.336,0,0,1-1.19-3.488,9.549,9.549,0,0,1-.071-1.03,6.648,6.648,0,0,1,.08-1.029,4.674,4.674,0,0,1,.24-.967,4.129,4.129,0,0,1,.409-.829,3,3,0,0,1,.545-.606,1.729,1.729,0,0,1,.53-.316C889.653,1108.247,889.834,1108.221,889.834,1108.221Z" fill="#575756"/>
    </g>
    <g id="Grupo_16844" data-name="Grupo 16844" transform="translate(389.017 835.881)">
      <path id="Trazado_45087" data-name="Trazado 45087" d="M890.721,1121.526a2.543,2.543,0,0,1,.744.086,1.353,1.353,0,0,1,.864.619,1.132,1.132,0,0,1,.12.95,3.353,3.353,0,0,1-.25.71,1.971,1.971,0,0,1-.748-.005,1.509,1.509,0,0,1-.983-.623,1.353,1.353,0,0,1-.067-1.06A2.523,2.523,0,0,1,890.721,1121.526Z" fill="#575756"/>
    </g>
    <g id="Grupo_16845" data-name="Grupo 16845" transform="translate(389.017 835.881)">
      <path id="Trazado_45088" data-name="Trazado 45088" d="M943.351,1147.249s.338.273.884.782a22.109,22.109,0,0,1,2.1,2.292c.416.492.82,1.056,1.241,1.661.406.611.85,1.253,1.245,1.954s.8,1.43,1.152,2.2c.383.756.676,1.573,1,2.37.266.827.572,1.637.758,2.477a19.957,19.957,0,0,1,.675,4.83,13.309,13.309,0,0,1-.116,2.124,9.26,9.26,0,0,1-.331,1.762,7.313,7.313,0,0,1-.424,1.307c-.3.7-.5,1.077-.5,1.077s-.031-.443-.035-1.174c.019-.361-.051-.809-.08-1.306s-.114-1.054-.2-1.653c-.059-.6-.238-1.242-.341-1.918-.151-.673-.334-1.376-.525-2.1s-.415-1.468-.666-2.219c-.225-.757-.52-1.51-.776-2.272-.294-.753-.558-1.516-.867-2.254-.29-.744-.6-1.47-.889-2.177-.584-1.419-1.168-2.736-1.661-3.881s-.916-2.115-1.207-2.789S943.351,1147.249,943.351,1147.249Z" fill="#575756"/>
    </g>
    <g id="Grupo_16846" data-name="Grupo 16846" transform="translate(389.017 835.881)">
      <path id="Trazado_45089" data-name="Trazado 45089" d="M938.326,1140.745a2.537,2.537,0,0,1,.291-.1,3.248,3.248,0,0,1,.642-.12,1.213,1.213,0,0,1,.725.13,2.071,2.071,0,0,1,.646.494,1.714,1.714,0,0,1,.327,1.329,3.61,3.61,0,0,1-.154.637c-.057.172-.111.292-.111.292a2.651,2.651,0,0,1-.306.053,2.979,2.979,0,0,1-.658,0,1.776,1.776,0,0,1-1.2-.592,1.015,1.015,0,0,1-.216-.49c-.018-.192-.063-.436-.084-.676a3.384,3.384,0,0,1,.037-.656A2.45,2.45,0,0,1,938.326,1140.745Z" fill="#575756"/>
    </g>
  </g>
</svg>
